<?xml version="1.0" encoding="utf-8"?>
<!-- Generator: Adobe Illustrator 22.1.0, SVG Export Plug-In . SVG Version: 6.00 Build 0)  -->
<svg version="1.1" id="Layer_1" xmlns="http://www.w3.org/2000/svg" xmlns:xlink="http://www.w3.org/1999/xlink" x="0px" y="0px"
	 viewBox="0 0 4000 4000" style="enable-background:new 0 0 4000 4000;" xml:space="preserve">
<style type="text/css">
	.st0{display:none;}
	.st1{display:inline;}
	.st2{fill:#9D91FF;}
	.st3{fill:#FFDA22;}
	.st4{opacity:0.35;}
	.st5{fill:#371A45;}
	.st6{opacity:0.5;}
	.st7{fill:#FFFFFF;}
	.st8{fill:#95EBF9;}
	.st9{opacity:0.7;}
	.st10{fill:#54C6D1;}
	.st11{fill:#4BC5D1;}
	.st12{clip-path:url(#SVGID_2_);}
	.st13{opacity:0.4;}
	.st14{opacity:0.3;}
	.st15{fill:#22A7F0;}
	.st16{fill:#293856;}
	.st17{fill:#21102B;}
</style>
<g>
	<g class="st0">
		<g class="st1">
			<rect class="st2" width="4000" height="4000"/>
		</g>
	</g>
	<g>
		<g>
			<g>
				<path class="st3" d="M3294.8,2358.8c-26.4,105.1-65.6,206.1-116.3,300.7c-93.5,174.8-226,327.9-388.9,445.8
					c-140.5,101.8-303.6,177.3-483.7,217.6C1597,3481.7,893.6,3035.7,734.8,2326.8c-88.1-393.7,10.3-785.9,236.8-1083.9
					c42.3-55.7,131.2-29.3,135.5,40.5c1.5,23.6,3.6,47.2,6.3,70.9c5.3,45.4,13,91,23.2,136.4c21.6,96.3,53.1,187.7,93.4,273.3
					c7.2,15.3,14.7,30.3,22.4,45.3c18.9,36.5,39.4,71.9,61.4,106.1c15.9,24.8,32.6,48.9,50,72.3c8.4,11.4,17.1,22.6,25.9,33.7
					c22,27.8,45.2,54.5,69.4,80.3c13.1,14.1,26.6,27.9,40.4,41.3c9.7,9.4,19.5,18.7,29.5,27.9c36.6,33.7,75.1,65.3,115.3,94.6
					c3.7,2.7,7.4,5.4,11.1,8c22.4,16,45.4,31.4,68.8,45.9c5.5,3.4,10.9,6.7,16.4,10c23.3,14.2,47.2,27.5,71.3,40.1
					c13.1,6.9,26.3,13.5,39.6,19.8c2.8,1.4,5.6,2.7,8.4,4c2,0.9,3.9,1.9,5.9,2.8c4.3,2,8.6,4,12.9,5.9
					c22.9,10.4,46.2,20.1,69.7,29.2c7.1,2.8,14.2,5.4,21.3,8c7.7,2.8,15.4,5.6,23.1,8.2c20.3,7,40.9,13.5,61.6,19.5
					c32.2,9.4,64.8,17.5,97.7,24.4c33.8,7,67.9,12.8,102.4,17.1c45.7,5.8,92,9.2,138.6,10.2c43.7,0.9,87.9-0.4,132.2-4.1
					c9-0.7,18.1-1.5,27.2-2.5c19.5-2,39.1-4.4,58.6-7.3c32.2-4.7,64.4-10.6,96.7-17.9c2.1-0.5,4.3-0.9,6.3-1.5
					c92.1-21.1,179.8-51.4,262.1-89.7c71.5-33.2,139-72.5,202.1-116.9C3235.2,2238.8,3311.8,2291.2,3294.8,2358.8z"/>
			</g>
			<g>
				<g class="st4">
					<path class="st5" d="M886.6,1369.3c-149.7,271.3-204.8,596.3-131.8,922.5c158.8,708.8,862.2,1154.9,1571.1,996.1
						c180.1-40.3,343.2-115.8,483.8-217.6c101.6-73.5,191.3-160.8,267.2-258.5c-38.8,36-79.8,69.8-123.1,101.1
						c-140.6,101.8-303.6,177.3-483.8,217.7c-422.8,94.7-843.8-25.8-1148.3-289c16.6-5.7,31.9-14.3,45.3-25.8
						c-2.4,2.1-4.9,4.1-7.4,6c-6-5-12-10-17.9-15.1c20-6.8,38.1-17.9,53.4-33.3c3.9-3.9,7.4-8.1,10.8-12.4c0,0,0,0,0,0.1
						c31.5-78.1,3.8-189.7-74.9-275.2c-96.6-104.9-233.5-130.6-305.7-57.4c-5.3,5.4-10.1,11.1-14.3,17.1
						c-49.2-96.4-87.2-200.5-111.9-311c-72.9-325.8-18.2-650.4,131.1-921.5c-21.5,0.4-43.1,9.7-58.5,30.1
						c-61.1,80.5-112.8,167.8-154.2,260.2C837.9,1457.2,861,1412.5,886.6,1369.3z"/>
				</g>
			</g>
			<g class="st4">
				
					<ellipse transform="matrix(0.9999 -1.108573e-02 1.108573e-02 0.9999 -30.5858 29.8474)" class="st5" cx="2677" cy="2773.9" rx="148.2" ry="126.4"/>
			</g>
			<g class="st4">
				
					<ellipse transform="matrix(0.1602 -0.9871 0.9871 0.1602 -960.7861 4042.1545)" class="st5" cx="1895.3" cy="2585.8" rx="109.6" ry="176"/>
			</g>
			<g>
				
					<ellipse transform="matrix(0.1602 -0.9871 0.9871 0.1602 -998.258 4068.042)" class="st3" cx="1891.7" cy="2620.7" rx="69" ry="153.6"/>
			</g>
			<g>
				
					<ellipse transform="matrix(0.9549 -0.2971 0.2971 0.9549 -714.8827 931.5164)" class="st3" cx="2707.6" cy="2818" rx="111.3" ry="89.8"/>
			</g>
			<g>
				<path class="st3" d="M2100.1,3051c0,12.3-1.6,24.7-4.8,36.9c-23.1,86.6-121.9,133.7-220.6,105.2
					c-74.2-21.4-127.3-79.4-139.3-143.5L2100.1,3051z"/>
			</g>
			<g>
				<path class="st5" d="M2104.7,3050.9c4,44.9-17.1,91.9-52.9,121.3c-17.7,15-38.7,25.8-60.7,32.7c-22.1,6.6-45.3,9.5-68.2,8.4
					c-22.9-1.2-45.7-5.7-66.9-14.1c-21.3-8.3-41.3-19.8-58.8-34.3c-17.7-14.3-32.5-32.1-44-51.4c-11.5-19.5-18.8-41.3-21.4-63.3
					c-0.2-2,1.2-3.9,3.3-4.1c1.9-0.2,3.5,1,4,2.7l0,0.1c11.4,40.9,37.5,75.7,70.8,99.9c33.3,24,73.5,38.4,114.2,39.8
					c20.3,0.8,40.7-1.3,60.1-7c19.5-5.4,37.8-14.4,54-26.5c16.1-12.1,29.8-27.4,39.5-45.3c5.1-8.8,8.7-18.4,12.1-28.2
					c3-9.9,4.9-20.1,5.8-30.6c0.2-2.6,2.5-4.4,5-4.2C2102.8,3046.9,2104.5,3048.7,2104.7,3050.9z"/>
			</g>
			<g>
				<path class="st3" d="M1160.2,2312.1c-46.2-6.3-90.9,0.8-129,23.3c-69.2,40.8-97.4,120.2-90.2,212.9
					c4.7,60.9,26.3,126.3,65.4,187.9c98.7,155.3,271.5,226.4,386.1,158.9c42.6-25.1,71.2-65.9,85.1-115.2
					c23.5-83.2,1.7-188.1-60.3-285.6L1160.2,2312.1z"/>
			</g>
			<g>
				<path class="st5" d="M1031.1,2335.4c-17.9,12.7-33.4,28.3-45.3,46c-11.9,17.7-20.7,37.2-26.2,57.7c-5.6,20.4-8.3,41.5-8.7,62.6
					c-0.3,21.1,0.8,42.4,4.3,63.2c1.6,10.4,3.8,20.8,6.4,31c2.5,10.3,5.5,20.4,8.7,30.5c6.7,20,14.9,39.6,24.5,58.4
					c19.2,37.7,43.3,72.9,71.8,104c14.2,15.6,29.5,30.2,45.8,43.5c16.2,13.4,33.6,25.4,51.7,35.9c18.1,10.5,37.2,19.4,56.9,26.2
					c4.9,1.8,9.9,3.1,14.9,4.7c5,1.2,10.1,2.6,15.1,3.7c5.1,1.1,10.2,2.2,15.3,2.9c5.1,0.9,10.3,1.5,15.4,2
					c20.7,2.2,41.4,0.5,61.7-3.6c20.1-4.5,39.7-12.4,57.2-23.8c17.7-11.2,33.2-26,46.1-43.1c12.8-17.2,22.9-36.6,30.6-57.1
					c-4.3,21.5-12,42.6-23.2,62c-11.2,19.4-26.4,36.8-44.3,51c-18,14.1-39,24.5-61.1,31.4c-22.2,6.5-45.5,9.2-68.5,8.2
					c-23-0.8-45.9-4.7-67.8-11.5c-21.9-6.7-43-15.7-63.1-26.4c-40.2-21.7-75.8-50.8-106.4-84.2c-30.5-33.5-56-71.4-75.3-112.3
					c-19-41-32.8-84.8-37.2-130c-4.6-44.9-1.3-91.2,14.3-133.9c8.1-21.2,19.3-41.2,34.1-58.2C993.5,2359,1011.4,2345,1031.1,2335.4z
					"/>
			</g>
			<g>
				<path class="st5" d="M2674.3,2910.6c-32,1.5-64.8-6.1-93.4-22.5c-14.1-8.4-27.2-18.9-38.3-31.5c-10.9-12.7-19.8-27.4-25.3-43.6
					c-11.5-32.3-7.6-69.5,8.3-99.7c7.9-15.2,19-28.5,31.6-39.7c12.6-11.2,26.8-20.7,42.1-27.5c15.3-6.8,31.5-11.4,47.9-14.2
					c16.5-2.4,33.2-2.7,49.7-1.1c16.5,2.1,32.7,6,48.2,12c15.5,6.1,29.9,14.8,42.9,25.2c26.2,20.5,45,51.1,49.9,84.1
					c2.4,16.5,1.6,33.3-3,49.1c-2.3,7.9-5.2,15.5-9,22.7c-3.6,7.3-8.7,13.7-13.2,20.3c-1.2,1.7-3.5,2.1-5.2,1
					c-1.6-1.1-2.1-3.1-1.2-4.8l0.3-0.5c3.6-6.7,7.6-13.1,10.3-20.1c2.8-6.9,4.9-14.1,6.3-21.3c1.3-7.3,2.1-14.6,2-21.9
					c-0.4-7.3-0.8-14.6-2.6-21.7c-6.1-28.4-23.7-53.6-47.2-70.6c-46.7-34.8-113.4-39.8-165.7-15.6c-26,12.2-49.1,31.4-62.4,56.2
					c-13.5,24.5-17.2,54.3-8.9,81.3c8.1,27.1,27.5,50.8,51.9,67.1c24.5,16.5,54,25.7,84.3,28l0,0c2.6,0.2,4.5,2.4,4.3,5
					C2678.5,2908.7,2676.6,2910.5,2674.3,2910.6z"/>
			</g>
			<g>
				<path class="st5" d="M2871.1,2695.6c18.2,25.6,29,57,30.1,89.2c1.2,32.3-8.1,64.7-24.4,92.6c-16.2,28.2-40.2,51.2-67.2,68.6
					c-27.2,17.2-57.7,28.9-89.3,34.5c-31.6,5.4-64,5.4-95.4-0.7c-31.4-6-61.7-18.2-88.2-36.1c-26.5-17.8-49.5-41.3-64.8-69.3
					c-15.2-28-22.8-60.1-20.5-91.4c0.1-2.1,1.9-3.6,4-3.5c1.9,0.1,3.4,1.7,3.5,3.5l0,0.1c1.4,29.9,10.8,58.7,26.5,83.2
					c15.7,24.7,37.9,44.6,62.6,59.9c49.7,30.5,111.1,40.1,168.1,29.6c28.5-5.3,56.1-15.4,80.6-30.7c12.4-7.3,23.6-16.5,34.3-26.2
					c2.6-2.4,4.9-5.2,7.4-7.8c2.4-2.7,5.1-5.1,7.2-8l6.5-8.5c1.1-1.4,2.2-2.8,3.3-4.3l2.8-4.6l5.7-9.1c1.8-3.1,3.1-6.4,4.7-9.6
					c3.4-6.3,5.5-13.2,7.9-19.9c1.4-3.3,2.1-6.9,2.9-10.3l2.5-10.5c0.7-7.1,1.9-14.3,2.2-21.5c1.2-28.9-6.4-58.2-20.5-84.4
					c-1.2-2.3-0.4-5.1,1.9-6.3C2867.2,2693.1,2869.8,2693.8,2871.1,2695.6z"/>
			</g>
			<g class="st4">
				<path class="st5" d="M1800.2,3049.1c6.7,37.9,39.7,71.5,86.6,83c62.5,15.4,126.2-14,142.2-65.8c2.3-7.3,3.5-14.7,3.6-22
					c3.9-81.3-65.8-117.6-123.7-118.9C1843.6,2924.1,1789,2965.2,1800.2,3049.1z"/>
			</g>
			<g>
				<path class="st3" d="M1806.6,3053.6c6.7,37.9,39.7,71.5,86.6,83c62.5,15.4,126.2-14,142.2-65.8c2.3-7.3,3.5-14.7,3.6-22
					c-16.5-25.6-45-46-80.8-54.9C1894.8,2978.5,1830.2,3004.8,1806.6,3053.6z"/>
			</g>
			<g>
				<path class="st5" d="M1944.2,2925c24.7,5.3,48.2,17.9,66.6,36.3c9.1,9.3,17,20,22.9,31.9c5.9,11.9,9.7,25,11,38.5
					c1.4,13.4,0,27.5-4.4,40.4c-4.1,13.1-10.9,25.4-19.9,35.9c-18.2,20.7-43.7,33.8-70.1,38.3c-53,9-109.1-14.1-139.4-57.7
					c-15.1-21.6-23.3-48.7-20.3-75.1c1.5-13.1,5.6-25.8,12.1-37.1c6.4-11.3,15.3-21,25.3-28.6c1.6-1.2,4-0.9,5.2,0.7
					c1.1,1.5,0.9,3.6-0.4,4.9c-16.7,16.6-26.4,38.8-26.7,61.2c-0.7,22.4,7.9,44.2,21.4,61.8c27.5,35.2,75.3,53.2,118.5,45.4
					c21.5-3.9,41.8-14.1,55.9-30c14.1-15.8,21.9-37,20.7-58.6c-0.9-21.6-10.2-43-24.8-60.3c-14.5-17.5-34.3-30.8-56.3-39.2l-0.1,0
					c-2.4-0.9-3.6-3.6-2.7-6C1939.7,2925.7,1942,2924.5,1944.2,2925z"/>
			</g>
			<g class="st4">
				
					<ellipse transform="matrix(0.7696 -0.6385 0.6385 0.7696 -1389.6674 1376.4384)" class="st5" cx="1212.7" cy="2614.1" rx="183.9" ry="253.1"/>
			</g>
			<g>
				
					<ellipse transform="matrix(0.7152 -0.6989 0.6989 0.7152 -1523.5354 1591.0928)" class="st3" cx="1190.6" cy="2665" rx="138.3" ry="219.3"/>
			</g>
			<g>
				<path class="st5" d="M1252.3,2839.8c22.8,1.9,45.8-0.3,66.6-7.8c20.9-7.4,39.4-20.3,53.5-36.7c14.2-16.4,24.1-36.4,29.5-57.7
					c5.5-21.3,7.4-43.6,5.8-65.9c-3.1-44.6-17.8-88.4-40.4-127.4c-22.3-39.2-52.5-74.1-88.4-100.9c-35.7-26.8-78.2-45.3-121.5-47.6
					c-21.5-1.2-43,2.5-62.3,11.3c-19.2,8.8-36.2,22.4-48.8,39.8c-12.7,17.3-21,38.1-25.7,59.8c-4.7,21.8-5.5,44.6-3.5,67.2
					c4.1,45.4,19.8,90,42.7,130.5l0,0c1.3,2.3,0.5,5.2-1.8,6.5c-2.2,1.2-4.9,0.6-6.3-1.4c-27.5-39.2-47.2-84.8-54.5-133.3
					c-3.6-24.2-3.9-49.2,0.1-73.9c3.9-24.7,12.7-49.1,27.2-70.5c14.4-21.4,34.6-39.4,58.2-50.6c23.5-11.4,49.9-16.3,75.5-15.6
					c25.7,0.7,50.8,6.5,74.1,15.8c11.7,4.6,23,10.1,33.9,16.1c10.9,6.2,21.3,13,31.4,20.3c40.1,29.5,72.5,68.1,96.8,111
					c12.1,21.5,21.7,44.4,28.9,68.1c7.1,23.7,11.6,48.3,12.4,73.3c0.9,24.9-1.9,50.2-9.2,74.4c-7.4,24.1-20,47.1-37.7,65.6
					c-17.8,18.4-40.3,32-64.6,38.7c-12.1,3.3-24.5,5.2-36.9,5.5c-12.4,0.4-24.7-0.8-36.7-2.9c-3.2-0.6-5.4-3.6-4.8-6.9
					c0.5-3,3.3-5.1,6.3-4.9L1252.3,2839.8z"/>
			</g>
			<g class="st4">
				<path class="st5" d="M2525.3,2514.7c-0.5,1.4-1,2.8-1.6,4.2c-0.6,8.4-2,17-4.6,25.8c-27.8,89.7-137.7,123.3-221.5,103.2
					c-39.2-10-78-20.8-116.4-32.4c-0.6,3.4-1.7,6.8-3.4,10l-32.2,64.5c-15.6,31.3-57.9,41.8-94.3,23.6
					c-36.5-18.2-53.4-58.4-37.8-89.6l27.6-55.2c-147.6-54-289.1-121.1-424-201.9c-1.2,5.5-3.7,10.9-7.5,15.6l-45.6,55.8
					c-22.1,27-65.7,28.1-97.2,2.2c-31.6-25.8-39.2-68.7-17-95.8l45.6-55.7c-23.9-16.3-47.7-33.1-71.2-50.3
					c-52-38.7-73.9-106.3-51.2-163.4c1.5-18.5,7-36.9,16.9-53.7c22,27.8,45.2,54.5,69.4,80.3c13.1,14.1,26.6,27.9,40.4,41.3
					c9.7,9.4,19.5,18.7,29.5,27.9c36.6,33.7,75.1,65.3,115.3,94.6c3.7,2.7,7.4,5.4,11.1,8c22.4,16,45.4,31.4,68.8,45.9
					c5.5,3.4,10.9,6.7,16.4,10c23.3,14.2,47.2,27.5,71.3,40.1c13.1,6.9,26.3,13.5,39.6,19.8c2.8,1.4,5.6,2.7,8.4,4
					c2,0.9,3.9,1.9,5.9,2.8c4.3,2,8.6,4,12.9,5.9c22.9,10.4,46.2,20.1,69.7,29.2c7.1,2.8,14.2,5.4,21.3,8c7.7,2.8,15.4,5.6,23.1,8.2
					c20.3,7,40.9,13.5,61.6,19.5c32.2,9.4,64.8,17.5,97.7,24.4c33.8,7,67.9,12.8,102.4,17.1c45.7,5.8,92,9.2,138.6,10.2
					C2436.8,2519.7,2480.9,2518.4,2525.3,2514.7z"/>
			</g>
			<g>
				<path class="st5" d="M1756.7,2508.5c-15.2,13.9-26,32-26.4,51.1l-0.2,7.1l0.9,7c0.2,1.2,0.2,2.3,0.5,3.5l1,3.4
					c0.7,2.3,1.1,4.6,2.1,6.8c2,4.4,3.5,8.9,6.3,12.9c1.3,2.1,2.3,4.2,3.8,6.2l4.4,5.9c12,15.5,28.1,28.3,45.5,38.6
					c17.4,10.5,36.4,18.4,56.1,24.4c5,1.3,9.9,2.9,14.9,4.1l15.1,3.3l15.3,2.3c5.1,0.6,10.2,1,15.4,1.6c20.5,1.6,41.2,0.7,61.4-2.9
					c20.1-3.7,39.8-10.1,56.6-21.2c8.7-5.2,15.8-12.2,22.3-19.8l4.3-6.1c1.6-2,2.3-4.4,3.6-6.6c2.7-4.4,3.6-9.3,5.4-14.2l0.2-0.6
					c0.7-1.9,2.8-2.9,4.7-2.2c1.6,0.6,2.6,2.2,2.4,3.9c-1.3,11.3-4.6,22.6-10.7,32.5c-6.2,9.7-13.9,18.7-23,25.7
					c-18,14.5-39.5,23.5-61.4,28.8c-22,5.5-44.6,7.1-67.1,6.3c-22.5-0.8-44.7-4.7-66.3-11c-21.6-6.3-42.4-15.5-61.8-27.4
					c-9.7-6-18.8-13-27.4-20.5c-4.3-3.9-8.3-8-12.3-12.2l-5.6-6.7c-1.9-2.2-3.7-4.5-5.2-7l-4.8-7.4c-1.6-2.4-2.8-5.2-4.2-7.8
					c-2.9-5.1-4.8-10.9-6.7-16.5c-0.9-2.8-1.3-5.9-2-8.8l-0.9-4.4c-0.3-1.5-0.2-3-0.4-4.5l-0.4-9.1l1-9c1.5-12,6.4-23.4,13.2-33
					c6.8-9.6,15.5-17.4,24.9-23.6c2.1-1.4,5-0.8,6.4,1.4C1758.7,2504.5,1758.4,2507,1756.7,2508.5z"/>
			</g>
			<g>
				<path class="st5" d="M1856.6,2747.5c26.1,8.1,52.7,11.1,79.1,9.6c13.2-0.8,26.3-2.5,39.2-5.5c12.9-2.7,25.5-6.8,37.8-11.6
					c24.5-9.6,47.5-23.2,66.7-41c19-17.7,33.5-40.4,36.6-67.2l0-0.1c0.2-2.1,2.1-3.5,4.1-3.3c1.7,0.2,3.1,1.5,3.3,3.2
					c2.1,14.6-0.3,29.8-5.6,43.8c-5.4,14-13.7,26.8-23.6,37.9c-19.7,22.4-45.2,38.6-72.2,49.8c-13.6,5.6-27.8,9.6-42.1,12.5
					c-14.4,2.5-29.1,4-43.8,3.5c-29.2-0.7-58.7-8-83.3-23.2c-2.2-1.4-2.9-4.2-1.5-6.4C1852.3,2747.6,1854.5,2746.9,1856.6,2747.5
					L1856.6,2747.5z"/>
			</g>
			<g class="st6">
				<path class="st7" d="M3289.1,2306.6c-16.1-42.7-70.9-66-114.3-35.4c-137.5,97-296.1,169.1-470.5,208.1
					c-294.4,65.9-587.9,27.6-841.8-90.7c6.8,5.3,13.5,10.3,20.3,15.3c-1.3-0.6-2.7-1.1-4-1.7c-4.3-1.9-8.6-3.9-12.9-5.9
					c-2-0.9-4-1.9-5.9-2.8c-2.8-1.3-5.6-2.7-8.4-4c-10.1-4.8-20.1-9.8-30-14.9c-3.2-1.6-6.4-3.2-9.6-4.9
					c-22.6-11.8-44.9-24.3-66.8-37.5c-1.5-0.9-3-1.8-4.5-2.7c-5.5-3.3-10.9-6.6-16.4-10c-23.4-14.5-46.3-29.9-68.8-45.9
					c-3.7-2.7-7.4-5.3-11.1-8c-20.1-14.6-39.7-29.9-58.9-45.6c-9.6-7.9-19.1-15.9-28.5-24.1s-18.7-16.5-27.8-24.9
					c-3.8-3.5-7.6-7.1-11.4-10.6c-3.6-3.3-7.1-6.7-10.6-10.1c-2.5-2.4-5-4.8-7.4-7.2c-13.8-13.4-27.3-27.2-40.4-41.3
					c-4.5-4.8-9-9.7-13.4-14.6c-19.3-21.2-38-43.1-55.9-65.6c-3.3-4.1-6.5-8.2-9.7-12.4c-5.5-7.1-10.9-14.2-16.2-21.3
					c-1.2-1.6-2.3-3.2-3.4-4.7c-8.6-11.6-17-23.4-25.1-35.4c-7.3-10.6-14.5-21.4-21.5-32.2c-22-34.2-42.5-69.5-61.4-106.1
					c-5-9.6-9.8-19.3-14.6-29c-2.6-5.4-5.3-10.8-7.9-16.2c-40.3-85.6-71.8-177-93.4-273.3c-3.8-17-7.2-34.1-10.3-51.2
					c-5.2-28.4-9.6-56.9-12.9-85.3c-0.5-4.6-0.9-9.2-1.4-13.8c-2-19.1-3.7-38.2-4.9-57.1c-0.6-9.9-3-19-6.6-27
					c-12.4-27.4-40.1-43.4-68.5-43.6c-4.2,0-8.5,0.3-12.7,1c-2.6,0.4-5.3,1-7.8,1.7c-3,0.8-6,1.9-9,3.1c-1.8,0.8-3.6,1.6-5.4,2.6
					c-2,1-3.9,2.2-5.8,3.4c-7.2,4.6-13.8,10.7-19.6,18.3c-0.8,1.1-1.6,2.2-2.4,3.3c43.2-13.4,94.7,14.5,97.9,67.2
					c1.5,23.6,3.6,47.2,6.4,70.9c5.3,45.4,13,91,23.2,136.4c21.6,96.3,53.1,187.7,93.4,273.3c7.2,15.3,14.7,30.3,22.4,45.3
					c18.9,36.5,39.4,71.9,61.4,106.1c15.9,24.8,32.6,48.9,50,72.3c8.4,11.4,17.1,22.6,25.9,33.7c22,27.8,45.2,54.5,69.4,80.3
					c13.1,14.1,26.6,27.9,40.4,41.3c9.7,9.4,19.5,18.8,29.5,27.9c36.6,33.7,75.1,65.3,115.3,94.6c3.7,2.7,7.4,5.4,11.1,8
					c22.4,16,45.4,31.4,68.8,45.9c5.5,3.4,10.9,6.7,16.4,10c23.3,14.2,47.2,27.5,71.3,40.1c13.1,6.9,26.3,13.5,39.6,19.8
					c2.8,1.4,5.6,2.7,8.4,4c2,0.9,3.9,1.9,5.9,2.8c4.3,2,8.6,4,12.9,5.9c22.9,10.4,46.2,20.1,69.7,29.2c7.1,2.8,14.2,5.4,21.3,8
					c7.7,2.8,15.4,5.6,23.1,8.2c20.3,7,40.9,13.5,61.6,19.5c25,7.3,50.2,13.8,75.6,19.6c498.2,187.6,1036.8-139.6,1106.9-126.8
					c44.2,8.1,34.5,75.1,14.4,138.8c-20.7,55.3-45,109-72.7,160.8c-86.4,161.5-206.2,304.4-352.3,418.2c1.1-0.8,2.2-1.5,3.3-2.3
					c0,0,0.1-0.1,0.2-0.1c3.3-2.4,6.4-4.8,9.6-7.2c11.1-8.2,22-16.5,32.8-25c13.7-10.8,27.2-21.8,40.4-33.1
					c30.3-25.9,59.4-53,87.1-81.4c17.4-17.8,34.2-36.1,50.5-54.8c16.3-18.7,32-37.9,47.2-57.5c7.6-9.8,15.1-19.7,22.4-29.7
					c36.6-50,69.6-102.5,98.8-157.1c6.3-11.8,12.5-23.8,18.5-35.8c3-6,5.9-12,8.8-18.1c37.7-78.8,67.6-161.4,89-246.8
					C3299.7,2339.5,3296.8,2321.6,3289.1,2306.6z"/>
			</g>
			<g>
				<path class="st5" d="M2020.3,3370.7c-262.9,0-522.8-78.8-744-227.3C1015.9,2968.5,825,2707.2,739,2407.6
					c-3.9-13.5-7.1-25.6-10.1-37c-3-11.9-6-24.2-9-37.5c-2.2-9.6-4.3-19.5-6.3-29.4c-2-9.8-3.9-19.6-5.6-29.4
					c-1.7-9.5-3.3-19-4.8-28.5c-0.8-5.1-1.6-10.3-2.4-15.5c-0.6-3.8-1.1-7.6-1.6-11.4l-0.4-2.9c-0.7-5.1-1.3-10.1-1.9-15.1
					c-0.6-4.9-1.2-9.8-1.7-14.6c-0.5-4.9-1.1-9.8-1.5-14.7c-0.5-4.8-1-9.7-1.4-14.6c-0.4-4.9-0.9-9.8-1.2-14.6l-0.2-2.1
					c-0.3-4.2-0.6-8.3-0.9-12.5c-0.1-1.6-0.2-3.5-0.4-5.3l-0.7-11.3c-0.3-4.7-0.5-9.6-0.7-14.5c-1.1-23.4-1.5-47.1-1.3-70.4
					l0.1-10.6c0.1-6.2,0.3-12.2,0.5-18.3l0-0.6c0.1-3,0.2-6,0.3-9.1c0.8-20.5,2.1-41.3,3.8-61.9c0.2-2.9,0.5-5.8,0.8-8.8l0.2-2.1
					c0.2-1.7,0.3-3.4,0.5-5.1c0.4-4.4,0.9-9.1,1.4-13.9c1.9-18.2,4.4-37.1,7.3-56.3c0.7-4.6,1.4-9.3,2.2-14
					c5.9-36.7,13.6-73.9,22.8-110.3c2.2-8.7,4.5-17.4,6.8-26.1c5.2-18.8,10.6-37,16.1-54.2c1.2-3.7,2.4-7.6,3.7-11.4
					c5.9-18,12.5-36.6,19.5-55.2c3-7.9,6.1-15.7,9.2-23.6c4.4-11,9.1-22.3,13.9-33.4c2.4-5.6,4.9-11.2,7.4-16.7l0,0
					c16.5-36.8,35-73.4,54.9-108.8c6.8-12.1,13.9-24.2,21.1-36c4.1-6.8,8.3-13.6,12.5-20.3c4.5-7.2,9.1-14.3,13.8-21.5
					c8.1-12.3,16.6-24.9,26.1-38.3c5.5-7.7,11.4-15.9,18.1-24.9c3-4.1,6.1-8.2,9.2-12.3c2-2.6,4-5.1,6.2-7.4c0.4-0.5,1-1.1,1.5-1.6
					c0.9-0.9,1.8-1.8,2.7-2.7c0.5-0.5,1-1,1.6-1.4c0.5-0.5,1-0.9,1.5-1.3l0.9-0.8c1-0.8,1.8-1.4,2.5-2l1-0.8
					c0.6-0.5,1.2-0.9,1.8-1.4l0.7-0.5c14.4-10.2,31.4-15.8,49.3-16.3c0.2,0,0.7,0,1.1,0l2.5,0l0.3,0c3.7,0.1,7.6,0.4,11.5,0.9
					c41.5,6,73,37.7,78.3,78.9c0.3,2.1,0.5,4.2,0.6,6.4c0.4,6.7,0.9,13.2,1.4,19.8c0.3,4.2,0.7,8.2,1,12.3
					c0.6,7.1,1.3,14.2,2.1,21.2c0.4,4.5,0.9,8.9,1.4,13.2c2.8,24.9,6.4,49.9,10.7,74.4c0.7,4.3,1.5,8.4,2.2,12.6
					c0.8,4.4,1.6,8.7,2.5,13c2.3,11.6,4.4,22,6.6,31.9l-15.5,4.1l15.6-3.6c0.1,0.4,0.2,0.7,0.2,1.1l1,4.3c0.8,3.7,1.6,7.3,2.5,11
					l0.7,3.1c1,4.4,2.1,8.8,3.2,13.1c0.7,2.9,1.4,5.7,2.1,8.3c1,4.2,2.1,8.2,3.1,12.2c0.3,1.2,0.5,2.1,0.8,3l0.2,0.6
					c1.4,5.5,2.9,10.9,4.5,16.3c1.7,6.1,3.4,12.1,5.2,18.1c2.4,8.1,4.9,16,7.4,23.9c1.3,4.1,2.6,8.3,4,12.4c0.6,1.8,1.2,3.5,1.8,5.3
					l1,2.8c61.7,183.6,161.4,347.5,296.4,487c219.8,227.2,513.3,367,826.4,393.7c73.3,6.3,147.6,6.2,220.9-0.2
					c2.8-0.2,5.6-0.5,8.3-0.8l4.5-0.4c2.2-0.2,4.4-0.4,6.7-0.7c4.9-0.5,9.6-1,14.3-1.5c2.9-0.3,5.8-0.7,8.6-1c8-0.9,15.8-2,23.7-3.1
					c9.7-1.3,19.6-2.8,30.3-4.5c5.8-1,11.8-2,17.9-3.1c6.3-1.1,12.5-2.3,18.8-3.5l0.9-0.2c6.2-1.2,12.4-2.5,18.6-3.7
					c5.9-1.2,11.8-2.5,17.7-3.8c31.9-7.1,64.1-15.5,95.6-25.1c5.2-1.6,10.4-3.2,15.5-4.8c5.3-1.6,10.4-3.3,15.5-5
					c5.1-1.7,10.2-3.4,15.2-5.1c95.4-32.8,186.7-76.7,271.6-130.5l4.1-2.6c3-1.9,6.1-3.9,9.1-5.8l10.5-6.9c5.5-3.6,11-7.3,16.4-11
					l13-9.1c10.8-7.6,22.7-12.7,35.3-15.2c2-0.4,4.1-0.7,6.2-0.9c3.8-0.5,7.7-0.8,12-0.7l3.9,0.2c6.6,0.4,13.1,1.5,19.5,3.3
					c12.7,3.7,24.7,10.1,34.8,18.6c13.7,11.6,23.6,26.6,28.6,43.4c3.9,12.9,4.7,26.4,2.5,40c-0.1,1.1-0.4,2.7-0.7,4.2
					c-0.3,1.5-0.6,2.9-1,4.4c-2.7,11-5.8,22.7-9.4,35.5c-1.7,5.9-3.4,11.8-5.1,17.7c-5.1,17.4-10.8,35.1-16.8,52.6
					c-4.4,12.9-8.5,24.3-12.4,34.6c-19,51-41.3,101.1-66.1,148.9c-2.6,5-5.2,9.9-7.8,14.8l-0.5,1c-2.8,5.2-5.6,10.4-8.5,15.6
					c-2.7,4.9-5.5,9.9-8.3,14.9c-7.3,12.8-13.8,23.8-20,33.8c-12.7,20.9-26.3,41.8-40.2,62c-0.8,1.2-1.6,2.4-2.5,3.6l-4.2,6
					c-1.6,2.2-3.1,4.5-4.7,6.7c-0.3,0.5-0.7,1-1,1.4l-2.2,3.2c-1.5,2.1-2.9,4.1-4.4,6.1l-3.4,4.6c-0.8,1.2-1.7,2.4-2.6,3.6
					c-1.6,2.2-3.3,4.5-4.9,6.7l-0.4,0.5c-1.1,1.5-2.3,3-3.4,4.5c-1.5,2.1-3.1,4.1-4.6,6.2l-4,5.2c-0.9,1.2-1.8,2.4-2.8,3.6
					c-0.5,0.7-1.1,1.4-1.6,2.1c-3.2,4.1-6.4,8.2-9.7,12.2c-0.3,0.5-0.8,1.1-1.4,1.7c-2,2.6-4.1,5.1-6.1,7.6l-0.9,1.1
					c-1.3,1.6-2.6,3.2-4,4.8c-3.5,4.4-7.4,9-11.3,13.6l-12.7-9.8l12.3,10.2c-0.3,0.4-0.6,0.8-1,1.1c-0.6,0.7-1.2,1.4-1.8,2.1
					c-1.6,1.9-3.1,3.7-4.7,5.5c-1.6,1.8-3.3,3.8-5,5.8c-0.8,0.9-1.6,1.9-2.4,2.8l-1.1,1.2c-0.1,0.1-0.4,0.5-0.8,0.9
					c-2.3,2.7-4.7,5.3-7,7.9l-2,2.2c-2.7,3-5.6,6.2-8.5,9.3c-1,1.2-2.1,2.3-3.1,3.5l-1.2,1.3c-2.4,2.6-4.7,5-7,7.4l-0.5,0.5
					c-1,1-1.9,2.1-2.9,3.1c-1.6,1.8-3.5,3.7-5.4,5.7l-3.5,3.7c-1.9,2-3.8,4-5.8,5.9l-2.9,3c-3.4,3.5-6.9,6.9-10.3,10.4
					c-0.3,0.3-0.9,0.9-1.5,1.5l-3.1,3c-1.8,1.8-3.6,3.5-5.4,5.3c-0.7,0.7-1.7,1.7-2.7,2.6l-6.8,6.5c-2.6,2.5-5.1,4.9-7.8,7.4
					c-2.9,2.8-5.9,5.6-8.9,8.3c-1.2,1.2-2.5,2.3-3.8,3.5c-3.4,3.1-6.8,6.2-10.2,9.3c-1.2,1.1-2.6,2.3-4,3.6l-1,0.9
					c-0.7,0.7-1.7,1.5-2.7,2.4l-0.7,0.6c-1.2,1-2.5,2.2-3.9,3.4c-1.7,1.6-3.9,3.4-6,5.2l-0.9,0.7c-0.4,0.4-0.8,0.7-1.3,1.1l-0.5,0.5
					c-3.8,3.3-7.6,6.6-11.5,9.8c-1.1,1-2.5,2.1-3.9,3.2c-2.9,2.5-6.1,5.1-9.3,7.7l-2.6,2.2c-0.5,0.5-1.1,1-1.8,1.5
					c-1,0.9-2.1,1.8-3.2,2.6c-2.9,2.4-6.3,5.1-9.6,7.7c-0.2,0.2-0.4,0.3-0.6,0.5c-0.5,0.4-0.9,0.7-1.1,0.9l-2.5,2
					c-2.6,2-5.2,4.1-7.9,6.1c-1.1,0.9-2.5,2-3.9,3c-3.9,3-7.7,6-11.7,8.9c-2.1,1.6-4.5,3.4-6.9,5.2c-2.5,1.9-5.2,3.8-7.9,5.8l0,0
					l-15.7,11.3c-0.7,0.5-1.6,1.1-2.5,1.7c-2.8,1.9-5.7,4-8.7,6l-3.2,2.2c-7.8,5.4-16.2,11.1-26.4,17.7c-11.9,7.7-22.8,14.6-33.4,21
					c-3.7,2.3-7.6,4.7-11.6,7c-0.6,0.4-1.3,0.8-1.9,1.2c-2,1.2-4,2.4-6.1,3.5c-2.3,1.4-4.6,2.7-6.9,4c-3,1.8-6.2,3.6-9.5,5.4
					l-2.7,1.5c-4.2,2.4-8.4,4.7-12.6,7.1c-0.5,0.3-1.4,0.8-2.3,1.2c-3.5,1.9-6.7,3.7-10,5.4c-3.6,1.9-7.4,3.9-11.2,5.9
					c-2.6,1.3-5.2,2.7-7.8,4.1c-1,0.5-1.9,1-2.9,1.5c-1.1,0.6-2.2,1.2-3.3,1.7c-2.7,1.4-5.5,2.8-8.2,4.2c-5.4,2.7-10.6,5.3-15.7,7.8
					c-7.6,3.7-15.4,7.4-23.1,10.9l-14.2,6.6l-0.1-0.1c-1.8,0.8-3.6,1.6-5.5,2.4l-9.8,4.4l-0.1-0.1c0,0,0,0-0.1,0
					c-3.6,1.6-6.8,2.9-10.1,4.3l-5.4,2.3c-2.5,1-4.8,2-7.1,2.9c-0.8,0.4-1.7,0.7-2.6,1c-1.3,0.6-2.7,1.1-4.1,1.7l-3.9,1.6
					c-1.9,0.8-3.9,1.5-5.8,2.3c-0.4,0.2-0.9,0.4-1.5,0.6l-3.3,1.3c-2.7,1-5.4,2.1-8.2,3.1l-1.1,0.4c-0.9,0.4-1.8,0.7-2.7,1
					c-0.3,0.1-0.7,0.3-1.1,0.4c-1.8,0.7-3.6,1.4-5.5,2.1c-1.5,0.6-3,1.1-4.4,1.7c-0.9,0.3-1.9,0.7-2.8,1c-0.7,0.3-1.5,0.6-2.3,0.8
					c-1.2,0.5-2.4,0.9-3.6,1.3c-2.1,0.8-4.3,1.6-6.5,2.3l-5.6,2c-1.2,0.5-2.4,0.9-3.6,1.2c-2.4,0.9-4.9,1.7-7.4,2.5l-5.6,1.9
					c-3.4,1.1-6.9,2.3-10.3,3.4l-11.4,3.7c-3.6,1.1-7.2,2.3-10.8,3.4c-5.4,1.7-10.8,3.3-16.2,4.8c-0.8,0.3-1.7,0.5-2.5,0.8
					c-2.6,0.7-5.2,1.5-7.8,2.2l-0.1,0.1l-16.2,4.4c-3.3,0.9-6.6,1.8-10,2.7l-9.7,2.5c-2.1,0.6-4.4,1.2-6.8,1.7
					c-1.5,0.4-3,0.8-4.6,1.2c-2.6,0.6-5.2,1.3-7.8,1.9c-1.3,0.4-2.6,0.7-3.9,0.9c-2.1,0.5-4.1,1-6.2,1.5l-1,0.3
					c-2.7,0.6-5.1,1.1-7.6,1.7c-1.8,0.4-4,0.9-6.2,1.4l-3.7,0.8c-1.9,0.4-3.9,0.8-5.8,1.3c-2.2,0.5-4.4,0.9-6.5,1.4l-0.2,0.4
					l-8.6,1.4c-3.9,0.8-7.8,1.6-11.7,2.3c-2.3,0.4-4.5,0.8-6.7,1.3l-2.8,0.5c-3.4,0.6-6.8,1.3-10.2,1.9l-1.5,0.3
					c-0.7,0.1-1.4,0.3-2.1,0.4c-4.6,0.8-9.5,1.6-14.5,2.4c-0.1,0-0.4,0.1-0.7,0.1l-3,0.5c-3.7,0.6-7.4,1.2-11.1,1.7
					c-3.1,0.5-6.3,0.9-9.5,1.4l-5,0.7c-3.6,0.5-7.1,1-10.7,1.4l-4,0.5c-4.9,0.6-9.8,1.2-14.7,1.8c-3.5,0.4-7.1,0.8-10.6,1.2l-4,0.4
					C2110.9,3368.4,2065.6,3370.7,2020.3,3370.7z M992.1,1244l-0.4,0.3c-0.8,0.7-1.3,1.2-1.8,1.7l-1.5,1.6c-1.3,1.4-2.7,3-3.9,4.7
					c-3,4-6.1,8-9,12c-6.5,8.8-12.3,16.8-17.6,24.3c-9.2,13.1-17.6,25.3-25.4,37.3c-4.6,7-9.1,13.9-13.5,20.9
					c-4.1,6.6-8.2,13.2-12.3,19.9c-7,11.6-13.9,23.4-20.6,35.1c-19.4,34.5-37.5,70.2-53.6,106.1l0,0c-2.4,5.4-4.9,10.9-7.2,16.3
					c-4.7,10.8-9.2,21.8-13.6,32.6c-3.1,7.7-6.1,15.3-9,23c-6.8,18.1-13.3,36.3-19.1,53.9c-1.2,3.7-2.4,7.3-3.5,11
					c-5.4,16.9-10.7,34.7-15.7,53c-2.3,8.5-4.5,16.9-6.7,25.5c-9,35.6-16.4,71.8-22.3,107.7c-0.8,4.6-1.5,9.1-2.1,13.6
					c-2.8,18.8-5.2,37.2-7.1,55c-0.5,4.6-1,9.1-1.4,13.7c-0.2,1.8-0.3,3.3-0.5,4.7l-0.2,2.2c-0.3,2.8-0.5,5.7-0.7,8.5
					c-1.7,20.1-3,40.4-3.7,60.5c-0.1,3-0.2,5.8-0.3,8.6l0,0.7c-0.2,6-0.4,11.9-0.5,17.7l-0.1,10.5c-0.2,22.7,0.2,45.8,1.2,68.7
					c0.2,4.7,0.4,9.4,0.7,14.1l0.6,11c0.1,1.7,0.2,3.5,0.4,5.2c0.3,4.2,0.6,8.2,0.9,12.2l0.2,2.2c0.3,4.8,0.8,9.5,1.2,14.2
					c0.4,4.8,0.9,9.5,1.4,14.2c0.5,4.8,1,9.6,1.5,14.3c0.5,4.7,1.1,9.4,1.7,14.2c0.6,4.9,1.2,9.8,1.9,14.6l0.4,2.8
					c0.5,3.7,1,7.4,1.6,11.1c0.7,5,1.5,10.1,2.3,15.1c1.5,9.3,3,18.6,4.7,27.8c1.7,9.6,3.6,19.1,5.5,28.7c2,9.6,4,19.3,6.1,28.6
					c3,13.1,5.9,25.1,8.8,36.7c2.9,11.1,6.1,22.9,9.8,36.2c161.4,561.8,673.3,940.1,1247,940.1c45,0,90.4-2.3,136-7.1l3.9-0.4
					c3.4-0.4,6.9-0.7,10.3-1.1c4.8-0.6,9.5-1.1,14.3-1.7l19.4-2.6c3.1-0.4,6.2-0.9,9.3-1.4c3.7-0.5,7.2-1.1,10.7-1.6l3.7-0.6
					c4.8-0.8,9.6-1.5,14.3-2.4l1.6-0.3c0.7-0.1,1.4-0.2,2.1-0.4c3-0.5,6.3-1.1,9.6-1.7l3-0.5c2.1-0.4,4.2-0.8,6.3-1.2
					c1.7-0.3,3.4-0.6,5.1-1l0.3-0.5l9.5-1.4c3.8-0.8,7.6-1.6,11.5-2.4c2.2-0.5,4-0.9,5.8-1.3l3.7-0.8c2-0.4,4-0.9,6-1.4
					c2.6-0.5,4.8-1,7-1.5l0.6-0.2c2.3-0.5,4.6-1.1,6.9-1.6l0.9-0.2c0.7-0.1,1.3-0.3,2.1-0.5l0.7-0.2c2.6-0.6,5.2-1.2,7.8-1.8
					c1.3-0.3,2.6-0.6,3.8-1l0.8-0.2c2.1-0.5,4.1-1,6.2-1.6l9.7-2.5c3.3-0.9,6.5-1.7,9.8-2.6l9.2-2.5c4.9-1.4,9.8-2.8,14.7-4.2
					l1.7-0.5c5.4-1.5,10.7-3.1,16.1-4.8c3.5-1.1,7.1-2.2,10.6-3.3l11-3.5c3.4-1.1,6.8-2.2,10.2-3.4l5.2-1.8c2.7-0.9,5-1.7,7.2-2.5
					l0.9-0.3c0.6-0.2,1.3-0.4,1.9-0.6l4.9-1.7c0.5-0.2,1.1-0.4,1.7-0.6c2.1-0.7,4-1.4,6-2.2l0.6-0.2c1-0.3,2-0.7,2.9-1l0.7-0.2
					c0.1,0,0.1,0,0,0.1l1.9-0.8c0.9-0.3,1.9-0.7,2.8-1c1.3-0.4,2.4-0.9,3.5-1.3l0.5-0.2c1.8-0.6,3.5-1.3,5.2-2l1.4-0.5
					c0.8-0.3,1.5-0.6,2.3-0.9l1.4-0.5c2.7-1,5.3-2,7.8-3l4.5-1.8c2-0.8,3.9-1.5,5.9-2.3l3.6-1.4c1.4-0.6,2.7-1.1,4.1-1.7l2.7-1.1
					c2.2-0.9,4.4-1.8,6.6-2.7l5.5-2.3c3.3-1.3,6.3-2.6,9.3-3.9c2.1-0.9,3.8-1.7,5.5-2.4l4.6-2c3.8-1.7,7.6-3.4,11.4-5.1c0,0,0,0,0,0
					l7-4l0.8,0.4l0.2-0.1c7.7-3.5,15.2-7,22.6-10.6c5-2.4,10.1-4.9,15-7.4c3-1.5,5.6-2.8,8.3-4.2l0.5-0.3c0.8-0.4,1.7-0.8,2.5-1.3
					l0.7-0.4c0.6-0.3,1.2-0.6,1.7-0.9l0.5-0.3c2.6-1.3,5.2-2.7,7.8-4c3.7-1.9,7.3-3.9,10.9-5.8c3.4-1.8,6.6-3.5,9.7-5.3l1.1-0.6
					c0.2-0.1,0.5-0.2,0.7-0.4c4.5-2.5,8.6-4.8,12.7-7.1l2.8-1.6c3.1-1.7,6.2-3.5,9.2-5.3c2.2-1.3,4.3-2.5,6.3-3.7l0.5-0.3
					c2-1.2,4-2.3,6-3.5l1.2-0.8c3.9-2.3,7.8-4.6,11.6-7c10.5-6.3,21.1-13,32.7-20.6c9.9-6.5,18.1-11.9,25.7-17.2l3.2-2.2
					c2.9-2,5.8-4,8.7-6c0.8-0.5,1.3-0.9,1.8-1.3l13.6-9.8c3.4-2.4,6.7-4.9,10.1-7.3c2.3-1.7,4.4-3.2,6.4-4.8c4.1-3,7.9-5.9,11.7-8.9
					l0.5-0.4c1-0.7,1.9-1.5,2.9-2.2c2.9-2.2,5.4-4.2,7.9-6.1l3.7-2.9c3.6-2.8,6.8-5.4,10-8c1.1-0.8,1.8-1.4,2.5-2l4.8-3.9
					c3.1-2.6,6.2-5.1,9.3-7.7c1.3-1.1,2.4-2,3.5-2.9c4-3.3,7.7-6.5,11.4-9.7l2.7-2.3c1.9-1.6,3.8-3.3,5.7-4.9
					c1.5-1.3,2.6-2.3,3.7-3.3l1-0.9c0.7-0.6,1.5-1.3,2.2-1.9l1.2-1.1c1.3-1.1,2.5-2.2,3.7-3.3c3.5-3.2,6.9-6.2,10.1-9.2l0.4-0.4
					c1-0.8,1.9-1.7,2.8-2.6l0.4-0.4c2.9-2.7,5.8-5.4,8.7-8.1c2.6-2.4,5-4.8,7.5-7.1l7.1-6.8c0.9-0.8,1.4-1.4,2-2
					c2-2,3.7-3.7,5.5-5.4l4.2-4.2c3.6-3.5,6.9-6.9,10.1-10.2l3-3.1c1.9-2,3.8-3.9,5.6-5.8l3.4-3.5c1.8-1.9,3.6-3.8,5.4-5.7
					c1-1,1.8-1.9,2.5-2.7l0.7-0.8c2.4-2.5,4.5-4.8,6.7-7.1l1.3-1.4c0.9-1,1.8-1.9,2.6-2.9l0.3-0.4c2.8-3.1,5.7-6.2,8.5-9.4l2-2.2
					c2.1-2.4,4.4-4.9,6.6-7.4c0,0,0.4-0.4,0.7-0.8l-0.3,0.4l1.6-1.8c0.7-0.8,1.3-1.5,2-2.3l0.5-0.6c1.6-1.8,3.2-3.6,4.7-5.5
					c1.6-1.8,3-3.4,4.4-5.1c0.9-1,1.8-2.1,2.7-3.1l0.9-1c3.5-4.1,7.2-8.5,10.8-13c1.5-1.7,2.6-3.2,3.8-4.6l0.8-1
					c2.1-2.6,4.2-5.2,6.3-7.9l1.2-1.4c3.1-3.9,6.2-7.8,9.3-11.8c0.4-0.5,0.8-1,1.1-1.5l1-1.3c0.6-0.7,1.1-1.3,1.6-2.1l4.5-5.9
					c1.4-1.9,2.9-3.7,4.2-5.6l0.6-0.7c1-1.3,2-2.6,2.9-3.8l0.4-0.5c1.6-2.2,3.2-4.4,4.8-6.6l0.3-0.4c0.6-0.8,1.3-1.7,1.8-2.5
					l3.7-5.1c1.4-1.9,2.7-3.7,4-5.6l3.3-4.6c1.6-2.3,3.2-4.6,4.8-6.8l0.8-1.1l3.5-5c0.8-1.1,1.5-2.1,2.1-3
					c13.6-19.8,26.8-40.1,39.3-60.6c6-9.8,12.4-20.6,19.5-33c2.7-4.8,5.4-9.7,8.2-14.6c2.8-5.1,5.6-10.2,8.3-15.2l0.5-0.9
					c2.5-4.7,5.1-9.6,7.6-14.5c24.2-46.6,45.9-95.5,64.5-145.3c3.8-10.1,7.7-21.2,12.1-33.8c5.8-17.1,11.3-34.4,16.3-51.3
					c1.7-5.7,3.3-11.5,5-17.3c3.5-12.5,6.5-23.9,9.3-34.8c0.3-1.1,0.5-2.1,0.7-3c0.1-0.6,0.3-1.4,0.4-2.2c1.5-9.3,0.9-17.9-1.5-26.2
					c-3.2-10.8-9.7-20.5-18.6-28.1c-6.7-5.6-14.6-9.9-23-12.3c-4.8-1.4-9.9-2.1-15-2.2l-1.6,0c-2.1,0-4.1,0.2-5.9,0.4l-0.6,0.1
					c-1.2,0.1-2.4,0.3-3.5,0.5c-8.1,1.6-15.8,4.9-23,10l-13.1,9.1c-5.6,3.9-11.3,7.7-17,11.4l-10.5,7c-3.2,2.1-6.4,4.1-9.6,6.1
					l-4.1,2.6c-87.1,55.2-180.6,100.2-278.2,133.8c-5.4,1.8-10.6,3.6-15.8,5.3c-5.2,1.7-10.5,3.5-15.9,5.1
					c-5.2,1.7-10.5,3.3-15.8,4.9c-32.4,9.8-65.3,18.4-98,25.7c-6,1.3-12.1,2.6-18.1,3.9c-6.4,1.3-12.9,2.6-19.3,3.9l-0.9,0.2
					c-6.4,1.3-12.8,2.4-19.2,3.5c-6.1,1.1-12.1,2.1-18.2,3.1c-11.1,1.8-21.2,3.3-31.1,4.6c-8.1,1.1-16.2,2.2-24.3,3.2
					c-2.9,0.4-5.9,0.7-8.9,1.1c-4.8,0.5-9.7,1.1-14.6,1.5c-2.1,0.2-4.5,0.5-6.9,0.7l-4.5,0.4c-2.9,0.3-5.8,0.5-8.6,0.8
					c-75.1,6.5-151.2,6.6-226.3,0.2c-320.8-27.3-621.5-170.6-846.7-403.4c-138.4-143-240.5-310.9-303.7-499.1l-0.9-2.8
					c-0.6-1.9-1.2-3.7-1.9-5.6c-1.4-4.2-2.7-8.4-4.1-12.7c-2.6-8.2-5.1-16.3-7.5-24.5c-1.8-6.1-3.6-12.3-5.3-18.5
					c-1.6-5.5-3.1-11-4.6-16.6c-0.4-1.3-0.7-2.6-1-3.9c-1-3.9-2.1-8-3.2-12.2c-0.7-2.7-1.4-5.7-2.1-8.6c-1.1-4.3-2.2-8.9-3.3-13.5
					l-0.7-2.9c-0.9-3.9-1.8-7.7-2.6-11.5l-1.4-6.3c-2.2-9.9-4.4-20.6-6.7-32.3c-0.9-4.4-1.7-8.9-2.5-13.5c-0.8-4.2-1.6-8.6-2.3-13
					c-4.4-25-8-50.7-10.9-76.2c-0.5-4.5-1-9-1.5-13.6c-0.8-7.1-1.5-14.4-2.1-21.7c-0.4-4.2-0.7-8.4-1-12.6c-0.6-6.6-1-13.4-1.4-20.2
					c-0.1-1.4-0.2-2.9-0.4-4.3c-4-31-28.6-48.1-51.1-51.4c-2.5-0.4-4.9-0.6-7.2-0.6l-2.7,0.1c-11.7,0.3-22.7,3.9-31.9,10.5
					L992.1,1244z M2278.7,3329.9L2278.7,3329.9l-0.2-1.1L2278.7,3329.9z M2464.4,3260C2464.4,3260,2464.4,3260,2464.4,3260
					L2464.4,3260z M2554.7,3223.2L2554.7,3223.2L2554.7,3223.2z M2823.5,3059.6c0,0-0.1,0-0.1,0.1L2823.5,3059.6z M818,1501.5
					L818,1501.5L818,1501.5z"/>
			</g>
			<g>
				<path class="st3" d="M1110.7,1895.1c4-35.8,1.8-76.2-7.8-118.2c-28.7-125.9-112.6-217.6-187.3-204.9
					c-74.7,12.7-112.1,125.1-83.4,251c28.7,125.9,112.6,217.6,187.3,204.9L1110.7,1895.1z"/>
			</g>
			<g>
				<path class="st5" d="M897,1582.6c-18.7,12.9-32.4,31.8-41.7,52.5c-9.4,20.8-14.7,43.3-17.8,66.1c-3,22.8-3.5,46.1-2.3,69.1
					c0.6,11.5,1.7,23,3.4,34.3c0.9,5.6,1.8,11.2,3.2,16.5c1.8,5.5,3.3,11,5.1,16.5c7.1,21.9,15.7,43.1,25.8,63.5
					c10.2,20.3,21.9,39.9,35.8,57.6c6.8,8.9,14.3,17.4,22.3,25.1c7.9,7.9,16.5,15,25.7,21.1c9.2,6.2,19.1,11.2,29.5,14.7
					c10.5,3.3,21.5,5,32.9,4.5l0.1,0c2.1-0.1,3.8,1.5,3.9,3.6c0.1,1.8-1.1,3.3-2.7,3.8c-11.9,3.3-24.9,3.9-37.4,1.8
					c-12.5-2-24.5-6.5-35.7-12.2c-11.2-5.8-21.5-13-31-21c-9.5-8.1-18.1-17-26.2-26.3c-15.8-18.9-29-39.8-39.5-61.9
					c-5.4-10.9-9.9-22.3-13.9-33.8c-2-5.7-3.9-11.5-5.6-17.3c-1.5-5.9-3.2-11.7-4.5-17.6c-1.5-5.9-2.5-11.8-3.6-17.8
					c-1.3-6.2-2.2-12.2-3-18.3c-1.5-12.1-2.3-24.1-2.6-36.2c-0.6-24.1,0.9-48.2,4.8-72.1c4-23.8,10.6-47.5,21.6-69.3
					c10.9-21.8,27.1-41.7,48.1-54.7c2.2-1.4,5-0.7,6.4,1.5C899.6,1578.4,899,1581.2,897,1582.6z"/>
			</g>
			<g class="st4">
				<path class="st5" d="M882.4,1777.2c4.2,38.5,17,75,34.7,103.9c20.8,33.9,48.3,57.5,76.5,61.8c52.3,7.9,87.4-53.4,78.4-137
					c-8.6-79.8-54.4-151-104.1-164.2c-2.4-0.7-4.8-1.2-7.1-1.5C908.5,1632.3,873.4,1693.7,882.4,1777.2z"/>
			</g>
			<g>
				
					<ellipse transform="matrix(0.8942 -0.4476 0.4476 0.8942 -726.3674 640.04)" class="st3" cx="991.2" cy="1857.1" rx="68.3" ry="122.6"/>
			</g>
			<g>
				<path class="st5" d="M1065.8,1861c1-26.6-2.5-53.2-10.1-78.5c-3.4-12.8-8.4-25-13.7-36.9c-5.6-11.8-11.9-23.2-19.3-33.7
					c-7.6-10.4-15.9-20.1-25.3-28.2c-9.3-8.1-19.9-14.4-30.7-17.3c-10.7-3-21.6-2.3-31,2.3c-9.5,4.5-17.4,13-23.3,23.2
					c-6,10.3-10,22.2-12.5,34.5c-2.6,12.3-3.7,25.2-3.6,38.1c-0.2,6.4,0.5,12.9,0.8,19.4c0.9,6.4,1.3,12.9,2.6,19.3
					c2,12.9,5.5,25.5,9.3,38c4.3,12.3,9.3,24.5,15.3,36c6.2,11.5,13.3,22.4,21.6,32.4c8.3,9.9,18,18.6,29,25
					c10.9,6.4,23.4,10.2,36.1,9l0.1,0c2.1-0.2,3.9,1.3,4.1,3.4c0.2,1.9-1.1,3.6-2.9,4c-14.4,3.3-29.7,0.5-42.9-5.6
					c-13.3-6.1-24.8-15.1-35-25.2c-10-10.3-18.5-21.8-26.1-33.8c-7.5-12.1-13.4-25-18.7-38.2l-3.5-10c-1.2-3.3-2.3-6.7-3.2-10.1
					l-2.9-10.3l-2.2-10.4c-1.7-6.9-2.3-14-3.5-21.1c-0.5-7.1-1.5-14.2-1.5-21.4c-0.6-14.3,0.5-28.9,3.3-43.2
					c2.8-14.4,7.3-28.7,14.9-42.1c7.5-13.3,18.9-25.9,34.1-33.1c15.1-7.4,33.2-8.1,48.6-3.5c15.5,4.6,28.4,13.4,39.4,23.3
					c11,10,20.2,21.4,28.1,33.5c7.7,12.2,14.1,25,19.5,38.1c4.9,13.3,9.4,26.8,12.1,40.6c5.8,27.5,7.3,56.1,2.4,83.7
					c-0.4,2.5-2.8,4.2-5.4,3.8C1067.3,1865.4,1065.7,1863.4,1065.8,1861L1065.8,1861z"/>
			</g>
		</g>
		<g>
			<path class="st8" d="M1550.5,2385.4c-22.1,27.1-65.7,28.1-97.2,2.2c-31.6-25.8-39.2-68.7-17-95.8c22.1-27,65.7-28,97.2-2.2
				C1565,2315.5,1572.6,2358.4,1550.5,2385.4z"/>
		</g>
		<g class="st9">
			<path class="st7" d="M1550.5,2385.4c-2.1,2.6-4.5,5-7,7.1c11.4-26.4,1.8-60.7-25-82.6c-28.5-23.3-66.8-24.8-90.2-4.9
				c2-4.7,4.6-9,8-13.1c22.1-27,65.7-28,97.2-2.2C1565,2315.5,1572.6,2358.4,1550.5,2385.4z"/>
		</g>
		<g>
			<path class="st10" d="M1562.4,2358.6c-1.5,9.7-5.5,18.9-11.9,26.8c-22.1,27-65.7,28.1-97.2,2.2c-31.6-25.8-39.2-68.7-17-95.8
				c2.5-3,5.2-5.7,8.1-8c-3.8,23.8,6.5,50.6,28.9,68.9C1501.3,2375.8,1538.9,2377.5,1562.4,2358.6z"/>
		</g>
		<g>
			<path class="st5" d="M1511,2360.9c-8.6,10.6-25.6,10.9-37.9,0.9c-12.3-10.1-15.3-26.8-6.7-37.4c8.6-10.5,25.6-10.9,37.9-0.9
				C1516.7,2333.6,1519.7,2350.3,1511,2360.9z"/>
		</g>
		<g>
			<path class="st11" d="M1590.8,2276.5c16.2,13.2,18.5,37,5.3,53.2l-45.6,55.8c22.1-27,14.5-69.9-17-95.7
				c-31.6-25.8-75.1-24.8-97.2,2.2l45.6-55.8c13.2-16.2,37-18.5,53.2-5.3L1590.8,2276.5z"/>
		</g>
		<g>
			<path class="st5" d="M1503.8,2418.9c-20.7,0-41.4-7.6-58.4-21.5c-17.6-14.4-29.3-33.9-33.1-54.9c-3.9-21.7,1.2-42.5,14.3-58.4
				c13-15.9,32.4-25,54.5-25.5c21.2-0.5,42.8,7.2,60.3,21.5c17.6,14.4,29.3,33.9,33,54.9c3.9,21.7-1.2,42.5-14.2,58.4l0,0
				c-13.1,16-32.4,25-54.5,25.5C1505.1,2418.9,1504.4,2418.9,1503.8,2418.9z M1482.9,2283.5c-0.4,0-0.9,0-1.3,0
				c-14.7,0.3-27.3,6.1-35.7,16.3c-8.4,10.2-11.6,23.8-9,38.2c2.7,15.2,11.3,29.3,24.3,39.9c12.9,10.6,28.8,16.2,43.9,15.9
				c14.7-0.3,27.3-6.2,35.7-16.4l0,0c8.3-10.2,11.5-23.8,9-38.2c-2.7-15.1-11.3-29.3-24.2-39.9
				C1513,2289.1,1497.9,2283.5,1482.9,2283.5z"/>
		</g>
		<g>
			<path class="st5" d="M1560.2,2393.3l-19.3-15.8c8.3-10.2,11.5-23.8,9-38.2c-2.7-15.1-11.3-29.3-24.2-39.9
				c-13-10.6-28.5-16.2-44-15.9c-14.7,0.3-27.3,6.1-35.7,16.3l-19.3-15.8c0,0,0,0,0,0l45.6-55.8c8.5-10.4,20.6-16.9,33.9-18.2
				c13.4-1.4,26.5,2.6,36.9,11.1l55.8,45.6c21.5,17.6,24.6,49.3,7.1,70.8L1560.2,2393.3C1560.2,2393.3,1560.2,2393.3,1560.2,2393.3
				L1560.2,2393.3z M1482.9,2258.5c20.7,0,41.4,7.6,58.4,21.6c17.6,14.4,29.3,33.9,33,54.9c0.1,0.4,0.2,0.9,0.2,1.3l11.8-14.5
				c8.8-10.8,7.2-26.8-3.5-35.6l-55.8-45.6c-10.8-8.8-26.8-7.2-35.6,3.6l-11.8,14.5c0.4,0,0.9,0,1.3,0
				C1481.7,2258.5,1482.3,2258.5,1482.9,2258.5z"/>
		</g>
		<g>
			<path class="st8" d="M2132.2,2637.2c-15.6,31.3-57.9,41.9-94.3,23.7c-36.5-18.2-53.4-58.4-37.8-89.6
				c15.6-31.2,57.8-41.8,94.3-23.6C2130.9,2565.8,2147.8,2605.9,2132.2,2637.2z"/>
		</g>
		<g class="st9">
			<path class="st7" d="M2132.2,2637.2c-1.4,2.7-2.9,5.3-4.7,7.7c3.4-27.4-13.3-56.9-43.1-71.8c-33.2-16.6-71.3-9.3-89.6,15.8
				c0.8-6.1,2.5-12,5.4-17.7c15.6-31.3,57.9-41.8,94.3-23.6C2130.9,2565.8,2147.8,2605.9,2132.2,2637.2z"/>
		</g>
		<g>
			<path class="st10" d="M2132.2,2637.2c-15.6,31.3-57.9,41.9-94.3,23.7c-36.5-18.2-53.4-58.4-37.8-89.6c0.3-0.6,0.6-1.1,0.9-1.6
				c3.8,21.7,19.2,42.6,42.7,54.3c35.8,17.9,77.2,8,93.4-22C2139.1,2613.9,2137.7,2626.1,2132.2,2637.2z"/>
		</g>
		<g>
			<path class="st11" d="M2147.5,2522c18.7,9.3,26.2,32,16.9,50.7l-32.2,64.5c15.6-31.2-1.3-71.4-37.7-89.6
				c-36.5-18.2-78.7-7.6-94.3,23.6l32.2-64.5c9.3-18.7,32-26.2,50.7-16.9L2147.5,2522z"/>
		</g>
		<g>
			<path class="st5" d="M2074.7,2682.2c-14,0-28.6-3.3-42.5-10.2c-20.3-10.1-36.1-26.6-44.4-46.3c-8.6-20.3-8.2-41.7,1-60.2
				c9.2-18.4,26.1-31.5,47.5-36.9c20.7-5.2,43.3-2.5,63.6,7.7c20.3,10.1,36,26.6,44.3,46.2c8.6,20.3,8.2,41.7-1,60.1l0,0l0,0
				C2130.7,2668,2103.9,2682.2,2074.7,2682.2z M2057.4,2551.2c-5.1,0-10.1,0.6-15,1.8c-14.2,3.6-25.3,12-31.2,23.8
				c-5.9,11.8-6,25.8-0.3,39.3c6,14.2,17.5,26.1,32.5,33.6c30.2,15.1,65,7,77.5-18.1l0,0c5.9-11.8,6-25.7,0.3-39.2
				c-6-14.2-17.5-26.1-32.5-33.6C2078.7,2553.7,2068,2551.2,2057.4,2551.2z"/>
		</g>
		<g>
			<path class="st5" d="M2143.4,2642.8l-22.4-11.2l0,0c5.9-11.8,6-25.7,0.3-39.2c-6-14.2-17.5-26.1-32.5-33.6
				c-15-7.5-31.4-9.5-46.4-5.8c-14.2,3.6-25.3,12-31.2,23.8l-22.4-11.2l32.2-64.5c6-12,16.3-21,29.1-25.2
				c12.7-4.2,26.4-3.3,38.4,2.7l64.5,32.2c24.8,12.4,34.9,42.7,22.5,67.5L2143.4,2642.8L2143.4,2642.8z M2057.4,2526.2
				c14.4,0,29,3.5,42.6,10.3c20.3,10.1,36,26.6,44.3,46.2c0.2,0.4,0.3,0.8,0.5,1.2l8.4-16.7c6.2-12.5,1.2-27.7-11.3-33.9l-64.5-32.2
				c-6-3-12.9-3.5-19.3-1.4c-6.4,2.1-11.6,6.6-14.6,12.7l-8.4,16.7c0.4-0.1,0.8-0.2,1.3-0.3
				C2043.2,2527,2050.3,2526.2,2057.4,2526.2z"/>
		</g>
		<g>
			<g>
				<path class="st7" d="M2284.1,2595.1c-317-80.6-609.6-215.5-873.5-409.2c-65.2-48.4-83.1-142.4-25.2-204v0
					c53.8-56.9,145.3-62.8,207.8-17c239.4,171.8,503.9,289,790.4,356.9c75.5,16.7,146.4,87.4,121.9,170.1v0
					C2477.8,2581.6,2367.8,2615.2,2284.1,2595.1z"/>
			</g>
		</g>
		<g>
			<g>
				<path class="st5" d="M2333.5,2612c-17.7,0-35.3-2-52-6l-0.1,0c-322.2-81.9-617.4-220.2-877.4-411.1
					c-36.9-27.4-60.2-68.4-64.1-112.6c-3.6-40.3,9.7-78.7,37.4-108.2c56.9-60.2,154.6-68.2,222.6-18.3
					c232.8,167,497.4,286.5,786.4,355c48.6,10.7,93.5,42.2,117,82.1c18.9,32,23.4,67.3,13,102.1
					C2492.1,2573.4,2411.2,2612,2333.5,2612z M2286.8,2584.2c80.2,19.2,183-14.6,208.1-95.6c8.5-28.6,4.7-57.7-10.9-84.2
					c-20.5-34.7-59.8-62.2-102.7-71.6c-292-69.3-559.3-190-794.6-358.8c-59.1-43.4-143.9-36.5-193.1,15.6
					c-23.3,24.7-34.4,57-31.4,90.8c3.4,37.8,23.5,73,55.1,96.5C1674.8,2365.9,1967.4,2503,2286.8,2584.2z"/>
			</g>
		</g>
		<g>
			<path class="st7" d="M2008.8,1519.8c-27.3,5.1-56.6,5.6-87.6,2.5c-93.5-9.4-201.3-51.8-308.4-98.2
				c-72.2-31.3-140.1-17.2-148.9-40.2c-12.6-33.1,50.2-41.7,50.2-41.7s8.7-17.5-82.2-54.6c-73.4-30-65.7-80.7,13.8-90.5
				c147-18.1,281.5,44.9,403.4,92.8c32.9,12.9,64.8,24.7,95.9,33.6c46.7,13.3,91.3,19.8,133.9,13.2l-49.6,129.5L2008.8,1519.8z"/>
		</g>
		<g class="st4">
			<path class="st5" d="M1432,1287.6c-48.6-19.9-61.7-48.9-41.7-69c3.7,14.4,15.3,26.9,37,33.8c129.1,41.2,124.1,80.3,124.1,80.3
				s-31.7,11.9-61.8,15.9c12.5-4.6,24.6-6.3,24.6-6.3S1522.8,1324.8,1432,1287.6z"/>
		</g>
		<g class="st4">
			<path class="st5" d="M2008.8,1519.8c-27.3,5.1-56.6,5.6-87.6,2.5c-93.5-9.4-201.3-51.8-308.4-98.2
				c-72.2-31.3-140.1-17.2-148.9-40.2c-1.3-3.6-1.8-6.8-1.6-9.8c42,21.2,119.8,9,181.8,36c107,46.4,215.4,33.5,308.9,42.9
				c28.8,2.9,56.3,2.7,82-1.5l-5.7,14.8L2008.8,1519.8z"/>
		</g>
		<g>
			<path class="st5" d="M1958.7,1539.2c-108.1,0-236.8-51.4-351.9-101.3c-34.3-14.9-67.8-18.9-94.6-22.2
				c-30.6-3.7-54.7-6.6-62.3-26.5c-4.2-11-3.4-21.8,2.2-31.3c7.6-12.9,23-20.5,36.4-25c-9.9-7-28.3-17.5-62.2-31.4
				c-41.5-16.9-63.2-41.8-59.7-68.2c3.6-26.8,31.8-45.4,77.3-51c135.4-16.6,261.1,33.8,372.1,78.4c94,37.8,182.8,73.5,260.7,61.3
				c8.1-1.3,15.9,4.3,17.1,12.5c1.3,8.2-4.3,15.9-12.5,17.1c-86,13.4-178.5-23.8-276.5-63.1c-112.8-45.3-229.4-92.2-357.2-76.4
				c-33.4,4.1-50,16-51.2,25.2c-1.2,9.3,11,24.1,41.3,36.5c54.1,22.1,83.5,41.4,90.2,58.9c3.1,8.1,0.9,14.1-0.2,16.3
				c-2.2,4.4-6.5,7.5-11.4,8.2c-13.1,1.8-33.7,8.4-38.3,16.1c-0.5,0.8-1.2,2-0.1,5c3.9,3.6,23.6,6,38,7.7
				c27.3,3.3,64.6,7.8,103,24.4c130.4,56.6,278.6,115.2,387.2,94.7c8.2-1.5,16,3.8,17.5,12c1.5,8.1-3.8,16-12,17.5
				C1994.7,1537.8,1977,1539.2,1958.7,1539.2z"/>
		</g>
		<g>
			<path class="st5" d="M1512.9,1327.3c2.5,0.4,5.8,0.6,8.8,0.8c3,0.1,6,0.2,9,0.2c5.9-0.1,11.9-0.6,16.8-2l0.9-0.3
				c4-1.1,8.1,1.2,9.3,5.2c0.8,3-0.3,6.1-2.5,7.9c-6.3,5-12.9,8.2-19.4,11c-3.3,1.4-6.6,2.6-10,3.8c-3.4,1.2-6.6,2.2-10.4,3.2
				l-1,0.3c-8.2,2.1-16.6-2.9-18.6-11.2c-2.1-8.2,2.9-16.6,11.2-18.6C1508.9,1327.1,1511,1327.1,1512.9,1327.3z"/>
		</g>
		<g>
			<path class="st5" d="M1784,1503.6c-2,0-4-0.5-5.9-1.5c-6.1-3.3-8.4-10.8-5.1-16.9c41.6-77.9,38.2-203.6,38.1-204.9
				c-0.2-6.9,5.2-12.7,12.1-12.9c6.8-0.3,12.7,5.2,12.9,12.1c0.2,5.4,3.7,133.6-41.1,217.5C1792.8,1501.2,1788.5,1503.6,1784,1503.6
				z"/>
		</g>
		<g>
			<g>
				<path class="st7" d="M2428.9,1382.1l-14.9,57.3l-7.6,29.2l-131.1,503.3c0,0,34.8,7,82.3,12.6c9.3,1.1,19,2.2,29.1,3.1
					c75.1,7,167.8,7.6,208.9-24.1c61.4-47.4,121.2-323.1,96-441.5c-11.5-54.3-113.3-95.8-186.7-119c-8.2-2.6-16.1-5-23.4-7.1
					C2450.6,1386.9,2428.9,1382.1,2428.9,1382.1z"/>
			</g>
			<g class="st4">
				<path class="st5" d="M2414,1439.4l-7.6,29.2l-104.1,399.6l-27,103.7c0,0,0.7,0.1,2.1,0.4c0.4,0.1,0.9,0.2,1.4,0.3
					c0.4,0.1,0.8,0.2,1.3,0.2c0.3,0.1,0.7,0.1,1,0.2c0.1,0,0.3,0.1,0.4,0.1c0.6,0.1,1.3,0.2,2.1,0.4c0.2,0,0.3,0.1,0.5,0.1
					c0.6,0.1,1.2,0.2,1.9,0.3c0.9,0.2,1.9,0.3,2.9,0.5c0.7,0.1,1.5,0.3,2.2,0.4c0.8,0.1,1.6,0.3,2.4,0.4c1,0.2,2.1,0.4,3.2,0.6
					c2.2,0.4,4.6,0.8,7.1,1.2c2.2,0.4,4.5,0.7,7,1.1c2.8,0.4,5.7,0.9,8.8,1.4c11.2,1.7,24.1,3.5,38.1,5.1c2.7,0.3,5.5,0.6,8.3,1
					c1.9,0.2,4,0.4,6,0.6c4.8,0.5,9.8,1,14.9,1.5c75.1,7,167.8,7.6,208.8-24.1c50.6-39,100.1-232.9,101.9-366.2
					c-17,113.1-54.4,230.4-92.6,259.8c-18.8,14.5-50.5,21.8-86.5,24.6c-15.4,1.2-25.9-15-18.9-28.8c0.1-0.1,0.1-0.2,0.2-0.3
					c12.7-25.2,23.3-54.9,30.4-90.8c15-77,25.7-190-40.5-295.9C2487.9,1463.4,2454.5,1452.4,2414,1439.4z"/>
			</g>
			<g>
				<path class="st5" d="M2462.4,2006.3c-89.9,0-183.8-18.5-190.1-19.8l-15.5-3.1l161.3-619l14.1,3.1c26,5.7,254.4,58.8,274.1,151.4
					c14.4,67.8,1.4,175.5-15.6,253.6c-8.4,38.5-39.3,166.8-86,202.8C2574,1999,2519,2006.3,2462.4,2006.3z M2293.7,1960.2
					c76.1,13.5,239.8,32.3,292.6-8.5c52.2-40.3,116.1-306.3,90.6-426.6c-11.2-52.9-145.9-103-237.3-125.2L2293.7,1960.2z"/>
			</g>
			<g>
				<path class="st7" d="M2631.8,1757.8l-101.3-13.7c-9-1.2-17.8,3.8-21.2,12.3c-12.6,30.9-38.1,103.9-12.1,135.4
					c21.6,26.1,64.3,32.6,93.5,16.9c32.6-17.5,50.9-90.6,58.2-127.1C2651.1,1770.2,2643.3,1759.3,2631.8,1757.8z"/>
			</g>
			<g class="st4">
				<path class="st5" d="M2509.3,1756.4c-12.7,30.9-38.1,103.9-12.1,135.3c21.6,26.1,64.3,32.6,93.5,16.9
					c20-10.8,34.7-42.6,44.7-73.9c-7.9,15-17.7,26.5-28.3,33.2c-60.6,38.2-86-27.4-86-27.4s-9.5,12.6-14.8,12.3
					c-22.4-1.3-3.5-68.3,7.1-102.7C2511.6,1751.8,2510.2,1753.9,2509.3,1756.4z"/>
			</g>
			<g>
				<path class="st5" d="M2555.4,1927.1c-25.2,0-50.4-10.3-66-29c-28.5-34.4-5.6-105.9,10.5-145.5c5.2-12.7,18.2-20.2,31.8-18.4
					l101.3,13.7c8.2,1.1,15.7,5.6,20.5,12.3c4.8,6.7,6.6,15.2,5,23.3c-10.2,51-29.4,115.7-63.3,133.9
					C2583.2,1924,2569.3,1927.1,2555.4,1927.1z M2527.8,1753.9c-4,0-7.7,2.4-9.3,6.2c-24.3,59.4-29.4,106.2-13.7,125.2
					c18.1,21.8,55.2,28.4,81,14.5c20.5-11,40.3-55.9,53.1-120.2c0.6-2.8,0-5.5-1.7-7.8c-1.6-2.3-4.1-3.8-6.9-4.1h0l-101.3-13.7
					C2528.7,1753.9,2528.2,1753.9,2527.8,1753.9z"/>
			</g>
			<g>
				<path class="st5" d="M2537.4,1924c-1.9-1.7-2.9-2.8-4.1-4.2c-1.1-1.3-2.2-2.7-3.2-4c-2-2.7-3.7-5.5-5.3-8.4
					c-3.1-5.8-5.6-11.8-7.2-18c-3.5-12.3-4.5-24.9-3.8-37.2c0.8-12.3,3.3-24.1,6.3-35.6c1.5-5.7,3.2-11.5,5.2-17.1
					c2.1-5.7,4.1-11.1,7.6-16.7c0.9-1.4,2.7-1.8,4.1-1c1.3,0.8,1.8,2.5,1.1,3.8l-0.2,0.4c-2.2,4.6-3.9,10.3-5.3,15.8
					c-1.4,5.5-2.5,11.2-3.4,16.8c-1.8,11.4-3,22.7-2.6,33.7c0.4,11.1,2.5,21.9,6.4,31.7c1.9,5,4.4,9.6,7.2,13.8c1.4,2.1,3,4.1,4.6,6
					c0.8,0.9,1.7,1.8,2.5,2.6c0.8,0.7,1.9,1.7,2.2,1.9c4.8,2.8,6.5,8.9,3.8,13.8c-2.8,4.8-8.9,6.5-13.8,3.7
					c-0.6-0.3-1.2-0.7-1.7-1.2L2537.4,1924z"/>
			</g>
			<g>
				<path class="st5" d="M2543.2,1474.7c12.8,0.8,25.3,1.8,37.9,3.1c12.6,1.3,25.2,2.8,37.8,4.6s25.2,3.9,37.9,6.7
					c12.7,2.8,25.3,6,38.3,10.9c7.7,2.9,11.6,11.6,8.7,19.3c-2.9,7.7-11.6,11.6-19.3,8.7c-0.5-0.2-0.9-0.4-1.3-0.6l-0.1,0
					c-10.1-5-21.5-9.1-33-12.8c-11.6-3.7-23.5-6.9-35.5-9.9c-12-3-24.1-5.6-36.3-8c-12.2-2.4-24.5-4.7-36.7-6.6l-0.1,0
					c-4.2-0.7-7.1-4.6-6.4-8.8C2535.7,1477.3,2539.2,1474.5,2543.2,1474.7z"/>
			</g>
		</g>
		<g>
			<defs>
				<path id="SVGID_1_" d="M2514.1,2455.4c-22.6,72.9-99.6,108.8-172.6,108.8c-16.7,0-33.2-1.9-48.9-5.6
					c-317-80.6-609.6-215.5-873.5-409.2c-65.1-48.4-83.1-142.4-25.2-204c29.9-31.6,71.4-47.5,113.1-47.5c33.4,0,66.9,10.2,94.6,30.5
					c10.3,7.4,20.7,14.7,31,21.9c215.7,149.2,451.3,255.1,704.6,321.4c18.2,4.8,36.5,9.3,54.8,13.7
					C2467.8,2301.9,2538.6,2372.6,2514.1,2455.4z"/>
			</defs>
			<use xlink:href="#SVGID_1_"  style="overflow:visible;fill:#1A8BFC;"/>
			<clipPath id="SVGID_2_">
				<use xlink:href="#SVGID_1_"  style="overflow:visible;"/>
			</clipPath>
			<g class="st12">
				<polygon class="st7" points="1829.5,2040.8 1874.9,2414.4 1965.4,2462 1915,2090 				"/>
			</g>
			<g class="st12">
				<polygon class="st7" points="1649.5,1950.8 1694.9,2324.4 1785.4,2372 1735,2000 				"/>
			</g>
			<g class="st12">
				<polygon class="st7" points="2009.5,2105.8 2054.9,2479.4 2145.4,2527 2095,2155 				"/>
			</g>
		</g>
		<g class="st13">
			<path class="st7" d="M2392.2,2280.2c-18.3-4.4-36.6-8.9-54.8-13.7c-253.3-66.3-488.9-172.1-704.6-321.4
				c-10.4-7.2-20.7-14.5-31-21.9c-27.8-20.4-61.3-30.5-94.6-30.5c-41.7,0-83.3,15.9-113.1,47.5c-23.8,25.4-34.8,56.2-34.9,87.1
				c5.4-18.6,15.2-36.4,29.9-52.1c29.9-31.6,71.4-47.5,113.1-47.5c33.4,0,66.9,10.2,94.6,30.5c10.3,7.4,20.7,14.7,31,21.9
				c215.7,149.2,451.3,255.1,704.6,321.4c18.2,4.8,36.5,9.3,54.8,13.7c64.7,14.3,126,68.3,126.8,135.5c0-0.1,0.1-0.2,0.1-0.4
				C2538.6,2367.6,2467.8,2296.9,2392.2,2280.2z"/>
		</g>
		<g class="st14">
			<path class="st5" d="M2337.4,2271.5c-22.7,91.1-87,154.7-172.9,151c-217.7-9.3-157.5-163-152.9-200.3
				c3.5-28.1-137.1-92.6-207-48.4c-61.4,38.8-163,18-217.1-49.2c-66.3-82.5-2.1-153.3,45.3-174.5
				C1848.5,2099.4,2084.1,2205.2,2337.4,2271.5z"/>
		</g>
		<g>
			<g>
				<path class="st5" d="M2342,2575.4c-17.7,0-35.3-2-52-6l-0.1,0c-322.2-81.9-617.4-220.2-877.4-411.1
					c-36.9-27.4-60.2-68.4-64.1-112.6c-3.6-40.3,9.7-78.7,37.4-108.2c56.9-60.2,154.6-68.2,222.6-18.3
					c232.8,167,497.4,286.5,786.4,355c48.6,10.7,93.5,42.2,117,82.1c18.9,32,23.4,67.3,13,102.1
					C2500.6,2536.9,2419.7,2575.4,2342,2575.4z M2295.3,2547.7c80.2,19.2,183-14.6,208.1-95.6c8.5-28.6,4.7-57.7-10.9-84.2
					c-20.5-34.7-59.8-62.2-102.7-71.7c-292-69.3-559.3-190-794.6-358.8c-59.1-43.4-143.9-36.5-193.1,15.6
					c-23.3,24.7-34.4,57-31.4,90.8c3.4,37.8,23.4,73,55.1,96.5C1683.4,2329.4,1975.9,2466.4,2295.3,2547.7z"/>
			</g>
		</g>
		<g>
			<path class="st7" d="M2416,1943.2c-46.8,46.2-90.9,67.7-93.2,155.5c-1.4,54.2,18.7,86.8-8.3,160.8
				c-38.5,105.7-102.5,163.9-216.9,111.2c-69.6-32.1-68.5-96.5-43.1-148.9c10.8-22.3,25.9-42.4,41.8-56.9
				c-34.7-37.9-62.6-104.3-41.1-214c0,0-0.3-0.4-0.9-1.2c-3.1-4-14.5-16.7-35.9-23c-83.7-25.7-103.3,10.6-122.7,72.9
				c-6.2,19.9-15.3,81.5-43.2,104.8c-58.6,49.1-165.3,84.7-244.5-2.9c-36.3-40.3-32.9-77.8-9.7-108.2c19-25.1,51.4-45.4,85.8-58.6
				c-31.9-213.3,204.6-238.6,204.6-238.6s115.9-220.2,142.1-401l442.9,34.8c32.1,123.7,46.9,221.3,49.8,299.6
				C2530.2,1809.2,2473.2,1886.8,2416,1943.2z"/>
		</g>
		<g class="st14">
			<path class="st5" d="M2103.3,1886.3c-24.2,18.7-39.4,42.2-49,63.2c-3.1-4-14.5-16.7-35.9-23c-83.7-25.7-103.3,10.6-122.7,72.9
				c-6.2,19.9-15.3,81.5-43.2,104.8c-58.6,49.1-165.3,84.7-244.5-2.9c-36.3-40.3-32.9-77.8-9.7-108.2
				c14.9,53.9,49.1,102.5,96.1,107.9c65.2,7.6,119.3,6.3,156.2-61c39.4-71.9,13.6-158.9,41.7-190.9c28.1-32,92.9-24.2,136.7-6.5
				C2072.2,1860.1,2103.3,1886.3,2103.3,1886.3z"/>
		</g>
		<g class="st14">
			<path class="st5" d="M2416,1943.2c-46.8,46.2-90.9,67.7-93.2,155.5c-1.4,54.2,18.7,86.8-8.3,160.8
				c-38.5,105.7-102.5,163.9-216.9,111.2c-69.6-32.1-68.5-96.5-43.1-148.9c-2.1,23.2-1.7,52.6,9.7,74.1
				c25.5,48.1,117.3,57.8,164.5,15.9c37.1-32.9,71.9-85.5,59.6-149.7c-12.3-64.2-30.6-132.2-6.1-176.4
				c16.4-29.5,90.1-44.8,111.5-101.3c8.7-23.1-52.5-43.4-95.7-54.7c-19.9-5.2-40.7,0.3-56.8,13.2c-14.3,11.5-34.1,15.4-52.4,8.4
				l-231.5-87.6c-27.4-10.4-41.4-41.3-31-68.7l9.7-25.6l36.9-97.6c10.3-27.5,41.3-41.4,68.7-31l231.5,87.6c3.4,1.3,6.6,2.9,9.6,4.8
				c20.9,13.3,30.5,39.9,21.4,63.9l-23.5,62.2c57.5,7.4,175.8,33.7,178.9,25.2c24.6-67.4,26.6-74.2,22.7-151.4
				c0,0,16.2-4.3,29.7-5.5c3.3-0.3,7.1,0.3,11.4,1.8C2530.2,1809.2,2473.2,1886.8,2416,1943.2z"/>
		</g>
		<g>
			<path class="st5" d="M2001.8,1445.6c-5.3,22.4-11.3,44.7-18.5,66.6c-7,22-14.8,43.6-23.1,65.1c-8.4,21.5-17.2,42.7-26.9,63.6
				c-9.6,21-19.8,41.5-31.3,61.9l-4.2,7.4l-7.5,0.5h0c-6.2,0.8-13.5,2.1-20.3,3.6c-6.9,1.5-13.8,3.2-20.6,5.2
				c-13.6,3.9-26.9,8.7-39.8,14.4c-25.7,11.4-49.5,26.6-68.4,46.3c-9.4,9.8-17.9,20.5-24.4,32.4c-6.5,11.8-11.7,24.3-15.1,37.5
				c-6.6,26.4-6.9,54.5-2.9,82.3l1.7,11.8l-11.1,4.3c-15.2,5.9-29.9,13-43.3,21.8c-13.4,8.7-25.7,18.9-35,30.6
				c-9.3,11.7-15.1,25-15.5,38.4c-0.4,13.4,4.6,26.9,13.2,39.4c4.4,6.1,9.1,12.2,15,17.6l8.4,8.4c3,2.6,6.1,4.9,9.2,7.3
				c5.9,5.3,12.9,8.6,19.5,12.8c3.4,1.8,7,3.2,10.5,4.8c1.8,0.8,3.5,1.6,5.3,2.3l5.5,1.7c3.7,1,7.3,2.5,11.1,3.1l11.4,2
				c3.8,0.6,7.7,0.6,11.6,0.9c1.9,0.1,3.9,0.4,5.8,0.3l5.9-0.3c7.8,0,15.6-1.4,23.4-2.5c7.7-1.9,15.5-3.4,23-6.2
				c15.1-5.1,29.9-11.7,43.5-20.3c3.5-2,6.7-4.5,10.1-6.6c3.4-2.2,6.5-4.7,9.7-7.2l4.7-3.7l3.4-3.3c2.2-2.4,4.3-5,6.3-8.1
				c7.9-12.1,13.4-27.6,18-43.3c2.3-7.9,4.3-16.1,6.3-24.4l3.1-12.8c0.5-2.1,1.3-4.7,1.9-6.9l2-6.3c5.6-16.7,11.3-34.1,22.7-50.9
				c2.6-4.2,6.3-8.1,9.7-12.1c4-3.6,7.9-7.4,12.7-10.2c4.5-3.2,9.7-5.1,14.7-7.2c5.1-1.4,10.4-3.1,15.5-3.4
				c20.6-2.5,39.4,1.4,56.9,6.1l6.6,1.8c2.3,0.8,4.8,1.5,7.1,2.4c4.8,1.8,9.4,4.1,13.8,6.6c4.5,2.6,8.7,5.6,12.7,8.9
				c2,1.7,3.9,3.5,5.8,5.4c0.9,1,1.9,2,2.8,3l1.4,1.7c0.5,0.7,0.8,1,1.6,2.2l3.5,4.9l-1.2,6.3c-3.3,17.9-5.9,35.9-6.8,53.9
				c-0.8,18-0.3,35.9,2.3,53.4c2.6,17.5,7.2,34.5,14.1,50.4c6.8,16,16.4,30.5,27.8,43.2l9.9,11.1l-10.8,10.1
				c-21.1,19.6-37.9,45.8-46.8,73.3c-4.4,13.8-6.6,28-5.7,41.6c1,13.5,5,26.4,12.8,37c3.8,5.3,8.3,10.3,13.6,14.6
				c2.5,2.3,5.5,4.1,8.2,6.2c3,1.8,5.9,3.7,9.1,5.3c6.1,3.2,13.3,6.4,20.2,9.1c3.5,1.4,7,2.7,10.5,3.8c3.5,1.3,7.1,2.3,10.6,3.2
				c14.2,4,28.6,5.8,42.6,5.3c7-0.4,13.9-1.4,20.5-3.1c6.6-1.8,13.1-4.3,19.2-7.4c24.6-12.8,43.7-36.5,58-62.9
				c7.3-13.2,13.5-27.3,18.9-41.7c5.4-14.4,9.9-28.7,12.5-43.3c2.7-14.6,3.3-29.1,2.5-44.1c-0.9-15-3.4-30.7-4.7-47.4
				c-0.7-8.3-0.9-16.8-0.9-25.3c0.1-4.3,0.4-8.5,0.6-12.7c0.1-4.2,0.6-8.5,1.2-12.7c2.1-17,6.3-34.3,14-50.4
				c7.6-16.2,18.4-30.6,30.1-42.9c11.7-12.4,24-23,35.6-33.6c23.1-21,44.4-43.5,61.6-68.5c4-6.4,8.5-12.6,12.2-19.2l10.7-20.1l9-21
				c1.7-3.4,2.6-7.2,3.8-10.8l3.5-10.9c1.1-3.6,2.5-7.2,3.4-10.9l2.6-11.2l2.6-11.2c0.8-3.8,1.9-7.4,2.3-11.3
				c2-15.3,5.1-30.4,5.7-46c4.9-62-0.2-125-9.1-187.4l-7.5-46.8l-9.4-46.5c-1.6-7.7-3-15.5-4.8-23.2l-5.6-23.1l-11.2-46.2l-0.1-0.5
				c-1.9-8,3-16.1,11-18s16.1,3,18,11l11.3,46.8l5.7,23.4c1.9,7.8,3.3,15.8,4.9,23.6l9.6,47.3l7.6,47.8
				c9.1,63.8,14.4,128.8,9.3,194.2c-0.6,16.3-3.9,32.6-6.1,48.9c-0.5,4.1-1.6,8.1-2.5,12.1l-2.8,12.1l-2.8,12.1
				c-1,4-2.5,7.9-3.7,11.9l-3.9,11.9c-1.4,3.9-2.4,8-4.2,11.8l-9.9,23c-3.8,7.4-7.9,14.8-11.8,22.2c-4.1,7.3-9,14.1-13.5,21.2
				c-19.1,27.6-42,51.6-66.1,73.5c-12,10.9-23.8,21.2-34.1,32c-10.3,10.8-18.8,22.3-24.8,35.1c-6,12.7-9.6,26.8-11.4,41.4
				c-0.5,3.6-1,7.3-1.1,11.1c-0.2,3.7-0.5,7.5-0.6,11.2c-0.1,7.4,0.1,14.9,0.8,22.5c1.1,15.1,3.6,31.1,4.7,47.9
				c1,16.9,0.2,34.4-2.9,51.2c-3,16.9-8.2,33.1-14,48.6c-5.8,15.4-12.5,30.6-20.6,45.4c-8,14.8-17.5,29-29,42.1
				c-11.5,13-25.4,24.6-41.5,33c-8.1,4.1-16.6,7.4-25.3,9.8c-8.8,2.3-17.8,3.6-26.7,4.1c-17.9,0.7-35.5-1.7-52-6.3
				c-4.1-1.1-8.3-2.3-12.3-3.7c-4.1-1.3-8-2.8-11.9-4.4c-7.9-3.1-15.4-6.4-23.4-10.5c-3.9-2-7.7-4.5-11.5-6.8
				c-3.7-2.7-7.5-5.1-10.9-8.2c-7.1-5.7-13.5-12.7-18.9-20.3c-11.1-15.2-16.9-34-18.2-52.2c-1.2-18.3,1.8-36.1,7.1-52.7
				c5.3-16.6,12.9-32.2,22.1-46.6c9.2-14.5,20.2-27.8,33-39.7l-1,21.1c-13.7-15.3-25.1-32.7-33.1-51.4
				c-8.1-18.7-13.4-38.3-16.3-58.1c-2.9-19.8-3.5-39.7-2.6-59.3c1-19.7,3.8-39,7.3-58.1l2.3,11.3c0.2,0.3-0.2-0.2-0.3-0.4l-0.7-0.8
				c-0.5-0.6-1-1.2-1.6-1.7c-1.1-1.2-2.4-2.3-3.6-3.4c-2.6-2.2-5.4-4.2-8.4-5.9c-3-1.7-6.1-3.3-9.4-4.5c-1.6-0.7-3.3-1.1-5.1-1.7
				l-5.9-1.6c-15.5-4.4-31.3-7.1-45-5.3c-3.5,0.1-6.5,1.4-9.7,2.1c-2.8,1.4-5.9,2.2-8.3,4.2c-2.7,1.5-5,3.8-7.4,5.9
				c-2.1,2.6-4.5,4.9-6.4,8.1c-8.1,11.8-13.7,27.4-18.9,43.2l-1.9,6c-0.6,2-1,3.5-1.6,5.5l-3,12.3c-2,8.4-4.1,17-6.6,25.6
				c-5.1,17.2-10.9,34.7-21.8,51.5c-2.7,4.2-6,8.3-9.6,12.3c-1.9,1.9-4,3.9-5.9,5.6l-5.4,4.3c-3.6,2.8-7.2,5.7-11.1,8.2
				c-3.8,2.5-7.5,5.3-11.5,7.6c-15.5,9.8-32.3,17.4-49.8,23.3c-8.7,3.1-17.8,5.1-26.8,7.2c-9.2,1.3-18.4,2.9-27.9,3l-7,0.3
				c-2.3,0.1-4.7-0.2-7.1-0.3c-4.7-0.4-9.4-0.4-14.1-1.1l-14-2.5c-4.7-0.8-9.1-2.6-13.7-3.8l-6.8-2.1c-2.2-0.9-4.4-1.9-6.5-2.8
				c-4.3-2-8.7-3.8-12.9-5.9c-8-5-16.5-9.3-23.6-15.5c-3.7-2.9-7.5-5.7-11-8.8l-9.9-9.8c-6.7-6.3-12.7-13.8-18.3-21.6
				c-5.5-8-10.2-16.8-13.5-26.5c-3.3-9.6-5.2-20.1-4.8-30.6c0.3-10.5,2.7-20.9,6.6-30.3c3.9-9.5,9.2-18,15.2-25.6
				c12.1-15.3,26.8-27.2,42.2-37.2c15.5-10,31.9-18,48.8-24.5l-9.4,16.2c-4.5-30.7-4.4-63,3.5-94.2c4-15.5,10.2-30.6,18-44.7
				c7.8-14.2,17.8-26.9,28.9-38.4c22.2-23.1,49.3-40.3,77.7-52.8c14.2-6.3,28.8-11.6,43.7-15.8c7.4-2.1,14.9-4,22.5-5.7
				c7.7-1.6,15-3,23.4-4.1l0,0l-11.6,7.9l28.7-61.3c9.6-20.5,19.1-41.1,28.5-61.7c9.5-20.6,18.6-41.4,27.7-62.2l27-62.7l0-0.1
				c1.6-3.8,6-5.6,9.8-3.9C2000.8,1438.5,2002.6,1442.1,2001.8,1445.6z"/>
		</g>
		<g>
			<g>
				<path class="st7" d="M2354.2,1231c-0.6-1.9-1.2-3.9-1.9-5.9l2.9,4.9L2354.2,1231z"/>
			</g>
		</g>
		<g>
			<path class="st5" d="M2232.8,2072.8c-83.8,0-175.5-23.6-194.7-83.3c-2.1-6.6,1.5-13.6,8.1-15.7c6.6-2.1,13.6,1.5,15.7,8.1
				c21.3,66.1,180.2,80.3,265,53.8c6.6-2.1,13.6,1.6,15.7,8.2c2.1,6.6-1.6,13.6-8.2,15.7C2307,2067.9,2270.7,2072.8,2232.8,2072.8z"
				/>
		</g>
		<g>
			<path class="st5" d="M1932.6,1942.8c-0.2,0-0.5,0-0.8,0c-49.5-3-167-45-210.6-104.7c-14.3-19.6-19.1-39.3-14.3-58.4
				c1.7-6.7,8.5-10.7,15.2-9c6.7,1.7,10.7,8.5,9,15.2c-2.9,11.6,0.5,24.2,10.2,37.5c37.2,51,146.8,91.8,191.9,94.5
				c6.9,0.4,12.1,6.3,11.7,13.2C1944.7,1937.7,1939.1,1942.8,1932.6,1942.8z"/>
		</g>
		<g>
			<circle class="st7" cx="1934.3" cy="1604.5" r="46.8"/>
		</g>
		<g class="st4">
			<path class="st5" d="M1889.6,1590.6c-7.7,24.7,6,51,30.7,58.7c24.7,7.7,51-6.1,58.7-30.8c2.1-6.8,2.6-13.8,1.7-20.5
				c-11.9,12.9-30.6,18.5-48.4,13c-17.8-5.6-30-20.9-32.4-38.2C1895.3,1577.7,1891.7,1583.8,1889.6,1590.6z"/>
		</g>
		<g>
			<path class="st5" d="M1934.4,1663.9c-5.9,0-11.9-0.9-17.7-2.7c-31.2-9.7-48.7-43.1-39-74.3l0,0c9.8-31.2,43.1-48.7,74.3-39
				c15.1,4.7,27.5,15.1,34.9,29.1c7.4,14,8.8,30.1,4.1,45.2c-4.7,15.1-15,27.5-29.1,34.9C1953.2,1661.6,1943.8,1663.9,1934.4,1663.9
				z M1901.5,1594.3c-5.6,18.1,4.5,37.4,22.5,43c8.8,2.7,18,1.9,26.2-2.4c8.1-4.3,14.1-11.4,16.8-20.2c2.7-8.8,1.9-18-2.4-26.2
				c-4.3-8.1-11.4-14.1-20.2-16.8C1926.4,1566.1,1907.2,1576.2,1901.5,1594.3L1901.5,1594.3z"/>
		</g>
		<g>
			<path class="st7" d="M1946.3,1730l231.5,87.6c27.4,10.4,58.3-3.6,68.7-31l46.6-123.2c9.1-24-0.5-50.7-21.4-63.9
				c-3-1.9-6.2-3.5-9.6-4.8l-231.5-87.6c-27.4-10.4-58.4,3.5-68.7,31l-37,97.6l-9.7,25.6C1904.9,1688.7,1918.9,1719.6,1946.3,1730z"
				/>
		</g>
		<g class="st4">
			<path class="st5" d="M1946.3,1730l231.5,87.6c27.4,10.4,58.3-3.6,68.7-31l46.6-123.2c9.1-24-0.5-50.7-21.4-63.9
				c-16.5,3.8-26.9,6.2-26.9,6.2c-48.7,94.6-95.5,133.3-219.1,88.8c-53.3-19.2-83.7-40-100.7-58.8l-9.7,25.6
				C1904.9,1688.7,1918.9,1719.6,1946.3,1730z"/>
		</g>
		<g>
			<path class="st5" d="M2196.6,1831.1c-7.4,0-15-1.3-22.3-4.1l-231.5-87.6c-32.6-12.4-49.2-49-36.8-81.6l46.6-123.2
				c12.4-32.6,49-49.2,81.6-36.8l231.5,87.6c15.8,6,28.3,17.8,35.2,33.2c7,15.5,7.5,32.6,1.5,48.4l-46.6,123.2
				C2246.3,1815.5,2222.1,1831.1,2196.6,1831.1z M2011.8,1513.6c-17.5,0-34,10.7-40.5,28l-46.6,123.2c-8.4,22.3,2.8,47.4,25.2,55.8
				l231.5,87.6c10.8,4.1,22.5,3.7,33.1-1.1c10.6-4.8,18.7-13.3,22.7-24.1l46.6-123.2c4.1-10.8,3.7-22.5-1.1-33.1
				s-13.3-18.7-24.1-22.7l-231.5-87.6C2022.1,1514.5,2016.9,1513.6,2011.8,1513.6z"/>
		</g>
		<g>
			<path class="st7" d="M1937.3,1725.5c2.8,1.8,5.7,3.2,8.9,4.4l231.5,87.6c20.1,7.6,42,2.2,56.4-12.1c5.2-5.2,9.5-11.5,12.2-18.9
				l20.7-54.7l6.8-18.1l19.1-50.4c10.4-27.4-3.6-58.3-31-68.7l-50-18.9c21.4,13.1,31.3,40,22.1,64.3l-25.2,66.6l-21.5,56.7
				c-10.4,27.4-41.3,41.4-68.7,31L1937.3,1725.5z"/>
		</g>
		<g class="st4">
			<path class="st5" d="M1937.3,1725.5c2.8,1.8,5.7,3.2,8.9,4.4l231.5,87.6c27.4,10.4,58.3-3.6,68.7-31l27.6-72.8
				c-10.7,10.7-27.1,22.5-44.5,17.8c-9.5-2.5-16.1-12.6-20.5-25l-21.5,56.7c-10.4,27.4-41.3,41.4-68.7,31L1937.3,1725.5z"/>
		</g>
		<g>
			<path class="st5" d="M2196.6,1831.1c-7.5,0-15.1-1.4-22.3-4.1l-231.5-87.6c-3.7-1.4-7.3-3.2-10.7-5.3l8.8-17.8l181.6,68.8
				c10.8,4.1,22.5,3.7,33.1-1.1c10.6-4.8,18.7-13.3,22.7-24.1l46.7-123.2c7.4-19.4-0.2-41.4-17.9-52.3l8.8-17.9l50,18.9
				c15.8,6,28.3,17.8,35.2,33.2c7,15.5,7.5,32.6,1.5,48.4l-46.6,123.2c-6,15.8-17.7,28.3-33.2,35.2
				C2214.3,1829.2,2205.4,1831.1,2196.6,1831.1z M2164.3,1801.8l17,6.4c10.8,4.1,22.5,3.7,33.1-1.1c10.6-4.8,18.7-13.3,22.7-24.1
				l0,0l46.6-123.2c4.1-10.8,3.7-22.5-1.1-33.1s-13.3-18.7-24.1-22.7l-15.3-5.8c5.5,14.2,6,30.3,0.3,45.4l-46.6,123.2
				C2191.1,1782.4,2179.5,1794.8,2164.3,1801.8z"/>
		</g>
		<g>
			<path class="st15" d="M2119.3,1668.2c-1.7,4.6-9,43.8-9,43.8s11.7,4.3,26,9.7c17.9,6.7,39.3-6.5,47.8-29.4s0.9-46.8-17-53.5
				c-12.1-4.5-26-9.7-26-9.7S2122,1660.7,2119.3,1668.2z"/>
		</g>
		<g class="st4">
			<path class="st5" d="M2119.3,1668.2c-1.7,4.6-9,43.8-9,43.8s11.7,4.3,26,9.7c17.9,6.7,39.3-6.5,47.8-29.4s0.9-46.8-17-53.5
				c-12.1-4.5-26-9.7-26-9.7S2122,1660.7,2119.3,1668.2z"/>
		</g>
		<g>
			<path class="st5" d="M2146,1730.9c-4.2,0-8.4-0.7-12.4-2.2l-31.9-11.9l1.2-6.2c1.7-9.4,7.5-40.3,9.3-45.1v0
				c2.9-7.9,20.5-37,22.4-40.3l3.2-5.3l31.8,11.8c21.8,8.1,31.4,36.4,21.4,63.1c-4.7,12.6-13,23.1-23.5,29.5
				C2160.7,1728.7,2153.3,1730.9,2146,1730.9z M2118.8,1707.1l20.1,7.5c6.5,2.4,13.9,1.3,20.9-3c7.6-4.7,13.8-12.5,17.3-22
				c7.1-19,1.4-38.6-12.6-43.8l-20.2-7.5c-7.1,12-16.4,28.1-18,32.4C2125.4,1673.3,2122,1690.3,2118.8,1707.1z"/>
		</g>
		<g>
			
				<ellipse transform="matrix(0.3486 -0.9373 0.9373 0.3486 -181.1588 3080.4023)" class="st15" cx="2125.7" cy="1670.5" rx="44.2" ry="34.6"/>
		</g>
		<g class="st4">
			<path class="st5" d="M2110.3,1712c17.9,6.7,39.3-6.5,47.8-29.4c1.9-5.3,3.1-10.6,3.4-15.7c-10.1,17.1-28.1,25.9-43.5,20.2
				c-13.8-5.1-21.5-20.5-20.4-37.8c-1.7,2.8-3.2,5.9-4.4,9.1C2084.7,1681.4,2092.4,1705.3,2110.3,1712z"/>
		</g>
		<g class="st9">
			<path class="st7" d="M2090.4,1669.6c9.5-19.8,29.1-30.6,45.7-24.4c15,5.6,22.8,23.3,19.9,42.4c0.8-1.6,1.5-3.3,2.1-5
				c8.5-22.9,0.9-46.8-17-53.5c-17.9-6.7-39.3,6.5-47.8,29.4C2091.9,1662.2,2090.9,1665.9,2090.4,1669.6z"/>
		</g>
		<g>
			<path class="st5" d="M2120,1721.2c-4.2,0-8.4-0.7-12.4-2.2c-21.8-8.1-31.4-36.4-21.4-63.1l0,0c9.9-26.7,35.7-41.9,57.5-33.8
				c21.8,8.1,31.4,36.4,21.4,63.1c-4.7,12.6-13,23.1-23.5,29.5C2134.6,1719,2127.3,1721.2,2120,1721.2z M2100.3,1661.1
				c-7.1,19-1.4,38.6,12.6,43.8c6.5,2.4,13.9,1.4,20.9-3c7.6-4.7,13.8-12.5,17.3-22c7.1-19,1.4-38.6-12.6-43.8
				C2124.5,1630.9,2107.3,1642.1,2100.3,1661.1L2100.3,1661.1z"/>
		</g>
		<g>
			<path class="st5" d="M2018.6,1763.8c-0.8,0-1.7-0.1-2.5-0.4c-3.9-1.4-6-5.7-4.6-9.6l27.3-77.7c1-3,0.5-6.2-1.4-8.8l-19.1-25.3
				c-5.1-6.7-6.3-15.4-3.4-23.2l38.6-103c1.5-3.9,5.8-5.9,9.7-4.4c3.9,1.5,5.8,5.8,4.4,9.7l-38.6,103c-1.1,3-0.6,6.4,1.3,8.9
				l19.1,25.3c4.9,6.5,6.3,15.1,3.6,22.8l-27.3,77.7C2024.6,1761.9,2021.7,1763.8,2018.6,1763.8z"/>
		</g>
		<g>
			<path class="st7" d="M2501,1729.7c22.2-5.8,43.4,12.9,39,35.5c-0.5,2.7-1.3,5.5-2.3,8.3c-12.3,33.7-41,41.6-41,41.6
				s-92.9,28.1-255.8-41.2c-10.3-4.4-17.5-13.9-18.8-25c-2.1-17.9,0.3-44.4,28.3-59.1c8.8-4.6,19.3-4.4,28.1,0.1
				C2312.3,1707.3,2412.8,1752.6,2501,1729.7z"/>
		</g>
		<g class="st4">
			<path class="st5" d="M2226.3,1767.6c171.9,77.4,270.4,47.6,270.4,47.6s28.7-8,41-41.6c0.5-1.5,1-2.9,1.4-4.4
				c-12.5,13.4-26.2,17.2-26.2,17.2s-89,27-245.5-36.9c-20.3-8.3-32.6-29.5-28.7-51.1c0-0.2,0.1-0.4,0.1-0.6
				C2209.3,1723.7,2226.3,1767.6,2226.3,1767.6z"/>
		</g>
		<g>
			<path class="st5" d="M2442.7,1833.4c-45.2,0-115.9-9-208.6-48.7c-13-5.6-22-17.1-24.1-30.8c-5.3-34.3,7.9-62,36.2-76
				c11.5-5.7,25.2-5.6,36.5,0.3c29.6,15.3,132.7,63.2,219.4,38.2l0,0c12.3-3.5,25.2-1.1,35.4,6.6c10.1,7.7,15.9,19.3,15.9,32
				c0,7.8-1.4,15.5-4.1,22.8c-14.4,39.2-48,49-49.4,49.4C2498.4,1827.7,2478.6,1833.4,2442.7,1833.4z M2264.4,1698.8
				c-2.4,0-4.8,0.5-7,1.6c-18.7,9.2-26.3,25.9-22.6,49.7c0.8,5.1,4.3,9.5,9.2,11.6c157,67.3,248.2,41.7,249.1,41.5
				c1.1-0.3,23-7.1,32.8-34c1.7-4.6,2.5-9.4,2.6-14.3c0-4.7-2.2-9.1-6-11.9c-3.9-2.9-8.8-3.8-13.4-2.5l0,0
				c-95.6,27.5-206.2-23.7-237.8-40.1C2269.2,1699.3,2266.8,1698.8,2264.4,1698.8z"/>
		</g>
		<g>
			<path class="st5" d="M2109.9,1891.3c-0.5,0.4-2.2,1.4-3.3,2.3c-1.2,1-2.4,1.9-3.6,3c-2.4,2.1-4.6,4.5-6.8,6.9
				c-4.3,4.9-8,10.4-11.4,16.1c-3.4,5.7-6.2,11.8-8.9,17.9l-3.7,9.4l-3.2,9.6l-0.2,0.5c-2.6,7.9-11.1,12.1-19,9.5
				c-7.9-2.6-12.1-11.1-9.5-19c0.3-0.8,0.6-1.7,1-2.4l5.5-10.1l6-9.9c4.3-6.4,8.7-12.8,13.8-18.7c5.1-5.9,10.5-11.5,16.7-16.5
				c3.1-2.5,6.3-4.8,9.7-6.9c1.7-1.1,3.5-2.1,5.3-3c2-1,3.5-1.7,6.3-2.7c3.9-1.3,8,0.7,9.4,4.6c1.1,3.2-0.1,6.6-2.8,8.4
				L2109.9,1891.3z"/>
		</g>
		<g class="st4">
			<path class="st5" d="M2282.3,1825.1c0.2,0.9,0.4,1.7,0.6,2.6c1.4,0.1,2.2,0.1,2.2,0.1C2284.1,1827,2283.2,1826.1,2282.3,1825.1z"
				/>
		</g>
		<g>
			<path class="st7" d="M2451.6,1341.7c0,0,107.8,25,207.3,64.5c59.9,23.8,166.6,69.6,204.7,170.4c35.1,93-3,204.5-3,204.5
				l-149.8-14.7c0,0-39.5-143.4-215.9-138.8"/>
		</g>
		<g class="st14">
			<path class="st5" d="M2860.6,1781.1l-149.8-14.7c0,0-39.5-143.4-215.9-138.8l0,0c-29.3-4.1-55.2,16.7-54.6,4.5
				c1.2-23,37.9-39.1,30.5-49.5c-18.1-25.1-29.8-56.1-17.1-54.6c114,13.7,169.2,116.6,271.2,123.2c102,6.6,142.1,51.2,142.1,51.2
				s6.2-18.1,11.3-45.9C2880.3,1723.5,2860.6,1781.1,2860.6,1781.1z"/>
		</g>
		<g>
			<path class="st5" d="M2871,1797.1l-171.9-16.8l-2.7-9.9c-1.5-5.4-39-132-201.1-127.8c-8.4,0.1-15.2-6.3-15.4-14.6
				s6.3-15.2,14.6-15.4c158-4,213.7,105.6,227.2,139.8l128.1,12.5c8.1-29.8,26.3-112.9-0.2-183.1
				c-37.3-98.8-148.7-142.9-196.2-161.8c-97.2-38.6-204.1-63.5-205.1-63.8c-8.1-1.9-13.1-9.9-11.2-18c1.9-8.1,9.9-13.1,18-11.2
				c1.1,0.3,110,25.7,209.4,65.1c51.2,20.3,171.2,67.9,213.2,179.1c36.6,96.9-1.2,209.9-2.8,214.7L2871,1797.1z"/>
		</g>
		<g>
			<path class="st5" d="M2622.6,1669.9c-5.6,0-10.7-3.8-12.1-9.5c-1.1-4.7-27.5-115.7,20.6-185c20.7-29.8,51.8-47.3,92.4-52.1
				c6.9-0.8,13.1,4.1,13.9,11c0.8,6.9-4.1,13.1-11,13.9c-33.2,3.9-58.3,17.8-74.7,41.4c-41.8,60-17.2,163.8-16.9,164.9
				c1.6,6.7-2.5,13.5-9.2,15.1C2624.6,1669.8,2623.6,1669.9,2622.6,1669.9z"/>
		</g>
		<g>
			<path class="st7" d="M2924.7,1733.1c-9.4,33.2-34,62.8-75.7,65.8c-59.5,4.2-131-14.5-131-14.5s-34.5,16.9-73.9,3.9
				c-22.8-7.5-33.9-23.8-34.1-43.2c-0.2-24.6,17.1-54.1,50.8-76.7c60.2-40.5,45.1-86.1,94.2-100.2c49.1-14.1,153.3,55.3,169.2,101.7
				C2930.5,1688.2,2930.9,1711.4,2924.7,1733.1z"/>
		</g>
		<g class="st14">
			<path class="st5" d="M2924.7,1733.1c-9.4,33.2-34,62.8-75.7,65.8c-59.5,4.2-131-14.5-131-14.5s-34.5,16.9-73.9,3.9
				c-22.8-7.5-33.9-23.8-34.1-43.2c7.4,8.7,19.4,17.1,38.9,19.7c45.8,6.2,72.8-29.3,54.8-41.8c0,0-17.7-14.8,11.6-22.9
				c29.3-8.1,27.8-20.8,43.4-17.7c15.7,3.1,64.5,22.8,89.7,41C2868.1,1737.7,2906.3,1744.7,2924.7,1733.1z"/>
		</g>
		<g>
			<path class="st5" d="M2830.5,1816.3c-47,0-95.1-10.4-111.2-14.3c-12.9,4.9-44.9,13.9-80.5,2.2c-25.3-8.3-41.7-26.8-45-50.6
				c-4.7-34.1,17.3-72,57.6-99.1c26.1-17.6,35.9-35.6,45.3-53c10.7-19.8,21.8-40.3,53.6-49.4c58-16.8,170.8,57.3,189.8,112.4
				c11.5,33.5,5.7,76.5-14.6,107c-17.3,26.2-44.1,41.9-75.3,44.1C2843.7,1816.1,2837.1,1816.3,2830.5,1816.3z M2716.2,1766.7l6,1.5
				c0.7,0.2,69.6,18,125.6,14c21.2-1.5,37.9-11.3,49.7-29.1c14.5-22,19-53.9,10.8-77.6c-13.3-38.8-109-102.5-148.8-91
				c-18.3,5.3-23.6,15.2-33.4,33.2c-10.3,19-23.1,42.7-56,64.8c-33.1,22.3-45.5,49.5-43.1,66.7c1.5,11.1,9,19,22.2,23.3
				c32.1,10.6,61.1-2.9,61.4-3.1L2716.2,1766.7z"/>
		</g>
		<g>
			<path class="st5" d="M2680.4,1704.6c3.5-0.2,6-0.2,9,0.1c2.9,0.2,5.8,0.7,8.7,1.3c5.8,1.3,11.6,3.6,17,7.4
				c5.4,3.7,10.1,8.9,13.2,14.8c1.6,3.1,2.7,5.7,3.7,8.5c1,2.8,1.8,5.7,2.5,8.6c1.3,5.9,1.9,12.1,1.4,18.7
				c-0.5,6.5-2.4,13.5-6.1,19.9c-3.6,6.4-9,11.9-14.8,15.8c-5.9,3.9-12.1,6.5-18.2,8.3l-0.5,0.1c-8.9,2.6-18.3-2.5-20.9-11.4
				c-2.6-8.9,2.5-18.3,11.4-20.9c0.8-0.2,1.7-0.4,2.4-0.5c7.3-1,12.6-3.2,15.8-7.1c3.4-3.8,5.3-11,4.7-18.9c-0.1-2-0.4-3.9-0.8-5.9
				c-0.4-2-0.9-4-1.4-5.4c-1.1-3.1-2.8-5.8-5.3-8.2c-2.5-2.4-5.8-4.3-9.5-5.8c-3.6-1.4-8.2-2.4-11.7-2.7l-0.9-0.1
				c-4.6-0.4-8-4.5-7.6-9.1C2673,1708.1,2676.4,1704.9,2680.4,1704.6z"/>
		</g>
		<g>
			<path class="st5" d="M2753.1,1608.1c-3.9,10.2-7.1,21.5-7.7,31.6c-0.7,10.3,1.6,19.1,7.1,24.2c2.7,2.8,6.3,5,10.6,6.7
				c5.4,2.3,10.8,4.4,16.3,6.6c10.9,4.4,22.5,8.3,34.3,14.6c2.9,1.5,5.9,3.4,8.6,5c2.3,1.5,4.8,2.9,7.2,4.4c4.9,2.9,9.9,5.5,15,8.1
				c10.1,5.2,20.5,9.6,30.7,12.9c10.1,3.2,20.8,5,28.2,3.5c3.7-0.8,6.1-2.1,8.1-4.3c1.9-2.3,3.7-5.8,4.7-10.2l0.1-0.4
				c1.6-6.7,8.3-10.9,15-9.3c6.5,1.5,10.6,7.8,9.5,14.3c-1.2,7.2-3.7,15.2-9.3,22.3c-5.6,7.1-14.2,11.8-22.1,13.6
				c-8,1.9-15.5,1.9-22.5,1c-7-0.8-13.5-2.4-19.8-4.3c-12.5-3.8-24.1-9-35.2-14.7c-5.6-2.8-11-6-16.3-9.2c-2.7-1.6-5.3-3.3-8-5
				c-2.4-1.6-4.4-2.9-6.8-4.2c-9.2-5.1-20.1-9.5-31.1-14.3c-5.5-2.4-11.1-4.8-16.6-7.4c-6.6-3.1-13.2-7.5-18.4-13.7
				c-5.3-6.1-8.5-14-9.8-21.5c-1.2-7.6-0.5-14.8,0.8-21.5c3.1-13.4,8.8-24.7,16.7-35.2c2.1-2.8,6-3.3,8.8-1.2
				c2.3,1.7,3.1,4.7,2.1,7.2L2753.1,1608.1z"/>
		</g>
		<g>
			<g>
				<path class="st7" d="M1827.1,1209c236,488.2,925.5,184.6,750.1-307.2C2347.5,396.4,1635.1,710.8,1827.1,1209z"/>
			</g>
			<g>
				<path class="st7" d="M1827.1,1209c236,488.2,925.5,184.6,750.1-307.2C2347.5,396.4,1635.1,710.8,1827.1,1209z"/>
			</g>
			<g>
				<path class="st7" d="M1827.1,1209c236,488.2,925.5,184.6,750.1-307.2C2347.5,396.4,1635.1,710.8,1827.1,1209z"/>
			</g>
			<g>
				<path class="st5" d="M2193.3,1467.3c-44.1,0-87.7-7.1-129.2-21.4c-105.4-36.4-190.7-116.7-246.6-232.2l-0.3-0.8
					c-45.8-119-44.2-236,4.6-338.6c43.6-91.5,121.7-164.6,219.9-205.8c98-41.1,204.2-45.3,298.9-11.6
					c106.8,37.9,192,121.1,246.3,240.6l0.3,0.8c93.7,262.8-52.8,461.7-228.6,535.3C2305,1456,2248.8,1467.3,2193.3,1467.3z
					 M1836.9,1204.8c118,243.6,342.9,280.6,513.6,209.1c166.7-69.8,305.7-258.5,216.9-508.1C2453.1,655,2219.1,617.1,2050,688.1
					C1879.2,759.7,1739.7,952,1836.9,1204.8z"/>
			</g>
			<g class="st4">
				<path class="st5" d="M1827.1,1209c196.5,425.2,801.9,261.1,777.4-188.4c-39.2,141.5-89.4,142.9-171.6,209.6
					c-253.6,220.1-603.6,11.7-624.6-282.9C1784.9,1035.4,1792.6,1127.5,1827.1,1209z"/>
			</g>
			<g>
				<path class="st16" d="M2193.3,1471.6c-44.6,0-88.7-7.2-130.6-21.7c-106.5-36.8-192.7-117.8-249-234.4l-0.5-1.1
					c-46.3-120.1-44.6-238.3,4.8-342c44.1-92.5,123-166.3,222.1-207.9c99-41.5,206.2-45.7,302-11.7
					c107.9,38.3,194,122.3,248.8,242.8l0.5,1.2c42.3,118.7,38.5,235.1-11.1,336.7c-44.4,90.8-122.4,163.3-219.8,204
					C2306.2,1460.2,2249.4,1471.6,2193.3,1471.6z M1840.8,1203.1c116.8,240.9,339.2,277.5,508,206.9
					c164.9-69,302.3-255.7,214.6-502.5c-113.1-248-344.5-285.6-511.7-215.4C1882.7,762.9,1744.8,953,1840.8,1203.1z"/>
			</g>
			<g>
				<path class="st5" d="M2193.3,1471.6c-44.6,0-88.7-7.2-130.6-21.7c-106.5-36.8-192.7-117.8-249-234.4l-0.5-1.1
					c-46.3-120.1-44.6-238.3,4.8-342c44.1-92.5,123-166.3,222.1-207.9c99-41.5,206.2-45.7,302-11.7
					c107.9,38.3,194,122.3,248.8,242.8l0.5,1.2c42.3,118.7,38.5,235.1-11.1,336.7c-44.4,90.8-122.4,163.3-219.8,204
					C2306.2,1460.2,2249.4,1471.6,2193.3,1471.6z M1840.8,1203.1c116.8,240.9,339.2,277.5,508,206.9
					c164.9-69,302.3-255.7,214.6-502.5c-113.1-248-344.5-285.6-511.7-215.4C1882.7,762.9,1744.8,953,1840.8,1203.1z"/>
			</g>
			<g>
				<path class="st5" d="M1879.5,1298.7c371.3,298,784.1-125.8,515.9-444.9C2073.3,514.6,1600.9,902.6,1879.5,1298.7z"/>
			</g>
			<g>
				<path class="st17" d="M1811.3,1004c-63.2,425.6,540.7,549,662.4,169.3C2245.5,1374.4,1895.7,1226.5,1811.3,1004z"/>
			</g>
			<g>
				<path class="st5" d="M2153.7,1450.9c-45.9,0-91.1-8.9-132.8-26.5c-86.8-36.7-157-109.7-202.9-211.2l0-0.1
					c-74.7-168.6-21.7-418.2,176.4-521l1.6-0.7c104.2-33.3,222.7-19.4,325.2,37.9c102.1,57.2,175.5,150.4,201.4,255.7
					c48.6,222.4-90.2,393-252.5,446.8C2231.8,1444.5,2192.5,1450.9,2153.7,1450.9z M1836.2,1204.9
					c101.5,224.4,293.8,252.3,427.6,207.9c153.8-50.9,285.3-212.7,239.3-423.3c-24.5-99.7-94.4-188.3-191.7-242.8
					c-97.4-54.5-209.8-67.8-308.5-36.6C1815.4,808.1,1765.3,1044.9,1836.2,1204.9z"/>
			</g>
			<g>
				<path class="st5" d="M2143.1,1414.9c-93.5,0-187.4-35.9-272.9-104.5l-1.7-1.3l-1.2-1.7c-67.6-96-96.8-198.8-84.6-297.2
					c11-88.2,54.8-167.8,123.5-224c67.1-55,151.3-82.1,236.9-76.3c95.2,6.4,186.1,52.7,263.1,133.7l0.6,0.7
					c63.3,75.3,94,161.3,88.8,248.9c-4.7,79.2-39.1,155.4-96.8,214.4c-62.5,63.9-146,101.8-235.2,106.9
					C2156.8,1414.7,2149.9,1414.9,2143.1,1414.9z M1890.5,1288.3c188.4,150.1,380.2,107.4,486.9-1.8
					c96.9-99.1,136.5-268.2,6.8-422.8c-159.1-167.2-345.2-147.9-459.1-54.6C1808.1,905,1752.3,1090.3,1890.5,1288.3z"/>
			</g>
			<g>
				<path class="st7" d="M2643.2,1198.7c-52.7,183.8-241.3,146.5-208.7-34.1C2482.6,970,2684.3,1009.9,2643.2,1198.7z"/>
			</g>
			<g class="st4">
				<path class="st5" d="M2504.8,1318.5c-56.6-10.8-88.8-86-68.1-163.3c24.8,87.3,129.7-37.2,141-75.3
					C2719.3,1136.5,2608.3,1340.5,2504.8,1318.5z"/>
			</g>
			<g>
				<path class="st5" d="M2521.4,1334.5c-7.5,0-14.9-0.8-22-2.5c-52.7-12.3-97.7-69.6-79.6-170l0.2-0.9
					c26.7-108,100.6-150.7,159.8-136.9c53.5,12.4,100.8,73.4,78.1,177.7l-0.2,0.9C2630.9,1295.9,2572.2,1334.5,2521.4,1334.5z
					 M2449.1,1167.8c-14.4,80.8,18.2,126.1,57.1,135.1c41.3,9.6,97.2-20,122.5-107.8c18.2-84.3-16.1-132.6-55.7-141.8
					C2528.1,1042.8,2471.3,1078.8,2449.1,1167.8z M2643.2,1198.7L2643.2,1198.7L2643.2,1198.7z"/>
			</g>
			<g>
				<path class="st7" d="M2649.2,1210.1c-42.8,148.9-184.6,123.3-158.3-22.7C2529.6,1027.7,2683.6,1055.7,2649.2,1210.1z"/>
			</g>
			<g>
				<path class="st5" d="M2553.2,1322.6c-5.5,0-10.8-0.6-15.9-1.8c-39.7-9.3-73.3-54.8-58.7-135.6l0.2-0.7
					c21.7-89.6,79.6-125.6,125.4-114.9c40.8,9.5,76.2,58.4,57.2,143.3l-0.2,0.7C2639,1290.6,2592.6,1322.6,2553.2,1322.6z
					 M2503.1,1190c-11.5,64.4,11.7,99.8,39.9,106.4c30.8,7.2,73.3-17.7,94-89.4c15.1-68-9.4-106.3-38.5-113.1
					C2564.6,1086,2521,1116.5,2503.1,1190z M2649.2,1210.1L2649.2,1210.1L2649.2,1210.1z"/>
			</g>
			<g class="st6">
				<path class="st7" d="M2408.9,1080.6c-31.2,72.4-114.1,38.2-97.7-28.9C2336.7,968.1,2435.1,1006.9,2408.9,1080.6z"/>
			</g>
			<g class="st6">
				<path class="st7" d="M2347.5,1192.7c-13.5,27-50.1,12.8-38.1-18C2323,1147.7,2359.5,1162,2347.5,1192.7z"/>
			</g>
			<g class="st6">
				<path class="st7" d="M1860.4,1043.1C1847.3,742,2157.8,741.8,2242.7,816C2045,805,1943.2,915.2,1860.4,1043.1z"/>
			</g>
			<g class="st4">
				<path class="st5" d="M2478.9,1220.9c-0.1-21.8,5.9-43.7,16-63.1c14.2,106.2,123.3,73.8,156.5,3.1
					C2655.1,1315.7,2491.7,1367.3,2478.9,1220.9z"/>
			</g>
		</g>
		<g>
			<path class="st5" d="M2089.3,2623.6c-6.1,12.2-22.5,16.4-36.8,9.3c-14.3-7.1-20.9-22.7-14.8-34.9c6.1-12.2,22.5-16.4,36.8-9.3
				C2088.7,2595.7,2095.4,2611.4,2089.3,2623.6z"/>
		</g>
	</g>
</g>
</svg>
