<svg xmlns="http://www.w3.org/2000/svg" xmlns:xlink="http://www.w3.org/1999/xlink" id="Layer_1" x="0" y="0" version="1.1" viewBox="0 0 4000 4000" xml:space="preserve" style="enable-background:new 0 0 4000 4000"><style type="text/css">.st0{display:none}.st1{display:inline}.st2{fill:#3aaaff}.st3{fill:#fc311d}.st4{fill:#ffb600}.st5{fill:#ff0}.st6{fill:#371a45}.st7{fill:#04aaff}.st8{opacity:.7}.st9{fill:#fff}.st10{fill:#ed1b24}.st11{opacity:.35}.st12,.st13{stroke:#371a45;stroke-miterlimit:10}.st12{fill:none;stroke-width:6.2067;stroke-linecap:round}.st13{fill:#c1303d;stroke-width:3.6536}.st14{fill:#293856}.st15{fill:#21102b}.st16{opacity:.6}.st17{fill:#22a7f0}</style><g><g class="st0"><g class="st1"><g><rect width="4000" height="4000" class="st2" transform="matrix(-1 -1.224647e-16 1.224647e-16 -1 4000 4000)"/></g></g></g><g><g><g><g><path d="M3079.8,2529.6c-58.6-92.5-174.1-124.4-257.9-71.2c-83.9,53.1-104.3,171.2-45.7,263.7 c46.9,74.1,271.3,226.2,358.8,283.9c14.2,9.4,33-1.9,31.4-18.8C3156.5,2881,3126.9,2603.9,3079.8,2529.6z" class="st3"/></g></g><g><g><path d="M3011.7,2519.4c-40.5-63.9-120.2-85.9-178.2-49.2s-72.1,118.2-31.6,182.1 c29.7,46.9,166.9,138.4,237.8,183.9c17.1,11,39.3-3,36.7-23.2C3065.7,2729.4,3041.4,2566.3,3011.7,2519.4z" class="st4"/></g></g><g><g><path d="M2944.5,2507.5c-25.1-39.7-74.7-53.4-110.7-30.6c-36,22.8-44.8,73.4-19.6,113.1 c16.3,25.8,85,73.3,131.1,103.4c17.2,11.2,39.6-3,36.8-23.3C2974.5,2615.6,2960.8,2533.2,2944.5,2507.5z" class="st5"/></g></g><g><g><path d="M3144.3,3029.3c-7.9,0-15.8-2.4-22.7-7.2c-115.7-80.1-316.2-225.7-359.5-300.7 c-28.6-49.6-38-106.5-26.4-160.1c11.7-54.3,43.5-98.7,89.4-125.2c94.1-54.3,219.1-14.8,278.6,88.2l0,0 c43.3,75,69,321.5,80.5,461.7c1.3,15.6-6.3,30.1-19.8,37.9C3158,3027.5,3151.2,3029.3,3144.3,3029.3z M2917,2446.5 c-25.8,0-51.3,6.4-74.6,19.8c-37.3,21.5-63.1,57.9-72.7,102.4c-9.8,45.2-1.8,93.2,22.5,135.3 c28.7,49.7,159.2,157.9,349.2,289.5c2.2,1.5,4.2,1,5.5,0.2c1.3-0.7,2.8-2.2,2.5-4.8c-18.9-230.3-47.3-397.4-76-447.2 C3038.5,2481.2,2977.2,2446.5,2917,2446.5z" class="st6"/></g></g><g><g><path d="M2923.1,2424.7c-15.1,48.1-40.6,78.4-67.9,97.5c-53.9,37.7-114.7,31.4-114.7,31.4l-52.4-54.7l64.2-42.4 l134-88.5L2923.1,2424.7z" class="st7"/></g></g><g class="st8"><g><path d="M2923.1,2424.7c-15.1,48.1-40.6,78.4-67.9,97.5c-12.4,8.7-25.2,15.1-37.6,19.7c3.7-2.1,7.3-4.4,10.9-7 c15.4-10.7,30.2-25,42.9-44c18.5-27.7,18.3-63.8,0.2-91.7l-9.7-15l24.5-16.2L2923.1,2424.7z" class="st9"/></g></g><g><g><path d="M2749.3,2571.3c-6.5,0-10.3-0.4-10.6-0.4l-6.4-0.7l-71.2-74.4l230.2-152l50.8,78.3l-2.4,7.8 C2898.8,2560.8,2784.7,2571.3,2749.3,2571.3z M2748.4,2536.6c25,0.7,118.4-4.2,155.6-109.4l-22.7-34.9l-166.1,109.7 L2748.4,2536.6z" class="st6"/></g></g><g><g><path d="M2469.8,1540.3c-66.8,75.6-158.2,160.9-272.2,224.4c-31.5,17.5-64.7,33.4-99.7,47 c-16.4-47.1-29.2-93.2-38.8-137C2030,1542,2029.5,1430,2043,1373c4.7-20.1,11.1-33.4,18.6-38.4c30.2-19.9,165.3,24,314.3,130.9 C2406.9,1487.7,2438.5,1512.6,2469.8,1540.3z" class="st10"/></g></g><g class="st8"><g><path d="M2426.4,1586.9c3.4-3.7,6.6-7.3,9.8-10.9c-35-30.9-70.2-58.6-104.7-83.4 c-110.2-79.1-213.6-127.2-280.5-144.2c3.2-6.6,6.7-11.3,10.5-13.8c30.2-19.9,165.3,24,314.3,130.9c31,22.2,62.5,47.1,93.9,74.8 C2456.4,1555.5,2441.9,1571.1,2426.4,1586.9z" class="st9"/></g></g><g><g><path d="M2087.4,1834.4l-5.9-17c-15.9-45.7-29.1-92.4-39.4-139c-37.2-169.4-32.8-330.2,9.9-358.4 c43.4-28.7,193.3,30.2,334.1,131.3c32.8,23.5,64.8,49.1,95.3,75.9l13.1,11.5l-11.5,13.1c-115.3,130.5-242.7,223.3-378.6,276.1 L2087.4,1834.4z M2083.1,1346.8c-5.6,0-9.7,0.8-12,2.3c-16.9,12.3-35.7,136.7,5,321.8c8.6,39.3,19.5,78.8,32.4,117.7 c119.9-49.8,233-132.7,336.6-246.8c-25.6-21.9-52.2-42.8-79.3-62.2C2230.4,1382.5,2120.9,1346.8,2083.1,1346.8z" class="st6"/></g></g><g><g><path d="M2886.4,2368c0,0-20.2,50.4-75,87.4c-11.2,7.5-22.5,13.8-33.6,18.9c-47.4,22.1-89.5,24.5-89.5,24.5 s-85.2-37.9-131.7-71c-20.3-14.5-41.1-30.7-62-48.6c-18.8-16-37.8-33.4-56.9-52c-17.6-17.2-35.3-35.4-52.9-54.5 c-56.2-61.3-111.9-132.3-163.9-211.1c-54.1-81.9-94.1-167.4-122.8-249.9c35-13.5,68.2-29.4,99.7-47 c114.1-63.5,205.4-148.7,272.2-224.4c70.1,61.8,139.1,137.3,197.8,226.1c52,78.7,95.6,157.9,129.8,233.6 c10.7,23.7,20.5,47.1,29.4,70.1c9.6,24.8,18.1,49.1,25.5,72.7c8.2,26.2,15,51.7,20.3,76.1 C2884.9,2274.8,2886.4,2368,2886.4,2368z" class="st9"/></g></g><g><g><path d="M2684.9,2516.5l-3.9-1.7c-3.5-1.6-87.3-39-134.7-72.8c-21-15-42.3-31.7-63.2-49.6 c-19.1-16.3-38.5-34-57.7-52.8c-17.9-17.5-35.9-36.1-53.6-55.2c-58.7-63.9-114.4-135.7-165.6-213.3 c-51-77.2-92.9-162.6-124.8-253.7l-5.5-15.9l15.7-6.1c130.7-50.7,253.6-140.4,365.1-266.7l11.5-13l13,11.5 c78.2,68.9,145.7,146.2,200.8,229.6c51.4,77.8,95.5,157.2,131.1,236c10.9,24.1,20.9,48,29.8,71c9.7,25,18.4,49.8,25.9,73.8 c8.3,26.6,15.3,52.7,20.7,77.5c12.5,56.9,14,148.7,14.1,152.5l0.1,3.5l-1.3,3.2c-0.9,2.3-22.8,55.8-81.5,95.4 c-62.3,42-129.1,46.2-131.9,46.4L2684.9,2516.5z M2120,1821.6c30.1,82.5,68.9,160,115.3,230.3 c50.2,76.1,104.8,146.4,162.2,208.9c17.2,18.7,34.8,36.8,52.2,53.9c18.7,18.2,37.5,35.4,56,51.2c20.2,17.2,40.6,33.3,60.8,47.7 c38.9,27.7,107.2,59.6,124.6,67.5c14.3-1.6,64.4-9.1,110.4-40.1c42.5-28.7,62.3-65.8,67.3-76.5c-0.4-17.8-2.8-94.6-13.2-141.8 c-5.2-23.8-12-48.9-20-74.6c-7.3-23.3-15.7-47.4-25.1-71.6c-8.7-22.5-18.4-45.7-29.1-69.2c-34.9-77.1-78.1-154.9-128.5-231.2 c-50.3-76.3-111.5-147.2-181.9-211.2C2363.5,1683.6,2245.5,1769.8,2120,1821.6z" class="st6"/></g></g><g><g><path d="M2406,2297c-10,0-16-0.5-17.1-0.6l3.3-34.7c1.2,0.1,124.5,10.3,249-82.9 c111.7-83.6,144.9-178.3,145.2-179.2l33,11.1c-1.4,4.3-36.4,105.4-157.3,196C2553.1,2288.2,2446.6,2297,2406,2297z" class="st6"/></g></g></g><g class="st11"><g><path d="M2855.2,2522.1c-53.9,37.7-114.7,31.4-114.7,31.4l-52.4-54.7c0,0-85.2-37.9-131.7-71 c-20.3-14.5-41.1-30.7-62-48.6c-18.8-16-37.8-33.4-56.9-52c-17.6-17.2-35.3-35.4-52.9-54.5c-56.2-61.3-111.9-132.3-163.9-211.1 c-54.1-81.9-94.1-167.4-122.8-249.9c-16.4-47.1-29.2-93.2-38.8-137C2030,1542,2029.5,1430,2043,1373 c27.9,93.3,298.2,526.9,456.5,758.1c100.4,146.6,172.8,267.3,252.8,325.4c8.8,6.3,17.2,12.3,25.4,17.8 C2807.6,2494.8,2833.7,2510.4,2855.2,2522.1z" class="st6"/></g></g><g><g><path d="M2400.1,3109.7c-73,51.6-231.5,45.2-206.6-167.3c0,0-152.8-17.8-277.7-77.8 c-62.1-29.8-117.3-70-143.4-123.7l332.2-497c0,0,84.1,198,155.2,301.4c40.7,59.1,100.3,112.7,151.8,147.6 c14,9.5,27.4,17.6,39.7,24C2538.3,2762.3,2499.2,3039.7,2400.1,3109.7z" class="st9"/></g></g><g class="st11"><g><path d="M2437.5,3070c-11.2,16.4-23.7,30-37.4,39.7c-73,51.6-231.5,45.2-206.6-167.3c0,0-152.8-17.8-277.7-77.8h0 c-12.4-6-24.6-12.3-36.2-19.2c-2.2-1.3-4.4-2.6-6.5-3.9c-16.8-10.1-32.6-21.3-46.8-33.5c-1.1-1-2.3-2-3.4-3 c-4.9-4.4-9.7-8.8-14.1-13.5c-1.3-1.4-2.7-2.8-4-4.2c-2.7-2.9-5.2-5.7-7.7-8.7c-1.1-1.3-2.2-2.7-3.3-4c-2.5-3.1-4.9-6.3-7.1-9.6 c-1-1.5-2-3-3-4.4c-1.1-1.7-2.2-3.3-3.2-5c-1-1.6-1.9-3.2-2.8-4.8c-0.7-1.2-1.3-2.4-2-3.6c-0.5-0.8-0.9-1.7-1.3-2.6 c-0.7-1.3-1.3-2.5-1.9-3.7l332.2-497c0,0,0,0,0,0.1c0,0,0,0.1,0,0.1c0.1,0.2,0.2,0.4,0.3,0.7c0.8,2,2.9,6.7,6,13.8 c20.9,47.8,89.4,200.2,148.8,286.6c40.7,59.1,100.3,112.7,151.8,147.6c-56.9,65.8-133.1,118.2-221.1,149 c-31.8,11.1-25.3,57.7,8.3,60c75.4,5.1,129.7-3.3,129.7-3.3C2226.6,3077,2361.9,3113,2437.5,3070z" class="st6"/></g></g><g><g><path d="M2313.2,3153.8c-24.4,0-49-5.5-70.8-18.5c-36.1-21.5-76.2-69.7-67.8-178c-71.9-10.6-345.3-60-417.9-208.9 c-4.2-8.6-0.6-19.1,8-23.3c8.6-4.2,19.1-0.6,23.3,8c73.7,151.1,404.2,191.5,407.6,191.8l17.3,2l-2,17.3 c-9.5,80.5,7.6,136.2,49.4,161c40.8,24.3,97.4,13,129.9-10c61.5-43.5,97.5-177.5,91.3-270.6c-3.2-47.8-17.1-81.6-38.1-92.6 c-57-29.8-143.1-97.9-197.7-177.1c-71.4-103.6-153.5-296.3-156.9-304.4c-3.8-8.9,0.4-19.1,9.2-22.8c8.9-3.8,19.1,0.4,22.8,9.2 c0.8,2,84.2,197.6,153.5,298.3c51.2,74.3,131.9,138.2,185.2,166c33,17.2,52.6,59.1,56.8,121.1c7,104.4-33.9,250.4-105.9,301.3 C2384.9,3141.8,2349.3,3153.8,2313.2,3153.8z" class="st6"/></g></g><g><g><path d="M2079.8,2933.9c-6.1,0-11.6-4.4-12.8-10.6c-1.3-7.1,3.3-13.9,10.4-15.3c105.6-20.1,275.3-97.1,309.7-226.8 c1.8-7,9-11.1,16-9.3c7,1.9,11.1,9,9.3,16c-40.4,152.4-233.6,227.4-330.1,245.8C2081.5,2933.9,2080.6,2933.9,2079.8,2933.9z" class="st6"/></g></g><g><g><path d="M2193.1,2928l37.6-2c12.6-0.9,25.2-1.8,37.5-3.9c12.3-2.1,24.5-5.1,36-9.9c11.6-4.7,22.3-11.4,31.7-20.7 l0,0c0.8-0.7,2-0.7,2.7,0c0.6,0.6,0.7,1.4,0.4,2.1c-5.5,12.8-15.4,23.9-26.9,32.3c-11.5,8.5-24.5,14.8-37.9,19.4 c-13.4,4.6-27.1,7.9-41,9.5c-6.9,0.8-13.9,1.3-20.9,1.3c-7.1,0-13.7-0.3-21.2-1.4c-7.3-1.1-12.3-7.9-11.1-15.2 c1-6.3,6.3-10.9,12.4-11.3L2193.1,2928z" class="st6"/></g></g><g><g><path d="M2230,1774.4" class="st12"/></g></g><g><g><path d="M2402.7,1864.1" class="st13"/></g></g><g><g><path d="M1488.5,2551.3c-36.5,29.4-72.3,52.2-99.9,64.6c-232.9,105.1-352.3-103.2-329.6-209.6 c30.6-143.6,174.3-83.4,174.3-83.4c52.4-5.4,97.1-31.5,126.4-84.8c36-65.2,48.9-171.2,24.9-330.3c-4-26.2-8.9-53.8-14.9-82.9 l44.8,64.6l232.3,334.9C1701.4,2331,1592.1,2467.8,1488.5,2551.3z" class="st9"/></g></g><g class="st11"><g><path d="M1661.3,2285.9c0,2,0,4-0.1,6.1c0,0.3,0,0.6,0,0.9c-0.1,1.8-0.2,3.6-0.3,5.4c0,0.3,0,0.6,0,0.9 c-0.2,1.9-0.3,3.8-0.6,5.7c-0.2,1.7-0.4,3.4-0.7,5c-0.1,0.9-0.2,1.7-0.4,2.6c-1,6-2.3,12-3.9,18c-0.6,2.1-1.2,4.3-1.8,6.4 c0,0,0,0,0,0.1c-0.6,1.9-1.2,3.8-1.8,5.7c-0.1,0.4-0.3,0.8-0.4,1.2c-0.7,2-1.3,3.9-2.1,5.9c-0.7,2.2-1.6,4.3-2.4,6.4 c-0.4,1-0.8,2.1-1.3,3.1c-0.9,2.2-1.8,4.4-2.8,6.6c-0.1,0.3-0.3,0.6-0.4,0.9c-0.6,1.3-1.2,2.7-1.8,4c-1,2.3-2.2,4.6-3.3,6.9 c-0.7,1.4-1.3,2.8-2.1,4.1c-2.3,4.5-4.8,9.1-7.4,13.6c-1,1.8-2.1,3.7-3.2,5.5c-7.2,12.1-15.3,24.2-24,35.9 c-1,1.4-2.1,2.8-3.2,4.3c-1,1.4-2.1,2.8-3.3,4.3c-2.2,2.8-4.4,5.6-6.7,8.4c-2.2,2.7-4.4,5.3-6.6,8c-5.9,7-12,13.9-18.3,20.7 c-1.2,1.3-2.4,2.7-3.7,4c-13.9,14.8-28.6,29-43.4,42.2c-1.9,1.7-3.8,3.3-5.7,5c-0.4,0.3-0.8,0.7-1.2,1c-2.7,2.3-5.3,4.6-8,6.8 c-4,3.4-7.9,6.6-11.9,9.8c-36.5,29.4-72.3,52.2-99.9,64.6c-190.6,86-305.2-37.9-328.1-144c48.8,80,151.1,140.1,299.4,73.2 c0.3-0.1,0.5-0.2,0.8-0.3c51.9-23.6,75-84.5,53.3-137.3c-23.6-57.3-41.2-115-54.3-169.3c36-65.2,48.9-171.2,24.9-330.3 l29.9-18.3l217.7,314l14.5,20.9C1656.8,2244.2,1661.3,2264.8,1661.3,2285.9z" class="st6"/></g></g><g><g><path d="M1266.9,2662c-51.6,0-98.8-16.1-138.5-48.2c-72.8-58.7-98.9-152.6-86.4-211.1c9.8-46.2,31.6-78.4,64.7-95.7 c51-26.7,111.8-8,128.8-1.8c40.7-5.2,73.3-24.2,97-56.6c54.6-74.7,61.5-220,20.1-420.2c-2-9.4,4.1-18.6,13.5-20.6 c9.4-1.9,18.6,4.1,20.6,13.5c44.1,213.1,35.3,363.8-26.1,447.8c-30.5,41.7-72.7,65.6-125.5,71.1l-4.4,0.5l-4.1-1.7 c-0.6-0.2-59.8-24.3-103.8-1.1c-23.4,12.3-39.1,36.5-46.7,72c-10.5,49,14.4,128.6,74.2,176.7c42.7,34.4,117.4,64.7,231.2,13.3 c80.2-36.2,214.9-152.2,252.2-258.9c14.3-41,13.5-77.6-2.4-108.7c-4.4-8.6-1-19.1,7.5-23.4c8.6-4.4,19.1-1,23.4,7.5 c20.5,39.9,21.9,85.7,4.3,136.1c-42,120-186.7,241.2-270.8,279.1C1351.1,2651.9,1307.6,2662,1266.9,2662z" class="st6"/></g></g><g><g><path d="M2249.8,2779.6c-124.2,56.9-277.2,69.5-433.7,11c-279.9-104.7-388-399-429.6-610.5 c-26.2-132.9-26.2-233.2-26.2-233.2l623.4-381.1c33.4,113.1,79.1,191.1,130.3,251c98.2,115,216.4,163.6,306,267.4 c31.3,36.3,59.1,79.2,81.3,134.1c0.8,2,1.7,4,2.4,6.1c7.1,18,12.7,36.1,17.1,54.1C2571.3,2486.6,2447,2689.1,2249.8,2779.6z" class="st9"/></g></g><g class="st11"><g><path d="M1816.1,2790.6c-201.2-75.2-313.6-248.4-376.4-418.5c66.2,149.7,174.6,292.6,352.3,359 c417.4,156.1,810.2-193.3,696-543.1c5.6,11.5,10.8,23.6,15.8,36.3C2643.6,2581.7,2242.7,2950.1,1816.1,2790.6z" class="st6"/></g></g><g><g><path d="M2023.2,2846.2c-71.2,0-143.3-13.2-213.2-39.3c-191.7-71.7-333.3-243.6-409.4-497.1 c-57.1-189.9-57.7-356-57.7-363v-9.8l651.1-398l6.4,21.8c64.7,219.4,176.7,302.8,285,383.4c92.5,68.9,179.9,133.9,234.6,273.8 c63.2,161.6,24.1,336.1-104.7,466.9c-71.7,72.8-163.7,123.6-266.1,147.1C2108,2841.5,2065.7,2846.2,2023.2,2846.2z M1377.9,1956.5c1.1,38.2,8.2,184.4,56.3,344.1c50.9,168.9,159.5,388.2,388,473.7c245.9,91.9,454.8,1.5,568.3-113.8 c118.9-120.7,155.1-281.3,97-429.8c-51.1-130.6-134.6-192.7-223-258.5c-109.3-81.4-222.2-165.5-291-379.9L1377.9,1956.5z" class="st6"/></g></g><g class="st11"><g><path d="M2114,1816.8c-126.9,265.5-435.7,426.8-727.5,363.3c-26.2-132.9-26.2-233.2-26.2-233.2l623.4-381.1 C2017.1,1678.9,2062.8,1756.9,2114,1816.8z" class="st6"/></g></g><g class="st11"><g><path d="M1990.1,1821.4c-91.9-6.7-156.8-120.1-138.2-246.7c55.5,134,199.1-82.9,210-145.6 C2297.1,1492.9,2158.6,1837.2,1990.1,1821.4z" class="st6"/></g></g><g class="st8"><g><path d="M1793.4,1457.3c-36.9,123.2-177.6,83.4-163.7-28.5C1655.3,1288.7,1821.9,1332.9,1793.4,1457.3z" class="st9"/></g></g><g><g><g><path d="M898.3,1806.4c515.4,727.8,1551.4,48.3,1133.4-702C1521.8,347,451.5,1050.4,898.3,1806.4z" class="st9"/></g></g><g><g><path d="M898.3,1806.4c515.4,727.8,1551.4,48.3,1133.4-702C1521.8,347,451.5,1050.4,898.3,1806.4z" class="st9"/></g></g><g><g><path d="M898.3,1806.4c515.4,727.8,1551.4,48.3,1133.4-702C1521.8,347,451.5,1050.4,898.3,1806.4z" class="st9"/></g></g><g><g><path d="M1453.2,2130.4c-35.3,0-70.6-2.9-105.5-8.8c-179.6-30.2-338.7-136.6-459.9-307.8l-0.6-0.9 c-106-179.4-135-368.4-83.9-546.8c45.6-159.2,151.7-298,298.8-390.8c146.8-92.7,316.7-127.9,478.3-99.3 c182.3,32.3,341.9,143.4,461.7,321.4l0.6,0.9c99.3,178.2,124.3,365,72.3,540c-46.5,156.6-151.7,293-296.2,384 C1706.3,2093.3,1579.5,2130.4,1453.2,2130.4z M909,1799.5c259.3,365.8,637,364.7,896.3,201.2 c253.4-159.7,428.8-506.1,215.4-889.6c-255.2-378.6-647.9-376.5-904.9-214.3C856.3,1060.7,680.9,1413,909,1799.5z" class="st6"/></g></g><g class="st11"><g><path d="M898.3,1806.4c434.2,636.4,1371.6,205.9,1209.8-516.7c-25.2,240.1-106.3,256.1-221.5,386.5 c-351.7,425.8-976,182.8-1089.9-289.3C782.7,1536.4,820.2,1683.7,898.3,1806.4z" class="st14"/></g></g><g><g><path d="M1453.2,2135.5c-35.6,0-71.1-2.9-106.3-8.8c-181-30.4-341.2-137.6-463.2-309.9l-0.8-1.2 c-106.7-180.6-135.9-371.1-84.4-550.8c45.9-160.4,152.8-300.2,301-393.8c147.9-93.4,319.1-128.9,482-100 c183.7,32.5,344.5,144.4,465.1,323.6l0.8,1.3c100,179.5,125.2,367.6,72.8,544c-46.9,157.8-152.8,295.2-298.4,386.9 C1708.2,2098.2,1580.4,2135.5,1453.2,2135.5z M913.3,1796.7c257.4,362.8,632,361.8,889.3,199.7 c251.4-158.4,425.4-502,213.8-882.5c-253.2-375.6-642.8-373.6-897.8-212.6C861.1,1063.8,687.2,1413.2,913.3,1796.7z" class="st14"/></g></g><g><g><path d="M1453.2,2135.5c-35.6,0-71.1-2.9-106.3-8.8c-181-30.4-341.2-137.6-463.2-309.9l-0.8-1.2 c-106.7-180.6-135.9-371.1-84.4-550.8c45.9-160.4,152.8-300.2,301-393.8c147.9-93.4,319.1-128.9,482-100 c183.7,32.5,344.5,144.4,465.1,323.6l0.8,1.3c100,179.5,125.2,367.6,72.8,544c-46.9,157.8-152.8,295.2-298.4,386.9 C1708.2,2098.2,1580.4,2135.5,1453.2,2135.5z M913.3,1796.7c257.4,362.8,632,361.8,889.3,199.7 c251.4-158.4,425.4-502,213.8-882.5c-253.2-375.6-642.8-373.6-897.8-212.6C861.1,1063.8,687.2,1413.2,913.3,1796.7z" class="st6"/></g></g><g><g><path d="M1007.6,1937.7c683.1,382.6,1237.7-417,716.1-861.8C1109.2,613.2,448.1,1370.8,1007.6,1937.7z" class="st6"/></g></g><g><g><path d="M817,1478.1c13,707.5,1026.1,743.7,1120.4,94.9C1621.8,1961.1,1014.3,1816.2,817,1478.1z" class="st15"/></g></g><g><g><path d="M1398.8,2119.5c-43.2,0-86.1-4.9-128.1-14.9c-151.1-36-285.1-135.6-387.3-288.2l-0.1-0.1 c-86.3-130.8-122.6-301-99.6-466.9c24.3-175.7,111.2-327.8,244.7-428.1l1.2-0.9l1.4-0.7c160.3-82.4,356.8-92.2,539-26.8 c181.6,65.2,326.3,196.7,397,360.9c64.4,160.7,65.6,325,3.7,475.3c-56.1,136.3-160,249.9-292.6,319.9 C1589.7,2095.6,1493.7,2119.5,1398.8,2119.5z M913.2,1796.5c225.1,335.7,543.6,328.7,748.1,220.8 c235-124.1,404.1-421.4,272.6-749.8c-66.6-154.7-203.8-279.1-376-341c-172.4-61.9-357.8-53-509.1,24.2 C771.9,1160,755.1,1556.7,913.2,1796.5z" class="st6"/></g></g><g><g><path d="M1365.6,2056.3c-120.2,0-244.9-34.7-366.7-103l-2.2-1.2l-1.8-1.8C860.4,1814,785.8,1656.8,779,1495.5 c-6.1-144.4,42.9-283.7,137.9-392.3c92.8-106.1,220.4-172.1,359.3-185.8c154.4-15.2,312.9,34.6,458.4,144.2l0.8,0.7 c121.8,103.8,194.1,233.6,209.2,375.2c13.7,128.2-21,259.5-97.7,369.6c-83,119.2-206.8,202.5-348.6,234.5 C1455,2051.4,1410.6,2056.3,1365.6,2056.3z M1018.6,1923.3c350.3,195,653.6,72.1,798.9-136.7c132-189.5,150.6-478.4-105-696.7 c-306.9-230.7-607.2-147.8-768.7,36.9C783.2,1310.4,738.4,1637.8,1018.6,1923.3z" class="st6"/></g></g><g><g><path d="M2219.2,1568.2c-35.6,312.4-351.7,303.1-347.8,1.4C1896.7,1240.7,2234.6,1250.7,2219.2,1568.2z" class="st9"/></g></g><g><g><path d="M2031.9,1817.1c-3.1,0-6.3-0.1-9.4-0.3c-85.7-5.4-171.1-84-169-247.5l0.1-1.1 c13.7-178.2,118.5-265.4,214.9-259.3c87,5.4,176.9,89.2,168.6,260.2l-0.1,1.2C2217.6,1741.5,2118.9,1817.1,2031.9,1817.1z M1889.4,1570.4c-1.6,139.5,66.8,206.3,135.5,210.7c72.7,4.5,158.8-60.5,176.6-214.3c6.9-146.3-65.2-217.7-135.1-222.1 C1987.4,1339.8,1901.4,1415.7,1889.4,1570.4z M2219.2,1568.2L2219.2,1568.2L2219.2,1568.2z" class="st6"/></g></g><g><g><path d="M2232,1585.1c-29.1,253.2-266,250.2-262.9,6.1C1988.6,1321.7,2246,1325.3,2232,1585.1z" class="st9"/></g></g><g><g><path d="M2087.7,1792.5c-2.3,0-4.6-0.1-6.9-0.2c-65.7-4.2-131.3-68-129.6-201.3l0-1.1 c10.8-149.5,93.4-222.8,169.5-218c67.6,4.3,136.8,73.1,129.2,214.1l-0.1,1.1C2233.5,1729.6,2155.7,1792.5,2087.7,1792.5z M1987,1592c-1.2,109.4,47.3,161.4,96.1,164.5c53,3.3,116.7-49.3,131.1-172.9c6.1-116.3-45.3-172.7-95.7-175.9 C2060.1,1404,1996.3,1466.2,1987,1592z M2232,1585.1L2232,1585.1L2232,1585.1z" class="st6"/></g></g><g class="st16"><g><path d="M1735.8,1638.6c-14.9,48.5-79.4,35-68-19.2C1682.7,1571,1747.1,1584.5,1735.8,1638.6z" class="st9"/></g></g><g class="st16"><g><path d="M914.4,1505.9c-95.7-450.8,372.5-529.4,519.2-439C1132.7,1100.2,1007,1292.1,914.4,1505.9z" class="st9"/></g></g><g class="st11"><g><path d="M1958.8,1648.8c-6-35.3-2.3-72.5,8.8-106.7c51.9,168.3,220,86.2,254.7-37.5 C2270.3,1754.7,2019.3,1882.9,1958.8,1648.8z" class="st6"/></g></g></g><g><g><path d="M1241.7,2307.8c4,2.3,6.4,4,9.3,6c2.7,2,5.4,4,7.9,6.2c2.6,2.1,5,4.4,7.4,6.7c2.4,2.2,4.7,4.6,6.9,7.1 c8.8,9.7,16.7,20.2,22.9,31.7c13,22.6,20.3,47.9,23,73c0.4,6.3,1.1,12.6,1.3,18.9c0,6.3-0.1,12.5-0.2,18.8 c-0.9,13.1-3.6,26.5-8.8,38.7c-10.3,24.7-32.1,44-57.1,48.4c-0.8,0.1-1.6-0.4-1.7-1.2c-0.1-0.5,0.1-1,0.4-1.3l0.1-0.1 c17.1-16.7,29.4-34.7,35.6-54.2c3-9.8,4-20.1,3.7-30.5c-0.5-5.6-0.9-11.1-1.3-16.6c-0.6-5.5-1.7-10.9-2.4-16.3 c-0.9-5.4-2.5-10.6-3.7-15.9c-1.3-5.3-3.3-10.3-4.9-15.4c-2-5-4.1-9.9-6.3-14.7c-2.6-4.7-4.6-9.6-7.6-14 c-5.4-9.1-11.9-17.5-18.9-25.2c-1.8-1.9-3.5-3.9-5.4-5.6c-1.8-1.8-3.7-3.6-5.7-5.3c-1.9-1.7-3.9-3.3-5.9-4.9 c-1.8-1.4-4.3-3.1-5.4-3.8l-1.2-0.8c-8-5.3-10.3-16-5-24.1C1223.6,2305.6,1233.8,2303.3,1241.7,2307.8z" class="st6"/></g></g><g><g><path d="M1187.7,2311.7c0,0,85.1,20.8,116.9,102.2c0,0,33-2.2,39.3-39.6c7.3-43.7-27.7-107-90-111.5 C1206.6,2259.4,1187.7,2311.7,1187.7,2311.7z" class="st9"/></g></g><g class="st11"><g><path d="M1343.9,2374.2c-6.3,37.4-39.3,39.7-39.3,39.7c-31.8-81.4-116.9-102.2-116.9-102.2s4.1-11.4,13.4-23.3 c25,5.4,66.8,19.7,98.3,56.4c12,14,34.8,11.1,41.8-6c0.1-0.2,0.2-0.4,0.2-0.6C1344.8,2350.6,1345.8,2363,1343.9,2374.2z" class="st6"/></g></g><g><g><path d="M1294.6,2429.6l-4-10.3c-28.4-72.8-105.7-92.9-106.5-93.1l-16.1-4l5.6-15.6c0.9-2.6,23.4-63,81.3-58.8 c30.9,2.2,58.9,17.4,78.8,42.7c20,25.4,29.6,58.5,24.9,86.2c-6.5,38.8-37.5,51.1-53,52.1L1294.6,2429.6z M1209,2303 c26.7,10.5,77,36.7,104.1,93c6.3-3.3,13.6-10.1,15.9-24.2c3.2-19.4-4.2-44-18.9-62.7c-14.7-18.6-35-29.8-57.4-31.4 C1230.8,2276.2,1216.7,2291.1,1209,2303z" class="st6"/></g></g><g><g><path d="M2280.6,2005.1l-321.4,93.8c-112.3-139.2-247.9-457.7-247.9-457.7s-37.6-1.3-80-20.5 c-31.7-14.3-66.1-38.6-89.5-79.7c-7.5-13-13.8-27.8-18.6-44.4c-47.1-163.4,144.4-284.9,306.6-237 C2084.8,1334.7,2059,1704,2280.6,2005.1z" class="st9"/></g></g><g class="st11"><g><path d="M1800.4,1592c-47,21.6-114.3,27.8-169.1,28.7c-31.7-14.3-66.1-38.6-89.5-79.7 c89.8,4.4,317.2,3.3,345.6-118.8C1887.4,1422.1,1943.2,1526.2,1800.4,1592z" class="st6"/></g></g><g><g><path d="M2275.9,2008.6c-12.6-11.8-24.6-24.3-35.2-37.8c-11.1-13.2-20.7-27.4-30.2-41.7 c-18.2-29.1-34.5-59.2-49-90.2c-28.2-62.3-51.7-126.2-74.9-189.5c-23.2-63.4-45.2-126.9-73.4-186.6 c-14.2-29.8-30-58.5-48.9-84.6c-18.8-26.2-41.2-49.2-67-67.2l-9.8-6.6c-3.2-2.3-6.8-3.9-10.2-5.9l-10.3-5.7l-10.8-4.8 c-3.6-1.6-7.2-3.3-10.8-4.7l-11.2-3.8c-3.8-1.2-7.4-2.7-11.2-3.7l-11.4-3c-30.6-6.9-62.7-8.2-93.9-3.4 c-31.3,4.5-61.7,15.1-89,30.5c-27.3,15.5-51.3,36.6-68.5,61.9c-8.6,12.7-15.4,26.4-20,40.7c-4.6,14.4-6.8,29.4-6.7,44.5 c0.1,15.1,2.4,30.2,6.5,45c4.3,14.9,10.3,29.2,18.1,42.4c15.5,26.3,38.3,47.9,65.5,62.9c13.5,7.5,28.1,13.5,43.1,18 c7.5,2.2,15.2,4.1,22.8,5.6c3.8,0.7,7.7,1.4,11.5,1.9c3.7,0.5,8,0.9,10.9,1.1l11.1,0.6l4.3,10c17,39.5,35.1,79,53.6,118.1 c18.5,39.1,37.6,78,57.6,116.3c9.8,19.2,20.2,38.2,30.5,57.1c5.3,9.4,10.8,18.7,16.3,27.9c5.4,9.3,11.4,18.3,16.9,27.5 c22.3,36.9,44.4,72.8,61.4,113.9l0,0.1c1.3,3.1-0.2,6.6-3.2,7.9c-2,0.8-4.2,0.5-5.8-0.7c-9.2-6.6-17.5-14.2-25.7-22 c-7.9-8-15-16.5-21.9-25.1l-5.1-6.6l-4.8-6.8c-3.1-4.5-6.4-9-9.4-13.6c-3-4.6-6.2-9.2-9.1-13.8c-2.8-4.7-5.7-9.4-8.4-14.2 c-11.1-19-21.1-38.5-31.8-57.7c-10.3-19.3-21-38.5-30.9-57.9c-20.2-38.8-39.5-78-58.2-117.4c-18.7-39.5-36.8-79.1-54.2-119.4 l15.4,10.6c-5.5-0.3-9.6-0.8-14.3-1.4c-4.5-0.6-9-1.3-13.4-2.2c-8.9-1.7-17.6-3.8-26.3-6.4c-17.3-5.2-34.1-12.1-50.1-20.9 c-31.9-17.5-59.9-43.8-78.6-75.6c-9.4-15.9-16.5-32.9-21.5-50.4c-4.9-17.7-7.8-36.1-7.9-54.7c-0.1-18.6,2.6-37.3,8.3-55.1 c5.7-17.8,14-34.5,24.3-49.7c20.7-30.5,48.8-54.9,80.1-72.6c31.3-17.7,65.7-29.6,101.1-34.7c35.4-5.4,71.9-4.1,107,3.9l13.1,3.4 c4.4,1.2,8.5,2.8,12.8,4.2l12.7,4.4c4.2,1.6,8.2,3.6,12.4,5.3c4.1,1.8,8.2,3.6,12.3,5.5l11.8,6.5c3.9,2.3,8,4.2,11.7,6.8 l11.2,7.5c29.6,20.5,54.7,46.7,75.2,75.2c20.7,28.5,37.4,59.1,52.2,90.2c29.4,62.3,51.5,126.5,74.6,189.6 c11.6,31.6,23,63.1,35.7,94.1c12.4,31,26.3,61.4,40.4,91.4c14.4,30,29.1,59.6,44.5,89c7.9,14.6,15.4,29.4,23.1,44.2 c7.3,15.1,15.5,29.6,22.1,45.5l0.1,0.3c1.3,3-0.2,6.5-3.2,7.7C2280,2010.6,2277.6,2010.1,2275.9,2008.6z" class="st6"/></g></g><g><g><path d="M1896,1379.8c11.9,12.8,12.5,28.5,10.1,42.4c-2.4,14.1-8.7,26.8-15.9,38.2c-7.5,11.3-15,22.2-23.6,32.2 c-1.8,2.2-5.1,5.9-7.8,8.3c-1.4,1.4-2.9,2.6-4.3,3.7c-1.5,1.2-2.9,2.3-4.4,3.3c-5.9,4.2-11.8,7.7-17.8,10.7 c-24,12.1-48.6,19.4-73.6,24.9c-25,5.3-50.3,8.5-76,9.1c-25.6,0.6-51.6-1.2-77.4-7.7c-12.9-3.2-25.7-7.8-38.1-14.1 c-12.3-6.4-24.2-14.8-34-25.9c-9.9-10.9-17.2-24.4-21.4-38.4c-4.1-14.1-5.1-28.5-4.3-42.3c0.4-6.9,1.3-13.6,2.5-20.3 c1.3-6.6,2-13.3,3.5-19.8c1.5-6.5,3.9-12.7,7.7-18.2c3.8-5.5,9-10.4,17.4-13.5c4.1-1.5,8.7,0.4,10.5,4.3l0.2,0.3 c3.7,8.2,4,14.5,3.7,20.5c-0.6,5.9-1.7,11.4-3.7,16.7c-1.9,5.3-3.9,10.5-5,15.9c-1,5.4-1.7,10.8-2,16.1 c-0.6,10.6,0.2,20.9,2.9,30.3c2.9,9.3,7.4,17.9,14,25.1c13,14.6,33.1,24.1,54.6,29.5c21.7,5.4,44.9,7.2,68.1,6.6 c23.2-0.5,46.6-3.4,69.5-8.3c22.7-4.9,45.3-11.9,65-21.8c4.9-2.5,9.5-5.2,13.6-8.1c1-0.7,2-1.4,2.9-2.2c1-0.7,1.9-1.5,2.6-2.2 c0.9-0.7,1.6-1.5,2.3-2.2c0.6-0.6,1.5-1.7,2.4-2.8c7.3-8.6,13.9-17.7,18.9-27.5c4.8-9.8,8.3-19.7,12.1-29.3 c3.3-9.7,6.9-19.1,13.8-30.2l1.4-2.2c1.8-2.9,5.6-3.8,8.5-2C1895.2,1379,1895.7,1379.4,1896,1379.8z" class="st6"/></g></g><g><g><path d="M1516.3,1458.5c0,0,133.6-11,155.1,29.6c25.9,49.2-17.7,74.5-60.3,83.4c-41.3,8.6-71.5,13.3-92.3-18.8 C1490.4,1509,1516.3,1458.5,1516.3,1458.5z" class="st9"/></g></g><g class="st11"><g><path d="M1611.1,1571.5c-41.3,8.6-71.5,13.3-92.3-18.8c-15.8-24.4-14.8-50.9-10.7-69.6c2,8.3,5.4,16.7,10.7,24.8 c20.8,32,51.1,27.3,92.3,18.8c25.3-5.3,50.9-16.3,62.2-34.7C1695,1538.6,1652.6,1562.8,1611.1,1571.5z" class="st6"/></g></g><g><g><path d="M1566.6,1592.8c-22.7,0-44.3-7.1-60.4-31.9c-32.8-50.5-4.5-106.9-3.2-109.3l3.8-7.4l8.3-0.7 c24-2,144.8-9.4,169.6,37.6c13.8,26.2,10,46.1,4.3,58.1c-14.3,30.3-53,42.5-74.8,47C1598.7,1589.4,1582.4,1592.8,1566.6,1592.8z M1526.6,1472.8c-5,14-12.6,45,4.8,71.8c14.7,22.6,33.6,21.2,76.7,12.2c27.4-5.7,47.5-17.1,53.8-30.4c4.1-8.6,2.8-18.8-3.7-31.3 C1647.3,1474.7,1576.5,1469.9,1526.6,1472.8z" class="st6"/></g></g><g><g><path d="M2486.1,2227.7c0,0,119.1,179.7,208.2,268.6c64.8,64.7,158,115.3,219.9,134.6c94,29.2,106.6,308.8,22,395.3 c-62.4,63.7-219.5,85.8-234-127.7c0,0-364.9,3.5-472.2-141.2l0,0c-27.1-30-30.9-74.4-9.3-108.6L2486.1,2227.7z" class="st9"/></g></g><g class="st11"><g><path d="M2979.6,2940.1c-9.3,35.4-23.7,66-43.4,86.1c-62.3,63.7-219.4,85.7-234-127.7c0,0-364.9,3.5-472.2-141.3 c-15.4-17-23.2-38.7-23.2-60.5c0-0.2,0-0.3,0-0.5c0.1-25.6,31.2-38.5,50.1-21.2c2.5,2.3,4.9,4.7,7.1,7.1 c204.6,228.3,566.5,119.7,566.5,119.7c-121.9,209.6,97.6,239.8,139.8,149.3C2972.2,2946.8,2976.7,2944.1,2979.6,2940.1z" class="st6"/></g></g><g><g><path d="M2831.6,3087.6c-15.3,0-30.7-2.4-45.5-7.9c-39.7-14.6-88.3-55.1-99.8-163.8 c-73.5-1.1-369.8-14.1-469.7-147.4c-4.3-4.7-20.6-24.1-25.2-51c-1.6-9.5,4.7-18.5,14.2-20.1c9.4-1.6,18.5,4.7,20.1,14.2 c3.3,19.1,16.7,33.6,16.9,33.7l1.4,1.7c100.8,136,454.6,134.2,458.1,134.2l16.4-0.2l1.1,16.4c5.5,81,32.7,132.8,78.5,149.7 c45.1,16.6,97.3-4,125.7-33c52.1-53.3,63-190.8,40.2-280.9c-11.9-47.2-32-78.4-55-85.5c-61.4-19.1-158.3-70.5-226.6-138.4 c-118.2-100.3-192.8-267.6-195.9-274.7c-3.9-8.8,0.1-19.1,8.9-23c8.8-3.9,19.1,0.1,23,8.9c0.7,1.7,74.8,167.6,187.1,262.6l1.1,1 c64.1,64,155.2,112.4,212.8,130.3c35.9,11.1,63,49.3,78.4,110.3c25.6,101.2,11.9,251.4-49.1,313.8 C2921.6,3066,2877,3087.6,2831.6,3087.6z" class="st6"/></g></g><g><g><path d="M1767.7,1778.5c-6.7,0-12.4-5.1-13-11.9c-0.6-7.2,4.6-13.5,11.8-14.2c80.1-7.2,292.3-46.9,312.7-141.9 c1.5-7.1,8.4-11.5,15.5-10c7.1,1.5,11.5,8.5,10,15.5c-28.5,133.2-323.4,161.3-335.9,162.4 C1768.5,1778.5,1768.1,1778.5,1767.7,1778.5z" class="st6"/></g></g><g><g><path d="M2585.5,2905.5c-6.3,0-11.9-4.6-12.9-11.1c-1.1-7.1,3.8-13.8,10.9-14.9c0.8-0.1,51.4-8.6,100.6-50 c66.1-55.6,98.7-141.6,97-255.4c-0.1-7.2,5.6-13.1,12.9-13.3c0.1,0,0.1,0,0.2,0c7.1,0,12.9,5.7,13.1,12.9 c2.3,152.9-57.1,234.9-107.4,276.8c-54.9,45.7-110,54.5-112.4,54.9C2586.8,2905.5,2586.2,2905.5,2585.5,2905.5z" class="st6"/></g></g><g><g><path d="M2700.5,2885.4l10.4-3c3.6-1,7.2-2.2,10.8-3.4c3.6-1.1,7.1-2.6,10.7-3.8c3.6-1.3,7-2.9,10.6-4.2 c13.9-6,27.5-12.9,39.9-21.7l4.6-3.3c1.6-1.1,3.1-2.2,4.5-3.5l8.7-7.5c2.7-2.7,5.3-5.5,8-8.3c1.3-1.4,2.8-2.7,4-4.2l3.5-4.6 c10.2-11.9,17.2-26.2,24.4-40.9l0.1-0.2c0.5-0.9,1.6-1.3,2.5-0.9c0.8,0.4,1.2,1.2,1,2c-2.4,16.4-6.4,33.3-14.7,48.5l-2.9,5.8 c-1,1.9-2.3,3.6-3.5,5.5c-2.4,3.6-4.7,7.3-7.4,10.8l-8.5,10c-2.7,3.5-6.2,6.2-9.3,9.3c-12.8,11.9-27.4,22.1-43.3,29.5 c-7.9,3.7-16.1,6.9-24.5,9.3c-4.2,1.3-8.4,2.3-12.7,3.2c-4.4,0.9-8.5,1.5-13.6,1.9c-7.3,0.6-13.7-4.8-14.3-12.1 c-0.5-6.4,3.6-12.1,9.6-13.9L2700.5,2885.4z" class="st6"/></g></g><g><g><path d="M1431.9,2413.1l23.4-33.3c11.4-16.2,27.5-28.5,46.1-35.3l311.1-113.3c5.1-1.8,19.3,64.6,21.1,69.7 l-31.2,81.5L1431.9,2413.1z" class="st9"/></g></g><g><g><path d="M1440.7,2424.8c-6,0-11.5-3.2-14.6-8.5c-3.3-5.7-3-12.7,0.8-18.1l18-25.7c12.9-18.4,30.9-32.2,52-39.9 l311.1-113.3c3.6-1.3,7.5-1,10.8,0.8c6.9,3.7,10.2,9.6,23.5,65.1c1.2,4.9,2.5,10.4,2.9,11.6l1.3,4.1l-1.5,4.3l-34,88.8 l-368.9,30.6C1441.7,2424.8,1441.2,2424.8,1440.7,2424.8z M1447.5,2412.6L1447.5,2412.6 C1447.5,2412.6,1447.5,2412.6,1447.5,2412.6z M1437.2,2405.5L1437.2,2405.5L1437.2,2405.5z M1806.5,2246.6l-300.9,109.6 c-16.3,5.9-30.2,16.6-40.1,30.8l-8.1,11.5l336-27.9l26.9-70.4c-0.5-2.1-1.2-5-2.2-9.1 C1815.8,2281.3,1810.4,2258.8,1806.5,2246.6z" class="st6"/></g></g><g><g><path d="M2036.8,2627.1c-50.3,36.9-130,94.7-131.9,91.8l-69.4-123.7L1681.7,2321c-1-1.8,82.8-62.8,130.7-89.9 c20.1-11.4,42.3,15.9,55.5,36.8l97.2,153.4l83.2,131.2C2064.4,2577.8,2059.4,2610.5,2036.8,2627.1z" class="st9"/></g></g><g class="st11"><g><path d="M2036.8,2627.1c-50.3,36.9-130,94.7-131.9,91.8l-69.4-123.7l-38.8-159.3c0,0,78.6,53,140.5,10.7 c11.3-7.7,20.5-16.3,27.9-25.2l83.2,131.2C2064.4,2577.8,2059.4,2610.5,2036.8,2627.1z" class="st6"/></g></g><g><g><path d="M1905.2,2731.5c-0.9,0-1.7-0.1-2.5-0.3l-5.4-1l-3.3-5.2l-223.2-397.8c-5.6-10.3,1.3-15.5,16.6-27.1 c9.1-6.9,21.2-15.7,34.1-24.7c15.6-11,55.2-38.4,84.7-55.1c12.8-7.2,39.1-11.5,72.2,41l180.5,284.6 c19.6,30.8,13.1,70.9-14.7,91.3C1927.9,2722.4,1912.3,2731.5,1905.2,2731.5z M1697.5,2323.8l212.3,378.3 c12.8-8.2,43.9-29.7,119.5-85.1c17.3-12.7,21-38,8.4-57.7l-180.5-284.6c-15.4-24.4-30.6-37.2-38.7-32.6 C1778.9,2264.5,1717.8,2308.1,1697.5,2323.8z" class="st6"/></g></g><g><g><path d="M1901.2,2719.5l-252.9,37.8c-40,0.1-68.6-5.6-91.6-42.4l-11.7-18.8l-117.3-187.9 c-7.9-12.7-13-26.1-15.3-39.1c-5.4-30.9,15.1-51.5,43.9-69.6l211.5-77.3c33.8-12.4,71.7,0,91.7,30l22.1,36l155.8,254.1 C1956.4,2673.4,1937.4,2714.1,1901.2,2719.5z" class="st9"/></g></g><g class="st11"><g><path d="M1901.2,2719.5l-252.9,37.8c-40,0.1-68.6-5.6-91.6-42.4l-11.7-18.8c56.1,6.8,143.7,3,204.6-68.7 c58.2-68.3,48.7-169.6,32-239.3l155.8,254.1C1956.4,2673.4,1937.4,2714.1,1901.2,2719.5z" class="st6"/></g></g><g><g><path d="M1647.4,2769.8c-36.2,0-73.7-4-101.4-48.3l-129-206.7c-8.5-13.6-14.4-28.7-17-43.6 c-7.2-40.9,22.7-65.5,49.5-82.4l1.1-0.7l212.8-77.7c39.4-14.4,83.1-0.1,106.3,34.8l178.1,290.5c11.2,18.3,12.5,40.7,3.4,60.1 c-9,19.4-27.1,32.9-48.3,36l-253.8,37.9l-0.9,0C1648,2769.8,1647.7,2769.8,1647.4,2769.8z M1648.3,2757.3L1648.3,2757.3 L1648.3,2757.3z M1461.8,2410.7c-30,19.1-40.8,35.4-37.1,56.2c2.1,11.8,6.7,23.8,13.5,34.7l129,206.7 c19.2,30.7,42.1,36.5,80.1,36.5l252-37.6c13.1-1.9,23.7-9.9,29.3-21.9c5.6-12,4.8-25.3-2.1-36.5l-177.8-290.1 c-16.6-24.8-48.2-35.2-76.7-24.8L1461.8,2410.7z" class="st6"/></g></g><g><g><path d="M1714.6,2544.6c3.7,7.1,41.7,60.4,41.7,60.4s15-7.7,33.4-17.3c23-11.9,26.6-50.5,8.2-86.2 c-18.5-35.7-52.1-55.1-75.1-43.2c-15.5,8-33.4,17.3-33.4,17.3S1708.6,2533,1714.6,2544.6z" class="st17"/></g></g><g><g><path d="M1714.6,2544.6c3.7,7.1,41.7,60.4,41.7,60.4s15-7.7,33.4-17.3c23-11.9,26.6-50.5,8.2-86.2 c-18.5-35.7-52.1-55.1-75.1-43.2c-15.5,8-33.4,17.3-33.4,17.3S1708.6,2533,1714.6,2544.6z" class="st17"/></g></g><g class="st11"><g><path d="M1714.6,2544.6c3.7,7.1,41.7,60.4,41.7,60.4s15-7.7,33.4-17.3c23-11.9,26.6-50.5,8.2-86.2 c-18.5-35.7-52.1-55.1-75.1-43.2c-15.5,8-33.4,17.3-33.4,17.3S1708.6,2533,1714.6,2544.6z" class="st6"/></g></g><g><g><path d="M1752.3,2621.8l-6.6-9.2c-9-12.7-38.8-54.6-42.7-62v0c-6.3-12.2-24-64.8-26-70.8l-3.6-10.6l43.3-22.4 c15.2-7.9,33.6-6.4,51.7,4c16.3,9.4,30.9,25.3,40.9,44.8c10.1,19.5,14.6,40.5,12.9,59.3c-2,20.9-11.4,36.7-26.6,44.5 L1752.3,2621.8z M1726.2,2538.6c2,3.8,17.9,26.7,34.2,49.6l23.3-12.1c9.5-4.9,12-17,12.6-23.8c1.3-13.6-2.4-30-10.1-44.8 c-7.7-14.9-18.9-27.3-30.8-34.1c-5.9-3.4-17.2-8.4-26.7-3.5l-23.4,12.1C1712.8,2503.7,1722.8,2531.9,1726.2,2538.6z" class="st6"/></g></g><g><g><ellipse cx="1711.5" cy="2546" class="st17" rx="46.8" ry="72.8" transform="matrix(0.8883 -0.4594 0.4594 0.8883 -978.2526 1070.7234)"/></g><g><path d="M1730.1,2627.3c-25.9,0-54.5-20.4-71.8-53.8l0,0c-22.1-42.8-16.1-88.4,13.8-103.8 c29.8-15.4,70.5,6,92.7,48.8c22.1,42.8,16.1,88.4-13.8,103.8C1744.5,2625.7,1737.4,2627.3,1730.1,2627.3z M1681.5,2561.5 c16.2,31.3,43.3,44.9,57.5,37.6c14.2-7.3,18.7-37.3,2.6-68.6c-16.2-31.3-43.3-44.9-57.5-37.6 C1669.9,2500.2,1665.4,2530.2,1681.5,2561.5L1681.5,2561.5z" class="st6"/></g></g><g><g><path d="M1741.6,2530.5c-16.2-31.3-43.3-44.9-57.5-37.6c-14.2,7.3-18.7,37.3-2.6,68.6 c16.2,31.3,43.3,44.9,57.5,37.6S1757.7,2561.8,1741.6,2530.5z" class="st17"/></g></g><g class="st16"><g><path d="M1691.5,2571.5c-16.2-31.3-11.6-61.3,2.6-68.6c8.8-4.5,22.5-1,35.6,9.7c-15.5-18.3-34.5-25.5-45.6-19.7 c-14.2,7.3-18.7,37.3-2.6,68.6c6.2,11.9,13.9,21.2,21.9,27.8C1699.1,2584.2,1695.1,2578.3,1691.5,2571.5z" class="st9"/></g></g><g class="st11"><g><path d="M1753.2,2524.5c-7.2-13.8-16.6-25.2-26.8-33.2c14.7,33.7,10.2,68.3-11.4,79.4c-14.1,7.3-32.2,2.8-48.3-10 c1,2.3,2.1,4.5,3.2,6.8c18.5,35.7,52.1,55.1,75.1,43.2S1771.6,2560.2,1753.2,2524.5z" class="st6"/></g></g><g><g><g><path d="M2363,2025.6c0,0-134.4,216.2-391,317.7c-40.1,15.8-62.5,59.4-48.9,99.8c7.2,21.3,23.5,38.3,57.4,38.2 c141.3-0.2,476.6-265,479.8-369.4C2463.2,2014.2,2363,2025.6,2363,2025.6z" class="st9"/></g></g><g class="st11"><g><path d="M2460.3,2111.9c-3.2,104.5-338.5,369.2-479.8,369.4c-33.9,0-50.2-17-57.4-38.2c-7-20.8-4.4-42.5,5.3-60.8 c0,0.2,0.1,0.4,0.2,0.7c7.2,21.3,23.5,38.3,57.4,38.3c128.9-0.2,419.3-220.6,471.7-338.6 C2459.6,2091.1,2460.6,2100.8,2460.3,2111.9z" class="st6"/></g></g><g><g><path d="M1980.3,2498.7c-36.6,0-62.8-17.8-73.7-50.1c-16.4-48.6,9.6-101.9,59-121.5 c247.9-98.1,381.3-308.6,382.6-310.7l4.5-7.1l8.4-1c2.2-0.2,53.8-5.7,88,25.8c20,18.4,29.6,44.7,28.6,78.3 c-1.9,64.5-101.9,164.8-194.8,237c-92.7,72.1-220.7,149.2-302.4,149.3C1980.5,2498.7,1980.4,2498.7,1980.3,2498.7z M2372.7,2042.6c-27.2,40.7-159.9,224.1-394.3,316.9c-32.2,12.7-49.3,47-38.8,78c6.1,18.2,18.7,26.4,40.7,26.4c0,0,0.1,0,0.1,0 c137.5-0.2,459.7-262.7,462.4-352.6c0.7-22.9-5.1-40.2-17.3-51.5C2409.4,2044.8,2385.1,2042.7,2372.7,2042.6z" class="st6"/></g></g></g><g><g><path d="M1731.3,2758c-4.5,0-8.9-2.3-11.3-6.5l-95.5-165.6l-39.5-6.1l-113.7-183c-3.8-6.1-1.9-14.2,4.2-18 c6.1-3.8,14.2-1.9,18,4.2l107.3,172.8l40,6.2l101.7,176.4c3.6,6.2,1.5,14.2-4.8,17.8C1735.7,2757.4,1733.5,2758,1731.3,2758z" class="st6"/></g></g></g></g></svg>