<svg xmlns="http://www.w3.org/2000/svg" xmlns:xlink="http://www.w3.org/1999/xlink" id="Layer_1" x="0" y="0" version="1.1" viewBox="0 0 4000 4000" xml:space="preserve" style="enable-background:new 0 0 4000 4000"><style type="text/css">.st0{display:none}.st1{display:inline}.st2{fill:#bbefff}.st3{fill:#ed1b24}.st4{opacity:.2}.st5{fill:#371a45}.st6{opacity:.35}.st7{opacity:.7}.st8{fill:#fff}.st9{fill:#293856}.st10{fill:#21102b}.st11{opacity:.6}.st12{fill:#22a7f0}</style><g><g class="st0"><g class="st1"><g><rect width="4000" height="4000" class="st2" transform="matrix(-1 -1.224647e-16 1.224647e-16 -1 4000 4000)"/></g></g></g><g><g><g><path d="M787.2,2448.1c13.6-2.1,28.6-3.2,43.8-3.1h0c43.2,0.3,87.9,10.3,106.6,34.3c20,25.6,28.7,54.1,40,78.4 c13.5,29.1,30.5,52.3,75,57.4c4.8,0.5,9.5,0.9,14.2,1c68.1,2.3,124.6-31.9,142.3,44.3l212.8-268.2l367.3-463.1l-738.5,312 l-263.8,200.3C779.8,2445,779.3,2449.4,787.2,2448.1z" class="st3"/></g></g><g class="st4"><g><path d="M787.2,2448.1c13.6-2.1,28.6-3.2,43.8-3.1h0c43.2,0.3,87.9,10.3,106.6,34.3c20,25.6,28.7,54.1,40,78.4 c13.5,29.1,30.5,52.3,75,57.4c4.8,0.5,9.5,0.9,14.2,1c68.1,2.3,124.6-31.9,142.3,44.3l212.8-268.2l367.3-463.1l-738.5,312 l-263.8,200.3C779.8,2445,779.3,2449.4,787.2,2448.1z" class="st5"/></g></g><g class="st6"><g><path d="M831.1,2445c43.2,0.3,87.9,10.3,106.6,34.3c20,25.6,28.7,54.1,40,78.4c0.9-17.8,7-40.6,25.2-66 c43.1-59.8,493-279.6,470.4-301.4C1459.4,2176.8,840.5,2441,831.1,2445z" class="st5"/></g></g><g class="st6"><g><path d="M1066.8,2616.1c68.1,2.3,124.6-31.9,142.3,44.3l212.8-268.2C1275.3,2482.7,1108.9,2589.1,1066.8,2616.1z" class="st5"/></g></g><g><g><path d="M1208.2,2664.6l-0.9-3.8c-12.7-54.5-44.9-50.9-89.4-45.9c-19.8,2.2-42.2,4.7-65.5,2 c-55.1-6.3-68.9-39.4-84.9-77.7c-8.2-19.6-16.6-39.8-31.4-58.8c-24.2-31-94.6-38.8-148.6-30.4c-5.5,0.8-7.3-0.8-7.8-2.4 c-0.8-2.5,1.5-5.4,6.2-7.8l263.7-200.2l745.7-315.1L1208.2,2664.6z M1151.5,2608.5c27.4,0,48.4,8.7,58.6,47.7l573.1-722.5 l-731.7,309.1L787.8,2443c-3.1,1.6-4.1,2.9-4.4,3.4c0.1,0,0.5,0,1.2,0c0.6,0,1.3,0,2.3-0.2c55.1-8.5,127.1-0.3,152.2,31.8 c15.1,19.3,23.7,39.8,31.9,59.6c15.5,37.2,29,69.4,81.8,75.5c22.9,2.6,45.1,0.2,64.6-2C1129.6,2609.8,1141,2608.5,1151.5,2608.5 z" class="st5"/></g></g><g><g><path d="M1200.1,2700.6l-8.4-36.2c-9-38.8-24.5-38.9-72-33.6c-20.6,2.3-44,4.9-69.1,2 c-64.4-7.4-81.4-48.1-97.8-87.5c-7.8-18.6-15.8-37.8-29.3-55.1c-19.4-24.9-84.4-32-133.5-24.4c-14.9,2.3-23-5.7-25.5-13.3 c-2.6-7.9-0.5-18.9,12.7-26.3l264.5-200.8l2.1-0.9l803.2-339.3L1200.1,2700.6z M1150.7,2592.6c24.9,0,48.5,6.1,63.9,32.1 l516.9-651.7l-671.8,283.8L835.4,2427c46.9,0.8,94.1,12.8,116.3,41.2c16.4,21,25.8,43.5,34.1,63.3 c15.3,36.5,25.3,60.7,68.8,65.7c21.1,2.4,41.4,0.2,61-2C1127.2,2593.9,1139.1,2592.6,1150.7,2592.6z M786.9,2441.3L786.9,2441.3 L786.9,2441.3z" class="st5"/></g></g><g><g><path d="M2030.1,1819L809.1,2263.5c-102.5,37.3-164.9,141.3-149.6,249.4v0c0,0,176.8-104.2,308.2-180.8 C1224.4,2182.3,2030.1,1819,2030.1,1819z" class="st3"/></g></g><g class="st7"><g><path d="M659.5,2512.9c0,0,7.1-4.2,19.6-11.5c2.1-93.8,61.4-178.8,151.9-211.8l841.9-306.5 c194.9-90.8,351-161.2,357-164L809.2,2263.5C706.6,2300.9,644.2,2404.8,659.5,2512.9z" class="st8"/></g></g><g><g><path d="M645.5,2541.9l-3.8-26.6c-16.4-115.7,51.4-228.8,161.3-268.7l1220.9-444.5l13.5,33.2 c-8,3.6-807.8,364.7-1060.7,512.2c-129.9,75.8-306.4,179.7-308.1,180.8L645.5,2541.9z M1625.9,1985.2l-810.6,295.1 c-85.2,31-140.9,113.5-140.1,202.4c53.4-31.4,182.5-107.4,283.5-166.3C1093.8,2237.7,1383,2098.8,1625.9,1985.2z" class="st5"/></g></g><g><g><path d="M1534.6,3212.3c75.2,53.1,238.5,46.6,212.8-172.4c0,0,157.4-18.3,286.1-80.1 c64-30.7,120.8-72.2,147.8-127.4l-342.2-512c0,0-86.6,204-159.9,310.5c-41.9,60.9-103.3,116.2-156.3,152 c-14.4,9.8-28.3,18.1-40.9,24.7C1392.3,2854.5,1432.6,3140.2,1534.6,3212.3z" class="st8"/></g></g><g class="st6"><g><path d="M1496.1,3171.5c11.5,16.9,24.4,30.9,38.5,40.9c75.2,53.1,238.5,46.6,212.8-172.4c0,0,157.4-18.3,286.1-80.1 h0c12.8-6.1,25.3-12.7,37.3-19.7c2.2-1.3,4.5-2.6,6.7-4c17.3-10.4,33.5-21.9,48.2-34.5c1.2-1,2.3-2,3.5-3 c5.1-4.5,10-9.1,14.6-13.9c1.4-1.4,2.8-2.9,4.1-4.4c2.7-3,5.4-5.9,7.9-9c1.1-1.3,2.2-2.7,3.4-4.1c2.6-3.2,5-6.5,7.4-9.9 c1.1-1.5,2.1-3,3.1-4.6c1.2-1.7,2.2-3.4,3.3-5.2c1-1.6,2-3.3,2.9-5c0.7-1.2,1.4-2.4,2.1-3.7c0.5-0.9,0.9-1.7,1.4-2.6 c0.7-1.3,1.3-2.6,2-3.9l-342.2-512c0,0,0,0,0,0.1c0,0,0,0.1,0,0.1c-0.1,0.2-0.2,0.4-0.4,0.8c-0.9,2-3,7-6.1,14.2 c-21.6,49.2-92.1,206.3-153.3,295.2c-41.9,60.9-103.3,116.2-156.3,152c58.6,67.8,137.2,121.7,227.8,153.5 c32.7,11.5,26.1,59.5-8.5,61.8c-77.6,5.3-133.6-3.4-133.6-3.4C1713.5,3178.7,1574,3215.7,1496.1,3171.5z" class="st5"/></g></g><g><g><path d="M1624.2,3257.8c-37.1,0-73.8-12.4-99.9-30.9c-74.2-52.4-116.3-202.8-109.1-310.4 c4.3-63.9,24.5-107,58.5-124.8c54.9-28.7,138-94.5,190.8-171.1c71.5-103.8,157.3-305.3,158.2-307.3c3.9-9.1,14.4-13.4,23.5-9.5 c9.1,3.9,13.4,14.4,9.5,23.5c-3.6,8.4-88.1,206.9-161.7,313.7c-56.2,81.6-145,151.8-203.7,182.5c-21.7,11.3-36,46.1-39.3,95.4 c-6.4,95.9,30.6,234,94,278.7c33.5,23.6,91.7,35.3,133.8,10.3c43-25.6,60.6-82.9,50.9-165.9l-2.1-17.8l17.8-2.1 c3.4-0.4,344-42,419.9-197.6c4.3-8.9,15.1-12.6,24-8.3c8.9,4.3,12.6,15.1,8.3,24c-74.8,153.3-356.5,204.3-430.5,215.2 c8.6,111.5-32.6,161.2-69.9,183.4C1674.6,3252.1,1649.3,3257.8,1624.2,3257.8z" class="st5"/></g></g><g><g><path d="M1864.6,3031.3c-0.8,0-1.7-0.1-2.5-0.2c-99.4-18.9-298.4-96.1-340.1-253.2c-1.9-7.2,2.4-14.5,9.6-16.5 c7.2-1.9,14.5,2.4,16.5,9.6c35.4,133.7,210.2,213,319.1,233.7c7.3,1.4,12.1,8.4,10.7,15.7 C1876.6,3026.8,1871,3031.3,1864.6,3031.3z" class="st5"/></g></g><g><g><path d="M1748.9,3056.8c-9.4,0.8-17.5,0.6-26.1-0.2c-4.2-0.3-8.5-0.8-12.6-1.6c-4.2-0.6-8.4-1.4-12.5-2.4 c-16.6-3.5-32.8-9.5-48.3-16.9c-15.4-7.7-29.9-17.4-42.6-28.9c-12.5-11.9-22.7-26.1-29.2-41.3c-0.6-1.3,0-2.8,1.4-3.4 c1-0.4,2-0.2,2.8,0.5l0.1,0.1c11.9,10.8,24.1,19.9,37.5,26.8c13.5,6.8,27.4,12,41.8,16.1c14.4,3.9,29.2,6.4,43.9,8.9 c7.4,1.2,14.8,2.3,22.2,3.3c7.3,1.1,15.1,2,21.7,3.1l1.4,0.2c9.8,1.6,16.4,10.9,14.7,20.7 C1763.7,3050.1,1756.9,3056.1,1748.9,3056.8z" class="st5"/></g></g><g><g><path d="M2473.8,2637c37.6,30.3,74.4,53.7,103,66.6c240,108.3,362.9-106.3,339.6-215.9 c-31.6-147.9-179.5-85.9-179.5-85.9c-54-5.6-100-32.4-130.2-87.4c-37-67.2-50.4-176.4-25.6-340.3c4.1-27,9.2-55.4,15.4-85.4 l-46.2,66.6l-239.3,345.1C2254.6,2410.1,2367.1,2551.1,2473.8,2637z" class="st8"/></g></g><g class="st6"><g><path d="M2295.8,2363.7c0,2.1,0,4.1,0.1,6.2c0,0.3,0,0.6,0,0.9c0.1,1.8,0.2,3.7,0.4,5.6c0,0.3,0,0.6,0,0.9 c0.2,2,0.4,3.9,0.6,5.9c0.2,1.7,0.4,3.5,0.7,5.2c0.1,0.9,0.2,1.8,0.4,2.6c1,6.2,2.4,12.3,4,18.5c0.6,2.2,1.2,4.4,1.9,6.6 c0,0,0,0,0,0.1c0.6,1.9,1.2,3.9,1.8,5.9c0.1,0.4,0.3,0.8,0.4,1.3c0.7,2,1.4,4,2.2,6.1c0.8,2.2,1.6,4.4,2.5,6.6 c0.4,1.1,0.9,2.2,1.3,3.2c0.9,2.3,1.9,4.5,2.9,6.8c0.1,0.3,0.3,0.6,0.4,0.9c0.6,1.4,1.3,2.8,1.9,4.2c1.1,2.4,2.2,4.8,3.4,7.1 c0.7,1.4,1.4,2.9,2.2,4.3c2.4,4.7,4.9,9.3,7.6,14c1.1,1.9,2.2,3.8,3.3,5.7c7.4,12.5,15.7,24.9,24.8,37c1.1,1.5,2.2,2.9,3.3,4.4 c1.1,1.5,2.2,2.9,3.4,4.4c2.2,2.9,4.5,5.8,6.9,8.7c2.2,2.7,4.5,5.5,6.8,8.2c6.1,7.2,12.4,14.4,18.8,21.3 c1.3,1.3,2.5,2.7,3.8,4.1c14.4,15.3,29.4,29.9,44.7,43.5c1.9,1.7,3.9,3.4,5.8,5.2c0.4,0.4,0.9,0.7,1.3,1.1 c2.7,2.4,5.5,4.7,8.2,7c4.1,3.5,8.2,6.8,12.2,10.1c37.6,30.3,74.4,53.7,103,66.6c196.4,88.6,314.4-39,338-148.4 c-50.3,82.4-155.7,144.3-308.5,75.4c-0.3-0.1-0.5-0.2-0.8-0.4c-53.5-24.3-77.2-87.1-54.9-141.4c24.3-59,42.4-118.5,56-174.4 c-37-67.2-50.4-176.4-25.6-340.3l-30.8-18.8l-224.3,323.5l-15,21.6C2300.5,2320.6,2295.8,2341.9,2295.8,2363.7z" class="st5"/></g></g><g><g><path d="M2702.2,2751.1c-41.9,0-86.7-10.3-132.7-31.1c-86.6-39.1-235.8-164-279-287.6 c-18.1-51.9-16.6-99.1,4.5-140.2c4.5-8.8,15.3-12.3,24.2-7.8c8.8,4.5,12.3,15.3,7.8,24.2c-16.4,32-17.3,69.7-2.5,112 c38.4,109.9,177.3,229.4,259.9,266.7c117.2,52.9,194.2,21.7,238.2-13.7c61.6-49.6,87.2-131.6,76.4-182.1 c-7.8-36.6-24-61.5-48.1-74.2c-45.4-23.9-106.4,0.9-107,1.2l-4.2,1.7l-4.6-0.5c-54.4-5.7-97.9-30.3-129.3-73.3 c-63.3-86.6-72.3-241.8-26.9-461.4c2-9.7,11.5-15.9,21.2-13.9c9.7,2,15.9,11.5,13.9,21.2c-42.7,206.3-35.5,356,20.7,432.9 c24.3,33.3,57.9,52.9,99.9,58.3c17.5-6.4,80.1-25.6,132.7,1.9c34.1,17.8,56.5,51,66.7,98.6c12.9,60.3-14,157-89,217.5 C2804,2734.5,2755.3,2751.1,2702.2,2751.1z" class="st5"/></g></g><g><g><path d="M1689.6,2872.3c127.9,58.7,285.6,71.6,446.8,11.3c288.4-107.8,399.7-411,442.6-629 c27-137,27-240.3,27-240.3l-642.3-392.6c-34.4,116.6-81.5,196.9-134.3,258.6c-101.1,118.4-222.9,168.6-315.3,275.5 c-32.2,37.4-60.9,81.6-83.8,138.2c-0.9,2.1-1.7,4.2-2.5,6.3c-7.3,18.6-13.1,37.2-17.6,55.7 C1358.3,2570.4,1486.4,2779.1,1689.6,2872.3z" class="st8"/></g></g><g class="st6"><g><path d="M2136.4,2883.6c207.3-77.5,323.1-256,387.8-431.1c-68.2,154.2-179.9,301.4-363,369.9 c-430,160.8-834.7-199.1-717.1-559.5c-5.7,11.9-11.2,24.4-16.3,37.4C1283.8,2668.4,1696.9,3047.9,2136.4,2883.6z" class="st5"/></g></g><g><g><path d="M1923,2940.9c-43.8,0-87.4-4.8-129.9-14.6c-105.5-24.2-200.3-76.6-274.1-151.5 c-132.7-134.7-173-314.5-107.8-481c56.4-144.1,146.4-211.1,241.7-282.1c111.6-83.1,227-169,293.6-395l6.6-22.4l670.8,410v10.1 c0,7.2-0.7,178.3-59.5,374c-78.5,261.2-224.4,438.3-421.8,512.1C2070.7,2927.3,1996.4,2940.9,1923,2940.9z M1974,1649.1 c-70.8,220.9-187.2,307.5-299.8,391.4c-91.1,67.8-177.1,131.8-229.7,266.4c-59.8,152.9-22.5,318.5,100,442.8 c117,118.8,332.2,211.9,585.5,117.2c235.4-88,347.3-314,399.8-488c49.6-164.5,56.9-315.2,58-354.5L1974,1649.1z" class="st5"/></g></g><g class="st6"><g><path d="M1829.4,1880.3c130.7,273.5,448.9,439.8,749.6,374.3c27-137,27-240.3,27-240.3l-642.3-392.6 C1929.3,1738.3,1882.2,1818.6,1829.4,1880.3z" class="st5"/></g></g><g class="st6"><g><path d="M1957.1,1885c94.7-6.9,161.5-123.7,142.4-254.1c-57.1,138-205.1-85.4-216.4-150 C1640.8,1546.6,1783.5,1901.4,1957.1,1885z" class="st5"/></g></g><g class="st7"><g><path d="M2159.8,1509.9c38,127,183,86,168.6-29.3C2302.1,1336.2,2130.4,1381.8,2159.8,1509.9z" class="st8"/></g></g><g><g><g><path d="M3169.9,1842.6c-511.6,805-1654.6,134.6-1248.3-689.1C2425.8,317,3606.7,1011.1,3169.9,1842.6z" class="st8"/></g></g><g><g><path d="M3169.9,1842.6c-511.6,805-1654.6,134.6-1248.3-689.1C2425.8,317,3606.7,1011.1,3169.9,1842.6z" class="st8"/></g></g><g><g><path d="M3169.9,1842.6c-511.6,805-1654.6,134.6-1248.3-689.1C2425.8,317,3606.7,1011.1,3169.9,1842.6z" class="st8"/></g></g><g><g><path d="M2559.7,2219.2c-123.6,0-248.2-32.9-361.7-96.7c-159.2-89.5-278.9-229.6-337-394.4 c-64.9-184.2-48.2-385,48.4-580.7l0.5-1c118.4-196.5,283-323.8,476-368c171.1-39.2,354.5-10.7,516.3,80.5 c162.1,91.3,282.9,233.9,340.1,401.5c64.1,187.8,43.3,391.3-60.4,588.6l-0.6,1c-120.3,189.3-284.5,311.5-474.8,353.4 C2658.4,2214,2609.1,2219.2,2559.7,2219.2z M1933.6,1160c-207.4,421-1.4,781.7,277.8,938.7 c285.8,160.7,689.3,141.7,946.7-262.9c222.9-425,16.8-792-269.3-953.1C2605.6,723.2,2185.9,741.9,1933.6,1160z M3169.9,1842.6 L3169.9,1842.6L3169.9,1842.6z" class="st5"/></g></g><g class="st6"><g><path d="M3169.9,1842.6c-429.7,703-1454.1,293.3-1320-487.1c39.8,255.2,127.2,267.9,257.3,401 c398.5,436,1052.4,143.1,1148.8-367.4C3278.9,1547.9,3246.7,1707.3,3169.9,1842.6z" class="st9"/></g></g><g><g><path d="M2559.7,2224.7c-124.5,0-250.1-33.1-364.4-97.4c-160.4-90.2-281-231.3-339.5-397.3 c-65.4-185.7-48.6-387.9,48.6-585l0.8-1.4c119.2-197.8,285-325.9,479.5-370.5c172.5-39.5,357.2-10.8,520.2,81 c163.3,92,285,235.6,342.6,404.5c64.6,189.3,43.6,394.3-60.7,592.9l-0.8,1.4c-121.1,190.6-286.5,313.6-478.2,355.8 C2659.2,2219.4,2609.5,2224.7,2559.7,2224.7z M1938.5,1162.7c-205.7,417.8-1.4,775.5,275.6,931.2 c283.5,159.4,683.7,140.5,939.2-260.9c221-421.7,16.5-785.7-267.2-945.5C2605.2,729.2,2188.9,747.9,1938.5,1162.7z M3169.9,1842.6L3169.9,1842.6L3169.9,1842.6z" class="st5"/></g></g><g><g><path d="M3060.1,1988.6c-709.2,445.3-1344.5-379.1-811.1-882.2C2880.7,579.3,3627.4,1353.2,3060.1,1988.6z" class="st5"/></g></g><g><g><path d="M3239.2,1487.6c24,756.5-1056.3,849.3-1191.7,161.3C2405.3,2046.6,3046.5,1859.3,3239.2,1487.6z" class="st10"/></g></g><g><g><path d="M2621.6,2201.5c-91.2,0-183.5-20.5-270.3-60.9c-144.7-67.4-261.2-182.6-328.2-324.5 c-73.8-156.5-81.3-331.2-21.5-505.1c66.6-178.8,213.5-326.4,403.2-405.4c190.3-79.3,399.8-79.4,574.6-0.3l2.4,1.3 c147.2,99.6,247.7,256.6,282.9,442.2c33.3,175.3,3.8,358.3-81,501.9l-0.1,0.1c-100.7,167.7-237.8,280.8-396.5,327.2 C2733.4,2193.7,2677.7,2201.5,2621.6,2201.5z M2698.2,878.1c-93.9,0-189.8,19-281.1,57.1c-181.5,75.6-321.9,216.5-385.3,386.6 c-123.4,359.1,74.1,669.2,333.1,789.8c225.4,104.9,567.8,95.3,791.3-277.1c156.8-265.9,117.3-690.9-191.2-900.5 C2882.1,896.7,2791.1,878.1,2698.2,878.1z M3169.9,1842.6L3169.9,1842.6L3169.9,1842.6z" class="st5"/></g></g><g><g><path d="M2651,2135.3c-36.9,0-73.5-3.1-109.6-9.4c-153.1-26.6-289.8-109-384.9-231.9 c-87.8-113.5-131.9-251.8-124.1-389.6c8.6-152.1,78.9-294.6,203.4-412l0.9-0.8c149.5-124.8,316.2-186.6,481.9-178.6 c149,7.2,288.9,70.8,393.7,179.2c107.3,110.9,167,257.1,168.3,411.7c1.4,172.6-70,344.6-206.3,497.3l-1.8,2l-2.3,1.4 C2933,2091.1,2789.9,2135.3,2651,2135.3z M2261.8,1120.8c-261.4,246.9-226,554.5-74.9,749.8 c166.5,215.2,496.9,330.3,860.7,103.2c284.1-320,218.7-667.2,37.2-854.8C2902.4,930.4,2577.2,857.9,2261.8,1120.8z M3060.1,1988.6L3060.1,1988.6L3060.1,1988.6z" class="st5"/></g></g><g><g><path d="M1746.1,1658.8c54.7,331.8,391.9,304.9,371.6-17.1C2073.1,1291.8,1712.7,1320.5,1746.1,1658.8z" class="st8"/></g></g><g><g><path d="M1951.4,1914.9c-91.1,0-195.1-76.3-224.2-252.9l-0.2-1.2c-18-182.2,73.5-276.5,166.2-286.9 c54.1-6.1,109.9,15.3,153.3,58.6c47.9,47.9,79,119.4,90.2,206.9l0.1,1.2c11,174.5-76.1,263-167.3,273.4 C1963.5,1914.6,1957.5,1914.9,1951.4,1914.9z M1765.1,1656.3c27.1,163.3,122.7,228.3,200.1,219.5 c73.1-8.3,142.6-83.3,133.4-232.3c-21.2-164.6-117.1-241.1-201.1-231.6C1823,1420.3,1749.9,1500.4,1765.1,1656.3z" class="st5"/></g></g><g><g><path d="M1733.3,1677.6c44.6,268.9,297.6,253,281.2-7.5C1979.3,1383.2,1704.4,1400.8,1733.3,1677.6z" class="st8"/></g></g><g><g><path d="M1892.6,1891.6c-71.3,0-153.8-63.7-178.2-210.9l-0.2-1.1c-15.7-150.3,54.6-227.5,126.5-235.6 c81-9.2,173.2,64.7,192.7,223.8l0.1,1.1c8.9,142.2-57.7,214-127.7,222C1901.6,1891.3,1897.1,1891.6,1892.6,1891.6z M1752.3,1675c22,131.3,92.7,184.2,149.3,177.7c51.9-5.9,101-64.2,93.8-180.9c-16.6-133.9-88.2-196.9-150.3-189.8 C1791.5,1488.1,1739.6,1551.1,1752.3,1675z" class="st5"/></g></g><g class="st11"><g><path d="M2266.3,1708.2c18.5,51,86.6,33.1,71.6-24.1C2319.4,1633.1,2251.3,1651,2266.3,1708.2z" class="st8"/></g></g><g class="st11"><g><path d="M3135.3,1537.3c79.7-496.4-434.7-556.4-589.6-449.9C2875.3,1107.3,3022.8,1309.4,3135.3,1537.3z" class="st8"/></g></g><g class="st6"><g><path d="M2028.6,1731c4.5-38.1-1.4-77.5-15.1-113.5c-46.4,182.6-230.4,103.9-274-26.5 C1701.5,1860.8,1976.5,1984.3,2028.6,1731z" class="st5"/></g></g></g><g><g><path d="M2745.6,2417.5c-1.1,0.7-3.6,2.5-5.5,4c-2,1.6-4.1,3.2-6,5c-2,1.7-4,3.5-5.9,5.4c-2,1.8-3.8,3.8-5.6,5.8 c-7.3,7.9-14,16.5-19.5,25.9c-3.1,4.5-5.2,9.6-7.9,14.4c-2.3,5-4.4,10.1-6.5,15.2c-1.6,5.3-3.7,10.5-5,15.9 c-1.2,5.5-2.9,10.8-3.8,16.4c-0.8,5.6-1.9,11.1-2.5,16.8c-0.4,5.7-0.8,11.4-1.3,17.1c-0.4,10.7,0.7,21.3,3.8,31.4 c6.4,20.1,19,38.6,36.6,55.9l0.1,0.1c0.6,0.6,0.6,1.6,0,2.2c-0.4,0.4-0.9,0.5-1.4,0.4c-25.7-4.6-48.2-24.4-58.8-49.8 c-5.4-12.7-8.2-26.4-9.1-39.9c-0.2-6.4-0.2-12.9-0.3-19.3c0.2-6.5,0.9-12.9,1.3-19.4c2.8-25.9,10.3-52,23.7-75.2 c6.4-11.8,14.5-22.6,23.6-32.7c2.3-2.5,4.6-5,7.1-7.3c2.4-2.4,4.9-4.7,7.6-6.9c2.5-2.3,5.4-4.3,8.1-6.4c3-2.1,5.5-3.9,9.6-6.2 c8.6-4.9,19.5-2,24.4,6.6c4.7,8.3,2.2,18.7-5.7,23.9L2745.6,2417.5z" class="st5"/></g></g><g><g><path d="M2783.8,2390.2c0,0-87.7,21.5-120.4,105.3c0,0-34-2.3-40.5-40.8c-7.5-45,28.6-110.3,92.7-114.9 C2764.3,2336.3,2783.8,2390.2,2783.8,2390.2z" class="st8"/></g></g><g class="st6"><g><path d="M2622.9,2454.6c6.5,38.6,40.5,40.9,40.5,40.9c32.7-83.8,120.4-105.3,120.4-105.3s-4.3-11.8-13.8-24 c-25.7,5.6-68.8,20.2-101.3,58.1c-12.4,14.4-35.8,11.4-43-6.2c-0.1-0.2-0.2-0.4-0.3-0.6 C2621.9,2430.3,2620.9,2443.1,2622.9,2454.6z" class="st5"/></g></g><g><g><path d="M2675,2513.8l-12.8-0.9c-16.5-1.1-49.6-14.2-56.5-55.4c-4.9-29.1,5.1-63.8,26.1-90.4 c20.9-26.6,50.3-42.5,82.7-44.8c61.2-4.3,84.9,59.3,85.9,62l6.6,18.3l-18.9,4.6c-1.4,0.4-79.5,21-108.3,94.6L2675,2513.8z M2719.9,2357.1c-1,0-2,0-3.1,0.1c-22.4,1.6-42.9,12.8-57.6,31.5c-14.8,18.8-22.3,43.6-19.1,63c2.1,12.4,8,18.9,13.5,22.4 c27.7-55.6,77-82.5,105.1-93.9C2751.2,2369.5,2738.6,2357.1,2719.9,2357.1z" class="st5"/></g></g><g><g><path d="M1657.8,2074.4L1989,2171c115.7-143.4,255.4-471.6,255.4-471.6s38.7-1.4,82.4-21.1 c32.7-14.8,68.1-39.8,92.2-82.1c7.7-13.4,14.3-28.6,19.2-45.8c48.5-168.3-148.8-293.5-315.9-244.2 C1859.5,1383.7,1886.1,1764.1,1657.8,2074.4z" class="st8"/></g></g><g class="st6"><g><path d="M2152.5,1648.7c48.4,22.3,117.8,28.7,174.2,29.6c32.7-14.8,68.1-39.8,92.2-82.1 c-92.5,4.6-326.8,3.4-356.1-122.4C2062.9,1473.7,2005.4,1580.9,2152.5,1648.7z" class="st5"/></g></g><g><g><path d="M1653,2070.8c6.9-16.4,15.3-31.4,22.8-46.9c7.9-15.3,15.6-30.6,23.8-45.6c15.9-30.3,31.1-60.8,45.9-91.7 c14.6-31,28.9-62.2,41.7-94.2c13.1-31.9,24.9-64.4,36.8-96.9c23.9-65.1,46.6-131.2,76.9-195.4c15.2-32,32.5-63.5,53.8-92.9 c21.1-29.4,47-56.3,77.5-77.5l11.5-7.8c3.8-2.7,8-4.6,12-7l12.2-6.7c4.2-2,8.4-3.8,12.7-5.7c4.2-1.8,8.4-3.8,12.7-5.5l13.1-4.5 c4.4-1.4,8.7-3.1,13.1-4.3l13.5-3.5c36.2-8.2,73.7-9.7,110.2-4c36.5,5.3,71.9,17.5,104.2,35.8c32.2,18.3,61.1,43.4,82.5,74.8 c10.6,15.7,19.2,33,25.1,51.3c5.8,18.3,8.6,37.6,8.6,56.7c-0.1,19.2-3.1,38.2-8.2,56.3c-5.2,18-12.5,35.5-22.2,51.9 c-19.3,32.8-48,59.9-80.9,77.9c-16.4,9.1-33.8,16.2-51.6,21.5c-8.9,2.6-17.9,4.8-27.1,6.6c-4.6,0.9-9.2,1.6-13.8,2.2 c-4.8,0.6-9,1.1-14.7,1.4l15.9-10.9c-17.9,41.5-36.6,82.3-55.8,123c-19.2,40.7-39.1,81.1-59.9,121 c-10.2,20.1-21.2,39.8-31.8,59.7c-11,19.7-21.3,39.9-32.7,59.4c-2.8,4.9-5.7,9.8-8.6,14.6c-3,4.8-6.2,9.5-9.4,14.3 c-3.1,4.8-6.4,9.4-9.7,14l-4.9,7l-5.3,6.8c-7.2,8.9-14.5,17.7-22.6,25.9c-8.4,8-17,15.8-26.5,22.7c-2.8,2-6.7,1.4-8.7-1.4 c-1.3-1.8-1.5-4.1-0.7-6l0-0.1c17.6-42.4,40.3-79.4,63.3-117.4c5.7-9.5,11.8-18.7,17.4-28.3c5.7-9.6,11.3-19.1,16.8-28.8 c10.7-19.5,21.3-39,31.5-58.9c20.6-39.5,40.3-79.5,59.3-119.8c19-40.3,37.7-81,55.2-121.7l4.4-10.3l11.4-0.6 c3-0.2,7.4-0.6,11.2-1.1c3.9-0.5,7.9-1.2,11.9-1.9c7.9-1.5,15.8-3.4,23.5-5.7c15.5-4.6,30.4-10.8,44.4-18.5 c28-15.4,51.4-37.6,67.4-64.8c8-13.6,14.2-28.3,18.6-43.7c4.2-15.3,6.7-30.9,6.7-46.4c0.1-15.5-2.2-31-6.9-45.9 c-4.7-14.8-11.7-28.9-20.6-42c-17.7-26.1-42.4-47.8-70.6-63.8c-28.2-15.9-59.5-26.8-91.7-31.4c-32.2-5-65.2-3.6-96.8,3.5 l-11.7,3.1c-3.9,1-7.7,2.6-11.6,3.8l-11.6,3.9c-3.8,1.5-7.4,3.3-11.2,4.9l-11.1,5l-10.6,5.9c-3.5,2.1-7.2,3.7-10.5,6.1 l-10.1,6.8c-26.6,18.5-49.7,42.2-69,69.2c-19.5,26.9-35.8,56.5-50.4,87.2c-29.1,61.5-51.7,127-75.6,192.3 c-24,65.3-48.1,131.1-77.2,195.2c-14.9,31.9-31.8,63-50.5,92.9c-9.8,14.7-19.6,29.4-31.1,43c-10.9,13.9-23.3,26.8-36.3,38.9 c-2.5,2.3-6.3,2.2-8.6-0.3c-1.7-1.8-2.1-4.4-1.2-6.5L1653,2070.8z" class="st5"/></g></g><g><g><path d="M2065.5,1433.3c7.1,11.5,10.8,21.1,14.2,31.2c3.9,9.9,7.5,20.1,12.5,30.2c5.1,10.1,11.9,19.4,19.4,28.3 c0.9,1.2,1.9,2.3,2.5,2.9c0.7,0.8,1.4,1.5,2.3,2.3c0.8,0.8,1.7,1.5,2.7,2.3c0.9,0.8,1.9,1.5,3,2.3c4.2,3,8.9,5.8,14,8.4 c20.3,10.3,43.6,17.4,67,22.5c23.5,5,47.6,8,71.6,8.6c23.9,0.6,47.9-1.2,70.2-6.8c22.2-5.5,42.9-15.3,56.3-30.4 c6.8-7.4,11.5-16.2,14.4-25.8c2.8-9.7,3.7-20.3,3-31.2c-0.3-5.5-1.1-11-2.1-16.6c-1.1-5.6-3.2-11-5.1-16.4 c-2-5.4-3.2-11.1-3.8-17.2c-0.3-6.2,0.1-12.7,3.9-21.1l0.1-0.3c1.9-4.1,6.6-6,10.8-4.5c8.6,3.2,14,8.2,17.9,13.9 c3.9,5.7,6.4,12.1,7.9,18.7c1.5,6.7,2.3,13.6,3.6,20.4c1.2,6.8,2.1,13.8,2.6,20.9c0.8,14.2-0.2,29-4.4,43.6 c-4.3,14.5-11.9,28.4-22.1,39.6c-10.1,11.4-22.4,20-35,26.7c-12.7,6.6-26,11.3-39.3,14.6c-26.6,6.6-53.4,8.5-79.8,7.9 c-26.4-0.6-52.5-3.9-78.3-9.4c-25.7-5.6-51.1-13.2-75.9-25.7c-6.2-3.2-12.3-6.8-18.4-11.1c-1.5-1-3-2.2-4.5-3.4 c-1.5-1.2-3-2.4-4.5-3.8c-2.8-2.4-6.3-6.2-8.1-8.5c-8.8-10.3-16.6-21.5-24.3-33.2c-7.5-11.7-13.9-24.9-16.4-39.4 c-2.4-14.3-1.9-30.4,10.4-43.7c2.4-2.6,6.4-2.7,9-0.3c0.4,0.4,0.8,0.8,1.1,1.3L2065.5,1433.3z" class="st5"/></g></g><g><g><path d="M2445.2,1511.1c0,0-137.7-11.3-159.8,30.5c-26.7,50.7,18.2,76.8,62.1,85.9c42.5,8.8,73.7,13.7,95.1-19.3 C2471.9,1563.2,2445.2,1511.1,2445.2,1511.1z" class="st8"/></g></g><g class="st6"><g><path d="M2347.5,1627.6c42.5,8.8,73.7,13.7,95.1-19.3c16.3-25.2,15.2-52.5,11-71.7c-2.1,8.5-5.6,17.2-11,25.6 c-21.4,33-52.6,28.2-95.1,19.3c-26.1-5.4-52.5-16.8-64-35.8C2261.1,1593.7,2304.8,1618.7,2347.5,1627.6z" class="st5"/></g></g><g><g><path d="M2393.6,1651.6c-16.5,0-33.5-3.5-49.6-6.9c-22.8-4.8-63.4-17.5-78.5-49.5c-6-12.8-10.1-33.9,4.5-61.7 c26.2-49.6,151.8-41.9,176.7-39.8l9.7,0.8l4.4,8.6c1.3,2.5,31,61.6-3.4,114.6C2440.2,1644.2,2417.5,1651.6,2393.6,1651.6z M2405.9,1527.1c-49.7,0-97,7.7-104.9,22.8c-6.4,12.2-7.7,22.2-3.8,30.4c6.2,13.2,26.4,24.5,54,30.2 c46.5,9.7,63.2,9.3,76.9-11.7c16.9-26.1,10.1-56.3,5.1-70.9C2424.1,1527.3,2414.9,1527.1,2405.9,1527.1z" class="st5"/></g></g><g><g><path d="M1446.1,2303.7c0,0-122.7,185.1-214.5,276.7c-66.7,66.6-162.8,118.8-226.6,138.6 c-96.8,30.1-109.8,318.2-22.7,407.2c64.2,65.7,226.1,88.4,241.1-131.5c0,0,376,3.6,486.5-145.5l0,0 c27.9-30.9,31.8-76.7,9.6-111.9L1446.1,2303.7z" class="st8"/></g></g><g class="st6"><g><path d="M937.6,3037.6c9.6,36.5,24.4,68,44.7,88.7c64.2,65.7,226.1,88.3,241.1-131.5c0,0,376,3.6,486.5-145.5 c15.8-17.5,23.9-39.9,23.9-62.3c0-0.2,0-0.3,0-0.5c-0.1-26.4-32.1-39.7-51.6-21.9c-2.6,2.4-5.1,4.8-7.3,7.3 c-210.7,235.2-583.6,123.3-583.6,123.3c125.6,216-100.6,247.1-144,153.8C945.3,3044.5,940.7,3041.7,937.6,3037.6z" class="st5"/></g></g><g><g><path d="M1090.2,3189.6c-46.8,0-92.8-22.2-120.7-50.7c-62.9-64.3-77-219.1-50.6-323.3 c15.9-62.8,43.8-102.1,80.8-113.6c59.3-18.4,153.2-68.3,219.3-134.2c88.9-88.8,191.9-272.2,192.9-274 c4.8-8.6,15.8-11.7,24.4-6.9c8.6,4.8,11.7,15.8,6.9,24.4c-4.3,7.7-106.4,189.6-198.9,281.9c-70.3,70.2-170.6,123.4-234,143.1 c-23.7,7.4-44.3,39.5-56.6,88.1c-23.5,92.9-12.2,234.6,41.5,289.4c29.2,29.9,83.1,51.1,129.5,34c47.2-17.4,75.2-70.7,80.9-154.2 l1.1-16.9l16.9,0.2c3.7,0.1,368.1,1.8,471.9-138.3l1.5-1.7c0.1-0.1,14-15.1,17.4-34.7c1.7-9.8,11-16.3,20.7-14.6 c9.8,1.7,16.3,11,14.6,20.7c-4.8,27.7-21.6,47.7-26,52.5c-102.9,137.3-408.2,150.7-483.9,151.9 c-11.9,112.1-61.9,153.7-102.8,168.8C1121.8,3187.1,1105.9,3189.6,1090.2,3189.6z" class="st5"/></g></g><g><g><path d="M2186.2,1840.9c-0.4,0-0.8,0-1.2-0.1c-12.9-1.2-316.7-30.1-346.1-167.3c-1.6-7.3,3.1-14.4,10.3-16 c7.3-1.6,14.4,3.1,16,10.3c21,97.9,239.7,138.7,322.2,146.2c7.4,0.7,12.9,7.2,12.2,14.6 C2199,1835.6,2193.1,1840.9,2186.2,1840.9z" class="st5"/></g></g><g><g><path d="M1343.7,3002c-0.7,0-1.4-0.1-2-0.2c-2.4-0.4-59.2-9.5-115.8-56.5c-51.8-43.1-113-127.6-110.6-285.2 c0.1-7.4,6-13.5,13.7-13.2c7.4,0.1,13.4,6.2,13.2,13.7c-1.8,117.3,31.8,205.9,99.9,263.2c50.8,42.8,103.1,51.4,103.7,51.5 c7.3,1.1,12.4,8,11.2,15.4C1355.9,2997.2,1350.2,3002,1343.7,3002z" class="st5"/></g></g><g><g><path d="M1223.8,3009.8c-5,0.4-8.7,0.4-12.9,0.2c-4.1-0.2-8.1-0.6-12.1-1.3c-4-0.6-7.9-1.5-11.8-2.4 c-3.9-1.2-7.7-2.2-11.5-3.6c-15.2-5.4-29.2-14-41.3-24.6c-12-10.6-22.3-23-29.4-36.9c-4-6.7-6.4-14-9.1-21.1 c-1.5-3.5-2-7.3-3-11c-0.9-3.7-1.6-7.3-2.3-11c-0.2-1.2,0.5-2.3,1.7-2.5c0.9-0.2,1.7,0.2,2.2,0.9l0.2,0.2 c4.2,6.1,7.6,12.3,11.8,18c4.5,5.5,8.2,11.4,13.2,16.1c9,10.4,19.7,18.5,30.8,25.4c11.1,6.9,23.2,11.7,35.6,15.5 c3.1,0.8,6.2,1.7,9.3,2.6c3.2,0.6,6.3,1.5,9.4,2.1c3.2,0.6,6.3,1.3,9.5,1.8l8.8,1.5l2,0.3c8.2,1.3,13.7,9,12.3,17.2 C1236.2,3004.2,1230.5,3009.2,1223.8,3009.8z" class="st5"/></g></g><g><g><path d="M2532.2,2494.6l-24.1-34.3c-11.7-16.7-28.3-29.4-47.5-36.4l-320.5-116.7c-5.3-1.9-19.8,66.5-21.7,71.8 l32.1,84L2532.2,2494.6z" class="st8"/></g></g><g><g><path d="M2523.1,2506.4c-0.5,0-1,0-1.4-0.1l-379.9-31.5l-36.6-95.6l1.5-4.3c0.3-1.1,1.7-6.8,2.9-11.8 c13.7-57.1,17.1-63.1,24-66.8c3.3-1.8,7.3-2.1,10.8-0.8l320.5,116.7c21.7,7.9,40.2,22.1,53.4,41l18.6,26.5 c3.8,5.5,4.1,12.4,0.8,18.2C2534.7,2503.2,2529.2,2506.4,2523.1,2506.4z M2516.5,2494C2516.5,2494,2516.5,2494,2516.5,2494 L2516.5,2494z M2159.5,2451.2l347.2,28.8l-8.8-12.5c-10.3-14.7-24.6-25.7-41.5-31.8l-310.4-113c-4,12.5-9.7,36.1-12.1,46.3 c-1,4.3-1.7,7.3-2.3,9.4L2159.5,2451.2z" class="st5"/></g></g><g><g><path d="M1909,2715.1c51.8,38,134,97.5,135.8,94.5l71.5-127.5l158.5-282.4c1-1.8-85.3-64.7-134.6-92.6 c-20.7-11.7-43.6,16.4-57.1,37.9l-100.2,158l-85.8,135.2C1880.5,2664.4,1885.7,2698,1909,2715.1z" class="st8"/></g></g><g class="st6"><g><path d="M1909,2715.1c51.8,38,134,97.5,135.8,94.5l71.5-127.5l40-164.1c0,0-81,54.6-144.8,11 c-11.6-7.9-21.1-16.8-28.7-26l-85.8,135.2C1880.5,2664.4,1885.7,2698,1909,2715.1z" class="st5"/></g></g><g><g><path d="M2044.7,2822.3c-7.1,0-23.1-9.2-143-97.1c-28.5-20.9-35.1-62-15-93.6l185.9-293.2 c33.9-53.8,60.8-49.5,73.8-42.1c30.4,17.2,71.2,45.4,87.3,56.8c13.3,9.3,25.7,18.4,35.1,25.5c15.6,11.8,22.7,17.1,17.1,27.3 l-230.3,410.4l-2.9,4.6l-5.5,1.1C2046.3,2822.2,2045.5,2822.3,2044.7,2822.3z M2044.9,2809.6L2044.9,2809.6L2044.9,2809.6z M2130.1,2317.1c-9,0-22.7,12.8-36.5,34.7l-186,293.3c-13.1,20.5-9.2,46.8,8.7,60c78.5,57.6,110.5,79.6,123.5,87.9l219.1-390.4 c-20.7-16-83.8-61.2-125-84.5C2132.9,2317.4,2131.5,2317.1,2130.1,2317.1z" class="st5"/></g></g><g><g><path d="M2048.7,2810.3l260.6,38.9c41.2,0.1,70.7-5.7,94.4-43.7l12.1-19.3l120.9-193.6 c8.2-13.1,13.4-26.9,15.7-40.3c5.6-31.8-15.5-53.1-45.2-71.7l-217.9-79.6c-34.8-12.7-73.9,0-94.5,30.9L2172,2469l-160.5,261.7 C1991.8,2762.9,2011.4,2804.8,2048.7,2810.3z" class="st8"/></g></g><g class="st6"><g><path d="M2048.7,2810.3l260.6,38.9c41.2,0.1,70.7-5.7,94.4-43.7l12.1-19.3c-57.8,7-148,3-210.7-70.8 c-59.9-70.4-50.1-174.8-33-246.5l-160.5,261.7C1991.8,2762.9,2011.4,2804.8,2048.7,2810.3z" class="st5"/></g></g><g><g><path d="M2310.2,2861.8c-0.3,0-0.6,0-0.9,0l-1.8-0.1l-260.6-38.9c-21.7-3.2-40.2-17-49.4-36.9 c-9.3-19.9-8-42.9,3.5-61.6l183.2-298.8c24.1-36.2,69-50.9,109.4-36.1l219.2,80.1l1.1,0.7c27.5,17.3,58.2,42.6,50.9,84.5 c-2.7,15.3-8.7,30.8-17.4,44.8l-132.9,212.9C2385.9,2857.7,2347.3,2861.8,2310.2,2861.8z M2261.5,2408.6 c-22.2,0-43.5,10.9-56.4,30.2l-183,298.4c-7.2,11.7-8,25.5-2.2,38c5.8,12.4,16.9,20.7,30.5,22.8l259.7,38.8 c39.3,0,63-6,82.9-37.8l132.9-213c7-11.3,11.9-23.7,14-35.9c3.8-21.6-7.4-38.5-38.4-58.3l-216.7-79.1 C2277.2,2409.9,2269.3,2408.6,2261.5,2408.6z" class="st5"/></g></g><g><g><path d="M2240.9,2630.1c-3.8,7.3-43,62.3-43,62.3s-15.4-8-34.4-17.8c-23.7-12.2-27.4-52-8.4-88.8 c19-36.8,53.7-56.7,77.3-44.5c16,8.3,34.4,17.8,34.4,17.8S2247.1,2618.2,2240.9,2630.1z" class="st12"/></g></g><g><g><path d="M2240.9,2630.1c-3.8,7.3-43,62.3-43,62.3s-15.4-8-34.4-17.8c-23.7-12.2-27.4-52-8.4-88.8 c19-36.8,53.7-56.7,77.3-44.5c16,8.3,34.4,17.8,34.4,17.8S2247.1,2618.2,2240.9,2630.1z" class="st12"/></g></g><g class="st6"><g><path d="M2240.9,2630.1c-3.8,7.3-43,62.3-43,62.3s-15.4-8-34.4-17.8c-23.7-12.2-27.4-52-8.4-88.8 c19-36.8,53.7-56.7,77.3-44.5c16,8.3,34.4,17.8,34.4,17.8S2247.1,2618.2,2240.9,2630.1z" class="st5"/></g></g><g><g><path d="M2201.8,2708.5l-44-22.8c-30.3-15.7-36.3-62.1-13.8-105.7c10.3-19.9,25.1-36.2,41.8-45.7 c18.4-10.6,37-12.1,52.4-4.1l43.9,22.7l-3.4,10.2c-2.1,6.1-20.3,60.3-26.7,72.8v0c-3.9,7.5-34.6,50.7-43.9,63.8L2201.8,2708.5z M2217.2,2550.2c-7.4,0-14.5,3.3-18.9,5.8c-12.4,7.1-24.1,20.1-32.1,35.5c-15.6,30.1-14.2,63.1,3,72l24.7,12.8 c17-23.9,33.7-48.1,35.8-51.9c3.6-7.1,14-36.3,21.8-59.1l-24.8-12.8C2223.7,2550.8,2220.4,2550.2,2217.2,2550.2z M2240.9,2630.1 L2240.9,2630.1L2240.9,2630.1z" class="st5"/></g></g><g><g><ellipse cx="2244.1" cy="2631.6" class="st12" rx="75" ry="48.3" transform="matrix(0.4594 -0.8883 0.8883 0.4594 -1124.2572 3416.0515)"/></g><g><path d="M2225,2714.4c-7.4,0-14.5-1.6-21.1-5c-30.3-15.7-36.3-62.1-13.8-105.7c10.3-19.9,25.1-36.2,41.8-45.7 c18.4-10.6,37-12.1,52.4-4.1c30.3,15.7,36.3,62.1,13.8,105.7l0,0C2280.4,2693.6,2251.3,2714.4,2225,2714.4z M2263.2,2573.8 c-7.4,0-14.5,3.3-18.9,5.8c-12.4,7.1-24.1,20.1-32.1,35.5c-15.6,30.1-14.2,63.1,3,72c17.2,8.9,44.9-9,60.5-39.1l0,0 c15.6-30.1,14.2-63.1-3-72C2269.7,2574.4,2266.5,2573.8,2263.2,2573.8z M2287,2653.7L2287,2653.7L2287,2653.7z" class="st5"/></g></g><g class="st11"><g><path d="M2272.8,2576c-3.1-1.6-6.4-2.2-9.6-2.2c-7.4,0-14.5,3.3-18.9,5.8c-12.4,7.1-24.1,20.1-32.1,35.5 c-1.1,2.2-2.1,4.4-3.1,6.6c7.9-13.9,18.7-25.5,30.1-32.1c4.4-2.5,11.5-5.8,18.9-5.8c3.2,0,6.5,0.6,9.6,2.2 c16,8.3,18.3,37.2,6.1,65.4c0.6-1.1,1.3-2.3,1.9-3.4C2291.4,2617.9,2290,2584.9,2272.8,2576z" class="st8"/></g></g><g class="st6"><g><path d="M2239.6,2663.2c-23.7-12.2-27.4-52-8.4-88.8c0.3-0.6,0.7-1.2,1-1.8c-11.8,8.4-22.8,21-31,36.8 c-19,36.8-15.3,76.6,8.4,88.8c23.3,12,57.1-7.1,76.3-42.7C2270.2,2666.7,2253.1,2670.2,2239.6,2663.2z" class="st5"/></g></g><g><g><g><path d="M1572.9,2095.4c0,0,138.5,222.7,402.8,327.3c41.3,16.3,64.4,61.2,50.4,102.8 c-7.4,21.9-24.2,39.5-59.1,39.4c-145.6-0.2-491.1-273-494.3-380.6C1469.7,2083.7,1572.9,2095.4,1572.9,2095.4z" class="st8"/></g></g><g class="st6"><g><path d="M1472.7,2184.3c3.2,107.7,348.7,380.4,494.3,380.6c34.9,0,51.7-17.5,59.1-39.4c7.2-21.5,4.6-43.8-5.4-62.7 c0,0.3-0.1,0.5-0.2,0.7c-7.4,21.9-24.2,39.5-59.1,39.4c-132.8-0.2-432-227.3-485.9-348.8 C1473.4,2163,1472.3,2172.9,1472.7,2184.3z" class="st5"/></g></g><g><g><path d="M1967.2,2582.4c-0.1,0-0.1,0-0.2,0c-84-0.1-215.9-79.5-311.3-153.7c-95.6-74.4-198.5-177.5-200.5-243.9 c-1-34.4,8.8-61.4,29.3-80.3c35.1-32.3,88.1-26.7,90.3-26.5l8.4,1l4.5,7.2c1.4,2.2,138.8,219.2,394.4,320.3 c50.7,20.1,77.3,74.8,60.5,124.6C2031.5,2564.2,2004.7,2582.4,1967.2,2582.4z M1563.1,2112.5c-12.7,0-38.1,2.2-55,17.9 c-12.6,11.7-18.6,29.6-17.9,53.4c2.8,92.7,335.1,363.4,476.9,363.7c0,0,0.1,0,0.1,0c22.9,0,35.9-8.5,42.3-27.5 c10.8-32.2-6.8-67.7-40.2-80.9C1727.5,2343.4,1590.9,2154,1563.1,2112.5z" class="st5"/></g></g></g><g><g><path d="M2238.9,2847.1c-2.2,0-4.4-0.6-6.4-1.7c-6.2-3.6-8.3-11.5-4.7-17.6l94.6-164.1c3.8-6.6,10.3-11,17.8-12.2 l27.8-4.3l106.1-170.9c3.8-6.1,11.7-7.9,17.8-4.2c6.1,3.8,7.9,11.7,4.2,17.8l-106.3,171.2c-3.8,6.2-10.2,10.4-17.4,11.5 l-27.7,4.3l-94.4,163.7C2247.7,2844.8,2243.4,2847.1,2238.9,2847.1z" class="st5"/></g></g></g></g></svg>