<?xml version="1.0" encoding="utf-8"?>
<!-- Generator: Adobe Illustrator 22.1.0, SVG Export Plug-In . SVG Version: 6.00 Build 0)  -->
<svg version="1.1" id="Calque_1" xmlns="http://www.w3.org/2000/svg" xmlns:xlink="http://www.w3.org/1999/xlink" x="0px" y="0px"
	 viewBox="0 0 604.4 354.7" style="enable-background:new 0 0 604.4 354.7;" xml:space="preserve">
<style type="text/css">
	.st0{fill:#220033;}
	.st1{opacity:0.2;fill:#48354C;enable-background:new    ;}
	.st2{fill:#7D0D98;}
	.st3{opacity:0.6;fill:#EB53C0;enable-background:new    ;}
	.st4{opacity:0.3;fill:#EB53C0;enable-background:new    ;}
</style>
<title>Fichier 1</title>
<g id="Calque_2_1_">
	<g id="Layer_1">
		<circle class="st0" cx="307.4" cy="168.9" r="168.9"/>
		<path class="st1" d="M157,91c-43,82.8-10.7,184.9,72.1,227.9c68,35.3,151.2,20.5,202.8-36.2c-5.1-3.8-12.2-6.5-21.6-7.3
			c-35-3-71.3,10-106.4,7.9c-73.4-4.6-139.6-47.9-121-129.7c7.6-33.2,31-66.5,61.4-81c35-16.7,64.7,4.7,92.2,25.6
			s62.3,69.9,100.7,70c10.2,0,36-6.8,35.5-30C455.6,46.5,367.4-13.9,275.7,3.2C224.7,12.7,181,45.1,157,91z"/>
		<path class="st2" d="M167.9,57.1c0,0-57.4-13.6-72.6,10.6s53.1,94.8,187.4,151.9c147.4,62.7,231.9,70.9,253.2,48.4
			c13.6-14.4-44.6-64.2-44.6-64.2l3.8-10.6c0,0,96.7,58.2,60.5,99s-188.7,9.3-281.9-37C149,193.1,28,99.6,49.2,60.1
			c21.9-40.8,123.9-10.6,123.9-10.6L167.9,57.1z"/>
		<path class="st2" d="M104.4,31.4c-6.1,1.5-89-4.7-75.6,39.3c10.6,34.8,81.7,116.2,218.4,182.9c161,78.6,225.9,75.6,272.8,77.1
			c98.3,3,53.7-65.8,53.7-65.8s64.8,65.6,6,81.6c-113.4,31-277.7-33.3-354.5-74.8C133.1,221.8,31.8,149.3,6.1,91.8
			c-18.5-41.3,8.6-60.8,33.3-68C65.1,16.3,104.4,31.4,104.4,31.4z"/>
		<path class="st3" d="M118.2,129.4c-7-10-16.5-16.1-23.8-26.1c-6.2-8.5-17.7-15.8-20.2-25.9C70.9,64,78.3,57.7,89.3,53.3
			c5-2,9.6-4.2,15.1-5.3c2.7-0.5,18.5-0.2,9.8-5.9c-3.7-2.4-13.7,0.8-17.4,1.3C91,44.4,85.2,44.9,79.4,45l-3.8,1.5
			c-11.3,2.8-19.5,14.1-18.2,25.7c1.5,12.5,6,23.1,16.7,30c20.8,13.4,31.3,39,53.7,51.4c3.1,1.7,5.3,3.4,8.9,3.1
			C139.2,143.5,124.7,138.8,118.2,129.4z"/>
		<path class="st3" d="M70.9,144.9c-3.4-3.4-6.5-7.1-9.4-10.9c-4.6-5.8-10.5-7.7-15.2-13.5c-12.9-15.9-24.4-39.8-27.4-58.9
			c-1.2-7.9,0.1-18,6.7-22.9c6.4-4.8,15.8-5.7,22-10.6c-3-2.3-8.6-1.7-12,0.2l-5.3,3C17.2,32,9.6,50.1,9.1,60.9
			c-0.6,12.1,8.6,22.6,12.9,34c4.9,13.3,6.4,22.6,17.2,32.7c9.8,9.2,17.8,17.3,28.1,25.7c2.9,2.4,14.6,11.3,14.2,2.1
			C81.4,152.3,73.1,147,70.9,144.9z"/>
		<path class="st4" d="M544.7,268.7c-11.2,14.7-30.2,19.6-48.7,19.3s-36.3-6.1-54.4-7.9c-18.8-1.9-36.5-3.6-54.4-8
			c-18.4-4.6-36.3-9.3-53.6-17.8c-6.6-3.3-17.6-11.6-24.7-11.9c-17-0.6,4.6,6.7,7.9,10.4l4.5,2.3c6.7,13.5,36.3,17.8,49.9,20.1
			c22.3,3.9,44.2,9.5,66.9,12.8c19.1,2.8,37.5,8.3,56.6,10.2c15,1.5,37.6-0.9,49.6-10.5c5.1-4.1,13-11.2,12.8-17.8
			C556.8,256.3,549.1,262.8,544.7,268.7z"/>
	</g>
</g>
</svg>
