<svg xmlns="http://www.w3.org/2000/svg" xmlns:svg="http://www.w3.org/2000/svg" id="svg2" width="5333.333" height="5333.333" version="1.1" viewBox="0 0 5333.333 5333.333" xml:space="preserve"><g id="g8" transform="matrix(1.3333333,0,0,-1.3333333,0,5333.3333)"><g id="g10" transform="scale(0.1)"><g id="g16" transform="scale(1.59327)"><path style="fill:#fff;fill-opacity:1;fill-rule:nonzero;stroke:none" id="path18" d="m 12181.9,14074.3 -451.4,-823.6 -193.9,-354 c 0,0 -64.6,-4.3 -176.7,-3.1 -544.5,6.5 -2213.8,151.6 -3076.87,1618.6 -714.19,1214.2 -277.23,1787.8 411.04,1773.1 166.32,-3.8 323.55,-78.4 498.35,-203.3 430.43,-307 967.08,-917.6 2004.58,-1518.1 287.2,-166.3 612.7,-331.7 984.9,-489.6"/></g><g id="g20" transform="scale(1.49144)"><path style="fill:#371a45;fill-opacity:1;fill-rule:nonzero;stroke:none" id="path22" d="m 9896.33,14325.8 c -34.06,0 -66.38,20.1 -80.39,53.4 -18.57,44.4 2.28,95.3 46.53,114 41.37,17.5 1013.23,443.4 1109.03,1723.1 3.6,48 45.8,83.7 93.4,80.4 47.9,-3.6 83.9,-45.4 80.3,-93.4 -104.1,-1389.2 -1169.88,-1851.8 -1215.21,-1870.7 -11,-4.7 -22.39,-6.8 -33.66,-6.8"/></g><g id="g24" transform="scale(1.33825)"><path style="fill:#cdc6d0;fill-opacity:1;fill-rule:nonzero;stroke:none" id="path26" d="m 13391.7,15484.2 c -264.8,11.3 -662.4,50.4 -1103.5,169.1 -379.2,102.2 -723.5,242.4 -1032,420.1 86.2,52.4 194.7,126.8 310.8,226.6 706.8,-316.9 1402.5,-398.9 1808.1,-417 8,-136.7 13.3,-269.9 16.6,-398.8"/></g><g id="g28" transform="scale(1.51228)"><path style="fill:#cdc6d0;fill-opacity:1;fill-rule:nonzero;stroke:none" id="path30" d="m 9794.38,14326.5 c -399.67,263.1 -723.75,604.3 -968.94,1021.2 -213.19,362.3 -335.72,686.1 -363.69,952.3 61.76,-165.2 148.98,-346.3 264.9,-543.2 356.61,-606.1 843.69,-998 1338.85,-1250.9 -111.43,-88.8 -209.36,-146.8 -271.12,-179.4"/></g><g id="g32" transform="scale(1.34582)"><path style="fill:#371a45;fill-opacity:1;fill-rule:nonzero;stroke:none" id="path34" d="m 11192.9,15983 c -63.9,36.9 -126.4,75.4 -187.1,115.4 69.4,36.7 179.4,101.9 304.6,201.6 63.8,-32.5 127.7,-63.1 191.5,-91.7 -115.4,-99.3 -223.3,-173.2 -309,-225.3"/></g><g id="g36" transform="scale(1.60322)"><path style="fill:#371a45;fill-opacity:1;fill-rule:nonzero;stroke:none" id="path38" d="m 11327.9,12705 c -211,0 -631.1,20 -1119.7,150.7 -916.4,245.1 -1632.09,767.9 -2069.64,1511.8 -488.46,830.3 -416.29,1302.6 -269.77,1552.6 145.14,247.5 420.9,379.9 773.75,372 334.58,-7.1 622.5,-257.9 1020.94,-604.9 516.22,-449.6 1223.12,-1065.3 2485.02,-1600.9 54.9,-23.4 80.6,-86.8 57.3,-141.7 -23.3,-54.9 -86.8,-80.6 -141.7,-57.3 -1293.5,549.1 -2015.5,1177.8 -2542.58,1636.9 -377.74,329 -627.3,546.4 -883.66,551.9 -272.32,6 -478.91,-88.4 -582.64,-265.3 -165.79,-282.7 -69.98,-756.5 269.58,-1333.8 412.86,-701.9 1063.05,-1176.6 1932.5,-1410.7 654.9,-176.4 1194.8,-142.2 1200.2,-141.9 59.1,4.8 111,-40.8 115.1,-100.3 4.2,-59.5 -40.8,-111.1 -100.2,-115.2 -6.7,-0.5 -58.1,-3.9 -144.5,-3.9"/></g><g id="g40" transform="scale(1.6148)"><path style="fill:#fff;fill-opacity:1;fill-rule:nonzero;stroke:none" id="path42" d="m 15778.9,9938.09 c -416.4,-476.9 -1253.1,-597.48 -1467.6,-919.81 -188.2,-282.82 -120.8,-643.24 -102.6,-1020.93 15.5,-323.32 -39.9,-746.41 -311.5,-1113.02 -411.4,-554.5 -1192.2,-612.27 -1615.3,-259.6 -483.1,402.72 117.1,1415.6 204.3,1540.44 0,0 -132,162 -254.7,307.84 -89.3,106.33 -152,257.5 -184.9,429.65 -979.1,54.07 -1760.5,-733.46 -2278.81,-873.79 -575.49,-155.75 -1200.15,256.87 -1618.97,1062.3 -344.31,662.37 -93.63,1248.13 416.34,1309.63 389.77,46.6 1062.92,-484.94 1062.92,-484.94 0,0 305.98,1334.54 1467.82,1178.24 0,0 126.7,658.3 112.6,1627.6 -2.2,151.4 -7.8,311 -18,476.3 -22.2,365 -66.1,760.3 -142.8,1171.7 -8.7,44.6 -17.3,89.1 -26.3,133.9 l 3664.8,249.4 c 64.6,-73 126.5,-146.5 186.1,-220.7 56.6,-70.4 111,-141.2 163.2,-212.3 258.7,-352.1 467.1,-715.3 629.9,-1075.6 634.6,-1404.2 580.2,-2771.3 113.5,-3306.31"/></g><g id="g44" transform="scale(1.43683)"><path style="fill:#fff;fill-opacity:1;fill-rule:nonzero;stroke:none" id="path46" d="m 14251.9,9830.26 c -1436,634.64 -2570.8,-616.56 -3274.2,-806.91 -646.8,-175.04 -1348.85,288.69 -1819.54,1193.85 -144.49,277.9 -195.57,543.7 -173.37,771.6 37.17,382.1 282.08,656.9 641.27,700.3 438.04,52.4 1194.54,-545 1194.54,-545 0,0 343.9,1499.9 1649.7,1324.1 0,0 337.3,1752.1 -83.7,3831.8 l 1336.3,-4634.6 529,-1835.14"/></g><g id="g48" transform="scale(1.08579)"><path style="fill:#cdc6d0;fill-opacity:1;fill-rule:nonzero;stroke:none" id="path50" d="m 12355.1,13421.3 c -32.1,56.1 -63.6,113.8 -94.4,173 -131.7,253.2 -204.6,504.9 -217.3,737.4 302.8,-334.5 753.4,-460 1247.2,-460 1094.1,0 2401.3,615.4 2791.3,937.8 1.4,1.2 2.8,2.3 4.2,3.4 84.3,-158.7 158.2,-335.6 213.9,-531.4 l -3944.9,-860.2"/></g><g id="g52" transform="scale(1.25477)"><path style="fill:#cdc6d0;fill-opacity:1;fill-rule:nonzero;stroke:none" id="path54" d="m 15771.2,13159.7 -57.1,198.3 -38.4,132.8 c 211.1,40.8 422.4,70.5 624.3,85.9 -2.2,-1.2 -4.5,-2.5 -6.9,-3.7 -192.1,-105.6 -374.3,-239.2 -521.9,-413.3"/></g><g id="g56" transform="scale(1.21406)"><path style="fill:#cdc6d0;fill-opacity:1;fill-rule:nonzero;stroke:none" id="path58" d="m 14788,12818.4 c -57.8,208.5 -135.9,393 -223.1,554 380.9,231.7 1007.2,449 1636.4,570.7 l 39.6,-137.2 59.1,-205 c -17.6,-20.9 -34.8,-42.3 -51.5,-64.3 -106.4,-140.3 -188.5,-294.2 -250.1,-454.3 L 14788,12818.4"/></g><g id="g60" transform="scale(1.11783)"><path style="fill:#371a45;fill-opacity:1;fill-rule:nonzero;stroke:none" id="path62" d="m 16017,12467.5 c -5.6,0 -11.2,0.4 -17,1.2 -63.5,9.3 -107.5,68.3 -98.2,131.8 298.1,2040.8 -1318.2,2873.1 -1334.5,2881.2 -57.5,28.7 -80.7,98.5 -52.1,156 28.7,57.4 98.5,80.6 155.9,52.1 18.5,-9.2 455.1,-230.6 855.1,-726.8 369.1,-457.8 773.8,-1245.2 605.6,-2396.1 -8.4,-57.8 -58,-99.4 -114.8,-99.4"/></g><g id="g64" transform="scale(1.4484)"><path style="fill:#371a45;fill-opacity:1;fill-rule:nonzero;stroke:none" id="path66" d="m 10614.2,8794.71 c -604.2,0 -1209.72,467.34 -1635.36,1285.79 -224.31,431.4 -252.55,868.9 -77.53,1200.5 129.87,245.9 354.8,399.8 633.39,433.3 366.47,44.2 885.1,-284.5 1135.2,-462.3 138,391.4 575,1315.1 1601,1246.7 62.5,407.8 249.1,1921 -100.7,3647.2 -13,64.8 28.7,127.9 93.5,141 64.4,13.1 127.9,-28.7 141,-93.5 417.8,-2062.3 86.6,-3829.9 83.2,-3847.5 l -21.4,-111 -111.9,15.1 c -1170.2,157.4 -1490.6,-1165.5 -1503.7,-1221.9 l -42.6,-183.7 -148.1,116.7 c -198.1,156.3 -782.3,552.7 -1096.92,515.7 -198.36,-23.9 -358.33,-133.1 -450.43,-307.5 -137.87,-261.1 -109.29,-617.8 78.3,-978.4 443.03,-852.08 1082.05,-1282.75 1667.35,-1124.3 180.2,48.81 400.8,179.36 656.2,330.57 671.3,397.33 1590.6,941.43 2671.9,463.82 60.4,-26.72 87.7,-97.35 61,-157.76 -26.7,-60.42 -97.3,-87.75 -157.8,-61.04 -968.5,428.01 -1791.8,-59.3 -2453.3,-450.91 -270.4,-160.03 -503.9,-298.25 -715.5,-355.56 -101.6,-27.55 -204.2,-41.01 -306.8,-41.01"/></g><path style="fill:#ff2c27;fill-opacity:1;fill-rule:nonzero;stroke:none" id="path68" d="m 12006.1,14084.5 -1990.2,-434 C 8405.59,13299.3 7384.86,11709.3 7735.99,10099 H 7736 C 8087.14,8488.8 9677.18,7468 11287.4,7819.2 l 1990.2,433.9 -1271.5,5831.4"/><path style="fill:#ffaba9;fill-opacity:1;fill-rule:nonzero;stroke:none" id="path70" d="m 7846.1,10556.8 c -87.31,1362.3 833.01,2624.8 2206.7,2924.4 l 913.1,199.2 c -24.8,-111.7 -28.1,-227.2 -6.4,-342.6 13.3,-71.3 27.3,-145.5 41.8,-222.1 l -855.7,-186.5 c -1210,-263.9 -2087.27,-1226.8 -2299.5,-2372.4"/><path style="fill:#c32730;fill-opacity:1;fill-rule:nonzero;stroke:none" id="path72" d="m 10798.6,8150 c -580.9,0 -1137.49,170.7 -1609.1,473.4 -642.7,412.6 -1127.91,1070.5 -1303.46,1875.6 -8.24,37.7 -15.54,75.3 -22.27,112.9 l -0.07,0.1 c 551.7,-781.7 1459.45,-1264.5 2436.7,-1264.4 210.6,0 424.5,22.4 638.7,69.1 l 808.8,176.4 c 94.7,-397.4 187.1,-774.3 266.6,-1093.4 12.4,-50 29.2,-98 50,-143.8 l -627,-136.7 c -214.3,-46.8 -428.2,-69.2 -638.9,-69.2"/><path style="fill:#371a45;fill-opacity:1;fill-rule:nonzero;stroke:none" id="path74" d="m 11873.7,13878.3 -1820.9,-397.1 C 8538.43,13151 7575.05,11650.3 7905.23,10135.9 8065.19,9402.3 8501.27,8774.9 9133.11,8369.3 9764.94,7963.7 10517,7828.5 11250.5,7988.4 l 1821,397.1 -1197.8,5492.8 M 10645.4,7576.4 c -598,0 -1184.22,170.6 -1699.45,501.4 -709.72,455.6 -1199.51,1160.3 -1379.2,1984.3 -370.94,1701 711.19,3386.7 2412.21,3757.6 l 1990.14,434 c 44.9,9.9 91.8,1.3 130.6,-23.4 38.6,-24.9 65.8,-64 75.6,-108.9 l 1271.6,-5831.3 c 20.4,-93.5 -38.9,-185.8 -132.3,-206.2 l -1990.2,-434 c -225.9,-49.2 -453.3,-73.5 -679,-73.5"/><g id="g76" transform="scale(1.88306)"><path style="fill:#4089ff;fill-opacity:1;fill-rule:nonzero;stroke:none" id="path78" d="M 16300,6399.69 7325.68,4442.71 6649.97,7541.23 15624.3,9498.21 16300,6399.69"/></g><g id="g80" transform="scale(1.77656)"><path style="fill:#a0c4ff;fill-opacity:1;fill-rule:nonzero;stroke:none" id="path82" d="m 7499.78,7756.52 c -0.84,4.38 -1.63,8.72 -2.48,13.11 -0.16,0.96 -0.33,1.91 -0.56,2.87 0,0.06 0,0.11 0,0.17 v 0.06 c -0.45,2.02 -0.84,4.1 -1.29,6.19 -0.28,1.46 -0.56,2.98 -0.9,4.56 -9.01,41.42 -23.31,80.6 -42.44,116.96 v -0.05 c -13.06,24.99 -28.26,48.8 -45.43,71.2 l 3461.92,754.95 c -18.5,-81.28 -30.7,-163.75 -36.6,-246.6 L 7499.78,7756.52 m 7112.42,1544.1 c 11.5,28.32 22,56.86 31.7,85.45 2.3,6.59 4.5,13.12 6.6,19.7 384.7,67.15 728.7,179.73 976.4,358.33 l 673.1,146.8 c -44.5,-80.88 -73.1,-169.93 -83.8,-262.08 l -1604,-348.2"/></g><g id="g84" transform="scale(1.83662)"><path style="fill:#3d67c7;fill-opacity:1;fill-rule:nonzero;stroke:none" id="path86" d="m 7827.37,4859.64 c -2.02,24.28 -5.94,48.62 -11.98,72.85 -22.48,90.54 -46.82,189.15 -72.09,293.03 -28.58,117.28 -58.37,241.26 -88.26,368.13 v -0.06 c 29.62,-125.61 59.13,-248.55 87.45,-364.91 -28.75,118.1 -58.75,242.89 -88.86,370.47 l 0.11,0.05 c 0.43,-1.85 0.92,-3.7 1.36,-5.55 0.05,1.96 0.16,3.92 0.27,5.88 l 2885.73,629.25 c -0.2,-9.69 0,-19.44 0.2,-29.18 1.7,-65.18 9.7,-132.26 31.2,-198.3 21,-65.88 55.1,-130.13 101.2,-184.42 l 17.4,-20.36 c 6,-6.53 12.7,-12.36 19.1,-18.51 12.9,-11.6 25.9,-25.54 39.1,-34.25 26.5,-19.11 52.2,-39.8 79.7,-57.23 28.3,-16 56.3,-32.72 85.1,-47.69 l 89.1,-38.28 c 30,-11 60.5,-20.47 91.2,-28.47 L 7827.37,4859.64 m 4266.73,930.4 c 22,17.21 43.9,34.47 63.1,54.77 22.4,22.49 46.4,43.56 67.3,67.52 l 60.7,73.34 c 20,24.61 36.4,50.86 54.6,76.28 68.3,104.54 122.6,217.85 162.8,335.35 29.5,89.46 51.8,181.09 65.9,273.6 l 3533.1,770.43 c 24.1,-10.12 48.8,-19.11 74.1,-26.84 4.2,-1.31 7.1,-3.7 8.9,-7.29 1.3,-2.84 2.5,-7.57 0.2,-13.83 -47.4,-124.96 -57.3,-260.26 -28.8,-391.32 24.2,-110.69 74.4,-211.2 144,-294.84 l -4205.9,-917.17"/></g><g id="g88" transform="scale(1.89466)"><path style="fill:#371a45;fill-opacity:1;fill-rule:nonzero;stroke:none" id="path90" d="m 6718.1,7425.25 632.57,-2900.89 8565.73,1867.83 c -127.5,94.79 -220,233.81 -255.3,395.37 -27.7,127.04 -18,258.2 27.9,379.33 2.3,6.07 1.1,10.66 -0.2,13.41 -1.7,3.48 -4.5,5.8 -8.6,7.07 -260.4,79.7 -458.1,294.46 -516.1,560.31 -58,265.91 32.5,543.38 236,724.2 3.2,2.8 4.7,6.02 4.9,9.92 0.1,3.06 -0.8,7.71 -5.4,12.25 -92.2,90.99 -155.5,206.26 -183.2,333.25 -35.3,161.66 -9.1,326.6 67.6,465.84 L 6718.1,7425.25 m 562.69,-3101.14 c -17.36,0 -34.52,4.96 -49.4,14.51 -20.37,13.09 -34.73,33.73 -39.9,57.43 L 6519.97,7475.6 c -10.77,49.35 20.48,98.07 69.83,108.84 l 8919.4,1944.94 c 15.9,3.54 32.4,2.64 47.8,-2.37 l 3.5,-1.17 c 32.8,-10.66 56.7,-38.79 62,-72.78 5.3,-34.04 -8.9,-68.14 -36.8,-88.25 -157.2,-113.37 -232,-309.08 -190.7,-498.51 20.2,-92.36 66.2,-176.07 133.1,-242.15 39.4,-38.9 61.1,-92.58 59.7,-147.2 -1.5,-54.79 -25,-105.14 -66.3,-141.82 -154.1,-136.92 -222.6,-347.09 -178.8,-548.44 43.9,-201.41 193.8,-364.08 391.1,-424.51 52.7,-16.15 95,-52.15 119.2,-101.39 24.1,-49.14 26.6,-106.99 7,-158.71 -33.3,-87.93 -40.3,-183.2 -20.2,-275.57 41.3,-189.32 190.8,-336.21 380.9,-374.2 34.8,-6.92 62.4,-33.41 70.9,-67.88 8.4,-34.47 -3.8,-70.73 -31.5,-92.95 l -0.4,-0.37 c -11.4,-9.29 -25.8,-16.89 -40,-19.95 L 7300.27,4326.22 c -6.44,-1.43 -12.99,-2.11 -19.48,-2.11"/></g><g id="g92" transform="scale(2.13107)"><path style="fill:#ffd39f;fill-opacity:1;fill-rule:nonzero;stroke:none" id="path94" d="m 16198.3,7261.69 -386.9,-346.35 -792.6,-709.36 -613.6,-549.16 c -194.4,38.85 -357.1,188.92 -402,395.06 -22,100.93 -12.7,201.26 21.3,291.12 13.4,35.29 5.2,72.83 -18.1,98.4 -10.7,11.83 -25,21.16 -41.9,26.37 -197,60.35 -356.2,222.19 -403.3,437.72 -46.9,215.33 30.4,428.98 184.5,565.67 41.3,36.84 42,99.53 2.6,138.43 -68.4,67.53 -118.6,154.85 -140.6,255.79 -45,206.14 40.4,410.31 201.4,526.4 l 786.2,-243.73 1015.8,-315.19 496.2,-153.82 c 70.1,-21.58 121.2,-69.92 148.7,-128.15 44,-92.77 29.5,-210.98 -57.7,-289.2"/></g><g id="g96" transform="scale(2.12966)"><path style="fill:#f8deff;fill-opacity:1;fill-rule:nonzero;stroke:none" id="path98" d="m 16264.3,7337.71 c 35.6,69.35 34.6,150.54 2.5,218.2 -2,4.32 -4.2,8.55 -6.4,12.73 2.2,-4.18 4.4,-8.41 6.4,-12.73 32.2,-67.61 33.2,-148.89 -2.5,-218.2 m -4,231.02 c 0,0.05 0,0.05 0,0.05 0,0 0,0 0,-0.05 m -641.3,270.14 -1014,314.61 -290,89.92 290,-89.83 1014,-314.7"/></g><g id="g100" transform="scale(2.12964)"><path style="fill:#fff2e2;fill-opacity:1;fill-rule:nonzero;stroke:none" id="path102" d="m 16247.7,7310.14 c -0.2,0.94 -0.7,1.88 -1.1,2.82 -27.3,57.71 -77.8,105.93 -147.4,127.72 8.8,11.41 16.5,23.34 23,35.69 l 5.8,3.24 -5.8,-3.24 v 0 l -49.8,-27.38 -471.1,146.13 -1016.6,315.22 -786.8,243.93 c -87.4,-63.01 -152.5,-152.09 -186.5,-253.32 -31,195.71 53.9,385.98 206.9,496.37 l 496.8,-153.88 290,-89.92 1013.9,-314.6 2.5,-0.8 496.6,-153.97 c 64.9,-19.96 113.5,-62.78 142.3,-115.33 0,0 0,0 0,-0.04 0,-0.05 0,-0.05 0.1,-0.1 2.2,-4.18 4.4,-8.4 6.4,-12.72 32.1,-67.67 33.1,-148.85 -2.5,-218.21 -4.9,-9.44 -10.4,-18.69 -16.7,-27.61"/></g><g id="g104" transform="scale(1.83452)"><path style="fill:#371a45;fill-opacity:1;fill-rule:nonzero;stroke:none" id="path106" d="m 16254.8,7204.08 c 4.5,56.86 17.1,112.08 36.9,164.3 6,15.97 8.3,32.38 7.2,48.18 1.1,-15.8 -1.2,-32.21 -7.2,-48.18 -19.8,-52.22 -32.4,-107.44 -36.9,-164.3 m 44.1,212.54 c 0,0.05 0,0.11 0,0.16 0,-0.05 0,-0.11 0,-0.16 m -8.6,35.48 c -4.8,11.18 -11.4,21.54 -19.7,30.59 v 0 c 8.3,-9.05 14.9,-19.41 19.7,-30.59"/></g><g id="g108" transform="scale(2.10341)"><path style="fill:#c39b84;fill-opacity:1;fill-rule:nonzero;stroke:none" id="path110" d="m 14452,5873.84 c -67.9,13.55 -131.9,40.84 -188.6,78.92 -35.4,52.77 -61.7,112.86 -76.1,178.71 -11.1,51.15 -14.4,102.12 -10.5,151.66 3.9,49.58 14.9,97.74 32.2,143.29 5.2,13.93 7.2,28.24 6.2,42.03 v 0.04 c 0,0.05 0,0.1 0,0.15 -0.7,10.69 -3.3,21.1 -7.4,30.8 -4.2,9.75 -10,18.78 -17.2,26.67 l 63.1,13.79 c 217,47.31 425.8,125.61 620.3,232.62 l 1398.9,769.37 25.6,-7.94 c 0.5,-0.19 1,-0.33 1.5,-0.47 -9.1,-11.84 -19.5,-23.11 -31.3,-33.66 l -342.2,-368.55 -852.8,-701.05 -621.7,-556.38"/></g><g id="g112" transform="scale(2.10641)"><path style="fill:#c3b1b3;fill-opacity:1;fill-rule:nonzero;stroke:none" id="path114" d="m 16276.8,7522.75 c -0.5,0.14 -1,0.28 -1.5,0.47 l -25.6,7.93 50.3,27.68 c -6.6,-12.49 -14.3,-24.54 -23.2,-36.08"/></g><g id="g116" transform="scale(1.84413)"><path style="fill:#c39b84;fill-opacity:1;fill-rule:nonzero;stroke:none" id="path118" d="m 16300,6747.41 c -11.1,13.72 -21.8,27.82 -31.7,42.62 0.2,-0.1 0.4,-0.21 0.5,-0.32 9.8,-14.59 20.2,-28.74 31.2,-42.3"/></g><g id="g120" transform="scale(2.13636)"><path style="fill:#371a45;fill-opacity:1;fill-rule:nonzero;stroke:none" id="path122" d="m 16158.2,7243.72 -385.9,-345.5 c -106.6,98.21 -192.4,249.49 -231.6,429.14 -39.1,179.42 -24,352.47 31.8,486.11 l 494.9,-153.44 c 181.8,-56.22 232.6,-289.27 90.8,-416.31"/></g><g id="g124" transform="scale(2.14144)"><path style="fill:#371a45;fill-opacity:1;fill-rule:nonzero;stroke:none" id="path126" d="m 16119.8,7226.53 h 0.3 z M 13759,8261.3 c -118,-102.5 -171.9,-262.02 -138.1,-416.77 17.8,-81.72 58.5,-155.79 117.7,-214.25 34.8,-34.42 54.1,-81.91 52.8,-130.24 -1.3,-48.47 -22.1,-93.02 -58.6,-125.48 -136.4,-121.13 -197,-307.08 -158.2,-485.23 38.8,-178.2 171.4,-322.12 346,-375.59 46.6,-14.29 84.1,-46.13 105.4,-89.7 21.3,-43.48 23.6,-94.66 6.2,-140.42 -29.4,-77.8 -35.6,-162.09 -17.8,-243.81 33.7,-154.66 149,-277.34 298.9,-321.65 l 1752.6,1568.66 v -0.05 c 44.5,39.88 63.4,98.49 50.7,156.77 -12.7,58.18 -54.3,103.48 -111.2,121.08 z m 576.5,-2712.79 c -5.2,0 -10.6,0.51 -15.8,1.58 -231.3,46.19 -413.1,224.9 -463.4,455.26 -24.5,112.4 -16,228.44 24.7,335.61 2,5.37 1,9.43 -0.2,11.86 -1.6,3.08 -4,5.14 -7.6,6.26 -230.4,70.51 -405.4,260.53 -456.6,495.74 -51.3,235.26 28.7,480.75 208.8,640.74 2.8,2.47 4.2,5.32 4.2,8.78 0.1,2.71 -0.7,6.81 -4.7,10.83 -81.5,80.51 -137.6,182.49 -162.1,294.85 -50.3,230.59 40.8,468.75 232.1,606.74 20.6,14.85 47,19.15 71.3,11.67 l 2287.1,-709.28 c 113.2,-35.07 196,-125.15 221.3,-241.06 25.4,-115.99 -12.3,-232.55 -100.8,-311.8 v -0.04 L 14389.5,5569.14 c -15,-13.4 -34.3,-20.63 -54,-20.63"/></g><path style="fill:#ffc41d;fill-opacity:1;fill-rule:nonzero;stroke:none" id="path128" d="m 13396.5,7805.5 c -637.8,-139.1 -1251.3,168.9 -1382,694.2 -165.6,664.9 -387.8,1581.2 -568.5,2410.1 -180.8,828.9 -360.2,1754.5 -486.5,2428 -99.8,532 329.7,1067.5 967.6,1206.6 v 0 c 660,143.9 1288.8,-190.7 1392.3,-741.2 125.8,-669.1 301.1,-1571 477.6,-2380.7 176.6,-809.7 392.7,-1702.7 556.9,-2363.4 135.1,-543.7 -297.3,-1109.6 -957.4,-1253.6"/><path style="fill:#b3d0ff;fill-opacity:1;fill-rule:nonzero;stroke:none" id="path130" d="m 13371.8,13526.6 c 0,0.1 -0.1,0.1 -0.1,0.2 -2.9,15.4 -5.9,30.7 -8.8,46 3,-15.3 5.9,-30.7 8.9,-46.2"/><path style="fill:#d9e7ff;fill-opacity:1;fill-rule:nonzero;stroke:none" id="path132" d="m 13318.4,13808.3 c 0,0.1 0,0.2 0,0.3 0,-0.1 0,-0.2 0,-0.3 m 0,0.4 c -0.7,3.6 -1.4,7.1 -2.2,10.6 0,0.1 0,0.2 -0.1,0.4 0.8,-3.7 1.5,-7.4 2.3,-11 m -79.3,226.6 c -23.2,44.6 -50.2,86.8 -80.7,126.7 v 0 c 30.5,-39.8 57.5,-82.1 80.7,-126.5 0,-0.1 0,-0.1 0,-0.2"/><path style="fill:#afa3b5;fill-opacity:1;fill-rule:nonzero;stroke:none" id="path134" d="m 13158.4,14162 c -20.9,27.3 -43.5,53.5 -67.5,78.5 24,-25 46.6,-51.1 67.5,-78.5 v 0"/><path style="fill:#f5d3ff;fill-opacity:1;fill-rule:nonzero;stroke:none" id="path136" d="m 11162,14082.6 c 31,39.1 64.8,76.6 101.5,112.3 -36.6,-35.7 -70.5,-73.2 -101.5,-112.3"/><path style="fill:#ffe7a5;fill-opacity:1;fill-rule:nonzero;stroke:none" id="path138" d="m 11035.5,12938.2 c -27,140.7 -52.4,274.5 -75.9,399.7 -49.4,263.7 31,528.1 202.4,744.7 31,39.1 64.9,76.6 101.5,112.3 169.9,165.6 398.7,291.6 663.4,349.4 103.8,22.4 207.1,33.4 307.5,33.4 342.1,0 653.2,-126 856.5,-337.2 24,-25 46.6,-51.2 67.5,-78.5 30.5,-39.9 57.5,-82.1 80.7,-126.7 30.1,-151 61.1,-304 92.5,-457 -211.1,252.7 -559.9,405.5 -946.5,405.5 -105.3,0 -213.6,-11 -322.4,-34.9 -567,-123.8 -977.3,-545.6 -1027.2,-1010.7 m 2336.2,588.6 -0.1,0.1 c -6.9,36 -13.6,71.4 -20.2,106.5 3.8,-20.1 7.6,-40.3 11.5,-60.6 2.9,-15.3 5.9,-30.6 8.8,-46 m -44.4,233.9 c -2.7,14.3 -5.3,28.5 -8,42.6 -1.1,5.4 -2.1,10.7 -3.1,16 0.8,-3.5 1.5,-7 2.2,-10.6 v -0.1 c 0,-0.1 0,-0.2 0,-0.3 0.4,-1.7 0.7,-3.5 1,-5.2 2.6,-14 5.3,-28.1 7.9,-42.4"/><path style="fill:#c39129;fill-opacity:1;fill-rule:nonzero;stroke:none" id="path140" d="m 11414.4,11116.8 c -2.8,11.6 -5.5,23.1 -8.3,34.7 2.8,-11.6 5.5,-23.1 8.3,-34.7"/><path style="fill:#c39129;fill-opacity:1;fill-rule:nonzero;stroke:none" id="path142" d="m 11370.5,11302.1 -0.1,0.4 0.1,-0.4"/><path style="fill:#c39129;fill-opacity:1;fill-rule:nonzero;stroke:none" id="path144" d="m 11334.8,11454.4 c -2.5,10.5 -5,21.1 -7.5,31.7 2.5,-10.6 5,-21.2 7.5,-31.7"/><path style="fill:#c39129;fill-opacity:1;fill-rule:nonzero;stroke:none" id="path146" d="m 11492.2,10791.9 c -2.5,10.1 -4.9,20.1 -7.3,30.2 2.4,-10.1 4.8,-20.1 7.3,-30.2"/><path style="fill:#3b50a0;fill-opacity:1;fill-rule:nonzero;stroke:none" id="path148" d="m 14221.5,9597.3 c -0.5,1.9 -1,3.9 -1.5,5.8 -52,213.7 -106.2,439.5 -160.6,670.2 v 0.1 c 54.9,-233 109.6,-460.7 162.1,-676.1"/><path style="fill:#c39129;fill-opacity:1;fill-rule:nonzero;stroke:none" id="path150" d="m 14249.3,9483.1 c -9.6,39.5 -19.4,79.6 -29.3,120 0.5,-1.9 1,-3.9 1.5,-5.8 9.3,-38.5 18.6,-76.6 27.8,-114.2"/><path style="fill:#c39129;fill-opacity:1;fill-rule:nonzero;stroke:none" id="path152" d="m 12261.1,8081.6 c -119.3,114.1 -206.1,255.7 -246.5,418.2 v 0 0 c 40.4,-162.5 127.2,-304.1 246.5,-418.2 m -246.5,418.2 c -0.2,0.7 -0.3,1.5 -0.5,2.2 0.2,-0.7 0.3,-1.5 0.5,-2.2 m -0.5,2.2 c -0.1,0.2 -0.1,0.5 -0.2,0.8 0.1,-0.3 0.1,-0.6 0.2,-0.8 m -0.2,0.8 c -3.4,13.5 -6.9,27.4 -10.3,41.1 3.4,-13.6 6.9,-27.7 10.3,-41.1"/><path style="fill:#c39129;fill-opacity:1;fill-rule:nonzero;stroke:none" id="path154" d="m 11566.4,10485.9 c -1.1,4.7 -2.2,9.3 -3.4,13.9 1.2,-4.6 2.3,-9.2 3.4,-13.9"/><path style="fill:#c32730;fill-opacity:1;fill-rule:nonzero;stroke:none" id="path156" d="m 11308.8,11557.2 c -5.8,27.7 -11.5,55.3 -17.3,82.9 l 0.1,-0.1 c 5.5,-26.7 11,-53.4 16.6,-80.1 0.2,-0.9 0.4,-1.8 0.6,-2.7"/><path style="fill:#c39129;fill-opacity:1;fill-rule:nonzero;stroke:none" id="path158" d="m 12990.2,8172.2 c -511.3,0 -954.8,281 -1070.8,712.1 -149.8,609.9 -325.3,1347.1 -473.3,2025.8 -46.1,211.2 -91.9,429 -137.3,647.1 -0.2,0.9 -0.4,1.8 -0.6,2.7 9.7,-46.7 19.5,-93.3 29.2,-139.8 92.1,-385.7 181.7,-751.2 259.2,-1061.7 1.3,-5.4 3.4,-10.4 4.9,-15.8 33.1,-134.9 65,-263.8 95.1,-384.2 109.2,-440.1 557.6,-727.7 1075.2,-727.7 100.3,0 203.3,10.8 306.8,33.4 554.9,121 949.1,541.3 979.5,995 69.2,-287.3 136,-559.3 195.8,-800.2 135.4,-543.6 -297.5,-1109.5 -957.3,-1253.4 -103.5,-22.5 -206.2,-33.3 -306.4,-33.3 m -1068.8,704 c -0.7,2.9 -1.4,5.8 -2.1,8.7 0,-0.2 0.1,-0.3 0.1,-0.6 0.7,-2.7 1.4,-5.4 2,-8.1 m 2136.7,1382.9 c 0,0.1 0,0.2 0,0.4 0,1.1 0.2,2.3 0.3,3.4 -0.1,-1.3 -0.2,-2.5 -0.3,-3.8"/><path style="fill:#c39129;fill-opacity:1;fill-rule:nonzero;stroke:none" id="path160" d="m 13093.9,7772.7 v 0 c 0.1,0 0.2,0 0.3,0 -0.1,0 -0.2,0 -0.3,0 m 0,0 c -0.1,0 -0.2,0 -0.3,0 0.1,0 0.2,0 0.3,0 v 0 m -0.3,0 c -77,0 -152.4,6.4 -225.5,18.5 73.1,-12.1 148.5,-18.5 225.5,-18.5 m 0.6,0 c 96.6,0.1 195.5,10.1 295.1,31.3 -99.6,-21.2 -198.5,-31.2 -295.1,-31.3 m -226.1,18.5 c -0.4,0.1 -0.8,0.2 -1.1,0.2 0.3,0 0.7,-0.1 1.1,-0.2 m -1.1,0.2 c -1.9,0.3 -3.7,0.6 -5.6,1 1.9,-0.4 3.7,-0.7 5.6,-1 m -5.6,1 c -2.1,0.3 -4.3,0.7 -6.4,1.1 2.1,-0.4 4.3,-0.8 6.4,-1.1 m 527.9,11.6 c 0.2,0 0.4,0.1 0.6,0.1 -0.2,0 -0.4,-0.1 -0.6,-0.1 m 0.6,0.1 c 0.9,0.2 1.7,0.4 2.6,0.5 -0.9,-0.1 -1.7,-0.3 -2.6,-0.5 m 2.6,0.5 c 1.4,0.3 2.7,0.6 4.1,0.9 144.3,31.5 277.8,83.2 396.9,150.4 -119.1,-67.2 -252.6,-118.9 -396.9,-150.4 -1.4,-0.3 -2.7,-0.6 -4.1,-0.9"/><path style="fill:#c39129;fill-opacity:1;fill-rule:nonzero;stroke:none" id="path162" d="m 12643.6,7849.6 c -44.1,15.9 -87.3,33.4 -128.3,53.9 41,-20.5 84.2,-38 128.3,-53.9"/><path style="fill:#b26dc6;fill-opacity:1;fill-rule:nonzero;stroke:none" id="path164" d="m 13834.2,7979.9 v 0 c 0.1,0 0.1,0 0.2,0 v 0 c -0.1,0 -0.1,0 -0.2,0 m 2.6,1.5 v 0 c 0.5,0.4 1,0.7 1.5,1 v 0 c -0.5,-0.3 -1,-0.6 -1.5,-1 m 2.6,1.6 v 0 c 17.8,11.1 35.3,22.5 52.5,34.2 -17.2,-11.7 -34.7,-23.1 -52.5,-34.2"/><path style="fill:#c39129;fill-opacity:1;fill-rule:nonzero;stroke:none" id="path166" d="m 13793.5,7955.9 c 13.7,7.8 27.3,15.8 40.7,24 v 0 c -13.4,-8.2 -27,-16.2 -40.7,-24 m 40.9,24 c 0.8,0.5 1.6,1 2.4,1.5 v 0 c -0.8,-0.5 -1.6,-1 -2.4,-1.5 v 0 m 3.9,2.5 c 0.4,0.2 0.7,0.4 1.1,0.6 v 0 c -0.4,-0.2 -0.7,-0.4 -1.1,-0.6 v 0"/><path style="fill:#c39129;fill-opacity:1;fill-rule:nonzero;stroke:none" id="path168" d="m 11958.9,8724.2 c -4.4,17.8 -8.8,35.5 -13.2,53.5 4.4,-18 8.8,-35.7 13.2,-53.5"/><path style="fill:#b26dc6;fill-opacity:1;fill-rule:nonzero;stroke:none" id="path170" d="m 13891.9,8017.2 c 31.5,21.6 61.9,44.4 90.8,68.3 -28.9,-23.9 -59.3,-46.7 -90.8,-68.3"/><path style="fill:#c39129;fill-opacity:1;fill-rule:nonzero;stroke:none" id="path172" d="m 11988.2,8605.8 c -4.2,17 -8.4,34.2 -12.7,51.4 4.3,-17.2 8.5,-34.4 12.7,-51.4"/><path style="fill:#c39129;fill-opacity:1;fill-rule:nonzero;stroke:none" id="path174" d="m 12377.8,7987 c -40,28.2 -78.5,58 -113.3,91 34.8,-33 73.3,-62.8 113.3,-91"/><path style="fill:#3e6dd0;fill-opacity:1;fill-rule:nonzero;stroke:none" id="path176" d="m 13642.9,12153.3 c -0.7,2.9 -1.4,5.7 -2,8.6 -36.5,177.8 -72.3,355.5 -106.9,529.8 35.2,-177.1 71.6,-357.6 108.9,-538.4"/><path style="fill:#8699d0;fill-opacity:1;fill-rule:nonzero;stroke:none" id="path178" d="m 13316.1,13819.7 c -15.9,76.4 -42,148.6 -77,215.8 v 0.1 c 34,-64.6 59.4,-134.2 75.4,-207.8 0.6,-2.8 1.1,-5.5 1.6,-8.1"/><path style="fill:#cd9927;fill-opacity:1;fill-rule:nonzero;stroke:none" id="path180" d="m 13640.9,12161.9 c -56.2,241.7 -110.6,484.2 -161.9,719.4 -49.6,227.6 -99.1,462.3 -147.4,697 14,-16.7 27.3,-33.8 40,-51.4 49.3,-259.1 104.2,-542.5 162.4,-835.2 34.6,-174.3 70.4,-352 106.9,-529.8 m -289.5,1471.5 c -8.3,43.2 -16.3,85.7 -24.1,127.3 7.9,-41.6 15.9,-84.1 24.1,-127.3"/><path style="fill:#b0b4d0;fill-opacity:1;fill-rule:nonzero;stroke:none" id="path182" d="m 13316.2,13819.3 c -15.9,76.5 -42.1,148.8 -77.1,216 0,0.1 0,0.1 0,0.2 35,-67.2 61.1,-139.4 77,-215.8 0.1,-0.2 0.1,-0.3 0.1,-0.4"/><path style="fill:#cdb48d;fill-opacity:1;fill-rule:nonzero;stroke:none" id="path184" d="m 13371.6,13526.9 c -12.7,17.6 -26,34.7 -40,51.4 -31.4,153 -62.4,306 -92.5,457 35,-67.2 61.2,-139.5 77.1,-216 1,-5.3 2,-10.6 3.1,-16 2.7,-14.1 5.3,-28.3 8,-42.6 7.8,-41.6 15.8,-84.1 24.1,-127.3 6.6,-35.1 13.3,-70.5 20.2,-106.5"/><path style="fill:#3e6dd0;fill-opacity:1;fill-rule:nonzero;stroke:none" id="path186" d="m 14057,10283.6 c -89.2,376.7 -178.7,766.5 -259.9,1139.2 -27.6,126.4 -55.2,255 -82.5,384.6 -5.7,26.7 -11.3,53.5 -16.9,80.2 -18.5,88.4 -36.8,177.1 -54.8,265.7 135.1,-587.1 276.9,-1169.2 392.8,-1635.3 19.4,-77.8 27.3,-156.2 24.3,-233.8 l -3,-0.6"/><path style="fill:#3b54a6;fill-opacity:1;fill-rule:nonzero;stroke:none" id="path188" d="m 14059.5,10273.4 c -0.8,3.4 -1.7,6.8 -2.5,10.2 l 3,0.6 c -0.2,-3.6 -0.4,-7.2 -0.5,-10.8"/><path style="fill:#cd9927;fill-opacity:1;fill-rule:nonzero;stroke:none" id="path190" d="m 13714.6,11807.4 c -5.7,26.7 -11.3,53.5 -16.9,80.2 5.6,-26.7 11.2,-53.5 16.9,-80.2"/><path style="fill:#371a45;fill-opacity:1;fill-rule:nonzero;stroke:none" id="path192" d="m 12235.2,14427.9 c -91,0 -183.7,-9.9 -276.2,-30.1 -554,-120.8 -936.2,-583.9 -852.1,-1032.3 120.4,-641.6 302.2,-1582.9 485.6,-2423.7 183.1,-839.9 409.7,-1771.9 567.5,-2405.9 110.3,-442.7 650.5,-704.6 1204.6,-583.9 318.2,69.5 588.3,250.2 741.1,496 114.8,184.5 150.3,383.3 102.7,574.9 -154.8,622.7 -377.2,1539.1 -557.9,2367.7 -180.8,829 -360,1754.5 -478.5,2384.9 -36.5,194 -151.5,359.9 -332.7,480 -171.1,113.3 -382.3,172.4 -604.1,172.4 z m 1161.3,-6622.4 h 0.5 z m -311.6,-184 c -585.8,-0.1 -1088.8,331 -1216,841.9 -158.3,636 -385.6,1571 -569.5,2414.4 -184.1,844.5 -366.7,1788.8 -487.3,2432.4 -115.7,616.5 360,1223 1083,1380.7 396.8,86.6 801.4,19.1 1109.9,-185.3 246.8,-163.5 410.8,-403.1 461.8,-674.7 118.1,-628.4 296.7,-1550.8 476.8,-2376.4 179.9,-825.1 401.6,-1738.4 555.9,-2359.2 66.6,-268.2 17.3,-554.3 -139,-805.8 -195.4,-314.1 -535.1,-544 -932,-630.5 v 0 c -116.1,-25.4 -231.4,-37.5 -343.6,-37.5"/><g id="g194" transform="scale(1.74674)"><path style="fill:#fff;fill-opacity:1;fill-rule:nonzero;stroke:none" id="path196" d="m 15425.8,13535.5 c 456.2,-341.9 874.2,-1969.9 768.5,-2940.3 -105.6,-970.45 -1821,-1043.16 -2802.1,-1011.67 -981,31.49 -977.6,2249.67 -964.7,2843.77 20.1,927.9 2322.3,1614.8 2998.3,1108.2"/></g><g id="g198" transform="scale(1.72662)"><path style="fill:#cdc6d0;fill-opacity:1;fill-rule:nonzero;stroke:none" id="path200" d="m 15131.9,9893.55 c 10.1,47.44 18.8,95.04 26.4,142.75 18.2,127.5 28.4,255.4 31.4,383.1 4.8,255.4 -18.1,509.3 -59.8,759.2 -9.9,56.5 -20.7,112.7 -32.5,168.8 16.8,33.5 31.1,72.7 39.6,117.5 v 0.1 c 0,0.2 0.1,0.5 0.1,0.8 0.1,0.2 0.1,0.4 0.2,0.6 0,0.1 0,0.1 0,0.1 5.8,31.3 8.8,65.4 7.8,102.3 h -0.1 c -6.6,209.7 -193.5,324 -193.5,324 -0.3,-0.3 -0.6,-0.5 -0.9,-0.9 -50.5,153.1 -108,303.9 -171.8,451.8 0.2,0 0.4,0.1 0.7,0.1 91.1,19.1 181.4,41.8 272.1,62.9 90.7,20.5 180.9,43.8 270.7,68.8 27,7.6 53.9,15.3 80.9,23.3 49.3,-133.9 96.5,-279.7 140.5,-438.6 l -35.7,-14.2 c -74.2,-29.6 -120,-105.2 -111.2,-184.6 19.2,-172.9 43.2,-333.9 75.3,-475.3 77.4,-343.5 202.7,-571.3 421.9,-571.4 7.9,0 16,0.4 24.3,0.9 44.4,3.2 92.5,15.4 144.6,37.3 87.9,37.1 145.8,109.5 181.7,202.9 18.3,5 36.5,11.3 54.5,19 0.9,-121.8 -4.1,-238 -15.8,-345.3 -51.6,-473.9 -549.5,-717.1 -1151.4,-835.95"/></g><g id="g202" transform="scale(1.75692)"><path style="fill:#371a45;fill-opacity:1;fill-rule:nonzero;stroke:none" id="path204" d="m 14644.3,13530.3 c -419.7,0 -944.4,-119.4 -1402.6,-342.5 -494.3,-240.6 -781.4,-544.8 -787.7,-834.6 -13.7,-632.7 8.1,-2699.2 863.8,-2726.7 962.1,-30.85 2589.9,47.36 2684.6,917.9 101.3,930.2 -305.4,2519.1 -725.2,2833.7 -137.2,102.9 -363.4,152.2 -632.9,152.2 m -989.4,-4106.54 c -115.8,0 -230.6,2.05 -343.4,5.64 -972.1,31.19 -1078,1847.9 -1054.7,2928.1 8.1,371.6 327.2,729.5 898.6,1007.6 719.6,350.3 1780.6,515.2 2240.1,170.9 518.7,-388.8 904.5,-2080.7 803,-3012.9 -96.9,-889.48 -1367.3,-1099.34 -2543.6,-1099.34"/></g><g id="g206" transform="scale(1.73955)"><path style="fill:#fff;fill-opacity:1;fill-rule:nonzero;stroke:none" id="path208" d="m 15392.8,11956.5 437.2,174.3 c 98.8,39.3 210,-16.6 236.7,-119.6 91.9,-354.3 233.3,-1088.6 -123.2,-1238.9 -432,-182.2 -585.2,316.2 -661.1,1000.9 -8.8,78.9 36.7,153.9 110.4,183.3"/></g><g id="g210" transform="scale(1.68618)"><path style="fill:#a79bad;fill-opacity:1;fill-rule:nonzero;stroke:none" id="path212" d="m 16275.2,11074.1 c -224.5,0 -352.9,233.3 -432,585 79.9,-351.7 208.5,-584.9 432.8,-584.9 7.9,0 15.9,0.2 24,0.8 -8.4,-0.6 -16.7,-0.9 -24.8,-0.9"/></g><g id="g214" transform="scale(1.72612)"><path style="fill:#cdc6d0;fill-opacity:1;fill-rule:nonzero;stroke:none" id="path216" d="m 15899.4,10817.9 c -219.1,0 -344.8,227.9 -422.8,571.4 -31.9,141.8 -55.7,303.3 -74.5,476.6 -8.3,74.3 31.4,145.4 97.8,177.8 70.4,-487.7 197.9,-838.5 470.1,-838.5 50.6,0 106.2,12.1 167.4,37.7 72.8,30.5 124.9,85.3 161.2,156 1.4,-247.2 -53.6,-468.4 -232.6,-543.2 -51.6,-21.6 -99.2,-33.7 -143.1,-36.9 -8,-0.6 -15.7,-0.9 -23.5,-0.9"/></g><g id="g218" transform="scale(1.74782)"><path style="fill:#371a45;fill-opacity:1;fill-rule:nonzero;stroke:none" id="path220" d="m 15321.1,11900.6 h 0.3 z m 500.4,85.9 c -8.6,0 -18.2,-1.5 -28.4,-5.5 l -435.5,-172.5 c -32.1,-12.7 -52,-45.3 -48.3,-79.3 21.4,-196.8 86.5,-796 300.2,-922 57.7,-34.1 129.2,-32.4 218.7,5.1 236,98.8 189.7,641.7 67.8,1116.7 -7.5,29 -27.9,43.1 -39.4,49 -7.4,3.8 -19.7,8.5 -35.1,8.5 z m -120.8,-1402.2 c -68.9,0 -133,17.4 -191.9,52.1 -209.9,123.7 -328.4,444.2 -396.6,1071.4 -13.2,122.4 57.7,239.5 172.4,285 l 435.5,172.5 c 73.5,29.1 156.1,25.2 226.5,-10.7 70.2,-35.8 121.7,-100.1 141.4,-176.3 134.5,-524 212,-1183.3 -183.2,-1348.8 -71.8,-30.2 -140,-45.2 -204.1,-45.2"/></g><g id="g222" transform="scale(1.67695)"><path style="fill:#371a45;fill-opacity:1;fill-rule:nonzero;stroke:none" id="path224" d="m 16211.4,13899.2 c -110.7,-33.3 -222.3,-68.6 -332.8,-104.8 -110.6,-36.3 -220.8,-73.9 -329.6,-114.3 l -0.2,-0.1 c -26.8,-10 -56.6,3.8 -66.6,30.5 -9,24.4 1.5,51.3 23.6,63.4 103.7,57 208.4,111 313.7,163.8 105.5,52.7 211,104.1 318.3,154.5 51.8,24.4 113.5,2.2 137.9,-49.6 24.3,-51.7 2.1,-113.5 -49.7,-137.8 -4.5,-2.1 -9.1,-3.9 -13.7,-5.3 l -0.9,-0.3"/></g><g id="g226" transform="scale(1.43683)"><path style="fill:#fff;fill-opacity:1;fill-rule:nonzero;stroke:none" id="path228" d="m 12553.7,15347.4 -167.2,952.6 c 81.1,-324 134.7,-643.7 167.2,-952.6"/></g><g id="g230" transform="scale(1.62621)"><path style="fill:#fff;fill-opacity:1;fill-rule:nonzero;stroke:none" id="path232" d="m 12026,12133 c -474,144 1158.9,-1501.3 709.3,-1706.9 -155.7,-71.2 -306.3,-164.9 -430.7,-288.4 -454.9,-451.15 -467.7,-1357.06 -158.8,-1724.3 121.8,-144.75 252.7,-305.49 252.7,-305.49 -86.5,-124.03 -682.6,-1129.93 -202.9,-1529.81 420.1,-350.14 1195.4,-292.71 1603.9,258.08 269.9,363.98 324.7,783.91 309.4,1104.9 -18,375.29 -85.1,733.11 101.9,1014.01 213.1,320.01 1043.8,439.55 1457.2,913.23 632,724.18 502.9,2985.68 -1085,4781.18 L 12026,12133"/></g><g id="g234" transform="scale(1.62621)"><path style="fill:#fff;fill-opacity:1;fill-rule:nonzero;stroke:none" id="path236" d="m 14173.5,10511.6 c -474,144.1 -988.6,120.1 -1438.2,-85.5 -155.7,-71.2 -306.3,-164.9 -430.7,-288.4 -454.9,-451.15 -467.7,-1357.06 -158.8,-1724.3 121.8,-144.75 252.7,-305.49 252.7,-305.49 -86.5,-124.03 -682.6,-1129.93 -202.9,-1529.81 420.1,-350.14 1195.4,-292.71 1603.9,258.08 269.9,363.98 324.7,783.91 309.4,1104.9 -18,375.29 -85.1,733.11 101.9,1014.01 213.1,320.01 1043.8,439.55 1457.2,913.23 632,724.18 502.9,2985.68 -1085,4781.18 l -409.5,-4137.9"/></g><g id="g238" transform="scale(1.58823)"><path style="fill:#cdc6d0;fill-opacity:1;fill-rule:nonzero;stroke:none" id="path240" d="m 13149.8,6621.19 c -119.8,0 -239.4,19.46 -350.2,59.88 l -82.7,35.51 c -26.3,13.92 -51.7,29.41 -77.8,43.7 -25,15.8 -47.7,34.69 -71.9,51.57 -13.1,8.43 -20.4,18.07 -30.7,26.88 -4.7,4.6 -9.9,8.75 -14.3,13.6 l -12.6,15.05 c -8.6,10.01 -16.6,20.53 -24.1,31.42 186.8,-73.54 402.2,-117.18 615,-117.18 335.9,0 665.4,108.61 866.3,379.73 276.3,372.68 148.9,855.04 133.3,1183.77 -18.6,384.33 -158.7,935.13 109.5,1247.99 429.1,500.69 1063.6,240.33 1486.9,725.49 285.8,327.4 419.6,962.2 339.8,1727.2 88.5,37.5 152.3,71.3 192.5,94.7 1.4,-8.2 2.9,-16.5 4.3,-24.6 43.4,-259.8 66.9,-522.7 62.1,-784.1 -3.2,-130.5 -13.6,-260.4 -31.8,-388.6 -20.3,-127.6 -48.7,-253.3 -89.3,-373.3 -40.8,-119.8 -94.2,-234.3 -164.9,-332 -69.3,-96.4 -162.9,-180.9 -265,-254.35 -206.7,-147.53 -449.8,-252.36 -696.4,-363.68 -123.5,-56.54 -249.5,-113.27 -373.4,-192.29 -61.6,-40.17 -123.4,-86.95 -178.2,-150.42 -13.6,-15.3 -26.7,-34.12 -38.4,-50.87 l -30.2,-50.18 c -10.2,-16.62 -17.5,-34.69 -26.3,-52.07 -9,-17.38 -16.1,-35.33 -22.7,-53.46 -27.9,-72.03 -45.6,-146.64 -55,-219.8 -9.7,-73.23 -13.9,-145.95 -13.3,-216.53 0.4,-141.67 13,-277.73 21.3,-410.46 l 5.8,-99.04 c 1,-31.92 2.3,-63.84 2,-95.77 -0.2,-63.84 -2.8,-127.62 -9.6,-190.9 -12,-126.68 -39.3,-251.03 -78.6,-370.6 -81.8,-236.8 -217.7,-460.39 -411.4,-608.92 -96.2,-75.11 -203.9,-137.44 -320.8,-175.91 -116.2,-39.48 -238.8,-60.57 -361.3,-61.39 -2.6,-0.07 -5.3,-0.07 -7.9,-0.07 m 2772.9,6073.71 c -54.6,223.9 -126.2,453.9 -216.1,686.4 5.4,-0.1 10.8,-0.1 16.3,-0.1 14.3,0 28.7,0.2 43,0.6 25.5,1.2 51,2.9 76.5,5.1 87.7,-197.2 164.3,-399.3 228.7,-605 -47.8,-31.9 -97.3,-60.8 -148.4,-87"/></g><g id="g242" transform="scale(1.60952)"><path style="fill:#371a45;fill-opacity:1;fill-rule:nonzero;stroke:none" id="path244" d="m 14310.1,10586.4 c -88.9,10.1 -175.8,20.7 -262.6,26.5 -87,4.4 -173.1,8.6 -258.9,5.7 -85.7,-2.4 -170.9,-7.7 -255.1,-18.5 -84.3,-10.6 -168.1,-23.5 -250,-44.6 -41.3,-9.2 -81.5,-22.1 -122.2,-33.1 -39.9,-13.7 -80.3,-25.5 -119.3,-41.6 -78.8,-29.3 -156,-63.9 -229.6,-103.4 -73.7,-39.2 -143.6,-84 -208.3,-134.1 -32.3,-25.1 -63.1,-51.7 -92.3,-79.9 -13.7,-14.4 -27.9,-28.2 -41.3,-43 -12.8,-15.4 -26.6,-29.8 -38.7,-45.8 -99.8,-126.33 -169.4,-279.85 -213,-440.77 -42.8,-161.41 -58.9,-331.46 -49.2,-498.35 9.7,-166.26 46.1,-332.89 120.4,-470.26 18.7,-33.93 40,-65.36 63.2,-93.88 l 85.6,-103.64 171.8,-207.7 51.2,-61.82 -46.3,-67.78 c -15.3,-22.37 -32.6,-50.58 -48.5,-77.54 -16.1,-27.46 -32,-55.3 -47.2,-83.5 -30.6,-56.42 -59.6,-113.95 -86.6,-172.11 -54.3,-116.3 -100.6,-235.84 -135.5,-356.62 -34.1,-120.66 -56.9,-243.8 -53.9,-360.86 1.7,-117.24 33.3,-225.22 100.4,-303.2 l 12.4,-14.84 c 4.3,-4.79 9.5,-8.89 14.1,-13.43 10.2,-8.69 17.4,-18.2 30.4,-26.52 23.8,-16.66 46.2,-35.3 70.9,-50.89 25.7,-14.1 50.8,-29.39 76.7,-43.12 l 81.6,-35.04 c 111.8,-40.76 232.6,-59.89 353.4,-59.02 120.9,0.8 241.9,21.62 356.6,60.57 115.3,37.96 221.6,99.48 316.5,173.6 191.2,146.56 325.2,367.19 405.9,600.86 38.8,117.99 65.8,240.69 77.6,365.7 6.8,62.44 9.3,125.38 9.5,188.38 0.3,31.5 -0.9,63 -2,94.5 l -5.7,97.73 c -8.2,130.97 -20.6,265.24 -21,405.03 -0.6,69.65 3.5,141.41 13.1,213.67 9.3,72.19 26.7,145.82 54.3,216.9 6.5,17.89 13.5,35.6 22.4,52.74 8.7,17.15 15.9,34.98 25.9,51.39 l 29.9,49.51 c 11.5,16.53 24.4,35.11 37.8,50.2 54.1,62.63 115.1,108.79 175.9,148.44 122.3,77.97 246.5,133.95 368.4,189.74 243.4,109.85 483.3,213.29 687.2,358.87 100.8,72.5 193.1,155.86 261.5,250.96 69.8,96.4 122.5,209.4 162.7,327.6 40.1,118.4 68.1,242.5 88.1,368.4 18,126.5 28.3,254.6 31.4,383.5 4.8,257.9 -18.4,517.4 -61.2,773.6 -89.1,512.6 -259.1,1011.8 -491.4,1478.9 -116,234.3 -258.7,453.3 -399.6,672.7 -141.8,219.3 -289.8,433.2 -420.1,670.5 l -0.1,0.3 c -9.8,17.8 -3.2,40.1 14.5,49.8 12.9,7.1 28.2,5.6 39.4,-2.5 221.1,-162 399.5,-369.3 555.2,-590.5 156.8,-221.4 283,-462.3 403.7,-704.3 240.5,-485 417.6,-1002.8 510.6,-1538.6 44.8,-268.1 69.3,-540.4 64.2,-814.4 -3.3,-137 -14.2,-274.2 -33.7,-411 -21.7,-136.7 -52.2,-272.8 -97.5,-406.3 -45.4,-133.1 -105.5,-264.3 -191.7,-383.72 -87.5,-121.15 -196.1,-217.21 -310.6,-299.9 -230.5,-163.96 -483.5,-271.01 -723.7,-379.93 -119.8,-54.55 -238.4,-109.16 -340.4,-174.53 -50.6,-32.61 -95.9,-68.71 -128.7,-106.92 -8.7,-9.63 -14.5,-18.89 -22.2,-29.27 l -21.6,-36.03 c -7.5,-11.74 -12.4,-25.1 -18.8,-37.53 -6.6,-12.36 -11.8,-25.59 -16.6,-38.95 -41.7,-105.5 -52.9,-227.4 -53.1,-353.15 0.3,-126.25 12.1,-257.1 20.6,-391.43 l 5.9,-101.33 c 1.2,-34.92 2.6,-69.9 2.2,-104.88 -0.1,-69.89 -3,-139.98 -10.6,-209.75 -13.3,-139.73 -43.4,-278.47 -87.7,-412.92 -45.8,-134.08 -107.8,-263.37 -185.7,-382.66 -20.8,-29.02 -39.6,-58.96 -62.4,-87.04 l -69.2,-83.69 c -23.8,-27.34 -51.2,-51.39 -76.8,-77.05 -25,-26.4 -54,-48.27 -82.5,-70.7 -114.1,-89.22 -241.9,-162.35 -379.4,-207.95 -137,-46.6 -281,-71.45 -425.9,-72.45 -144.8,-0.93 -290.7,21.87 -429,72.39 l -101.7,43.67 c -32.8,17.09 -64.8,36.16 -97.1,54.43 -31.4,19.88 -60.8,43.49 -91,65.3 -15,9.94 -29.9,25.85 -44.6,39.08 -7.3,7.02 -14.9,13.67 -21.8,21.12 l -19.8,23.24 c -52.7,61.95 -91.6,135.26 -115.5,210.44 -24.6,75.36 -33.7,151.91 -35.6,226.28 -3.5,149.3 24.1,290.46 62,425.28 38.9,134.64 89.2,263.74 147.3,388.38 29,62.32 59.9,123.64 92.7,184.09 16.2,30.26 33.4,60.2 50.9,90.09 17.9,30.19 35.2,58.83 57.4,91.39 l 4.7,-129.6 -170.3,205.96 -85.4,103.32 c -33.4,40.89 -62.2,84.01 -86.7,128.43 -95.9,178.87 -134.7,371.17 -146.6,561.04 -11,190.36 7.3,381.11 55.7,565.88 47.6,184.59 126.5,364.67 245.9,522.07 121.2,159.9 278.6,278.8 445.7,370.7 84,45.5 170.7,84 259.9,116.2 89.2,32.1 180.4,58.6 273.2,76.5 369.4,76.6 763,40.6 1095.8,-119 18.1,-8.7 25.7,-30.4 17.1,-48.4 -6.9,-14.4 -21.9,-22.1 -36.8,-20.4 l -1.1,0.1"/></g><g id="g246" transform="scale(1.42726)"><path style="fill:#371a45;fill-opacity:1;fill-rule:nonzero;stroke:none" id="path248" d="m 16064.4,9777.31 c -4.1,0 -8.2,0.28 -12.3,0.84 -49.9,6.73 -84.8,52.55 -78,102.37 131,969.18 -436,1423.18 -686,1573.38 -398.4,239.7 -887.7,269.8 -1163.2,71.9 -40.9,-29.3 -97.7,-19.9 -127,20.9 -29.3,40.9 -20,97.7 20.9,127 337.2,242.2 897.9,216 1363.2,-63.7 280.7,-168.7 918,-677.5 772.5,-1753.8 -6.2,-45.75 -45.3,-78.89 -90.1,-78.89"/></g><g id="g250" transform="scale(1.32369)"><path style="fill:#371a45;fill-opacity:1;fill-rule:nonzero;stroke:none" id="path252" d="m 15220.6,10178.5 54.8,-37.1 59.6,-38.4 c 40.5,-24.5 81.1,-49.3 123.2,-70.8 83.3,-44.77 169.9,-82.23 259.3,-107.85 44.8,-13.29 90.2,-23.34 136.3,-29.69 46.2,-6.8 93.1,-11.4 141,-11.63 96.7,-4.16 195.4,11.33 305.2,31.5 -69.7,-86.5 -168.5,-151.32 -279.1,-187.73 -110.6,-37.4 -231.3,-43.14 -347,-29.84 -116.3,13.75 -228.7,47.07 -333.3,94.28 -51.9,24.33 -102.9,50.62 -150.8,81.89 -24.1,15.57 -47.9,31.35 -70.7,49.03 -23.9,18.06 -44,34.22 -69.8,58.48 -52.7,49.36 -55.4,132.16 -6,184.76 44.6,47.6 116.3,54.4 168.7,18.9 l 8.6,-5.8"/></g><g id="g254" transform="scale(1.85499)"><path style="fill:#fff;fill-opacity:1;fill-rule:nonzero;stroke:none" id="path256" d="m 12678,12531 c 1944.2,825.2 2160.3,1671.3 2751.4,1683.9 591.1,12.7 870.6,-546.8 524.9,-1307.6 -568.6,-1251.5 -2721.9,-1387.6 -2721.9,-1387.6 L 12678,12531"/></g><g id="g258" transform="scale(1.82218)"><path style="fill:#cdc6d0;fill-opacity:1;fill-rule:nonzero;stroke:none" id="path260" d="m 13459.3,11752.3 c -31.6,90.7 22.8,192.6 120.8,212.8 655.8,135.6 1813.5,487.7 2296.7,1335.9 172.6,302.8 252.4,635.2 252,930.4 11.7,-11 22.8,-22.7 33.4,-34.8 46.5,-55.6 82.4,-121.3 104.3,-193.8 22.8,-72.1 33.1,-149.8 33.2,-228.7 0.3,-78.9 -9,-159 -25.4,-238.4 -16.6,-79.4 -40.3,-158 -69.1,-235.2 l -22.6,-57.7 -24.6,-57 c -17.8,-36.9 -36.7,-72.6 -54.9,-109.1 -78.9,-142.5 -182.3,-271.8 -301.8,-385.7 -119.7,-114 -254.9,-213.1 -398.6,-299.4 -288,-172.5 -607.7,-295.5 -935.2,-387.3 -82,-22.7 -164.5,-44.3 -247.8,-62.8 -83,-19.4 -167.7,-31.8 -251.7,-45.4 -84.3,-13.3 -167.9,-29.8 -251.2,-49.3 -83.2,-20.8 -166.2,-46.3 -248.2,-88.1 l -1.2,-0.6 c -3,-1.5 -5.7,-3.5 -8.1,-5.8"/></g><g id="g262" transform="scale(1.84344)"><path style="fill:#371a45;fill-opacity:1;fill-rule:nonzero;stroke:none" id="path264" d="m 12745.2,12638.3 c 137.8,112.5 287.2,192.6 436.4,273.2 148.6,81.5 299.7,157.3 447.5,239.6 147.8,82 290.2,173.4 428.8,269.7 138.7,96.5 273.4,198.3 404.1,306 131.2,107.1 258,219.9 389.8,332.9 66,56.2 133.9,112.5 208,165.1 73.8,52.4 156,101.1 249,133.5 45.8,17.1 95,27.2 144.1,34.2 24.6,3 49.5,4 73.9,5.4 23.7,-0.5 47.3,0.4 71.1,-1.4 94.9,-5.8 191.9,-24.2 282.2,-65.2 90.7,-39.3 173.2,-100.7 238.5,-176.2 64.4,-76.3 111.7,-165.3 139.7,-257.8 29.2,-92.4 41.2,-187.6 41.3,-280.9 0.4,-93.5 -10.4,-185.5 -29,-274.9 -18.6,-89.4 -44.8,-176.2 -76.3,-260.5 l -24.7,-62.7 -26.6,-61.7 c -19.5,-40.8 -40.8,-81.3 -61.2,-121.9 -88.2,-159.3 -203.1,-302.2 -333.1,-426.1 -130.1,-124 -275,-229.8 -426.8,-321 -304.4,-182.2 -634.8,-308.4 -970.6,-402.7 -84.1,-23.5 -168.6,-45.2 -253.6,-64.5 -84.9,-19.7 -169.5,-40.9 -254.8,-58.9 -85.5,-17.5 -172.2,-28.2 -259.7,-32.3 -87.6,-2.5 -175.9,2.8 -265.9,31.4 -17.7,5.6 -27.5,24.5 -21.9,42.2 2.8,8.9 9,15.7 16.7,19.7 l 1.2,0.6 c 81,41.3 163.1,66.5 245.3,87.1 82.4,19.3 165,35.6 248.3,48.7 83.1,13.5 166.7,25.7 248.8,44.9 82.4,18.3 163.9,39.6 245,62 323.7,90.9 639.7,212.4 924.4,382.9 142,85.3 275.7,183.3 393.9,295.9 118.2,112.6 220.4,240.4 298.4,381.3 18,36.1 36.7,71.4 54.2,107.9 l 24.4,56.3 22.4,57 c 28.4,76.3 51.9,154.1 68.2,232.5 16.3,78.5 25.4,157.7 25.1,235.7 0,78 -10.2,154.8 -32.8,226 -21.6,71.6 -57.1,136.6 -103.1,191.6 -47.1,54 -105.1,97.7 -171.8,126.6 -66,30.3 -140.4,44.6 -216.3,49.3 -18.9,1.6 -38.3,0.7 -57.3,1.2 -18.3,-1.3 -36.4,-1.8 -54.3,-4 -35.7,-5.3 -71.1,-12.1 -105.5,-25.2 -138.8,-48.2 -268.4,-155.6 -397,-264.2 -128.6,-110.3 -258.1,-225.4 -392.5,-335.2 -133.9,-110.3 -273,-215.5 -415.9,-314.9 -142.8,-99.4 -290.2,-191.9 -438.2,-283.2 -148.2,-90.9 -300.5,-175.5 -458.8,-246.7 -39.8,-17.4 -79.2,-35.6 -119.4,-52 -40.4,-16 -81.2,-30.7 -122.6,-44.3 -41.3,-13.9 -83.2,-26 -126.1,-35.5 -42.7,-10.2 -85.9,-19 -130.4,-24.1 -17.9,-2.2 -34.1,10.6 -36.2,28.5 -1.4,11.4 3.5,22.3 11.7,29.1"/></g><g id="g266" transform="scale(2.19514)"><path style="fill:#fff;fill-opacity:1;fill-rule:nonzero;stroke:none" id="path268" d="M 6980.04,10978.7 C 8817.05,8256.59 12687.5,10672.3 11210.8,13469 9396.47,16300 5398,13799.2 6980.04,10978.7"/></g><g id="g270" transform="scale(2.19514)"><path style="fill:#fff;fill-opacity:1;fill-rule:nonzero;stroke:none" id="path272" d="M 6980.04,10978.7 C 8817.05,8256.59 12687.5,10672.3 11210.8,13469 9396.47,16300 5398,13799.2 6980.04,10978.7"/></g><g id="g274" transform="scale(1.48734)"><path style="fill:#cdc6d0;fill-opacity:1;fill-rule:nonzero;stroke:none" id="path276" d="m 12029,14379.5 c -410.7,181.2 -806.7,452.6 -1169.1,826.1 18.8,31.8 37.2,64.6 54.9,98.5 101.3,-93.7 205.9,-180.2 313.9,-259.3 246.6,-184.5 508.7,-335 783.9,-449.6 6.3,-72.9 11.8,-144.9 16.4,-215.7 m -1293.8,960.3 c -138,154.7 -270.7,325.2 -396.8,512 -84.2,150.2 -157.6,299.7 -220.9,448.2 26.4,-51.3 54,-102.6 82.7,-153.7 l 5,-8.1 c 75.5,-112 154,-219 235.3,-321.2 102.1,-136 214.2,-269.4 335.7,-399.7 -13.3,-26.5 -27,-52.3 -41,-77.5"/></g><g id="g278" transform="scale(1.4068)"><path style="fill:#371a45;fill-opacity:1;fill-rule:nonzero;stroke:none" id="path280" d="m 11481.7,16076.2 c -44.5,45.8 -88.4,93 -132,141.8 14.9,26.6 29.4,53.9 43.5,82 6.7,-7.2 13.3,-14.3 20.1,-21.5 l 11.9,-12.6 15,-8.9 c 15.7,-9.2 31.3,-18.3 47,-27.4 17.4,-16.7 34.9,-33.1 52.5,-49.4 -18.8,-35.8 -38.2,-70.5 -58,-104"/></g><g id="g282" transform="scale(1.32129)"><path style="fill:#cdc6d0;fill-opacity:1;fill-rule:nonzero;stroke:none" id="path284" d="m 15074.5,15863.5 c -309.3,0 -620.9,37 -929.4,114.8 -62.4,15.6 -124.6,33 -186.7,52.2 l -77.8,269.5 c 134.8,-41.3 272,-75.4 411.4,-102.1 245.3,-46.8 493.9,-70 743,-70 384.7,0 770.5,55.2 1146.6,163.6 l -362.7,-357 c -244.5,-46.7 -493.6,-71 -744.4,-71"/></g><g id="g286" transform="scale(1.32356)"><path style="fill:#cdc6d0;fill-opacity:1;fill-rule:nonzero;stroke:none" id="path288" d="m 13934.5,16003.1 c -49.7,15.2 -99.1,31.6 -148.6,49.1 -4.5,81.4 -9.9,164 -16.2,247.8 28.9,-9.7 58,-19 87.2,-27.9 l 77.6,-269"/></g><g id="g290" transform="scale(1.33178)"><path style="fill:#371a45;fill-opacity:1;fill-rule:nonzero;stroke:none" id="path292" d="m 13700.8,15953.1 c -44.1,15.6 -88.3,32.1 -132.2,49.6 -45,17.8 -89.9,36.6 -134.5,56.3 -5.2,79.2 -11.3,159.6 -18.4,241 88.5,-36.9 178.2,-70.4 269,-100.6 6.3,-83.3 11.6,-165.4 16.1,-246.3"/></g><g id="g294" transform="scale(1.44836)"><path style="fill:#cdc6d0;fill-opacity:1;fill-rule:nonzero;stroke:none" id="path296" d="m 14431.1,14536.6 330.9,325.7 c 328.3,94.6 648.4,233.6 951.8,415.3 210,125.8 405.9,268.3 586.2,425.4 l -25.3,-256.5 c -520.3,-459 -1161.8,-779.7 -1843.6,-909.9"/></g><g id="g298" transform="scale(1.46326)"><path style="fill:#cdc6d0;fill-opacity:1;fill-rule:nonzero;stroke:none" id="path300" d="m 16108.8,15289.2 25.1,253.9 c 28.6,24.8 56.8,50.1 84.4,75.6 l 81.7,-149 c 0,0 -0.1,0 -0.1,0 -61.6,-62.4 -125.4,-122.6 -191.1,-180.5"/></g><g id="g302" transform="scale(1.50719)"><path style="fill:#cdc6d0;fill-opacity:1;fill-rule:nonzero;stroke:none" id="path304" d="m 15824.9,15018.9 -79.2,144.6 c 119.3,110.1 230.9,227.1 334,350 0.9,0.3 1.7,0.7 2.6,1.1 49.1,20 97.3,42.2 146,63.5 24,10.8 47.9,21.8 71.7,33.1 -59.5,-92.6 -123.3,-182.2 -191,-268.8 -88.1,-113.6 -183.1,-221.5 -284.1,-323.5"/></g><g id="g306" transform="scale(1.51709)"><path style="fill:#371a45;fill-opacity:1;fill-rule:nonzero;stroke:none" id="path308" d="m 15974.8,15412.2 c 55.9,66.8 109.5,135.2 160.3,205.4 40.4,20.7 80.1,41.4 119.2,62.1 15.2,1.8 30.5,4 45.7,6.7 -33.7,-60.2 -69.2,-119.2 -106.4,-177.1 -23.7,-11.2 -47.4,-22.2 -71.2,-32.9 -48.4,-21.1 -96.3,-43.2 -145.1,-63.1 -0.8,-0.4 -1.7,-0.7 -2.5,-1.1"/></g><g id="g310" transform="scale(2.19514)"><path style="fill:#fff;fill-opacity:1;fill-rule:nonzero;stroke:none" id="path312" d="M 6980.04,10978.7 C 8817.05,8256.59 12687.5,10672.3 11210.8,13469 9396.47,16300 5398,13799.2 6980.04,10978.7"/></g><g id="g314" transform="scale(2.00323)"><path style="fill:#371a45;fill-opacity:1;fill-rule:nonzero;stroke:none" id="path316" d="m 7701.28,12062.9 c 1009.17,-1493.2 2527.02,-1523.1 3583.82,-889.9 1032.7,618.6 1768.9,1994.9 946.4,3555.2 -991.3,1544.6 -2569.74,1571.8 -3617.19,943.2 -1057.8,-634.9 -1794.26,-2034.8 -913.03,-3608.5 m 2215.57,-1400.4 c -162.78,0 -325.17,15.1 -485.36,45.8 -724.68,138.6 -1358.81,583.8 -1833.85,1287.7 l -2.64,4.3 c -412.69,735.7 -512.82,1503.9 -289.68,2221.6 199.13,640.3 641.46,1192.6 1245.54,1555.2 602.87,361.8 1294.01,489 1945.84,358.4 735.2,-147.4 1371.5,-611.8 1840,-1342.9 l 2.6,-4.5 c 385.8,-730.5 470,-1488.9 243.5,-2193 -202.6,-629.8 -640.9,-1172.4 -1234.3,-1527.9 -444.8,-266.5 -939.7,-404.7 -1431.65,-404.7"/></g><g id="g318" transform="scale(1.50076)"><path style="fill:#cdc6d0;fill-opacity:1;fill-rule:nonzero;stroke:none" id="path320" d="m 12930.6,14509.2 c -295.3,0 -599.5,45.2 -901.5,147.8 -97.2,39.2 -193.8,83.8 -289.4,133.8 345.7,-102.4 691.3,-154.2 1031.3,-154.2 217.9,0 433.6,21.3 645.3,64.1 771.9,156.2 1452.6,592.4 1917,1228.2 87,119.1 164.8,243.2 233,371.1 32.7,-53.6 68.6,-102.3 106.9,-146.3 -324.7,-579.3 -821.3,-1040.1 -1381.9,-1320.2 -394.9,-197.2 -865.5,-324.3 -1360.7,-324.3 m 1257,56.5 c 64.9,27.5 129.3,57.2 193,89 609.7,304.6 1113.4,778.8 1447.6,1356.5 81.8,-59.7 170,-103.1 260.8,-130.7 -288.3,-383.8 -649.2,-702.7 -1042.6,-938.3 -267,-160 -556.3,-287.9 -858.8,-376.5"/></g><g id="g322" transform="scale(2.00221)"><path style="fill:#293856;fill-opacity:1;fill-rule:nonzero;stroke:none" id="path324" d="m 7726.37,12082.1 c 1000.6,-1479.8 2504.53,-1509.5 3551.73,-882.1 1023.3,613 1752.9,1976.7 938.2,3523.2 -982.9,1530.5 -2546.97,1557.7 -3584.83,934.8 -1048.14,-629.1 -1777.94,-2016.2 -905.1,-3575.9 m 2195.53,-1439 c -164.42,0 -328.44,15.3 -490.31,46.2 -731.69,139.9 -1371.64,589.1 -1850.66,1298.9 l -3.74,6.1 c -416.29,742.1 -517.18,1517.5 -291.83,2242.2 200.97,646.5 647.43,1204 1257.06,1569.9 608.48,365.2 1306.16,493.6 1964.58,361.6 742.3,-148.8 1384.4,-617.2 1856.9,-1354.5 l 3.7,-6.2 c 389.1,-737 473.9,-1502.4 245.2,-2213.4 -204.5,-635.9 -646.9,-1183.6 -1245.7,-1542.4 -449,-268.9 -948.6,-408.4 -1445.2,-408.4"/></g><g id="g326" transform="scale(2.00221)"><path style="fill:#371a45;fill-opacity:1;fill-rule:nonzero;stroke:none" id="path328" d="m 7726.37,12082.1 c 1000.6,-1479.8 2504.53,-1509.5 3551.73,-882.1 1023.3,613 1752.9,1976.7 938.2,3523.2 -982.9,1530.5 -2546.97,1557.7 -3584.83,934.8 -1048.14,-629.1 -1777.94,-2016.2 -905.1,-3575.9 m 2195.53,-1439 c -164.42,0 -328.44,15.3 -490.31,46.2 -731.69,139.9 -1371.64,589.1 -1850.66,1298.9 l -3.74,6.1 c -416.29,742.1 -517.18,1517.5 -291.83,2242.2 200.97,646.5 647.43,1204 1257.06,1569.9 608.48,365.2 1306.16,493.6 1964.58,361.6 742.3,-148.8 1384.4,-617.2 1856.9,-1354.5 l 3.7,-6.2 c 389.1,-737 473.9,-1502.4 245.2,-2213.4 -204.5,-635.9 -646.9,-1183.6 -1245.7,-1542.4 -449,-268.9 -948.6,-408.4 -1445.2,-408.4"/></g><g id="g330" transform="scale(2.06776)"><path style="fill:#371a45;fill-opacity:1;fill-rule:nonzero;stroke:none" id="path332" d="M 7825.94,11132.6 C 10462.1,9577.11 12700,12653.2 10700.5,14437.5 8339.4,16300 5689.05,13397.2 7825.94,11132.6"/></g><g id="g334" transform="scale(1.64219)"><path style="fill:#21102b;fill-opacity:1;fill-rule:nonzero;stroke:none" id="path336" d="m 8966.75,16300 c -14.56,-3483.3 4967.15,-3773.6 5503.05,-591 -1596.1,-1875 -4569.42,-1094.6 -5503.05,591"/></g><g id="g338" transform="scale(1.95876)"><path style="fill:#371a45;fill-opacity:1;fill-rule:nonzero;stroke:none" id="path340" d="m 7887.14,12344.5 c 896.43,-1404.3 2209.96,-1405.2 3062.56,-979.3 979.9,489.5 1704.4,1699.3 1192.8,3064.7 -260.2,643.7 -813.8,1169.3 -1518.1,1440.1 -704.65,271 -1469.83,251.8 -2100.48,-52.5 -1159.82,-836.6 -1266.16,-2469.9 -636.78,-3473 m 2023.88,-1382.3 c -196.14,0 -391.01,24.6 -580.31,74.2 -620.91,162.7 -1164.77,586.6 -1572.89,1226 l -0.3,0.5 c -667.42,1063.5 -552.45,2797.1 682.42,3682.9 l 11.18,6.7 c 669.81,325.4 1481.91,347.5 2228.28,60.5 743.7,-286 1329,-842.8 1605.8,-1527.6 251.1,-669.9 240.8,-1348.2 -29,-1963.4 -244.5,-557.7 -684.1,-1017.2 -1238.1,-1293.9 -352.5,-176 -731.9,-265.9 -1107.08,-265.9"/></g><g id="g342" transform="scale(1.94046)"><path style="fill:#371a45;fill-opacity:1;fill-rule:nonzero;stroke:none" id="path344" d="m 8395.63,11933.3 c 1432.08,-838.8 2698.17,-358.6 3318.97,491.4 563.5,771.5 667.4,1964.5 -369.6,2891.5 -1248.8,983.8 -2499.12,668.8 -3184.58,-80.2 -704.37,-769.6 -903.65,-2088.1 235.21,-3302.7 m 1481.5,-613.3 c -521.58,0 -1060.42,157.6 -1583.18,466 l -10.88,6.4 -8.65,9.2 c -549.72,582.6 -847.33,1247.9 -860.57,1923.9 -11.85,605.6 206.5,1184.9 614.85,1631 399.13,436.1 940.09,700.6 1523.35,744.9 648.25,49 1307.15,-174.5 1905.75,-646.6 l 4.1,-3.5 c 500.2,-446.4 791.1,-996.9 841.1,-1592 45.3,-538.9 -112.5,-1085.7 -444.2,-1539.9 -359.1,-491.7 -885.6,-829 -1482.6,-949.8 -163.7,-33.1 -330.6,-49.6 -499.07,-49.6"/></g><g id="g346" transform="scale(1.74783)"><path style="fill:#fff;fill-opacity:1;fill-rule:nonzero;stroke:none" id="path348" d="m 14899,14752.4 c -197,-1440.8 -1657.6,-1364.7 -1608.3,29.8 151.1,1517.8 1712.5,1436.6 1608.3,-29.8"/></g><g id="g350" transform="scale(1.57812)"><path style="fill:#b9afbe;fill-opacity:1;fill-rule:nonzero;stroke:none" id="path352" d="m 15513.8,15287.5 c -10.4,0.3 -20.8,1 -31.1,1.9 -331.7,28.4 -655.8,352.1 -654.2,1010.6 48.3,-45.9 101.6,-66.2 157.7,-66.2 44.6,0 90.9,12.9 138,35.8 -0.4,-3.6 -0.7,-7.3 -1.1,-11 l -0.4,-5.6 c -17.9,-508.8 159.9,-824.9 391.1,-965.5"/></g><g id="g354" transform="scale(1.71804)"><path style="fill:#371a45;fill-opacity:1;fill-rule:nonzero;stroke:none" id="path356" d="m 15157.4,15008.2 h 0.3 -0.3 m -1535.5,23.6 c -21.8,-644.8 285.3,-960.7 599.8,-987.7 333.5,-28.9 737.1,264.2 835.3,974.6 47,676.1 -276.2,1013.4 -596.9,1040.7 -361.7,31.3 -766,-312.1 -838.2,-1027.6 m 644,-1191.3 c -20.6,0 -41.1,0.9 -61.4,2.6 -410.1,35.2 -811.6,419.6 -784.1,1199.1 l 0.5,6.3 c 84.4,847.6 595.4,1251.5 1056.3,1211.9 416.6,-35.5 838.6,-444.8 780.7,-1259.3 l -0.6,-6.5 c -109.8,-803.1 -578.8,-1154.1 -991.4,-1154.1"/></g><g id="g358" transform="scale(1.70667)"><path style="fill:#fff;fill-opacity:1;fill-rule:nonzero;stroke:none" id="path360" d="m 15317.2,15026.7 c -164.8,-1195.6 -1286.5,-1156.1 -1245.8,-1 120.9,1274.3 1339.8,1230 1245.8,1"/></g><g id="g362" transform="scale(1.68384)"><path style="fill:#371a45;fill-opacity:1;fill-rule:nonzero;stroke:none" id="path364" d="m 15524.8,15230.4 h 0.3 -0.3 m -1173.6,-6.8 c -17.7,-522.6 208.3,-776.7 440.5,-796.8 253,-22.3 562.4,223.3 644.4,813.1 41.8,555.5 -197.3,830.6 -437.4,851.1 -276.9,24.2 -589.7,-266.4 -647.5,-867.4 m 470.6,-976.3 c -15.3,0 -30.4,0.7 -45.4,2 -316.5,27.3 -625.8,341.9 -603.2,983.3 l 0.4,5.2 c 68.1,718.2 473.8,1062.2 840.3,1030.7 325.3,-27.8 651.7,-366.7 599.7,-1044.9 l -0.6,-5.3 c -93,-675.3 -466.3,-971 -791.2,-971"/></g><g id="g366" transform="scale(1.70971)"><path style="fill:#c3bac7;fill-opacity:1;fill-rule:nonzero;stroke:none" id="path368" d="m 12882.6,15369.8 c -214,0 -418.8,189.5 -389.1,496.4 46.6,302.5 231.7,433.8 413.5,433.8 230,0 454.5,-210.2 386.4,-550.2 -71.5,-264.7 -243.9,-380 -410.8,-380"/></g><g id="g370" transform="scale(1.57703)"><path style="fill:#c3bac7;fill-opacity:1;fill-rule:nonzero;stroke:none" id="path372" d="m 13843.6,15896.1 c -103.4,0 -200.5,93.3 -162.8,255 34,102.2 110.4,148.9 183.5,148.9 103.5,0 200.5,-93.2 162.8,-255 -34,-102.2 -110.3,-148.9 -183.5,-148.9"/></g><g id="g374" transform="scale(1.87004)"><path style="fill:#c3bac7;fill-opacity:1;fill-rule:nonzero;stroke:none" id="path376" d="m 8176.55,14100.4 c -305.4,1616.7 881.42,2199.6 1779.9,2199.6 295.55,0 559.75,-63 729.55,-173 -1430.33,-125.8 -2047.49,-1022.3 -2509.45,-2026.6"/></g><g id="g378" transform="scale(1.60004)"><path style="fill:#cdc6d0;fill-opacity:1;fill-rule:nonzero;stroke:none" id="path380" d="m 15599.7,15180.9 c -11.2,0 -22.4,0.5 -33.4,1.4 -244.3,21.2 -482.1,288.6 -463.5,838.6 0.7,6.9 1.4,13.8 2,20.7 109.5,-182 263.2,-258.7 424.8,-258.7 273.1,0 569.1,218.6 714.2,517.1 7.3,-79.6 8,-166.9 0.8,-261.9 -82.8,-595.1 -385.5,-857.3 -644.9,-857.2"/></g><g id="g382" transform="scale(1.61339)"><path style="fill:#371a45;fill-opacity:1;fill-rule:nonzero;stroke:none" id="path384" d="m 15424.4,14976.5 c -251.9,0 -494.1,190.2 -597.6,630.8 -26.1,177.7 -3.6,363.1 55.9,533.5 25.9,-91.2 58.9,-168.1 97.2,-231.9 -0.7,-6.8 -1.3,-13.6 -2,-20.5 -18.4,-545.5 217.4,-810.7 459.7,-831.6 10.9,-1 22,-1.4 33.1,-1.4 257.2,-0.1 557.4,259.9 639.5,850 7.1,94.3 6.5,180.8 -0.7,259.8 21,43.3 39,88.4 53.1,134.8 133.4,-788.2 -315.9,-1323.5 -738.2,-1323.5"/></g><g id="g386" transform="scale(1.72393)"><path style="fill:#371a45;fill-opacity:1;fill-rule:nonzero;stroke:none" id="path388" d="m 13538.7,16053.2 z m 1.1,-201 c -29.8,0 -54.9,7.3 -75,16.7 -132.7,62.2 -147.1,267.2 -148.3,328.6 -1.2,55.5 42.9,101.3 98.4,102.5 0.7,0 1.4,0 2,0 54.6,0 99.3,-43.6 100.5,-98.2 1.3,-54.4 15.5,-119.7 30.4,-145.2 6.6,3.2 16.9,9.2 31.3,20.7 43.3,34.8 106.6,27.7 141.2,-15.7 34.7,-43.3 27.6,-106.6 -15.7,-141.3 -64.3,-51.4 -119.8,-68.1 -164.8,-68.1"/></g><g id="g390" transform="scale(1.21281)"><path style="fill:#fff;fill-opacity:1;fill-rule:nonzero;stroke:none" id="path392" d="m 14535.1,15761.3 c 20,-266.5 252.2,-466.2 518.6,-446 266.4,20 466.1,252.2 446,518.6 -20,266.4 -252.2,466.1 -518.6,446 -266.4,-20.1 -466.1,-252.2 -446,-518.6"/></g><g id="g394" transform="scale(1.17948)"><path style="fill:#b9afbe;fill-opacity:1;fill-rule:nonzero;stroke:none" id="path396" d="m 15344.9,15886.7 c -146.9,40.1 -260.2,169.1 -272.3,329.5 -2.1,28.4 -1,56.4 3.1,83.8 72.5,-65.7 164.2,-110.2 264.7,-124.3 l 4.5,-289"/></g><g id="g398" transform="scale(1.2214)"><path style="fill:#371a45;fill-opacity:1;fill-rule:nonzero;stroke:none" id="path400" d="m 14912,16044 c -8.9,0 -17.9,-0.3 -27,-1 -95.2,-7.2 -182,-51 -244.2,-123.5 -62.4,-72.3 -92.6,-164.6 -85.5,-259.8 14.8,-196.6 187.1,-344.5 383.3,-329.7 196.6,14.8 344.5,186.7 329.7,383.3 -14.1,187.5 -171.2,330.7 -356.3,330.7 m -0.6,-960.6 c -312.2,-0.1 -577.2,241.5 -601,557.8 -12.1,160.6 39.1,316.4 144.1,438.5 105,122.2 251.3,196.1 412,208.2 160.6,12.1 316.4,-39.1 438.6,-144.1 122.1,-105.1 196.1,-251.4 208.1,-412 25,-331.7 -224.5,-621.7 -556.1,-646.7 -15.3,-1.2 -30.5,-1.7 -45.7,-1.7"/></g><g id="g402" transform="scale(1.39241)"><path style="fill:#fff;fill-opacity:1;fill-rule:nonzero;stroke:none" id="path404" d="m 13596.9,12750.7 2227,35.2 c 263.6,4 476.1,223.2 472,487 l -18.7,1185.2 c -3.7,231 -172.3,422.5 -391.2,463.7 -31.1,6.1 -63.2,8.7 -96,8.3 l -2226.7,-35.2 c -263.9,-4 -476.4,-223.2 -472,-487.1 l 14.7,-938.6 3.8,-246.5 c 4.1,-263.9 223.5,-476.1 487.1,-472"/></g><g id="g406" transform="scale(1.33428)"><path style="fill:#cdc6d0;fill-opacity:1;fill-rule:nonzero;stroke:none" id="path408" d="m 14104.4,13426.3 c -71.9,14.6 -138.4,49.4 -192.7,101.9 -74.7,72.5 -116.7,169.1 -118.4,272.2 l -3.1,202.2 c 218.9,-97.4 543.2,-207.2 990.1,-229.8 75.1,-3.8 146.3,-5.7 214,-5.7 425.7,0.1 709.7,73.8 902.3,205.2 163.3,42.7 288.4,208.2 309.8,412.5 34.8,93.5 59.6,195.8 78.7,305.6 l 13.2,-841.7 c 1.7,-103 -37.3,-201 -109.7,-275.7 -72.4,-74.8 -169,-116.8 -272,-118.4 l -1812.2,-28.3"/></g><g id="g410" transform="scale(1.40146)"><path style="fill:#371a45;fill-opacity:1;fill-rule:nonzero;stroke:none" id="path412" d="m 15695.6,14726.7 c -2,0 -3.9,-0.1 -5.9,-0.1 l -2212.5,-34.9 c -98.2,-1.4 -190.2,-41.5 -259.1,-112.6 -69,-71.2 -106.1,-164.4 -104.5,-262.5 l 18.6,-1177.7 c 1.5,-98.1 41.5,-190.1 112.7,-259.1 71.1,-68.9 164.3,-105.8 262.5,-104.5 l 2212.5,34.8 c 98.1,1.6 190.1,41.6 259.1,112.8 68.9,71 106,164.4 104.4,262.5 L 16065,14363 c -3.3,201.7 -168.4,363.7 -369.4,363.7 m -2194.1,-2165.5 c -317.6,0 -578.4,255.7 -583.4,574.3 l -18.6,1177.7 c -5,321.7 252.6,587.5 574.3,592.6 l 2212.6,34.9 c 319.9,5 587.5,-252.6 592.6,-574.3 l 18.5,-1177.7 c 2.5,-155.3 -56.1,-302.6 -164.8,-414.8 -108.7,-112.2 -254.1,-175.4 -409.5,-177.8 l -2212.4,-34.8 c -3.2,-0.1 -6.2,-0.1 -9.3,-0.1"/></g><g id="g414" transform="scale(1.39214)"><path style="fill:#fff;fill-opacity:1;fill-rule:nonzero;stroke:none" id="path416" d="m 13510,12760.5 c 28.9,-5.5 58.7,-7.9 89.5,-7.3 l 2227.5,35.1 c 193.1,3.1 358.9,121.4 431.9,288.8 26.7,60.8 41.1,128 39.8,198.4 l -8.1,526.6 -2.7,173.8 -7.6,485 c -4.1,264 -223.6,476.1 -487.2,472.1 l -481.4,-7.8 c 222.6,-38.3 394.6,-231.2 398.4,-464.6 l 10.3,-640.3 8.5,-545.4 c 4.1,-263.7 -208.4,-483.1 -472,-487.2 l -1746.9,-27.2"/></g><g id="g418" transform="scale(1.38298)"><path style="fill:#cdc6d0;fill-opacity:1;fill-rule:nonzero;stroke:none" id="path420" d="m 15806.1,12979.4 c 89.8,108.5 137.6,243.7 135.3,385.2 l -7.1,447.8 c 41.4,-27.4 84,-43.7 126.9,-43.7 6.5,0 12.9,0.4 19.4,1.2 13.3,1.5 26.2,4 38.7,7.2 50.4,-133.7 139.1,-226.8 139.1,-226.8 12.3,-0.7 24.8,-1.5 37,-2.2 l 2.9,-186.4 v -0.1 c 1.7,-99.5 -35.9,-193.9 -105.8,-266.1 -69.8,-72.1 -163,-112.6 -262.4,-114.1 l -124,-2"/></g><g id="g422" transform="scale(1.40146)"><path style="fill:#371a45;fill-opacity:1;fill-rule:nonzero;stroke:none" id="path424" d="m 15581.4,14725 c 80.6,-98.9 129,-224.1 131.2,-359.1 l 18.5,-1177.6 c 2.3,-139.6 -44.8,-273 -133.5,-380.1 l 122.4,2 c 98.1,1.4 190,41.5 259,112.6 68.9,71.2 106,164.4 104.4,262.5 v 0.2 l -18.6,1177.5 c -1.4,98.1 -41.4,190.2 -112.6,259.1 -69.8,67.7 -160.8,104.7 -257,104.7 -1.9,0 -3.8,-0.1 -5.6,-0.1 l -108.2,-1.7 m -2082.1,-2163.8 c -32.7,0 -66,3.1 -98.7,9 l 17.7,212.3 1735.4,27.2 c 98,1.5 190,41.5 258.9,112.7 69,71.1 106.1,164.4 104.4,262.5 l -18.4,1177.7 c -2.8,177.2 -131.9,327.7 -306.9,358 l 16.6,212.5 477.9,7.7 c 155.3,1.8 302.8,-56.3 414.9,-164.9 112.3,-108.8 175.4,-254.3 177.8,-409.6 l 18.5,-1177.4 c 2.6,-155.4 -55.9,-302.8 -164.7,-415 -108.8,-112.2 -254.2,-175.4 -409.4,-177.8 l -2212.6,-34.8 c -3.8,0 -7.6,-0.1 -11.4,-0.1"/></g><g id="g426" transform="scale(1.32114)"><path style="fill:#22a7f0;fill-opacity:1;fill-rule:nonzero;stroke:none" id="path428" d="m 15638.9,14588.2 c 1,-46.2 74,-417.6 74,-417.6 0,0 118,2.5 263.1,5.6 181.2,4 324,194.7 319,426.1 -4.9,231.5 -155.8,415.9 -337.1,412 -122.3,-2.7 -263.1,-5.7 -263.1,-5.7 0,0 -57.6,-345.1 -55.9,-420.4"/></g><g id="g430" transform="scale(1.31493)"><path style="fill:#2976b4;fill-opacity:1;fill-rule:nonzero;stroke:none" id="path432" d="m 15974.5,14317.6 c 76.2,71.3 126.9,183.8 132.6,311.6 0.6,12 0.7,24.1 0.5,36.4 -3.1,142.7 -61.4,267.6 -148.1,341.9 l 75.4,1.6 c 1.5,0.1 3,0.1 4.4,0.1 138,0 252.6,-151.3 256.6,-339.6 4.1,-190.2 -106.3,-347.3 -246.1,-350.4 l -75.3,-1.6"/></g><g id="g434" transform="scale(1.32734)"><path style="fill:#371a45;fill-opacity:1;fill-rule:nonzero;stroke:none" id="path436" d="m 15641.1,14521.9 c 1.3,-26.1 29.8,-183.9 60.1,-340.8 l 198.5,4.2 c 138.5,3 247.9,158.7 243.8,347.2 -4,188.4 -119.8,339.5 -258.5,336.3 l -199.2,-4.2 c -20.8,-129.8 -45.5,-300.2 -44.7,-342.7 m -63.4,-494.2 -12.2,62.2 c -17.4,88.2 -74,379.9 -75,428.6 -1.7,78 46.9,373.9 56.6,432.4 l 10.4,61.6 324.2,7 c 2.4,0 4.8,0 7.1,0 218.5,0 399.6,-215.2 405.4,-483.8 5.8,-271.5 -169.7,-496.3 -391.3,-501.1 l -325.2,-6.9"/></g><g id="g438" transform="scale(1.29982)"><path style="fill:#22a7f0;fill-opacity:1;fill-rule:nonzero;stroke:none" id="path440" d="m 15628,14821.8 c 5.1,-235.2 158.5,-422.7 342.6,-418.7 184.2,3.9 329.4,197.8 324.3,433.1 -5.1,235.2 -158.5,422.7 -342.6,418.7 -184.1,-4 -329.3,-197.8 -324.3,-433.1"/></g><g id="g442" transform="scale(1.26713)"><path style="fill:#b9afbe;fill-opacity:1;fill-rule:nonzero;stroke:none" id="path444" d="m 16300,14785.5 c -123.3,36 -222.5,156.8 -256.3,312.5 33.9,-155.6 133,-276.4 256.3,-312.4 0,0 0,0 0,-0.1"/></g><g id="g446" transform="scale(1.29937)"><path style="fill:#2e568d;fill-opacity:1;fill-rule:nonzero;stroke:none" id="path448" d="m 16165.7,14489.1 c 77.1,72.1 128.5,185.9 134.3,315.3 -5.8,-129.3 -57.1,-243.2 -134.2,-315.3 h -0.1"/></g><g id="g450" transform="scale(1.28867)"><path style="fill:#371a45;fill-opacity:1;fill-rule:nonzero;stroke:none" id="path452" d="m 16103,14527.5 c -25.9,0 -51.2,3.7 -75.5,10.8 0,0 0,0 0,0.1 24.3,-7.1 49.6,-10.8 75.4,-10.8 1.9,0 3.9,0 5.8,0 71.7,1.5 137.6,31.7 191.2,81.7 h 0.1 c -53.5,-50.1 -119.4,-80.3 -191.2,-81.8 -1.9,0 -4,0 -5.8,0"/></g><g id="g454" transform="scale(1.29943)"><path style="fill:#2976b4;fill-opacity:1;fill-rule:nonzero;stroke:none" id="path456" d="m 15969.6,14407.3 c -25.6,0 -50.7,3.7 -74.8,10.8 -120.2,35.1 -216.8,152.9 -249.9,304.6 -7.3,33.1 -11.4,67.8 -12.2,103.7 -0.8,31.7 1.4,62.8 6.1,92.9 50.2,-158.3 171.8,-269.9 312.4,-269.9 2,0 4,0 6,0 159.1,3.5 289.3,148.6 318.2,340 14.7,-46.2 23.1,-96.3 24.4,-148.9 0.2,-12.4 0,-24.7 -0.5,-36.8 -5.8,-129.3 -57.2,-243.2 -134.3,-315.3 -53.2,-49.6 -118.5,-79.5 -189.6,-81 -1.9,-0.1 -3.9,-0.1 -5.8,-0.1"/></g><g id="g458" transform="scale(1.29944)"><path style="fill:#fff;fill-opacity:1;fill-rule:nonzero;stroke:none" id="path460" d="m 16299.6,14840.4 c 0.4,-16.1 0,-31.9 -1.2,-47.5 -40.7,183.6 -174.5,317 -330.1,313.7 -171.6,-3.9 -309.7,-172.6 -323,-386.1 -7.6,33.9 -11.9,69.2 -12.7,105.7 -5.2,235.1 140.1,429.2 324.3,433.2 184.1,3.7 337.6,-183.6 342.7,-419"/></g><g id="g462" transform="scale(1.30577)"><path style="fill:#371a45;fill-opacity:1;fill-rule:nonzero;stroke:none" id="path464" d="m 15885.2,15108.9 c -1.3,0 -2.7,-0.1 -4,-0.1 -140.8,-3 -252,-161.3 -247.9,-352.9 2.1,-96.2 32.8,-185.3 86.4,-250.9 49.2,-60 111.5,-93.2 176.5,-90.9 64.6,1.3 125.8,36.3 172.4,98.4 50.7,67.8 77.5,158.2 75.5,254.4 -2.1,96.2 -32.7,185.3 -86.4,250.9 -48.2,58.8 -109.3,91.1 -172.5,91.1 z m 6.7,-848.1 c -109.8,0 -212.8,52.1 -290.7,147.3 -75.2,91.9 -118.2,214.3 -121,344.5 -5.9,276 172.5,504.5 397.8,509.4 112.5,2.1 218.6,-49.9 298.2,-147.3 75.2,-92 118.2,-214.3 121,-344.5 2.8,-130.3 -34.8,-254.4 -106,-349.4 -75.4,-100.7 -179,-157.5 -291.7,-159.9 -2.6,-0.1 -5.1,-0.1 -7.6,-0.1"/></g><g id="g466" transform="scale(1.27885)"><path style="fill:#371a45;fill-opacity:1;fill-rule:nonzero;stroke:none" id="path468" d="m 15557.8,13826 c -41.7,0 -76.4,33 -78.1,75 l -33.5,852.8 -383.6,232.7 c -22.8,13.8 -37,38.5 -37.5,65.3 l -22.5,1168.5 c -0.8,43.2 33.5,78.8 76.7,79.7 h 1.6 c 42.4,0 77.3,-34 78.1,-76.7 l 21.6,-1125.5 382.6,-232.1 c 22.4,-13.7 36.6,-37.7 37.6,-63.8 l 35.2,-894.7 c 1.7,-43.1 -31.9,-79.5 -75,-81.1 -1.1,-0.1 -2.1,-0.1 -3.2,-0.1"/></g><g id="g470" transform="scale(1.60477)"><path style="fill:#fff;fill-opacity:1;fill-rule:nonzero;stroke:none" id="path472" d="m 16086.8,12795.8 c 0,0 204.2,-124.8 208.3,-353.7 4.9,-264.7 -181.7,-394.1 -181.7,-394.1 0,0 -633.2,-460.8 -2102.1,-370.4 0,0 -371.3,390 58,684.8 0,0 1342.3,-220.1 2017.5,433.4"/></g><g id="g474" transform="scale(1.42394)"><path style="fill:#cdc6d0;fill-opacity:1;fill-rule:nonzero;stroke:none" id="path476" d="m 16211.3,13147.3 c -56.6,0 -114.4,0.7 -173.7,2.3 v 0.1 c 59.4,-1.7 117.4,-2.4 174.1,-2.4 29.8,0 59.2,0.2 88.3,0.6 v 0 c -29.2,-0.4 -58.8,-0.6 -88.7,-0.6"/></g><g id="g478" transform="scale(1.46315)"><path style="fill:#cdc6d0;fill-opacity:1;fill-rule:nonzero;stroke:none" id="path480" d="m 15863.2,12795.6 v 0 c 156.4,2.2 302,10.3 436.8,22.8 -134.9,-12.5 -280.4,-20.6 -436.8,-22.8"/></g><g id="g482" transform="scale(1.40102)"><path style="fill:#371a45;fill-opacity:1;fill-rule:nonzero;stroke:none" id="path484" d="m 16300,13364.7 h -0.1 v 0.1 0 l 0.1,-0.1"/></g><g id="g486" transform="scale(1.3727)"><path style="fill:#cdc6d0;fill-opacity:1;fill-rule:nonzero;stroke:none" id="path488" d="m 16240,13880.2 c -47.2,125 -61.1,285 60,437.9 0,0 0,0 0,-0.1 -121,-152.9 -107.1,-312.9 -60,-437.8 v 0"/></g><g id="g490" transform="scale(1.38258)"><path style="fill:#a79bad;fill-opacity:1;fill-rule:nonzero;stroke:none" id="path492" d="m 16300,13552 c -12.2,0.7 -24.7,1.4 -37,2.1 0,0 -88.7,93.2 -139.1,226.9 v 0 c 50.4,-133.6 139.1,-226.8 139.1,-226.8 12.3,-0.8 24.8,-1.5 37,-2.2 v 0"/></g><g id="g494" transform="scale(1.40101)"><path style="fill:#371a45;fill-opacity:1;fill-rule:nonzero;stroke:none" id="path496" d="m 16300,13364.8 c -69.7,1.9 -141,4.8 -214.3,8.9 v 0.1 c 73.3,-4.1 144.6,-7.1 214.3,-8.9 v -0.1"/></g><g id="g498" transform="scale(1.60439)"><path style="fill:#a79bad;fill-opacity:1;fill-rule:nonzero;stroke:none" id="path500" d="m 16290.2,12338.4 c 0,0 0,0 0,0.1 v -0.1 m 0.1,0.9 c 0.1,0.2 0.2,0.4 0.2,0.7 0,-0.3 -0.1,-0.5 -0.2,-0.7 m 0.2,0.8 c 6,32.2 9.2,67.2 8.5,104.9 0,1.8 -0.1,3.5 -0.1,5.2 v 0 c 1.1,-39.7 -2.1,-76.4 -8.4,-110.1"/></g><g id="g502" transform="scale(1.60436)"><path style="fill:#cdc6d0;fill-opacity:1;fill-rule:nonzero;stroke:none" id="path504" d="m 14388.6,11668.8 c -50.3,0 -101.8,0.7 -154.5,2.1 h -0.1 c -60.8,1.6 -123.1,4.2 -187.2,7.8 -10.5,0.6 -21.2,1.2 -31.9,1.9 0,0 -76.4,80.3 -119.9,195.4 -40.2,106.9 -52.1,243.8 51.4,374.6 0.3,-1.6 0.5,-3.2 0.8,-4.7 27.7,-165.2 171.6,-286.8 339,-291.9 60.9,-1.9 120.5,-2.7 178.3,-2.7 1203.9,0 1729.4,382.2 1729.4,382.2 0,0 55.7,38.7 105.3,116.9 v 0 c 0.1,-1.7 0.1,-3.4 0.1,-5.2 0.7,-37.7 -2.5,-72.6 -8.5,-104.9 0,0 0,0 0,-0.1 0,-0.2 -0.1,-0.5 -0.1,-0.7 0,-0.3 -0.1,-0.5 -0.2,-0.8 0,0 0,0 0,0 -36.6,-193 -173,-287.6 -173,-287.6 0,0 -385.5,-280.4 -1252.2,-360.9 -122.9,-11.4 -255.7,-18.8 -398.3,-20.8 -25.8,-0.4 -51.9,-0.6 -78.4,-0.6"/></g><g id="g506" transform="scale(1.61405)"><path style="fill:#371a45;fill-opacity:1;fill-rule:nonzero;stroke:none" id="path508" d="m 13976.2,11700.9 c 1374.4,-75.7 1984.1,348.9 1990.2,353.2 6.7,4.8 145.9,107.5 142.2,314.7 -2,106.7 -63.7,186.1 -110.5,231.4 -650.1,-555.9 -1759.7,-437.4 -1985.8,-406.4 -81.6,-63.3 -127.1,-134.3 -135.4,-211.3 -12.8,-118.9 60.9,-231.9 99.3,-281.6 z m 328.3,-195.2 c -119.9,0 -246.3,3.7 -379.5,12 l -36.4,2.2 -25.2,26.5 c -8.1,8.4 -197,210.1 -171.4,454.5 14.8,142.7 96.9,266.1 243.8,367 l 30.8,21.1 36.8,-6 c 12.8,-2.1 1296.9,-203.3 1926.2,406 l 51.7,50.1 61.4,-37.6 c 10.1,-6.1 246.6,-153.8 251.7,-429.3 5.6,-309.3 -211.4,-463.4 -220.7,-469.8 -22.8,-16.6 -560.2,-396.7 -1769.2,-396.7"/></g><g id="g510" transform="scale(1.73678)"><path style="fill:#371a45;fill-opacity:1;fill-rule:nonzero;stroke:none" id="path512" d="m 15110.3,14245.4 v 0 z m 0.1,0 0.1,-0.1 z m 1110.7,-1399.1 c -2.9,0 -5.7,0.2 -8.6,0.5 -490.1,55.7 -874.8,536.7 -1112.4,1391 -4.3,15.4 -7.3,26.8 -9.4,33.3 -11.9,25.5 -8.8,56.6 10.5,79.6 26.6,31.7 73.8,35.8 105.5,9.2 19.2,-16.2 22.8,-28.8 37.6,-82 216.7,-779.4 566.6,-1234.8 985.2,-1282.5 41,-4.6 70.5,-41.7 65.8,-82.8 -4.3,-38.1 -36.7,-66.3 -74.2,-66.3"/></g><g id="g514" transform="scale(1.00262)"><path style="fill:#371a45;fill-opacity:1;fill-rule:nonzero;stroke:none" id="path516" d="m 15621.9,16099.3 c 44.1,-45.3 77.8,-84.8 114,-128 35.3,-42.5 69,-85.9 101.9,-129.8 65.7,-87.9 126.2,-179.1 182.1,-272.9 56.5,-93.4 107.1,-190.6 151.7,-290.1 46.2,-98.9 81.7,-202.8 114.1,-306.6 14.3,-45.6 -11,-94.1 -56.5,-108.3 -41.7,-13 -85.8,7 -103.9,45.3 l -1.9,4 c -43.1,90.7 -87.8,180.1 -142.6,264.2 -53,84.9 -111.1,166.6 -174.1,244.4 -62.6,77.9 -128.9,153 -199,223.8 -35.1,35.4 -70.7,70 -107.1,103.3 -35.7,32.6 -75.4,67.2 -108.3,92.5 -75.9,58.2 -90.2,167 -31.9,242.9 58.2,75.9 167,90.1 242.8,31.9 6.4,-4.9 13.2,-11 18.7,-16.6"/></g></g></g></svg>