<?xml version="1.0" encoding="utf-8"?>
<!-- Generator: Adobe Illustrator 22.1.0, SVG Export Plug-In . SVG Version: 6.00 Build 0)  -->
<svg version="1.1" id="Layer_1" xmlns="http://www.w3.org/2000/svg" xmlns:xlink="http://www.w3.org/1999/xlink" x="0px" y="0px"
	 viewBox="0 0 4000 4000" style="enable-background:new 0 0 4000 4000;" xml:space="preserve">
<style type="text/css">
	.st0{fill:#FFFFFF;}
	.st1{fill:#371A45;}
	.st2{opacity:0.35;}
	.st3{fill:#FFA726;}
	.st4{opacity:0.4;}
	.st5{opacity:0.3;}
	.st6{fill:#293856;}
	.st7{fill:#111A28;}
	.st8{opacity:0.7;}
</style>
<g>
	<g>
		<g>
			<g>
				<path class="st0" d="M1853.9,1787.1c-6.9,117.2-45.8,239-174.3,256c-255.8,33.7-234.7-289.3-234.7-289.3s-61.6-13.8-88.3-61.4
					c-10.9-19.4-18.1-37.8-22.8-54.5c-13.1-45.9-7.2-78.2-7.2-78.2h509.5C1836.1,1559.7,1860.7,1671,1853.9,1787.1z"/>
			</g>
			<g>
				<path class="st1" d="M1643.4,2063.4c-53.9,0-98.9-16.6-134.1-49.6c-77.9-72.9-83.2-203.4-82.6-246.8
					c-22-7.6-63.5-26.5-85.6-65.8c-43.6-77.4-32.5-141.9-32-144.6c1.5-8.5,8.9-14.6,17.5-14.6h509.6c8.4,0,15.6,5.8,17.4,14
					c2.5,11.5,61.2,283.6-37.6,424.6c-32.1,45.8-77.1,72.8-134,80.3C1668.6,2062.5,1655.8,2063.4,1643.4,2063.4z M1343.1,1577.5
					c-0.2,20.6,3.5,60.8,29,106.2c22.5,39.9,76.2,52.6,76.8,52.7c8.5,2,14.4,9.8,13.9,18.5c-0.1,1.6-9.1,157.9,71,232.9
					c35.2,32.9,83.4,45.5,143.5,37.6c47.2-6.2,83-27.6,109.4-65.4c78-111.3,45.2-325.9,34.8-382.5H1343.1z"/>
			</g>
			<g>
				<path class="st0" d="M2555.6,1747.9c0.8-4.3,55.4-144,47.2-221.3c-7.1-67.4-113.7-228.4-258.1-275.9
					c-144.9-47.7-201.2,287.8-201.2,287.8L2555.6,1747.9z"/>
			</g>
			<g>
				<path class="st0" d="M2568.2,1711.4c-7,21.2-12.3,35.3-12.6,36.6l-412.1-209.5c0,0,10.4-61.8,33.7-128.7
					c31-88.8,84.9-186.4,167.5-159.2c144.4,47.5,250.9,208.6,258.1,276C2608.5,1580.2,2584,1663.6,2568.2,1711.4z"/>
			</g>
			<g class="st2">
				<path class="st1" d="M2568.2,1711.4c-7,21.2-12.3,35.3-12.6,36.6l-412.1-209.5c0,0,10.4-61.8,33.7-128.7
					c21.5-7.8,45.6-8.9,72.6-0.6c173.4,53.1,306,219,316.9,287.1C2567.5,1701.1,2568,1706.1,2568.2,1711.4z"/>
			</g>
			<g>
				<path class="st1" d="M2568.7,1774.6l-444.9-226.1l2.2-12.9c1.6-9.5,40.1-232.7,138.7-292.2c26.9-16.2,55.7-19.5,85.7-9.6
					c151.4,49.9,262.6,219.1,270.2,291c5.1,47.6-10.3,122.3-45.6,221.8c-0.9,2.6-1.6,4.6-2,5.7L2568.7,1774.6z M2573.1,1751.3
					l-0.1,0.3C2573.1,1751.4,2573.1,1751.3,2573.1,1751.3z M2163.4,1528.6l382.1,194.2c38-109.9,42.6-166.2,39.6-194.3
					c-6-56.9-105.2-214.6-245.9-260.9c-19.9-6.6-38.3-4.5-56.1,6.3C2217.3,1313.5,2176.7,1460.7,2163.4,1528.6z"/>
			</g>
			<g>
				<path class="st0" d="M2373.6,1539.8c1-40.7,21.1-128,65.3-123.5c44.2,4.4,133.4,67.8,107.6,187
					C2526.4,1695.8,2372.6,1580.5,2373.6,1539.8z"/>
			</g>
			<g class="st2">
				<path class="st1" d="M2549,1589.2c-0.7,4.6-1.5,9.3-2.5,14.1c-20,92.5-173.8-22.8-172.8-63.5c0.5-20.3,5.7-52.1,16.3-78.4
					C2405.5,1499.1,2487.7,1566.5,2549,1589.2z"/>
			</g>
			<g>
				<path class="st1" d="M2506.1,1656.2c-3.3,0-6.6-0.2-10.1-0.6c-57.3-6.8-141.2-76.3-140.2-116.2v0c0.8-34.5,13.8-99.5,45.2-127.2
					c11.7-10.4,25.4-15.1,39.7-13.6c27.3,2.7,67.6,23,96.1,62.2c20.7,28.4,42.2,76.9,27.2,146.3
					C2557,1638.7,2536.2,1656.2,2506.1,1656.2z M2391.4,1540.2c0.7,16,64.1,76.2,110.6,80.2c15.9,1.4,23.5-4.5,27-20.8
					c12.2-56.5-4.8-95.3-21.2-117.9c-23.4-32.1-55.1-46.1-70.8-47.7c-2.7-0.3-6.9-0.1-12.5,4.9
					C2404.3,1456.7,2392.1,1510,2391.4,1540.2z M2391.4,1540.2L2391.4,1540.2C2391.4,1540.2,2391.4,1540.2,2391.4,1540.2
					L2391.4,1540.2z"/>
			</g>
			<g>
				<path class="st1" d="M2464.5,1439.3c-2.4,11.1-4.5,22.7-6.2,34c-1.7,11.4-3.1,22.8-4,34.1c-0.8,11.3-1.2,22.6-0.3,33
					c0.4,5.2,1.2,10.2,2.4,14.3c1.1,4.1,3.3,7,3.5,6.6c7,7,7,18.2,0,25.2c-7,7-18.2,7-25.2,0c-3.8-4.3-6.5-9.1-8-13.2
					c-1.7-4.2-2.4-8.1-3-11.8c-1.1-7.4-1.1-14.2-0.9-20.7c0.6-13,2.6-25.2,5.1-37.1c2.4-11.9,5.4-23.6,8.7-35.1
					c3.3-11.6,6.8-22.8,10.9-34.3c1.6-4.7,6.7-7.1,11.4-5.5c4.3,1.5,6.7,6,5.8,10.3L2464.5,1439.3z"/>
			</g>
			<g>
				<path class="st0" d="M2898.6,1744.2c-3.3,13.5-10,24.9-18.6,33.6c-38.9,38.8-104.6,5.2-117.9-2.3c-1.6-0.8-2.4-1.4-2.4-1.4
					s-2.7,15.7-9.6,39.7c-8.6,29.6-23.8,71.9-48.5,112.9c-102.4,169.7-290.8,22.2-290.8,22.2l-553.6-57.5l-122.6-12.7
					c0,0-103.8-40.4-107.9-295.7c-2.5-161.4,342.8-159.4,505.2-146.6c317.3,25.1,413.9,309.4,444.1,271.9
					c23.4-29,29.1-129.4,60.3-161.7c28.2-29.3,108.7-18.3,186.7,47.1C2891.7,1651.4,2908,1706.2,2898.6,1744.2z"/>
			</g>
			<g class="st2">
				<path class="st1" d="M2898.6,1744.2c-3.3,13.5-10,24.9-18.6,33.6c-38.9,38.8-104.6,5.2-117.9-2.3c-2-47-14.2-95.6-0.4-96.8
					C2779.4,1677.2,2798.2,1801,2898.6,1744.2z"/>
			</g>
			<g class="st2">
				<path class="st1" d="M2750,1813.8c-8.6,29.6-23.8,71.9-48.5,112.9c-102.4,169.7-290.8,22.2-290.8,22.2l-553.6-57.5
					c50.7-126.2,142.6-282.5,272.9-273c217.1,15.7,283.6,198,447.5,301.5c99.4,62.8,170.3-115.5,170.3-115.5
					S2748.6,1807.7,2750,1813.8z"/>
			</g>
			<g>
				<path class="st1" d="M2568.2,2026.1c-76.5,0-146.4-47.1-164.2-60.1l-673.7-70l-2.2-0.9c-4.7-1.8-115-47.8-119.2-312
					c-0.5-34.5,12.5-64.4,38.7-89.1c101-94.9,373.4-84.4,485.7-75.5c226.1,17.9,342,160.7,404.3,237.4
					c10.3,12.6,21.5,26.5,28.9,33.7c6.4-13.2,12.1-36.1,17.2-56.7c9.6-38.3,19.4-77.8,39.7-98.9c39.1-40.7,131.8-20.5,211,45.9
					c67.2,56.3,82.9,106.5,84.3,138.7c1.2,28.1-8.1,53.5-26.2,71.6c-37.2,37.1-90.7,22.5-120.4,9.8c-7.4,29.7-23.8,83.4-55.3,135.6
					c-29.7,49.2-69.2,78.6-117.3,87.5C2589.1,2025.3,2578.6,2026.1,2568.2,2026.1z M1739.5,1861.2l678.2,70.5l4,3.2
					c0.9,0.7,89.2,68.6,171.5,53.4c37.6-6.9,68.9-30.8,93.1-70.8c42.3-70.1,55.6-145.6,55.8-146.4l4.4-25.9l22.4,13.7
					c0.9,0.5,65.6,39.1,98.5,6.3c10.9-10.9,16.5-26.8,15.7-44.8c-1.5-35.4-27-75.5-71.6-113c-71.7-60.1-142.9-68.7-162.4-48.5
					c-13.7,14.2-22.8,50.6-30.8,82.8c-8.2,33-15.4,61.5-28.5,77.8c-5.2,6.5-12.4,10-20.2,10c0,0,0,0,0,0c-18.2,0-32.1-17.1-59.6-51
					c-58.9-72.6-168.6-207.6-379.5-224.3c-173.1-13.7-384.4-3.6-458.5,66c-18.9,17.7-27.8,38.1-27.5,62.5
					C1647.9,1801.5,1726.7,1854.1,1739.5,1861.2z"/>
			</g>
			<g>
				<path class="st1" d="M2770.5,1678c1.4,8.2,2.5,16.2,3.5,24.3c1,8.1,1.8,16.2,2.4,24.4c1.2,16.4,1.8,32.9,0.9,50l0,0.1
					c-0.5,9.9-9,17.5-18.8,16.9c-9.9-0.5-17.5-8.9-16.9-18.8c0.1-1.1,0.2-2.3,0.5-3.3c3.5-14.5,6-29.8,7.7-45.3
					c0.8-7.7,1.5-15.6,2.1-23.4c0.5-7.8,0.9-15.8,1-23.4l0-0.2c0.1-4.9,4.2-8.9,9.1-8.7C2766.2,1670.6,2769.8,1673.8,2770.5,1678z"
					/>
			</g>
			<g>
				<path class="st1" d="M2560.6,1683.5c5.8,7.2,11,14.1,16.2,21.3c5.2,7.2,10.2,14.4,15.1,21.8c9.6,14.8,18.7,30.2,25.8,46.9
					c1.9,4.5-0.2,9.8-4.8,11.7c-4.1,1.7-8.7,0.2-11-3.4l-0.1-0.2c-8.8-13.7-19.6-26.4-31-38.6c-5.7-6.1-11.6-12.1-17.6-17.9
					c-6-5.8-12.2-11.6-18.2-16.8c-7.5-6.5-8.3-17.8-1.8-25.2c6.5-7.5,17.8-8.3,25.2-1.8C2559.2,1681.9,2560,1682.7,2560.6,1683.5z"
					/>
			</g>
			<g>
				<path class="st0" d="M2484.3,1720.3c-22.4,64.2-68.4,125.8-147.5,151.9l-83.6-54.1c0,0,73.8-40.5,109-114.4
					c4.4-9.2,8.2-18.1,11.4-26.7c34.3-90.3,11.8-147.6,11.8-147.6s50.6-40.5,93.2,3.9C2503.9,1559.6,2511.6,1642,2484.3,1720.3z"/>
			</g>
			<g class="st2">
				<path class="st1" d="M2484.3,1720.3c-22.4,64.2-68.4,125.8-147.5,151.9l-83.6-54.1c0,0,73.8-40.5,109-114.4
					c4.4-9.2,8.2-18.1,11.4-26.7c13.1,18.9,30.9,37.2,53,42.7C2447.8,1725,2467.3,1724.1,2484.3,1720.3z"/>
			</g>
			<g>
				<path class="st1" d="M2336.8,1890c-7.5,0-14.4-4.8-16.9-12.2c-3.1-9.3,2-19.4,11.3-22.5c97.1-32,131.8-117.9,143.8-166.3
					c17.2-69.3,5.6-127.8-9.3-143.4c-21.8-22.7-46.3-15.3-59.6-8.4c6,27,12.3,90-27.8,174.2c-37.2,78.2-113.3,120.6-116.5,122.4
					c-8.6,4.7-19.5,1.6-24.2-7c-4.7-8.6-1.6-19.4,7-24.2c1.1-0.6,69.4-39.2,101.5-106.5c45.9-96.3,22.9-159.7,22.6-160.3l-4.6-12.1
					l10.1-8.2c21.9-17.5,74.6-38.9,117.2,5.5c28.6,29.8,36.3,104.1,18.2,176.7c-23.5,94.4-84.4,164.2-167.2,191.5
					C2340.5,1889.7,2338.7,1890,2336.8,1890z"/>
			</g>
			<g>
				<g>
					<path class="st3" d="M2361.4,3226.4c-382.3,212.4-864.3,74.7-1076.7-307.6c-36.8-66.3-63.1-135.5-79.4-205.8
						c-7.1-30.6-12.3-61.4-15.7-92.2c-33.7-307.3,115.5-619.1,402.7-778.6c134.9-74.9,282.1-106.3,425.6-98.7
						c263.2,13.9,513.6,158.8,651.1,406.2c43.3,77.9,72,159.9,87.1,242.9C2815.1,2717.1,2665.8,3057.2,2361.4,3226.4z"/>
				</g>
				<g class="st2">
					<path class="st1" d="M2361.4,3226.4c-382.3,212.4-864.3,74.7-1076.7-307.6c-36.8-66.3-63.1-135.5-79.4-205.8
						c-4.2-17.9-7.7-36-10.6-54.1c149.7,184.8,365.2,296.4,592.7,319.5l-3.6-3.8c-6.1-24.6-5.5-50.6,3.2-75.4
						c25.2-72.5,84.1-122.5,198.3-82.7c65.1,22.7,107.8,78.9,111,138c69.8-18.2,138.5-45.5,204.5-82.2c3.5-1.9,6.9-3.9,10.3-5.9
						c-11.6-45.9,1.1-100.9,37.9-144.9c52.4-62.7,135.3-81.1,191.9-45.1c95-110.9,159.7-243,190.4-383.1
						c10.5,32.8,18.7,65.9,24.8,99.1C2815.1,2717.1,2665.8,3057.2,2361.4,3226.4z"/>
				</g>
				<g class="st4">
					<path class="st0" d="M2776.5,2394.5c-16-49.6-37-98.4-63.2-145.6c-155.3-279.4-451.9-430.6-751-413.8l0,0.1
						c11.5,45.7-36.8,97.2-107.7,115.1c-71,17.8-137.9-4.8-149.3-50.5c-0.5-2.1-1-4.3-1.2-6.5c-29.8,12.1-59.1,26.1-87.9,42.2
						c-310.6,172.6-462.7,519.8-401.9,850.8c-115.5-359.1,34.3-761.4,376.6-951.6c389.5-216.4,880.7-76.2,1097.2,313.4
						C2731.8,2227.1,2761.1,2310.3,2776.5,2394.5z"/>
				</g>
				<g>
					<path class="st1" d="M1982.1,3344c-74.7,0-149.9-10.4-223.8-31.5c-208.2-59.5-380.7-196.4-485.9-385.6
						c-217.1-390.6-75.9-885,314.8-1102.1c390.6-217.1,885-75.9,1102.1,314.8c105.2,189.2,130.3,408.1,70.9,616.2
						c-59.4,208.2-196.4,380.7-385.6,485.9C2252.5,3309.5,2118,3344,1982.1,3344z M1979.6,1760.2c-127,0-255.6,31.3-374.2,97.2
						c-372.6,207.1-507.4,678.7-300.3,1051.4c100.3,180.5,264.9,311.2,463.5,367.9c198.6,56.7,407.3,32.7,587.9-67.6
						c180.5-100.3,311.2-264.9,367.9-463.5c56.7-198.6,32.7-407.4-67.6-587.9C2515.6,1903.6,2251.5,1760.2,1979.6,1760.2z"/>
				</g>
				<g>
					<path class="st1" d="M2093.8,2904c3.9,7.8,7.2,16,9.7,24.6c2.4,8.6,4,17.4,4.7,26.4c0.7,9,0.4,18.1-0.8,27.1
						c-1.2,8.8-2.8,17.4-5.1,26.1c-4.6,17.2-11.8,34.2-22.4,49.6c-10.7,15.3-25,28.6-41.5,38.1c-16.5,9.5-34.9,15.1-53.1,17.5
						c-18.2,2.6-36.4,2.3-54.1,0.7c-8.9-1.1-17.4-2.3-26.3-4.1c-9-1.7-17.8-4.3-26.5-7.3c-8.7-3-17.1-6.7-25.3-11
						c-8.2-4.3-16.1-9.1-23.4-14.7c-14.8-11.1-28.1-24.3-38.9-39.5c-10.8-15.1-19.3-32.2-24-50.4c-10-36.3-5.3-76.6,13.4-108.9
						c18.2-32.7,48.9-56.3,82.4-68.4c33.6-12.1,70.3-13.3,103.5-4.2c3,0.8,4.7,3.9,3.9,6.9c-0.7,2.7-3.3,4.4-6,4.1
						c-32.2-3.4-64.5,1.4-92.5,14.8c-28,13.1-51.2,34.9-64.1,61.3c-12.8,26.4-15.4,57.2-6.6,84.8c8.5,27.7,26.9,52.5,51,69.7
						c12.1,8.5,25.1,15.8,39.2,20.8c7,2.5,14.2,4.6,21.5,6.1c7.4,1.6,15.4,2.8,23,3.8c15.4,1.9,30.7,2.6,45.5,1
						c14.8-1.5,28.9-5.5,41.7-11.8c25.6-12.7,44.3-37.4,54.6-66.6c2.6-7.3,4.9-14.9,6.7-22.4c1.8-7.4,2.8-14.9,3.2-22.6
						c0.8-15.3-1.4-31-6-46.1l0-0.1c-1.1-3.6,0.9-7.5,4.6-8.6C2088.9,2899.4,2092.3,2901,2093.8,2904z"/>
				</g>
				<g class="st4">
					<path class="st0" d="M2167.5,2490.5c-38,18.7-81,15.8-115.1-4c19.2,6.3,40.3,7.5,61.4,2.2c59.1-14.9,95-74.8,80.1-134
						c-14.8-59.1-74.8-95-133.9-80.1c-3.5,0.9-6.8,1.9-10.1,3.1c3.3-2,6.6-3.9,10.1-5.6c60.3-29.7,133.3-4.9,163,55.4
						C2252.6,2387.9,2227.8,2460.8,2167.5,2490.5z"/>
				</g>
				<g class="st2">
					
						<ellipse transform="matrix(0.7071 -0.7071 0.7071 0.7071 -1347.4297 1844.3672)" class="st1" cx="1552.6" cy="2548.7" rx="166.5" ry="166.5"/>
				</g>
				<g class="st4">
					<path class="st0" d="M1783.9,2482.6c36.8,106.2-19.5,222.2-125.8,259c-106.3,36.8-222.2-19.5-259-125.8
						c-0.7-2.1-1.4-4.2-2.1-6.3c35,77.8,124.2,117.3,206.3,88.9c86.9-30.1,133-124.9,102.9-211.8c-30.1-86.9-124.9-133-211.8-102.9
						c-23.7,8.2-44.3,21.2-61.3,37.6c23.1-28.7,54.3-51.5,91.8-64.5C1631.2,2320,1747.2,2376.3,1783.9,2482.6z"/>
				</g>
				<g>
					<path class="st1" d="M1426,2419.4c26.2-29.8,63.9-50.1,104.3-56.3c40.4-6.7,83.3,1.4,119.5,21.7c18.1,10.3,34.4,23.7,48.3,39.4
						l5.1,6l2.5,3l2.3,3.2c3,4.3,6.1,8.5,8.9,12.9l7.7,13.7c2.5,4.6,4.4,9.5,6.5,14.3c7.6,19.5,12.7,40.1,13.8,61.2
						c1,21-1.1,42.2-7,62.4c-5.6,20.3-15,39.4-27,56.6c-12,17.2-26.7,32.5-43.7,44.8c-17,12.3-36.1,21.5-55.9,27.6
						c-5,1.3-9.9,3.1-15,4.1l-15.3,2.7c-10.3,0.9-20.7,1.9-31,1.2c-20.6-0.9-41.2-4.7-60.3-12.4c-19-7.7-36.7-18.2-52.2-31.4
						c-31.2-26.1-51.8-63.2-59.1-101.7c-0.6-3,1.4-5.9,4.4-6.5c2.8-0.5,5.4,1.1,6.3,3.7l0,0.1c12,34.8,33.4,65.8,62.7,86.2
						c14.4,10.3,30.3,18.5,47,23.8c16.8,5.2,34.2,7.7,51.5,7.5c8.7,0.2,17.3-1.2,25.8-2.4l12.6-2.9c4.2-0.9,8.2-2.6,12.3-3.8
						c16.2-5.7,31.6-13.7,45.1-24.1c26.6-21.2,47.4-50.3,56-83.3c4.3-16.4,6.5-33.4,5.7-50.3c-0.8-17-4.8-33.8-10.8-49.6
						c-11.7-32.1-35.3-59.1-64.1-77.8c-14.6-9.2-30.8-15.8-47.6-20c-16.8-4.2-34.5-6-52-4.3c-35.3,2.2-69.8,16.8-97.7,40.3
						c-2.9,2.5-7.3,2.1-9.8-0.8C1423.7,2425.8,1423.8,2421.9,1426,2419.4z"/>
				</g>
				<g>
					<path class="st1" d="M2501.7,2655.8c8.3,0.9,16.6,2.4,24.8,4.9c8.1,2.6,16,6,23.6,10.2c15.1,8.5,28.3,20.6,38.6,34.9
						c10.2,14.4,17.2,31,21.1,48.2c3.8,17.3,4.2,35.1,1.9,52.4c-2.2,17.4-7.2,34.3-14.4,50.2c-7.4,15.8-16.6,30.6-27.5,44.1
						c-11.4,13.1-24,25.1-38.1,35.3c-14.3,10-29.7,18.5-46.2,24.5c-16.5,5.9-34,9.4-51.8,10.3c-17.7,0.8-35.9-1-53.1-7
						c-17.2-5.8-33.3-15-46.8-27.1c-13.5-12.1-24.4-27.1-31.4-43.6c-14.3-33.1-13.9-70-3.8-102.3c5.3-16.1,12.5-31.4,21.7-45.3
						c9.4-13.8,20.6-26,32.8-36.8c2.3-2,5.8-1.8,7.9,0.5c1.8,2.1,1.8,5.1,0.1,7.2l-0.1,0.2c-9.8,12-18.3,24.7-25.3,38
						c-6.5,13.6-11.7,27.6-14.7,42.1c-6.1,28.8-3.1,58.8,9.1,83.4c12.6,24.5,35,42.6,61,50.2c26.1,7.6,55.2,5.2,81.5-4.5
						c13.1-5.2,25.8-11.7,37.5-19.8c11.6-8.3,22.1-18.1,31.6-28.8c9.2-10.9,17.3-22.7,23.8-35.5c6.3-12.8,10.7-26.4,13.5-40.3
						c0.5-3.5,1.4-7,1.6-10.5l0.8-10.5l-0.2-10.5c0-3.5-0.8-6.9-1.1-10.4c-1.9-13.9-6.3-27.3-13.4-39.5
						c-13.6-24.8-38.6-42.8-67.6-50.7l-0.1,0c-3.7-1-5.9-4.8-4.9-8.5C2495.2,2657.5,2498.4,2655.4,2501.7,2655.8z"/>
				</g>
				<g class="st2">
					
						<ellipse transform="matrix(0.7071 -0.7071 0.7071 0.7071 -1072.8467 2173.2051)" class="st1" cx="2086.9" cy="2381.6" rx="110.4" ry="110.4"/>
				</g>
				<g>
					<path class="st1" d="M1992.9,2450.3c-16.1-19.4-24.9-45.4-24.3-71.7c0.1-13.2,2.9-26.4,7.5-38.9c4.8-12.5,11.6-24.3,20.3-34.7
						c17.4-20.6,42.1-35.7,69.2-40.8c13.5-2.5,27.3-3.2,41-1.3c13.6,2,27,6.1,39.2,12.5c24.6,12.4,44.3,33.6,55.8,58.4
						c5.7,12.5,9,25.9,10.3,39.3c1.4,13.5,0.1,27.1-3.2,40.1c-3.3,13-8.5,25.5-15.9,36.5c-7.5,10.9-16.5,20.7-26.9,28.5
						c-20.7,15.9-46.7,23.5-71.5,22.3c-3.1-0.2-5.5-2.8-5.3-5.8c0.1-2.6,2.1-4.8,4.5-5.2l0.2,0c22-4.1,42.2-13.8,56.9-28.9
						c7.4-7.4,13.7-15.8,18.4-24.9c4.6-9.2,7.9-18.9,9.5-28.8c1-4.9,1-10,1.3-15l-0.4-7.5c-0.1-2.5-0.6-4.9-0.9-7.4
						c-1.6-9.8-4.5-19.3-8.9-28c-9.1-17.3-23.3-32-40.8-40.5c-8.7-4.2-18-7.3-27.6-8.8c-9.6-1.4-19.5-1.2-29.1,0.4
						c-19.3,2.9-37.2,12.9-51.4,26.8c-7,7.1-12.7,15.5-17.2,24.5c-4.5,9-7.9,18.8-9.1,29.1c-3.4,20.5,0.3,42.4,10,62.2l0,0.1
						c1.7,3.4,0.3,7.6-3.2,9.3C1998.4,2453.5,1994.9,2452.7,1992.9,2450.3z"/>
				</g>
				<g class="st5">
					<path class="st0" d="M2580.3,2312.8c-14.9,17.9-37.1,20.8-58.6,10.6c11,2.3,21.9,0.7,31.3-5.6c26.3-17.6,30.8-65,10-105.9
						c-20.7-40.8-58.9-59.7-85.2-42.1c-1.5,1-3,2.2-4.4,3.4c1.2-1.8,2.4-3.5,3.8-5.2c23.6-28.4,65.8-19.1,94.2,20.9
						C2599.9,2228.9,2603.9,2284.4,2580.3,2312.8z"/>
					<path class="st1" d="M2546.1,2331.4c-8.1,0-16.7-2-25.3-6.1l-15.5-7.4l16.9,3.5c10.9,2.3,21.1,0.5,29.7-5.3
						c25.4-17,29.6-63.3,9.4-103.2c-12.1-23.8-30.9-41-50.2-46.1c-11.7-3.1-22.8-1.4-32,4.7c-1.4,1-2.8,2-4.2,3.2l-11.2,10l8.1-12.6
						c1.2-1.9,2.5-3.6,3.9-5.4c9.8-11.8,22.7-17.7,37.7-17.2c21.3,0.8,43.1,14.7,59.8,38.2c28.9,40.6,32.9,97.4,8.8,126.4
						C2572.5,2325.5,2559.9,2331.4,2546.1,2331.4z M2536,2326.2c16.5,3.5,31.9-1.6,42.7-14.6l0,0c23-27.7,19-82.2-9-121.4
						c-16-22.4-36.6-35.7-56.6-36.5c-11.4-0.4-21.4,3.3-29.6,10.7c8.7-3.7,18.4-4.2,28.5-1.6c20.5,5.3,40.2,23.4,52.9,48.2
						c21.2,41.7,16.4,90.4-10.7,108.5C2548.6,2323.2,2542.5,2325.4,2536,2326.2z"/>
				</g>
				<g class="st2">
					
						<ellipse transform="matrix(0.9338 -0.3579 0.3579 0.9338 -636.4501 1048.9113)" class="st1" cx="2515.4" cy="2243.8" rx="56.6" ry="83.5"/>
				</g>
				<g class="st4">
					<path class="st0" d="M2583.9,2313.9c-11.5,7.7-25.1,9.1-38.8,5.3c0.7-0.4,1.5-0.9,2.2-1.3c26.3-17.6,30.8-65,10-105.8
						c-17.4-34.3-47-53-71.6-47.8c3.8-6.1,8.7-11.3,14.4-15.1c29.3-19.6,71.8,1.4,95,46.9
						C2618.2,2241.4,2613.2,2294.2,2583.9,2313.9z"/>
				</g>
				<g>
					<path class="st1" d="M2480.5,2305.3c-12.7-10.6-22.3-24.8-28.9-40.3c-6.6-15.6-10.1-33-8.6-51.1c0.7-9.1,2.7-18.4,6.8-27.4
						c4.1-9,10.4-17.9,19.4-24.6c9-6.7,20.3-10.6,31.4-10.9c11.1-0.3,21.6,2.4,30.5,6.7c17.9,8.7,30.8,22.3,40.3,37.2
						c9.6,14.9,15.4,31.5,18.1,48.6c2.5,17.1,1.4,35-4.9,51.6c-3.3,8.2-7.9,16.2-14.6,22.6c-6.5,6.4-15,11-23.8,12.3
						c-3.1,0.4-5.9-1.7-6.4-4.8c-0.3-2.4,0.8-4.6,2.8-5.7l0.3-0.1c11.6-6.5,17.5-18.2,19.4-30.9c1-6.3,1.2-12.9,0.7-19.4
						c-0.6-6.5-1.9-13-3.7-19.4c-3.7-12.7-9.6-24.8-17.1-35.1c-7.5-10.3-17-18.8-26.7-23.2c-9.9-4.5-18.2-4.2-24.8,0.2
						c-6.8,4.3-12.7,14.5-14.9,26.6c-2.5,12.1-2,25.6,0.7,39c2.4,13.5,7.6,26.6,14.6,39.2l0.1,0.2c1.9,3.4,0.7,7.6-2.7,9.5
						C2485.8,2307.5,2482.7,2307.1,2480.5,2305.3z"/>
				</g>
				<g class="st4">
					<path class="st0" d="M2088.5,2073.1c-29.2,14.4-62.3,12.1-88.5-3.1c14.7,4.9,31,5.8,47.2,1.7c45.5-11.4,73-57.5,61.6-103
						c-11.4-45.4-57.5-73-103-61.6c-2.7,0.7-5.3,1.5-7.8,2.4c2.5-1.5,5.1-3,7.8-4.3c46.4-22.8,102.5-3.8,125.3,42.6
						C2153.9,1994.2,2134.8,2050.3,2088.5,2073.1z"/>
				</g>
				<g class="st2">
					
						<ellipse transform="matrix(0.7071 -0.7071 0.7071 0.7071 -813.1523 2015.6162)" class="st1" cx="2026.5" cy="1989.4" rx="84.9" ry="84.9"/>
				</g>
				<g>
					<path class="st1" d="M1952.9,2043c-13.2-14.8-20.4-35.4-20.4-56.2c0-21,7.7-42.3,21.5-59c13.8-16.6,33.6-28.8,55.3-33
						c10.8-2,21.9-2.7,32.9-1.1c10.9,1.6,21.7,4.9,31.5,10c19.8,10,35.6,27,44.7,47c4.5,10,7.1,20.8,8.1,31.6
						c1.1,10.8,0,21.7-2.7,32.1c-2.8,10.3-7.1,20.3-13.1,28.9c-6,8.6-13.3,16.3-21.7,22.4c-16.6,12.3-37.3,18-56.6,16.4
						c-3.1-0.2-5.4-2.9-5.1-6c0.2-2.6,2.1-4.6,4.5-5.1l0.1,0c33.5-6.7,58.2-33.6,61.7-63c2.3-14.5-0.7-29.4-7-42
						c-6.7-12.4-17-22.9-29.7-29.1c-6.3-3-13-5.2-19.9-6.3c-6.9-1-14-0.9-21,0.2c-14,2-27,9-37.4,19c-5.1,5.1-9.5,11.1-12.9,17.6
						c-3.5,6.5-6.1,13.7-7.2,21.2c-3,15.1-0.7,31.4,6,46.7l0.1,0.1c1.5,3.5-0.1,7.6-3.6,9.2C1958.1,2046,1954.9,2045.2,1952.9,2043z
						"/>
				</g>
				<g>
					<g>
						<path class="st3" d="M1583.2,2002.2c-3.8-22.2,24.3-60,67.9-76.5s82-4.4,90,16.7"/>
					</g>
					<g>
						<path class="st1" d="M1576.9,2003.3c-1.9-5.4-2.1-11-1.6-16.2c0.5-5.3,2-10.2,3.8-15c3.6-9.4,9-17.8,15.1-25.4
							c12.5-15,28.6-26.7,46.6-34.4c17.9-7.6,38-11.3,58.2-8.5c10,1.5,20.1,4.5,29.1,10.2c4.5,2.9,8.8,6.4,12.3,10.7
							c1.7,2.2,3.3,4.6,4.6,7.1c1.2,2.6,2.2,5.3,2.7,8.1c0.7,3.9-1.9,7.6-5.8,8.2c-2.6,0.4-5-0.5-6.6-2.4l-0.8-0.9
							c-4.2-4.9-10-7.9-16.7-9.8c-6.6-1.8-13.8-2.6-21.1-2.4c-14.6,0.3-29.4,3.9-43.5,9.6c-14,5.7-27.3,13.8-39,23.7
							c-5.8,5-11.2,10.4-15.7,16.4c-4.5,5.9-8.1,12.3-9.2,18.7l-0.2,1.1c-0.6,3.5-4,5.9-7.5,5.3
							C1579.5,2007,1577.6,2005.4,1576.9,2003.3z"/>
					</g>
				</g>
				<g class="st2">
					
						<ellipse transform="matrix(0.9098 -0.4151 0.4151 0.9098 -669.3851 868.0743)" class="st1" cx="1662" cy="1973.7" rx="91.7" ry="44.8"/>
				</g>
			</g>
			<g class="st5">
				<path class="st6" d="M1403.5,2171.2c3.3-4.6,6.7-9.1,10.2-13.6C1410.3,2162.1,1406.9,2166.6,1403.5,2171.2z"/>
			</g>
			<g>
				<g class="st2">
					<path class="st1" d="M2241.1,1772.2c-7.6,24.3-17.8,48.9-31.2,72.4c-7.8,13.7-16.7,27-26.9,39.7c-9.4,11.8-20,23-31.8,33.4
						c-25.6,22.8-58.1,35.1-91.9,40.6c-76.8,12.7-160.2-9.9-184.1-25.1c-31.2-19.8-65.5-49.2-70.8-125.3c-0.3-3.6-0.4-7.2-0.6-11
						c-16.1,2.4-32.3,4-48.6,4.9c-10.5,0.6-20.9,0.9-31.5,0.9c-28.8-0.1-57.8-2.4-86.6-7.2c-23.9-3.9-47.8-9.4-71.4-16.7
						c-27.4-8.3-54.5-19-81.1-32c-8.8-4.4-17.4-8.8-25.8-13.5c-17.3-9.6-33.9-20.1-49.8-31.3c-27.3-19.2-52.4-40.7-75.2-64
						c-13.1-45.9-7.2-78.2-7.2-78.2h509.5c0,0,18,81.3,18.9,177.3c2.5-0.4,5-0.8,7.6-1.2c7.5-1.1,14.9-2.1,22.4-2.9
						c3.1-0.4,6.1-0.7,9.2-1h0c3.4-0.4,6.9-0.7,10.3-1c0,0,0,0,0,0c3.4-0.3,6.8-0.6,10.2-0.9h0.3c3.4-0.3,6.9-0.5,10.3-0.8
						c6.9-0.4,13.9-0.8,20.8-1.1c3.4-0.1,6.9-0.3,10.3-0.4c0,0,0,0,0,0c3.4-0.1,6.9-0.1,10.3-0.2c3.5,0,6.9-0.1,10.4-0.1
						c3.6,0,7.1,0,10.6,0.1c2,0,4,0,6,0.1h0.1c2.1,0,4.2,0.1,6.3,0.1c3.4,0.1,6.8,0.3,10.2,0.4c2,0,4.1,0.1,6.1,0.3h0.2
						c2.9,0.1,5.7,0.3,8.6,0.5c3.8,0.2,7.5,0.4,11.3,0.8c0.4,0,0.7,0,1,0.1c3.7,0.3,7.5,0.6,11.3,0.9c2.1,0.2,4.2,0.4,6.3,0.6
						c5.5,0.5,11,1.1,16.4,1.8c0,0,0,0,0,0c3.4,0.4,6.9,0.8,10.3,1.3c0,0,0,0,0,0c2,0.3,4,0.5,5.9,0.8c0.2,0,0.4,0.1,0.7,0.1
						c2.6,0.4,5.2,0.8,7.8,1.2c4.3,0.6,8.6,1.3,12.9,2c1.2,0.2,2.5,0.4,3.7,0.6c0.7,0.1,1.4,0.2,2.1,0.4c6.1,1.1,12.3,2.2,18.4,3.5
						c6.9,1.3,13.7,2.8,20.4,4.3c3.4,0.8,6.8,1.6,10.2,2.4c3.4,0.8,6.7,1.6,10.1,2.5h0c3.3,0.8,6.7,1.7,10.1,2.6
						c3.3,0.9,6.7,1.8,10,2.8h0c3.3,0.9,6.6,1.9,10,2.9h0c3.3,1,6.6,2,9.9,3h0c6.6,2,13.2,4.2,19.8,6.4c0,0,0,0,0,0
						C2236.6,1770.7,2238.8,1771.4,2241.1,1772.2z"/>
				</g>
				<g>
					<path class="st0" d="M1212.7,1436.7c39.3,82.5,99.5,155.6,177.4,210.6c15.9,11.2,32.5,21.7,49.8,31.3
						c8.4,4.7,17.1,9.2,25.8,13.6c26.6,13,53.6,23.6,81.1,32c23.6,7.3,47.5,12.8,71.4,16.7c28.9,4.8,57.9,7.1,86.7,7.1
						c10.5,0,21-0.3,31.4-0.9c191.1-10.7,371-121.6,461.1-305.8c132.8-271.3,20.5-598.9-250.8-731.7c-52.3-25.5-106.6-42.1-161.3-50
						c-6.4-1-12.8-1.8-19.3-2.5c-17.2-1.9-34.4-3-51.6-3.2c-39.7-0.6-79.1,3.2-117.5,11.1c-38.4,7.8-75.9,19.8-111.7,35.6
						c-11.4,5-22.6,10.4-33.7,16.2c-16.6,8.7-32.7,18.2-48.4,28.7c-78.2,51.9-144.1,124.6-188.3,215
						C1138.6,1116.5,1143.3,1291.1,1212.7,1436.7z"/>
					<path class="st1" d="M1704.9,1749.7c-29.2-0.1-58.5-2.5-87-7.2c-24.3-4-48.4-9.6-71.6-16.8c-27.7-8.4-55.1-19.2-81.3-32.1
						c-9.7-4.8-18.1-9.2-25.9-13.6c-17-9.5-33.8-20-49.9-31.4c-76.2-53.8-137.8-126.8-178-211.3c-72.6-152.3-71.8-326.5,2.3-477.8
						c42.8-87.5,108.1-162.1,188.9-215.7c15.3-10.2,31.6-19.9,48.5-28.8c10.9-5.7,22.2-11.2,33.8-16.3
						c35.9-15.9,73.6-27.9,112.1-35.7c38.8-8,78.5-11.7,117.9-11.1c17.2,0.3,34.6,1.4,51.7,3.3c6.7,0.7,13.2,1.5,19.3,2.5
						c55.8,8.1,110.2,25,161.8,50.2c271.7,133,384.6,462.3,251.6,734.1c-87.1,178.1-264.4,295.6-462.6,306.8
						C1725.9,1749.4,1715.3,1749.7,1704.9,1749.7z M1706.7,655.6c-36.6,0-73.3,3.7-109.3,11.1c-38.2,7.8-75.7,19.7-111.4,35.5
						c-11.5,5.1-22.8,10.5-33.5,16.2c-16.8,8.9-33.1,18.5-48.2,28.6c-80.2,53.2-145.1,127.3-187.7,214.3
						c-73.6,150.3-74.4,323.4-2.3,474.7c40,83.9,101.1,156.5,176.8,209.9c16,11.3,32.7,21.8,49.6,31.2c7.7,4.3,16.2,8.8,25.8,13.5
						c26.1,12.8,53.3,23.5,80.8,31.9c23,7.1,47,12.7,71.2,16.7c28.3,4.7,57.4,7.1,86.4,7.1c10.4,0,21-0.3,31.3-0.9
						c196.9-11.1,373.1-127.9,459.6-304.8c132.1-270,20-597.1-250-729.3c-51.2-25-105.3-41.8-160.8-49.9c-6-0.9-12.5-1.8-19.2-2.5
						c-17.1-1.9-34.4-3-51.4-3.2C1711.9,655.6,1709.3,655.6,1706.7,655.6z"/>
				</g>
				<g class="st2">
					<path class="st1" d="M1212.7,1436.6c39.3,82.5,99.5,155.6,177.4,210.6c15.9,11.2,32.5,21.7,49.8,31.3
						c8.4,4.7,17.1,9.2,25.8,13.6c26.6,13,53.6,23.6,81.1,32c23.6,7.3,47.5,12.8,71.4,16.7c28.9,4.8,57.9,7.1,86.7,7.1
						c10.5,0,21-0.3,31.4-0.9c191.1-10.7,371-121.6,461.1-305.8c48.1-98.3,64.1-204.1,51.9-305.3c-9.2,42.2-23.5,84-43.4,124.6
						c-33.8,69.1-88.5,94.4-143.4,141.4c-91.5,78.4-198.2,157.7-317.7,164.4c-10.4,0.6-20.9,0.9-31.4,0.9
						c-28.8-0.1-57.8-2.4-86.7-7.1c-23.9-3.9-47.8-9.5-71.4-16.7c-27.4-8.4-54.5-19-81.1-32c-8.8-4.4-17.4-8.9-25.8-13.6
						c-17.3-9.6-33.9-20.1-49.8-31.3c-78-55-138.1-128.1-177.4-210.6c-25.6-53.8-42.5-111.7-49.6-171.1
						C1145.4,1205.2,1161.3,1328.9,1212.7,1436.6z"/>
				</g>
				<g>
					<path class="st1" d="M1704.9,1760c-29.8-0.1-59.6-2.5-88.6-7.3c-24.8-4.1-49.4-9.8-73-17.1c-28.2-8.6-56.1-19.6-82.8-32.7
						c-9.9-4.9-18.5-9.4-26.4-13.9c-17.3-9.6-34.4-20.4-50.8-32c-77.6-54.8-140.4-129.2-181.4-215.3c-74-155.2-73.1-332.6,2.3-486.8
						c43.6-89.2,110.2-165.2,192.5-219.7c15.5-10.4,32.2-20.2,49.4-29.3c11.1-5.8,22.7-11.4,34.4-16.6c36.6-16.1,75-28.4,114.2-36.4
						c39.5-8.1,79.9-11.9,120.1-11.3c17.5,0.3,35.2,1.4,52.7,3.3c6.8,0.7,13.5,1.6,19.8,2.5c56.8,8.2,112.2,25.4,164.8,51.1
						c276.9,135.5,391.8,471,256.3,747.9c-88.8,181.4-269.4,301.2-471.3,312.6C1726.3,1759.7,1715.5,1760,1704.9,1760z
						 M1706.7,665.9c-35.9,0-71.9,3.7-107.2,10.9c-37.5,7.6-74.3,19.4-109.3,34.8c-11.3,5-22.3,10.3-32.9,15.9
						c-16.5,8.7-32.4,18.1-47.3,28.1c-78.7,52.2-142.4,124.9-184.1,210.2c-72.2,147.5-73,317.2-2.2,465.7l0,0
						c39.2,82.3,99.2,153.5,173.5,205.9c15.7,11.1,32.1,21.4,48.7,30.6c7.6,4.3,15.9,8.6,25.3,13.3c25.5,12.5,52.2,23,79.2,31.3
						c22.6,7,46.1,12.4,69.8,16.3c27.8,4.6,56.3,6.9,84.7,7c10.2,0,20.6-0.3,30.7-0.8c193.2-10.9,366-125.5,450.9-299
						c129.6-264.9,19.6-585.8-245.2-715.5c-50.3-24.6-103.3-41-157.7-48.9c-6-0.9-12.2-1.7-18.8-2.4c-16.8-1.9-33.8-2.9-50.5-3.2
						C1711.8,665.9,1709.2,665.9,1706.7,665.9z"/>
				</g>
				<g>
					<path class="st1" d="M1704.9,1765.8c-30.1-0.1-60.3-2.6-89.6-7.4c-25-4.1-49.9-9.9-73.7-17.3c-28.5-8.7-56.6-19.8-83.6-33
						c-10-4.9-18.7-9.5-26.7-14c-17.5-9.7-34.8-20.6-51.3-32.3c-78.4-55.4-141.8-130.6-183.2-217.5l0,0
						c-74.7-156.8-73.9-336,2.4-491.7c44.1-90.1,111.3-166.9,194.5-222c15.7-10.5,32.5-20.4,49.9-29.6c11.2-5.9,22.9-11.5,34.8-16.8
						c37-16.3,75.8-28.7,115.3-36.7c39.9-8.2,80.7-12,121.3-11.4c17.7,0.3,35.6,1.4,53.3,3.4c6.9,0.7,13.7,1.6,20,2.6
						c57.3,8.3,113.3,25.7,166.4,51.6c279.7,136.9,395.9,475.8,259,755.5c-89.7,183.3-272.1,304.3-476.1,315.8
						C1726.5,1765.5,1715.6,1765.8,1704.9,1765.8z M1706.7,671.6c-35.5,0-71.1,3.6-106.1,10.8c-37.1,7.6-73.5,19.2-108.1,34.4
						c-11.1,4.9-22.1,10.2-32.6,15.7c-16.3,8.6-32.1,17.9-46.8,27.8c-77.9,51.7-140.9,123.6-182.2,208
						c-71.4,145.9-72.2,313.8-2.2,460.7l0,0c38.8,81.4,98.2,151.8,171.6,203.7c15.5,11,31.8,21.1,48.2,30.3
						c7.5,4.2,15.7,8.5,25.1,13.2c25.2,12.3,51.6,22.8,78.3,30.9c22.4,6.9,45.6,12.3,69.1,16.2c27.5,4.5,55.7,6.8,83.8,6.9
						c10.1,0,20.3-0.3,30.4-0.8c191.1-10.8,362.1-124.1,446.1-295.8c128.3-262,19.4-579.6-242.6-707.8
						c-49.7-24.3-102.2-40.6-156-48.4c-5.9-0.9-12.1-1.7-18.5-2.4c-16.7-1.9-33.5-2.9-50-3.2
						C1711.7,671.6,1709.2,671.6,1706.7,671.6z"/>
				</g>
				<g>
					<path class="st1" d="M1288.7,1554.4c308.5,240.1,752,103.1,794.8-281.7c29.2-261.8-204.6-492.4-457.9-504.3
						c-184.3-8.7-368,63.5-459.6,345.9c0,0-21.3,131.3,10,221s76.8,171.7,76.8,171.7L1288.7,1554.4z"/>
				</g>
				<g class="st2">
					<path class="st7" d="M1978.8,947.5c33,68.7,48.6,145.5,39.7,225.2c-42.7,383.3-482.9,520.7-791.3,284.4
						c14.7,30.3,25.5,49.8,25.5,49.8l35.9,47.5c308.5,240.1,752,103.1,794.8-281.7C2097,1151.4,2054,1036.7,1978.8,947.5z"/>
				</g>
				<g>
					<path class="st1" d="M1626.9,1743.6c-27.2,0-54.6-1.9-82-5.7l-2.1-0.5c-28.3-8.6-56.3-19.7-83.1-32.8
						c-9.9-4.9-18.5-9.5-26.5-13.9c-17.4-9.7-34.5-20.5-51-32.1c-77.9-55-140.8-129.7-182-216c-74.2-155.7-73.4-333.7,2.3-488.3
						c43.8-89.5,110.5-165.7,193.1-220.4l1.2-0.8l1.3-0.5c67.1-26.7,144-38.2,228.6-34.2c150.7,7.1,301.9,83.1,404.6,203.5
						c94.4,110.6,138.1,245.1,123.2,378.9c-16.2,145.4-82.2,266.9-191,351.5C1870.4,1704.6,1750.9,1743.6,1626.9,1743.6z
						 M1549.8,1710.4c144.7,19.8,289.2-16.7,396.7-100.3c102.7-79.8,165-194.8,180.4-332.6c14-126-27.4-253.1-116.7-357.7
						c-97.8-114.6-241.6-187-384.7-193.7c-80-3.8-152.6,6.9-215.7,31.8c-77.9,52-140.9,124.1-182.3,208.7
						c-72,147-72.8,316.2-2.2,464.1l0,0c39.1,82,98.9,153,172.9,205.2c15.7,11,32,21.3,48.5,30.5c7.6,4.3,15.8,8.6,25.3,13.3
						C1497,1691.9,1523.2,1702.3,1549.8,1710.4z"/>
				</g>
				<g>
					<path class="st1" d="M1627.5,1691.5c-121.9,0-245.8-42.1-349.7-123.1l-1.9-1.4l-38.7-51.4c-1.9-3.4-46.6-84.4-78-174.5
						c-32.4-92.9-11.7-224.2-10.8-229.7l0.6-2.7c80.7-248.7,241.3-369.3,477.4-358.2c135.5,6.4,271.6,74.7,363.9,182.9
						c84.9,99.5,124.3,220.7,110.9,341.2c-19.4,173.9-120.2,311.5-276.6,377.5C1762,1678.6,1695.1,1691.5,1627.5,1691.5z
						 M1301.5,1541.8c151.2,116.7,346.1,146.4,509.3,77.5c144.1-60.8,237.1-187.9,255-348.6c12.3-110.6-24.1-222.2-102.6-314.1
						c-86-100.8-212.5-164.5-338.4-170.4c-217.6-10.3-366.1,101.5-441.4,332.2c-2,13.6-18.3,131.2,9.4,211
						c28.5,81.7,69.6,158,75,167.9L1301.5,1541.8z"/>
				</g>
				<g>
					<path class="st0" d="M2042.6,1277.2c0,0.8,0,1.6,0,2.4c2,106.7,66.1,189.3,144.1,184.9c78.5-4.4,141.3-95.5,140.3-203.4
						c-0.8-83.2-39.4-152.2-93.2-177.3c-15.8-7.5-33.1-11.1-50.9-10C2104.3,1078.2,2041.5,1169.3,2042.6,1277.2z"/>
				</g>
				<g class="st2">
					<path class="st1" d="M2042.6,1279.6c2,106.7,66.1,189.3,144.1,184.9c78.5-4.4,141.3-95.5,140.3-203.4
						c-0.2-18.1-2.1-35.5-5.7-51.9c-14.9-69.8-110.1-81.5-142.7-17.9l-35.1,68.4c0,0-19.9,45.8-64.7,45.8
						C2063.6,1305.5,2051.7,1294.3,2042.6,1279.6z"/>
				</g>
				<g>
					<path class="st1" d="M2180.6,1482.5c-32.7,0-63.8-12.9-90.2-37.7c-41.1-38.5-65-99.5-65.7-167.5
						c-1.1-117.1,69.4-216.4,157.1-221.3c35.3-2,68.9,11,97.3,37.5c41.1,38.5,65,99.5,65.7,167.5l0,0
						c1.1,117.1-69.4,216.4-157.1,221.3C2185.3,1482.4,2183,1482.5,2180.6,1482.5z M2188.8,1091.5c-1.6,0-3.3,0-4.9,0.1
						c-69.1,3.9-124.5,87.1-123.5,185.4c0.6,57.4,20.9,110.4,54.4,141.8c21,19.7,45.4,29.3,70.9,27.9
						c69.1-3.9,124.5-87.1,123.5-185.4l0,0c-0.6-57.4-20.9-110.4-54.4-141.8C2235.1,1101.1,2212.4,1091.5,2188.8,1091.5z"/>
				</g>
				<g>
					
						<ellipse transform="matrix(7.688810e-02 -0.997 0.997 7.688810e-02 780.394 3408.4482)" class="st0" cx="2230.9" cy="1282.8" rx="153" ry="115.8"/>
					<path class="st1" d="M2225.9,1437.4c-14.2,0-28.3-3.4-41.5-10c-59.6-30.2-87.4-119.5-61.9-199.1c14.1-44.3,42.2-78,77-92.6
						c25.7-10.8,53.4-9.8,77.9,2.6c59.6,30.2,87.4,119.5,61.9,199.1l0,0c-14.1,44.3-42.2,78-77,92.6
						C2250.5,1434.9,2238.2,1437.4,2225.9,1437.4z M2235.9,1131.7c-11.7,0-23.5,2.4-35,7.3c-33.8,14.2-61.1,47.1-74.9,90.3
						c-24.9,78,2,165.3,60.1,194.7c23.9,12.1,49.8,13,74.8,2.5c33.8-14.2,61.1-47.1,74.9-90.3l0,0c24.9-78-2-165.3-60.1-194.7
						C2262.9,1135,2249.5,1131.7,2235.9,1131.7z"/>
				</g>
				<g class="st2">
					<path class="st1" d="M2119.9,1345.7c-7.4-28.5-7.1-59-0.5-87.8c22.4,63.4,80.6,88.9,134.8,56.6c35.1-20.8,60.4-61,70.6-105.5
						c1.4,4,2.7,8.2,3.8,12.5c18.9,72.5-8,167-65.7,201.3C2205.3,1457.1,2138.8,1418.2,2119.9,1345.7z"/>
				</g>
				<g>
					<path class="st1" d="M2227.4,1458.2c-24.4,0-47.6-9.7-67.5-28.3c-33.3-31.1-53.4-84.1-53.8-142
						c-0.6-98.7,53.5-179.6,123.1-184.1c26.5-1.7,51.9,8,73.5,28.1c33.3,31.1,53.4,84.1,53.8,142c0.6,98.7-53.5,179.6-123.1,184.1
						C2231.4,1458.2,2229.4,1458.2,2227.4,1458.2z M2235.1,1139.4c-1.2,0-2.3,0-3.6,0.1c-49.1,3.2-90.2,71.1-89.8,148.3
						c0.3,48.2,16.1,91.6,42.4,116.1c9.9,9.2,26,20,46.9,18.6c49.1-3.2,90.2-71.1,89.8-148.3v0c-0.3-48.2-16.1-91.6-42.4-116.1
						C2269.1,1149.4,2254.2,1139.4,2235.1,1139.4z"/>
				</g>
				<g class="st8">
					<path class="st0" d="M1463.6,881.1c3.1-4.3-15.8,0.6-15.8,0.6l-13.5,1c0,0-23.9,2.8-35.7,5c-11.9,2.2-23.6,5-35.1,8.4
						c-13.8,4-26.4,11.7-35.8,22.6c-39.9,46.3-70.1,102.3-86.5,165.4c-32.9,126.8-7,223.6,60.9,316.8c0,0-12.7-67,13.1-199.6
						C1329.8,1127.1,1353.1,1037.1,1463.6,881.1z"/>
				</g>
				<g class="st8">
					
						<ellipse transform="matrix(7.688908e-02 -0.997 0.997 7.688908e-02 562.3041 2932.9854)" class="st0" cx="1865.1" cy="1162.8" rx="85.2" ry="73.1"/>
				</g>
				<g class="st8">
					
						<ellipse transform="matrix(0.1608 -0.987 0.987 0.1608 242.7083 2970.1277)" class="st0" cx="1867.9" cy="1342.3" rx="35.2" ry="30.2"/>
				</g>
			</g>
			<g>
				<path class="st0" d="M2038.4,1657.6c167.3-44.8,155-179.1,134.7-207.4c-28.3-39.4-146.3-24.1-189.2,65.3
					c-42,87.6-116.4,56.4-127.3,190.3c-9.7,120.2,28.2,158.6,62,182.8c30.6,21.9,170.6,59,245.1-15.5
					c119.4-119.3,98.7-339.9,98.7-339.9"/>
			</g>
			<g class="st2">
				<path class="st1" d="M2050.8,1657.8c0,0,7.5,70.9,43.2,69.5c35.7-1.4,61.6-141.7,61.6-141.7S2123.2,1640.5,2050.8,1657.8z"/>
			</g>
			<g class="st2">
				<path class="st1" d="M2163.8,1873.2c-74.5,74.5-214.5,37.3-245.1,15.5c-33.8-24.1-71.8-62.6-62.1-182.7c0.3-3.6,0.6-7,1-10.3
					c8.3,61.7,35.8,87.7,61,105.7c30.6,21.9,170.6,59,245.1-15.5c70.8-70.8,92.4-177.3,98.2-252.2l0.5-0.3
					C2262.5,1533.3,2283.1,1753.9,2163.8,1873.2z"/>
			</g>
			<g>
				<path class="st1" d="M2036.9,1651.8c28.6-17.4,55.8-31.7,78.3-51c11.1-9.7,21-20.4,29-32.2c7.9-11.9,14.3-24.8,18.1-38.7
					c3.9-13.8,5.2-28.5,3.9-42.6c-0.7-7-2.1-13.9-4.2-19.8c-1-2.8-2.3-5.6-3.2-6.8c-1.3-1.5-2.5-3.2-4.7-4.5
					c-3.9-2.9-9.6-5.3-15.9-6.7c-6.3-1.4-13.2-2-20.2-1.9c-14.1,0.2-28.6,3.3-42.3,8.3c-27.5,10.1-51.8,28.7-67.4,52.9
					c-1.8,3.1-3.9,6.1-5.5,9.3l-2.5,4.8l-3.2,5.9c-2.2,4-4.3,8.1-6.7,12l-7.9,11.4c-11.2,14.8-25.2,27.3-39,37.5
					c-13.8,10.3-26.7,18.9-36.4,29c-9.8,10-16.8,21.8-21.9,35.2c-2.1,7-4.7,13.8-5.9,21.3c-0.7,3.7-1.6,7.3-2.2,11.1l-1.4,11.5
					c-0.4,3.9-1,7.6-1.3,11.6l-0.7,11.9c-0.7,7.9-0.4,15.7-0.6,23.6c0.3,31.1,4.6,62.2,17.8,87.5c6.5,12.7,15.6,23.3,26.6,32.8
					c2.9,2.3,5.7,4.7,8.8,6.9c1.5,1.1,3.2,2.4,4.1,2.9c1,0.7,2.6,1.5,4,2.3c6,3.1,13,5.9,20.1,8.4c28.9,9.7,60.4,14.5,90.9,13.9
					c30.5-0.6,60.7-7.3,85.1-22.6c6-3.9,11.8-8.1,17-13l3.9-3.6l3.9-4.2c2.6-2.8,5.4-5.4,7.7-8.5c10.1-11.5,18.9-24.3,26.9-37.5
					c8-13.3,14.9-27.3,20.9-41.8c6-14.5,11.2-29.4,15.4-44.6c4.2-15.2,7.8-30.7,10.6-46.4c2.8-15.7,4.2-31.6,5.3-47.5
					c2.7-31.9,4-63.4,14.5-96.2l0.1-0.2c1.1-3.4,4.7-5.2,8-4.1c1.7,0.5,3,1.7,3.7,3.2c4.2,8.2,6.6,16.5,8.7,24.9
					c2,8.4,3.2,16.8,3.9,25.3c1.2,16.9,0.9,33.9-1.1,50.7c-2,16.8-5,33.5-8,50.2c-3,16.7-6.8,33.3-11.4,49.8
					c-4.6,16.4-10.2,32.7-16.8,48.6c-6.5,15.9-14.2,31.5-23.2,46.4c-9,14.9-18.9,29.3-30.5,42.5c-2.7,3.4-5.9,6.5-8.9,9.7l-4.5,4.8
					l-5.1,4.8c-6.8,6.4-14.4,11.9-22.2,16.9c-15.8,9.7-32.9,16.8-50.4,21.1c-17.5,4.5-35.2,6.5-52.8,6.9
					c-35.2,0.6-69.7-4.7-103.2-15.8c-8.4-2.9-16.7-6.1-25.3-10.6c-2.2-1.3-4.3-2.3-6.7-3.9c-2.5-1.6-4.2-2.9-5.9-4.2
					c-3.6-2.5-7.1-5.5-10.6-8.3c-13.9-11.9-26.6-26.7-35.1-43.3c-8.7-16.6-14-34.2-17.3-51.7c-3.5-17.5-4.2-34.9-4.6-52.2
					c0.2-8.6,0-17.2,0.7-25.7l0.8-12.8c0.2-4.2,0.9-8.6,1.4-12.9l1.6-13c0.7-4.3,1.7-8.7,2.6-13.1c1.4-8.7,4.5-17.4,7.3-26.1
					c6.5-17.3,16.5-34.3,29.9-47.8c13.2-13.6,28-23.2,40.5-32.6c12.6-9.4,23.3-19,32-30.5l6.2-8.9c1.9-3.1,3.5-6.4,5.3-9.6l2.7-4.9
					l3.2-6.1c2.1-4.1,4.6-8,7-11.9c20.1-31.1,50.8-54.4,85-67c17.2-6.2,35.2-10.2,54-10.5c9.4-0.1,19,0.6,28.7,2.8
					c9.7,2.2,19.7,5.8,29.1,12.7c4.7,3.2,9,7.8,12.7,12.7c3.9,5.5,5.7,10.3,7.6,15.2c3.4,9.6,5.1,19,6.2,28.3
					c1.9,18.6,0.6,37.2-3.7,55.3c-4.2,18.1-11.7,35.4-21.8,51c-10.3,15.5-23.3,28.9-37.8,39.8c-29,22-63.8,33.6-98.4,33.6
					c-3.4,0-6.1-2.8-6.1-6.1c0-2.2,1.2-4.2,2.9-5.3L2036.9,1651.8z"/>
			</g>
			<g>
				<path class="st1" d="M2103.1,1640.3c0.8,7,0.3,14.5-0.1,21.7c-0.5,7.2-1.5,14.4-2.3,21.7c-0.7,7.2-1.4,14.3-1.6,21.5
					c-0.2,7.2-0.1,14.1,2.5,20.8l0.2,0.5c0.4,1-0.1,2.2-1.1,2.6c-0.6,0.2-1.3,0.1-1.8-0.2c-1.7-1.2-3.8-2.4-5.3-3.9
					c-1.5-1.6-3.1-3.2-4.3-5c-1.2-1.8-2.4-3.6-3.5-5.5c-0.9-1.9-1.9-3.8-2.8-5.7c-3.3-7.7-5.6-15.7-7.2-23.6
					c-1.5-7.9-2.8-15.9-2.9-23.8c0-8,0.4-15.7,2.6-23.8c2.1-7.5,9.9-11.9,17.4-9.8c5.7,1.6,9.6,6.4,10.2,12L2103.1,1640.3z"/>
			</g>
			<g>
				<path class="st1" d="M1447.3,1736.1c5.1,1.4,10.7,2.7,16.2,3.9c5.5,1.2,11,2.3,16.5,3.3c11,1.9,22.1,3.3,32.6,3.2l0.5,0
					c4.9-0.1,9,3.9,9.1,8.8c0.1,4.2-2.7,7.7-6.6,8.7c-12.4,3.4-24.5,4.9-36.6,5.9c-6,0.5-12.1,0.9-18.1,1.1
					c-6.1,0.2-11.9,0.4-18.3,0.3l-0.2,0c-9.9-0.1-17.9-8.2-17.8-18.2c0.1-9.9,8.2-17.9,18.2-17.8
					C1444.3,1735.5,1445.9,1735.7,1447.3,1736.1z"/>
			</g>
		</g>
	</g>
</g>
</svg>
